<svg width="2048" height="2048" viewBox="0 0 2048 2048" fill="none" xmlns="http://www.w3.org/2000/svg">
<g clip-path="url(#clip0_1_40)">
<rect width="2048" height="2048" rx="550" fill="#D23B2C"/>
<rect width="2048" height="2048" rx="550" fill="url(#paint0_linear_1_40)" fill-opacity="0.2"/>
<path d="M1047.92 939.851C1032.7 938.141 1013.84 933.982 1003.85 930.132C961.475 913.808 941.19 878.813 941.19 822.041V808.833H994.556H1047.92L1047.96 812.204C1048.1 823.223 1050.59 841.169 1052.8 847.07C1056.31 856.45 1064.81 864.348 1074.39 867.13C1101.38 874.968 1122.93 855.315 1121.3 824.364C1120.42 807.772 1114.09 796.985 1098.81 786.097C1088.58 778.801 1076.62 772.971 1046.62 760.648C1016.97 748.469 1013.81 746.936 1000.1 738.051C974.94 721.739 957.775 698.715 950.991 672.174C943.867 644.304 945.998 602.9 955.961 575.627C970.854 534.859 1002.56 511.399 1053.44 503.501C1066.41 501.488 1106.86 501.503 1121.53 503.526C1147.76 507.143 1173.46 516.803 1187.17 528.196C1209.64 546.879 1221.93 576.501 1224.15 617.327L1224.96 632.341H1173.43H1121.9L1121.09 620.014C1119.12 589.896 1107.01 574.738 1086.12 576.236C1072.64 577.203 1063.19 583.908 1057.25 596.735C1055.17 601.241 1054.67 604.667 1054.69 614.569C1054.7 625.259 1055.12 627.722 1057.98 633.837C1061.73 641.869 1069.19 649.607 1080.17 656.836C1090.11 663.384 1100.76 668.417 1130.69 680.72C1159.8 692.688 1167.78 696.599 1181.53 705.639C1206.98 722.365 1224.67 746.253 1232.08 773.902C1235.87 788.048 1236.8 825.499 1233.8 843.402C1231.38 857.898 1225.28 875.914 1219.42 885.9C1213.36 896.241 1195.11 913.834 1183.92 920.124C1166.56 929.889 1142.47 937.039 1117.24 939.921C1104.36 941.393 1061.26 941.349 1047.92 939.851ZM475 722.425V509.777H530.82H586.64V722.425V935.074H530.82H475V722.425ZM617.311 722.414V509.754L679.541 510.072L741.771 510.389L777.481 640.614C797.122 712.237 813.56 771.205 814.01 771.655C814.46 772.105 814.828 713.366 814.828 641.125V509.777H866.968H919.107V722.437V935.097L858.094 934.779L797.08 934.461L760.048 803.52C739.681 731.502 722.696 672.258 722.303 671.866C721.911 671.474 721.59 730.535 721.59 803.114V935.074H669.45H617.311V722.414ZM1230.32 917.609C1232.61 908.003 1255.62 812.449 1281.43 705.266L1328.37 510.389L1398.54 510.073C1437.14 509.899 1468.72 510.095 1468.72 510.509C1468.72 511.272 1562.85 895.861 1569.26 921.286L1572.73 935.074H1513.62H1454.5L1449.25 900.45C1446.37 881.407 1443.71 864.585 1443.35 863.068L1442.69 860.31H1398.05C1365.45 860.31 1353.4 860.687 1353.4 861.707C1353.4 863.348 1343.83 926.758 1342.84 931.704L1342.16 935.074H1284.15H1226.14L1230.32 917.609ZM1429.49 776.66C1429.52 774.587 1399.68 597.545 1399.18 596.899C1398.97 596.618 1398.47 596.713 1398.07 597.109C1397.56 597.618 1366.96 775.079 1366.9 777.886C1366.9 778.054 1380.97 778.192 1398.18 778.192C1422.37 778.192 1429.47 777.845 1429.49 776.66ZM1535.68 670.637C1515.5 585.197 1498.73 514.051 1498.43 512.534L1497.88 509.777H1535.44H1573V667.884C1573 754.844 1572.86 825.99 1572.69 825.987C1572.52 825.985 1555.87 756.076 1535.68 670.637Z" fill="white"/>
<path d="M198.961 1540V1088.3H320.181L440.763 1306.49L560.069 1088.3H676.823V1540H585.589V1210.15L457.351 1439.2H420.347L290.195 1210.15V1540H198.961ZM772.788 1540V1088.3H1098.17V1173.15H864.022V1275.23H1064.99V1356.89H864.022V1455.78H1098.17V1540H772.788ZM1169.05 1540V1088.3H1494.43V1173.15H1260.28V1275.23H1461.25V1356.89H1260.28V1455.78H1494.43V1540H1169.05ZM1661 1540V1173.15H1523.2V1088.3H1891.32V1173.15H1752.88V1540H1661Z" fill="white"/>
</g>
<defs>
<linearGradient id="paint0_linear_1_40" x1="2048" y1="2048" x2="0" y2="0" gradientUnits="userSpaceOnUse">
<stop stop-color="white"/>
<stop offset="1" stop-color="white" stop-opacity="0"/>
</linearGradient>
<clipPath id="clip0_1_40">
<rect width="2048" height="2048" rx="80" fill="white"/>
</clipPath>
</defs>
</svg>
