<svg width="1000" height="563" viewBox="0 0 1000 563" fill="none" xmlns="http://www.w3.org/2000/svg">
<rect width="1000" height="563" fill="#D23B2C"/>
<rect width="1000" height="563" fill="url(#paint0_linear_39_461)" fill-opacity="0.2"/>
<g clip-path="url(#clip0_39_461)">
<path d="M409.572 307.448L411.496 308.276C410.797 308.128 410.113 307.912 409.456 307.629L407.531 306.801C408.188 307.083 408.872 307.3 409.572 307.448Z" fill="white"/>
<path d="M411.496 308.448C411.484 308.448 411.472 308.446 411.461 308.444C410.75 308.293 410.056 308.073 409.389 307.787L407.465 306.959H407.464C407.443 306.95 407.424 306.938 407.409 306.922C407.393 306.905 407.381 306.887 407.372 306.866C407.356 306.824 407.356 306.777 407.374 306.735C407.392 306.693 407.426 306.661 407.468 306.644C407.51 306.627 407.557 306.628 407.599 306.646C408.246 306.923 408.918 307.137 409.607 307.283C409.618 307.285 409.629 307.288 409.639 307.293L411.564 308.121C411.6 308.136 411.63 308.164 411.648 308.199C411.666 308.234 411.672 308.274 411.664 308.313C411.656 308.351 411.635 308.386 411.604 308.41C411.573 308.435 411.535 308.449 411.496 308.448L411.496 308.448Z" fill="#111111"/>
<path d="M586.658 345.069L588.582 345.897L411.496 308.276L409.571 307.448L586.658 345.069Z" fill="#111111"/>
<path d="M588.583 346.068C588.571 346.068 588.559 346.066 588.547 346.064L411.461 308.443C411.45 308.441 411.439 308.438 411.429 308.433L409.504 307.605C409.464 307.589 409.432 307.558 409.414 307.52C409.396 307.481 409.393 307.437 409.406 307.396C409.419 307.355 409.447 307.321 409.484 307.3C409.521 307.278 409.565 307.272 409.606 307.281L586.693 344.901C586.704 344.904 586.714 344.907 586.725 344.912L588.649 345.74C588.685 345.755 588.715 345.783 588.733 345.817C588.751 345.852 588.757 345.892 588.749 345.931C588.741 345.969 588.72 346.004 588.69 346.028C588.659 346.053 588.621 346.067 588.582 346.067L588.583 346.068ZM411.548 308.113L586.927 345.371L586.606 345.233L411.227 307.975L411.548 308.113Z" fill="#111111"/>
<path d="M627.841 199.51L625.916 198.682C631.173 200.943 634.024 207.148 632.408 213.535L601.767 334.591C599.952 341.763 593.189 346.456 586.658 345.069L588.583 345.897C595.114 347.284 601.877 342.591 603.692 335.42L634.333 214.362C635.949 207.976 633.097 201.771 627.841 199.51Z" fill="#A01E11"/>
<path d="M590.89 346.31C590.102 346.31 589.317 346.227 588.547 346.064C588.536 346.062 588.525 346.058 588.515 346.054L586.59 345.226C586.55 345.209 586.518 345.179 586.5 345.14C586.482 345.101 586.479 345.057 586.492 345.017C586.505 344.976 586.533 344.941 586.57 344.92C586.607 344.899 586.651 344.892 586.692 344.901C593.122 346.267 599.81 341.624 601.6 334.549L632.241 213.492C633.815 207.272 631.126 201.109 625.847 198.838C625.826 198.83 625.807 198.817 625.791 198.801C625.775 198.785 625.762 198.766 625.754 198.745C625.745 198.724 625.741 198.701 625.741 198.679C625.741 198.656 625.746 198.634 625.755 198.613C625.764 198.592 625.777 198.573 625.793 198.557C625.809 198.542 625.829 198.529 625.85 198.521C625.871 198.513 625.894 198.509 625.916 198.509C625.939 198.51 625.961 198.515 625.982 198.525L627.907 199.352C633.341 201.69 636.113 208.02 634.497 214.404L603.856 335.461C602.239 341.855 596.706 346.31 590.89 346.31ZM588.635 345.733C595.06 347.088 601.738 342.446 603.527 335.378L634.167 214.321C635.675 208.363 633.272 202.459 628.428 199.975C632.207 202.935 633.925 208.236 632.573 213.576L601.933 334.633C600.314 341.027 594.781 345.481 588.965 345.482C588.625 345.482 588.283 345.466 587.941 345.435L588.635 345.733Z" fill="#111111"/>
<path d="M623.873 198.034C630.403 199.421 634.222 206.363 632.407 213.534L601.767 334.591C599.951 341.763 593.188 346.455 586.657 345.068L409.571 307.448C403.044 306.062 399.225 299.12 401.041 291.948L431.681 170.891C433.496 163.72 440.259 159.027 446.787 160.413L623.873 198.034Z" fill="#F4B6B0"/>
<path d="M588.965 345.482C588.177 345.482 587.392 345.4 586.622 345.236L409.536 307.615C408.057 307.297 406.658 306.681 405.425 305.806C404.191 304.93 403.149 303.812 402.362 302.521C400.476 299.493 399.934 295.624 400.875 291.907L431.516 170.85C433.351 163.6 440.217 158.844 446.822 160.247L623.909 197.867C625.388 198.185 626.788 198.801 628.022 199.678C629.256 200.554 630.298 201.672 631.086 202.964C632.972 205.991 633.514 209.859 632.572 213.576L601.931 334.633C600.314 341.027 594.781 345.482 588.965 345.482ZM444.479 160.342C438.817 160.342 433.427 164.692 431.847 170.934L401.207 291.991C400.288 295.619 400.815 299.392 402.652 302.341C403.415 303.593 404.425 304.677 405.621 305.527C406.817 306.376 408.173 306.974 409.607 307.282L586.693 344.903C593.123 346.269 599.81 341.625 601.601 334.55L632.242 213.494C633.16 209.866 632.633 206.094 630.796 203.145C630.032 201.892 629.022 200.808 627.826 199.958C626.629 199.108 625.272 198.511 623.838 198.202L446.751 160.58C446.004 160.422 445.242 160.342 444.479 160.342Z" fill="#111111"/>
<path d="M621.405 202.715L446.761 165.613C442.234 164.651 437.541 167.905 436.283 172.875L406.127 292.022C404.867 296.996 407.519 301.806 412.046 302.768L586.69 339.87C591.214 340.83 595.905 337.581 597.164 332.606L627.321 213.46C628.579 208.489 625.929 203.676 621.405 202.715Z" fill="white"/>
<path d="M588.289 340.208C587.739 340.208 587.192 340.151 586.654 340.037L412.01 302.935C410.977 302.713 409.999 302.283 409.138 301.671C408.276 301.059 407.548 300.278 406.997 299.376C405.682 297.265 405.305 294.57 405.961 291.98L436.117 172.834C437.396 167.781 442.187 164.467 446.796 165.446L621.44 202.547C622.473 202.77 623.449 203.2 624.31 203.811C625.171 204.423 625.899 205.203 626.448 206.105C627.763 208.216 628.142 210.912 627.486 213.502L597.33 332.648C596.202 337.104 592.344 340.208 588.289 340.208ZM445.158 165.616C441.254 165.616 437.538 168.615 436.449 172.918L406.292 292.064C405.659 294.564 406.022 297.163 407.287 299.195C407.813 300.058 408.51 300.805 409.334 301.391C410.158 301.976 411.093 302.388 412.081 302.601L586.725 339.703C591.156 340.644 595.764 337.441 596.998 332.564L627.155 213.418C627.787 210.918 627.425 208.318 626.158 206.285C625.633 205.423 624.937 204.676 624.114 204.091C623.291 203.506 622.357 203.094 621.369 202.881L446.725 165.78C446.21 165.671 445.685 165.616 445.158 165.616Z" fill="#111111"/>
<path d="M533.491 186.495C532.427 186.269 531.326 187.035 531.03 188.205C530.734 189.375 531.354 190.503 532.42 190.729C533.485 190.955 534.588 190.194 534.884 189.024C535.18 187.854 534.556 186.721 533.491 186.495Z" fill="#111111"/>
<path d="M532.796 190.939C532.46 190.94 532.129 190.854 531.836 190.69C531.543 190.526 531.297 190.289 531.122 190.002C530.958 189.729 530.851 189.425 530.806 189.109C530.762 188.793 530.781 188.472 530.864 188.163C531.182 186.907 532.376 186.084 533.526 186.328C533.786 186.384 534.032 186.492 534.249 186.646C534.466 186.8 534.65 186.997 534.788 187.224C534.953 187.498 535.06 187.802 535.105 188.118C535.15 188.435 535.13 188.757 535.048 189.066C534.769 190.171 533.808 190.939 532.796 190.939ZM533.115 186.626C532.256 186.626 531.437 187.292 531.196 188.247C531.125 188.511 531.107 188.786 531.145 189.056C531.182 189.327 531.273 189.587 531.413 189.822C531.527 190.009 531.678 190.172 531.857 190.299C532.036 190.426 532.24 190.516 532.454 190.562C533.429 190.769 534.444 190.06 534.717 188.982C534.788 188.718 534.806 188.442 534.768 188.171C534.73 187.9 534.639 187.639 534.499 187.404C534.384 187.216 534.233 187.054 534.053 186.926C533.874 186.798 533.67 186.709 533.455 186.662C533.343 186.638 533.229 186.626 533.115 186.626Z" fill="#111111"/>
<path d="M593.107 350.751L533.816 379.844C530.302 381.568 522.164 381.842 515.637 380.455L338.55 342.835C333.971 341.862 331.401 340.332 331.486 338.908L331.218 343.398C331.132 344.82 333.703 346.351 338.282 347.324L515.368 384.945C521.896 386.332 530.034 386.058 533.548 384.334L592.839 355.241C593.889 354.726 594.407 354.139 594.443 353.534L594.712 349.044C594.675 349.65 594.157 350.236 593.107 350.751Z" fill="#A01E11"/>
<path d="M524.156 385.996C521.192 386.002 518.236 385.706 515.333 385.112L338.247 347.491C333.644 346.513 330.952 344.979 331.047 343.388L331.316 338.899C331.318 338.853 331.339 338.811 331.373 338.781C331.407 338.751 331.451 338.736 331.496 338.738C331.542 338.741 331.584 338.761 331.614 338.795C331.644 338.829 331.66 338.874 331.657 338.919C331.576 340.285 334.295 341.756 338.586 342.667L515.673 380.288C522.157 381.666 530.263 381.398 533.742 379.69L593.032 350.598C593.987 350.129 594.509 349.588 594.542 349.033C594.543 349.01 594.549 348.988 594.559 348.968C594.568 348.948 594.582 348.93 594.599 348.915C594.616 348.9 594.635 348.889 594.657 348.881C594.678 348.874 594.7 348.871 594.723 348.872C594.745 348.874 594.767 348.879 594.787 348.889C594.807 348.899 594.826 348.913 594.84 348.929C594.855 348.946 594.867 348.966 594.874 348.987C594.882 349.008 594.885 349.031 594.883 349.053L594.615 353.543C594.574 354.238 594.002 354.861 592.915 355.394L533.625 384.487C531.6 385.48 528.049 385.996 524.156 385.996ZM331.6 339.865L331.388 343.409C331.307 344.774 334.027 346.245 338.318 347.157L515.404 384.778C521.888 386.155 529.994 385.887 533.473 384.18L592.764 355.087C593.718 354.619 594.24 354.078 594.273 353.522L594.485 349.971C594.118 350.367 593.675 350.684 593.182 350.904L533.892 379.997C530.354 381.733 522.149 382.013 515.601 380.622L338.515 343.002C334.854 342.224 332.402 341.095 331.6 339.865Z" fill="#111111"/>
<path d="M587.651 345.119C594.178 346.506 596.622 349.027 593.107 350.751L533.817 379.844C530.302 381.568 522.164 381.842 515.637 380.455L338.551 342.835C332.02 341.447 329.576 338.925 333.091 337.201L392.381 308.109C395.896 306.385 404.034 306.111 410.565 307.498L587.651 345.119Z" fill="#F4B6B0"/>
<path d="M524.425 381.507C521.462 381.513 518.505 381.217 515.602 380.622L338.515 343.002C334.198 342.085 331.51 340.642 331.325 339.144C331.257 338.6 331.495 337.795 333.016 337.048L392.306 307.956C395.843 306.22 404.05 305.94 410.601 307.331L587.687 344.952C592.001 345.869 594.688 347.311 594.875 348.81C594.942 349.354 594.704 350.159 593.183 350.906L533.892 379.998C531.869 380.99 528.318 381.507 524.425 381.507ZM401.754 306.784C397.923 306.784 394.439 307.289 392.457 308.262L333.166 337.355C332.427 337.718 331.565 338.315 331.663 339.101C331.828 340.429 334.481 341.796 338.587 342.668L515.673 380.288C522.157 381.666 530.263 381.398 533.742 379.691L593.032 350.598C593.772 350.235 594.633 349.637 594.535 348.851C594.37 347.524 591.719 346.158 587.615 345.286L410.53 307.665C407.642 307.074 404.701 306.779 401.754 306.784Z" fill="#111111"/>
<path d="M568.915 345.309L417.438 313.129C415.427 312.702 412.919 312.786 411.837 313.316L380.714 328.589C379.632 329.12 380.387 329.896 382.397 330.323L533.875 362.503C535.885 362.93 538.388 362.846 539.47 362.315L570.594 347.043C571.676 346.512 570.926 345.736 568.916 345.309" fill="white"/>
<path d="M536.573 362.944C535.655 362.946 534.739 362.854 533.84 362.671L382.362 330.49C380.959 330.192 380.118 329.722 380.053 329.2C380.027 328.996 380.108 328.696 380.638 328.435L411.762 313.163C412.873 312.619 415.435 312.528 417.474 312.962L568.951 345.142C570.352 345.439 571.191 345.909 571.256 346.43C571.281 346.636 571.2 346.936 570.669 347.197L539.545 362.468C538.908 362.781 537.793 362.944 536.573 362.944ZM414.717 313.025C413.559 313.025 412.509 313.177 411.913 313.469L380.789 328.742C380.631 328.819 380.369 328.977 380.392 329.158C380.428 329.447 381.073 329.867 382.433 330.156L533.91 362.336C535.884 362.755 538.344 362.678 539.395 362.162L570.518 346.89C570.677 346.812 570.94 346.655 570.917 346.472C570.881 346.184 570.238 345.764 568.88 345.476L417.403 313.296C416.52 313.115 415.62 313.024 414.717 313.025Z" fill="#111111"/>
<path d="M482.528 353.405L428.591 341.947C426.268 341.453 423.37 341.55 422.118 342.165L404.112 351C402.862 351.613 403.732 352.511 406.055 353.005L459.992 364.463C462.315 364.957 465.213 364.859 466.464 364.246L484.469 355.411C485.722 354.796 484.851 353.899 482.528 353.405" fill="white"/>
<path d="M463.114 364.946C462.053 364.949 460.995 364.843 459.955 364.63L406.019 353.172C404.411 352.83 403.447 352.295 403.374 351.704C403.345 351.475 403.437 351.14 404.036 350.846L422.042 342.011C423.321 341.384 426.274 341.279 428.626 341.779L482.562 353.238C484.169 353.58 485.133 354.114 485.207 354.705C485.235 354.935 485.143 355.27 484.543 355.564L466.537 364.399C465.805 364.759 464.52 364.946 463.114 364.946ZM425.45 341.802C424.105 341.802 422.885 341.978 422.192 342.318L404.186 351.153C403.997 351.246 403.685 351.436 403.713 351.662C403.755 352.005 404.507 352.501 406.09 352.838L460.026 364.296C462.315 364.782 465.167 364.691 466.387 364.093L484.393 355.258C484.583 355.165 484.897 354.975 484.868 354.747C484.826 354.405 484.074 353.908 482.491 353.572L428.555 342.114C427.533 341.904 426.493 341.8 425.45 341.802Z" fill="#111111"/>
</g>
<defs>
<linearGradient id="paint0_linear_39_461" x1="1000" y1="563" x2="518.639" y2="-291.994" gradientUnits="userSpaceOnUse">
<stop stop-color="white"/>
<stop offset="1" stop-color="white" stop-opacity="0"/>
</linearGradient>
<clipPath id="clip0_39_461">
<rect width="304" height="226" fill="white" transform="translate(331 160)"/>
</clipPath>
</defs>
</svg>
