<svg width="1000" height="563" viewBox="0 0 1000 563" fill="none" xmlns="http://www.w3.org/2000/svg">
<rect width="1000" height="563" fill="#FE943E"/>
<rect width="1000" height="563" fill="url(#paint0_linear_32_2676)" fill-opacity="0.3"/>
<g clip-path="url(#clip0_32_2676)">
<path d="M606.821 157.369C610.217 157.904 612.026 160.908 610.851 164.077L518.866 412.174C517.691 415.343 513.978 417.476 510.582 416.941L379.531 396.276C376.135 395.741 374.335 392.738 375.51 389.569L467.494 141.473C468.669 138.303 472.374 136.169 475.77 136.704L606.821 157.369Z" fill="white"/>
<path d="M511.639 417.187C511.276 417.188 510.914 417.16 510.556 417.103L379.504 396.439C377.796 396.17 376.425 395.29 375.644 393.962C374.876 392.658 374.773 391.077 375.354 389.512L467.338 141.416C468.537 138.182 472.331 135.995 475.795 136.542L606.846 157.206C608.557 157.475 609.93 158.357 610.714 159.688C611.481 160.992 611.585 162.571 611.005 164.134L519.021 412.231C517.946 415.13 514.782 417.187 511.639 417.187ZM474.708 136.787C471.703 136.787 468.677 138.755 467.649 141.53L375.665 389.626C375.12 391.098 375.214 392.578 375.93 393.796C376.661 395.037 377.949 395.86 379.557 396.114L510.608 416.778C513.929 417.301 517.563 415.21 518.711 412.117L610.694 164.02C611.239 162.551 611.144 161.072 610.428 159.855C609.695 158.611 608.405 157.785 606.794 157.531L475.743 136.867C475.401 136.814 475.055 136.787 474.708 136.787Z" fill="#111111"/>
<path d="M608.45 152.974C614.446 153.92 617.624 159.223 615.55 164.818L523.566 412.915C521.494 418.503 514.951 422.273 508.956 421.327L377.904 400.663C371.908 399.718 368.73 394.415 370.801 388.826L462.785 140.73C464.86 135.135 471.402 131.365 477.398 132.31L608.45 152.974ZM518.866 412.174L610.85 164.077C612.026 160.908 610.217 157.904 606.821 157.369L475.769 136.704C472.373 136.169 468.669 138.304 467.494 141.473L375.509 389.569C374.334 392.739 376.134 395.741 379.53 396.276L510.582 416.941C513.978 417.476 517.691 415.343 518.866 412.174Z" fill="#FFDBBD"/>
<path d="M510.821 421.637C510.188 421.637 509.555 421.588 508.93 421.49L377.878 400.826C374.901 400.356 372.512 398.824 371.15 396.511C369.815 394.243 369.636 391.493 370.646 388.769L462.63 140.673C464.728 135.017 471.364 131.192 477.425 132.147L608.476 152.811C611.453 153.281 613.842 154.813 615.203 157.125C616.539 159.394 616.717 162.147 615.706 164.875L523.722 412.972C521.843 418.04 516.313 421.637 510.821 421.637ZM475.529 132.33C470.17 132.33 464.775 135.84 462.941 140.787L370.957 388.884C369.982 391.513 370.152 394.163 371.437 396.345C372.747 398.57 375.053 400.046 377.931 400.499L508.983 421.164C514.894 422.096 521.368 418.369 523.412 412.857L615.395 164.761C616.372 162.127 616.202 159.474 614.917 157.291C613.607 155.066 611.301 153.591 608.425 153.137L477.373 132.473C476.763 132.377 476.146 132.329 475.529 132.33ZM511.64 417.187C511.277 417.188 510.915 417.16 510.557 417.103L379.505 396.439C377.797 396.17 376.426 395.29 375.644 393.962C374.877 392.658 374.774 391.077 375.355 389.512L467.339 141.416C468.538 138.182 472.331 135.995 475.795 136.542L606.847 157.206C608.557 157.475 609.931 158.357 610.714 159.688C611.482 160.992 611.585 162.571 611.006 164.134L519.022 412.231C517.947 415.13 514.782 417.187 511.64 417.187ZM474.709 136.787C471.704 136.787 468.678 138.756 467.649 141.53L375.666 389.626C375.121 391.098 375.215 392.578 375.931 393.796C376.662 395.037 377.949 395.86 379.558 396.113L510.609 416.778C513.93 417.301 517.564 415.21 518.712 412.116L610.695 164.02C611.24 162.551 611.145 161.072 610.428 159.855C609.696 158.61 608.406 157.785 606.795 157.531L475.744 136.867C475.401 136.814 475.056 136.787 474.709 136.787Z" fill="#111111"/>
<path d="M556.119 154.184C558.677 154.588 560.044 156.869 559.157 159.264C558.275 161.643 555.457 163.273 552.899 162.87L519.889 157.665C517.331 157.262 515.958 154.971 516.84 152.592C517.728 150.197 520.551 148.576 523.109 148.979L556.119 154.184Z" fill="#FFDBBD"/>
<path d="M553.695 163.097C553.42 163.097 553.145 163.076 552.873 163.033L519.863 157.828C518.564 157.623 517.517 156.948 516.915 155.926C516.326 154.925 516.244 153.721 516.683 152.535C517.598 150.068 520.492 148.4 523.134 148.816L556.144 154.021C557.442 154.226 558.486 154.899 559.085 155.916C559.674 156.917 559.755 158.126 559.311 159.321C558.494 161.529 556.086 163.096 553.695 163.097ZM522.305 149.082C520.044 149.082 517.768 150.562 516.995 152.649C516.59 153.741 516.664 154.845 517.201 155.759C517.752 156.694 518.715 157.313 519.914 157.502L552.925 162.707C555.415 163.1 558.141 161.53 559.002 159.207C559.41 158.106 559.339 156.997 558.801 156.083C558.253 155.152 557.292 154.536 556.094 154.347L523.082 149.142C522.825 149.102 522.565 149.082 522.305 149.082Z" fill="#111111"/>
<path d="M620.838 167.801L615.191 157.439C616.334 159.536 616.543 162.144 615.551 164.818L523.566 412.915C521.494 418.502 514.952 422.273 508.956 421.327L377.904 400.663C374.773 400.169 372.41 398.487 371.162 396.197L376.809 406.56C378.057 408.85 380.42 410.532 383.551 411.026L514.604 431.69C520.6 432.635 527.143 428.865 529.214 423.277L621.198 175.181C622.189 172.507 621.981 169.898 620.838 167.801Z" fill="#8E4600"/>
<path d="M516.468 431.999C515.835 432 515.202 431.951 514.577 431.853L383.525 411.189C380.478 410.708 377.978 409.05 376.664 406.638L371.016 396.276C371.006 396.257 370.999 396.236 370.997 396.214C370.995 396.193 370.997 396.171 371.003 396.15C371.009 396.129 371.019 396.11 371.033 396.093C371.047 396.076 371.064 396.062 371.083 396.052C371.102 396.042 371.123 396.035 371.144 396.033C371.166 396.031 371.188 396.033 371.209 396.039C371.23 396.045 371.249 396.055 371.266 396.069C371.283 396.083 371.297 396.099 371.307 396.118C372.572 398.439 374.986 400.036 377.929 400.5L508.981 421.164C514.893 422.096 521.366 418.37 523.41 412.857L615.394 164.761C616.334 162.228 616.21 159.655 615.044 157.518C615.023 157.479 615.019 157.434 615.031 157.392C615.044 157.35 615.072 157.315 615.111 157.294C615.15 157.273 615.195 157.268 615.237 157.281C615.279 157.293 615.315 157.322 615.336 157.36L620.982 167.723C622.194 169.945 622.325 172.614 621.352 175.238L529.369 423.334C527.489 428.403 521.96 431.999 516.468 431.999ZM372.408 398.139L376.955 406.481C378.219 408.801 380.633 410.398 383.577 410.862L514.629 431.527C520.541 432.459 527.014 428.732 529.058 423.22L621.042 175.124C621.981 172.59 621.857 170.018 620.692 167.88L616.152 159.549C616.518 161.33 616.362 163.179 615.704 164.875L523.721 412.972C521.625 418.625 514.99 422.445 508.929 421.49L377.878 400.826C375.696 400.482 373.794 399.534 372.408 398.139Z" fill="#111111"/>
<path d="M444.548 414.215L430.608 412.017C428.754 411.724 427.698 412.316 428.255 413.338C428.812 414.359 430.772 415.427 432.627 415.719L446.566 417.917C448.421 418.21 449.476 417.617 448.919 416.596C448.363 415.575 446.403 414.507 444.548 414.215" fill="#111111"/>
<path d="M447.445 418.156C447.141 418.154 446.839 418.129 446.539 418.08L432.6 415.882C430.701 415.583 428.687 414.477 428.109 413.416C427.831 412.905 427.946 412.553 428.092 412.347C428.45 411.844 429.401 411.659 430.634 411.854L444.573 414.052C446.471 414.351 448.486 415.457 449.063 416.517C449.342 417.028 449.226 417.381 449.08 417.587C448.816 417.958 448.23 418.156 447.445 418.156ZM429.717 412.107C429.054 412.107 428.563 412.257 428.363 412.538C428.23 412.726 428.242 412.969 428.4 413.259C428.935 414.241 430.843 415.27 432.652 415.556L446.591 417.754C447.681 417.926 448.531 417.789 448.81 417.396C448.944 417.208 448.932 416.965 448.773 416.675C448.238 415.693 446.331 414.663 444.522 414.378L430.583 412.18C430.296 412.133 430.007 412.108 429.717 412.107Z" fill="#111111"/>
<path d="M413.177 409.66C411.754 409.436 410.941 409.891 411.369 410.675C411.798 411.463 413.306 412.285 414.731 412.509C416.162 412.735 416.973 412.279 416.544 411.491C416.117 410.708 414.609 409.886 413.178 409.661" fill="#111111"/>
<path d="M415.421 412.733C415.18 412.731 414.941 412.711 414.703 412.672C413.21 412.437 411.681 411.594 411.223 410.754C411.049 410.435 411.045 410.129 411.213 409.893C411.497 409.494 412.24 409.346 413.202 409.498C414.701 409.734 416.232 410.575 416.688 411.412C416.863 411.734 416.867 412.041 416.699 412.277C416.487 412.576 416.036 412.733 415.421 412.733ZM412.501 409.769C412.004 409.769 411.628 409.879 411.483 410.084C411.39 410.216 411.401 410.388 411.514 410.596C411.914 411.331 413.399 412.133 414.755 412.347C415.568 412.475 416.225 412.373 416.428 412.087C416.523 411.955 416.511 411.78 416.397 411.57C415.998 410.837 414.511 410.038 413.15 409.823C412.936 409.788 412.719 409.77 412.501 409.769Z" fill="#111111"/>
<path d="M405.513 408.452C404.09 408.227 403.277 408.683 403.705 409.467C404.134 410.255 405.642 411.077 407.066 411.301C408.497 411.527 409.309 411.07 408.879 410.282C408.452 409.499 406.944 408.677 405.513 408.452" fill="#111111"/>
<path d="M407.757 411.525C407.516 411.523 407.276 411.503 407.039 411.464C405.545 411.228 404.017 410.386 403.559 409.545C403.385 409.226 403.381 408.921 403.549 408.685C403.833 408.285 404.576 408.137 405.538 408.289C407.037 408.525 408.569 409.366 409.024 410.204C409.199 410.525 409.203 410.832 409.035 411.069C408.823 411.368 408.372 411.525 407.757 411.525ZM404.837 408.56C404.34 408.56 403.964 408.671 403.819 408.875C403.726 409.007 403.737 409.179 403.85 409.388C404.25 410.123 405.735 410.924 407.091 411.138C407.904 411.267 408.561 411.164 408.765 410.878C408.858 410.746 408.847 410.572 408.733 410.361C408.334 409.629 406.847 408.829 405.486 408.615C405.272 408.58 405.055 408.562 404.837 408.56Z" fill="#111111"/>
<path d="M397.848 407.243C396.417 407.018 395.613 407.474 396.04 408.258C396.47 409.046 397.97 409.867 399.401 410.093C400.833 410.318 401.644 409.862 401.215 409.074C400.788 408.291 399.28 407.469 397.848 407.244" fill="#111111"/>
<path d="M400.093 410.316C399.853 410.314 399.613 410.294 399.376 410.255C397.882 410.02 396.353 409.177 395.895 408.337C395.721 408.017 395.717 407.71 395.885 407.474C396.172 407.07 396.897 406.926 397.875 407.08C399.373 407.317 400.905 408.158 401.361 408.995C401.536 409.316 401.54 409.623 401.372 409.86C401.159 410.159 400.708 410.316 400.093 410.316ZM397.17 407.352C396.673 407.352 396.3 407.461 396.155 407.665C396.062 407.797 396.072 407.97 396.186 408.18C396.594 408.927 398.048 409.713 399.428 409.93C400.241 410.058 400.898 409.956 401.101 409.67C401.195 409.538 401.184 409.364 401.07 409.153C400.671 408.421 399.184 407.621 397.824 407.407C397.608 407.371 397.389 407.353 397.17 407.352Z" fill="#111111"/>
<path d="M477.775 419.846C476.344 419.62 475.532 420.077 475.958 420.859C476.388 421.648 477.896 422.47 479.328 422.695C480.759 422.921 481.563 422.463 481.133 421.675C480.706 420.892 479.206 420.072 477.775 419.845" fill="#111111"/>
<path d="M480.017 422.919C479.778 422.917 479.539 422.897 479.302 422.858C477.804 422.622 476.272 421.779 475.814 420.938C475.64 420.62 475.636 420.314 475.804 420.078C476.092 419.673 476.82 419.528 477.801 419.683C479.295 419.918 480.823 420.759 481.279 421.596C481.455 421.919 481.459 422.227 481.29 422.464C481.079 422.762 480.63 422.919 480.017 422.919ZM477.094 419.954C476.595 419.954 476.219 420.065 476.074 420.269C475.981 420.401 475.991 420.573 476.105 420.781C476.512 421.528 477.97 422.314 479.354 422.532C480.164 422.66 480.818 422.559 481.02 422.274C481.114 422.141 481.103 421.966 480.988 421.754C480.582 421.009 479.129 420.227 477.75 420.009C477.533 419.974 477.314 419.955 477.094 419.954Z" fill="#111111"/>
<path d="M485.439 421.055C484.008 420.829 483.204 421.285 483.631 422.069C484.061 422.857 485.561 423.678 486.993 423.904C488.425 424.129 489.236 423.673 488.806 422.885C488.38 422.102 486.871 421.28 485.44 421.055" fill="#111111"/>
<path d="M487.684 424.127C487.444 424.126 487.204 424.105 486.967 424.067C485.473 423.831 483.944 422.988 483.486 422.148C483.312 421.828 483.308 421.521 483.476 421.286C483.763 420.881 484.488 420.738 485.466 420.892C486.964 421.128 488.495 421.969 488.952 422.807C489.126 423.128 489.13 423.435 488.962 423.671C488.75 423.97 488.299 424.127 487.684 424.127ZM484.761 421.163C484.264 421.163 483.89 421.273 483.746 421.476C483.652 421.608 483.663 421.781 483.777 421.991C484.185 422.739 485.639 423.524 487.018 423.741C487.832 423.87 488.489 423.768 488.692 423.482C488.786 423.35 488.775 423.175 488.66 422.964C488.262 422.232 486.775 421.432 485.414 421.218C485.198 421.183 484.98 421.164 484.761 421.163Z" fill="#111111"/>
<path d="M493.104 422.263C491.681 422.039 490.868 422.494 491.296 423.278C491.725 424.066 493.233 424.888 494.657 425.112C496.088 425.338 496.899 424.881 496.47 424.094C496.043 423.31 494.535 422.489 493.104 422.264" fill="#111111"/>
<path d="M495.348 425.336C495.107 425.334 494.867 425.314 494.63 425.275C493.136 425.039 491.608 424.197 491.15 423.357C490.976 423.038 490.972 422.732 491.14 422.496C491.423 422.096 492.167 421.949 493.129 422.1C494.627 422.337 496.158 423.177 496.615 424.015C496.79 424.336 496.794 424.643 496.626 424.88C496.413 425.179 495.963 425.336 495.348 425.336ZM492.428 422.372C491.931 422.372 491.555 422.482 491.41 422.686C491.317 422.818 491.327 422.991 491.441 423.199C491.841 423.934 493.325 424.735 494.682 424.949C495.495 425.078 496.152 424.976 496.355 424.69C496.449 424.558 496.438 424.383 496.324 424.172C495.925 423.44 494.438 422.64 493.077 422.426C492.862 422.391 492.645 422.373 492.428 422.372Z" fill="#111111"/>
<path d="M470.111 418.638C468.68 418.412 467.867 418.868 468.294 419.651C468.724 420.439 470.232 421.261 471.664 421.487C473.086 421.711 473.899 421.255 473.469 420.467C473.042 419.684 471.534 418.862 470.111 418.637" fill="#111111"/>
<path d="M472.335 421.708C472.102 421.707 471.869 421.687 471.638 421.65C470.14 421.414 468.608 420.57 468.149 419.73C467.976 419.411 467.972 419.106 468.14 418.87C468.428 418.464 469.156 418.32 470.137 418.474C471.606 418.705 473.166 419.564 473.615 420.388C473.79 420.709 473.794 421.017 473.626 421.253C473.415 421.55 472.952 421.708 472.335 421.708ZM469.43 418.747C468.931 418.747 468.555 418.857 468.41 419.061C468.317 419.193 468.327 419.365 468.441 419.573C468.848 420.321 470.306 421.107 471.69 421.325C472.499 421.452 473.152 421.35 473.355 421.064C473.449 420.932 473.439 420.758 473.324 420.546C472.925 419.814 471.442 419.015 470.086 418.801C469.869 418.766 469.65 418.748 469.43 418.747Z" fill="#111111"/>
<path d="M462.447 417.429C461.015 417.203 460.204 417.66 460.63 418.443C461.06 419.231 462.568 420.053 463.999 420.278C465.422 420.503 466.235 420.047 465.804 419.259C465.378 418.475 463.869 417.653 462.446 417.429" fill="#111111"/>
<path d="M464.671 420.499C464.438 420.498 464.205 420.479 463.974 420.441C462.476 420.205 460.944 419.362 460.485 418.521C460.312 418.202 460.308 417.897 460.476 417.661C460.764 417.256 461.492 417.112 462.473 417.266C463.942 417.497 465.502 418.356 465.951 419.179C466.126 419.501 466.13 419.808 465.962 420.045C465.752 420.341 465.288 420.499 464.671 420.499ZM461.766 417.537C461.267 417.537 460.891 417.648 460.746 417.852C460.653 417.984 460.663 418.156 460.777 418.364C461.184 419.111 462.642 419.897 464.026 420.115C464.835 420.243 465.488 420.141 465.691 419.855C465.785 419.723 465.775 419.548 465.66 419.337C465.261 418.605 463.778 417.806 462.421 417.592C462.205 417.557 461.986 417.538 461.766 417.537Z" fill="#111111"/>
<path d="M608.092 194.777C607.937 194.768 607.781 194.793 607.637 194.85C607.492 194.908 607.363 194.997 607.257 195.111C607.035 195.323 606.848 195.568 606.701 195.837C606.557 196.094 606.433 196.362 606.332 196.638L597.445 220.482C597.428 220.525 597.413 220.568 597.398 220.611C597.33 220.806 597.269 221.006 597.217 221.21C597.098 221.672 597.017 222.143 596.976 222.618C596.96 222.807 596.949 222.995 596.945 223.181C596.938 223.47 596.947 223.759 596.973 224.047C597.002 224.406 597.069 224.761 597.171 225.106C597.239 225.333 597.335 225.551 597.458 225.754C597.663 226.08 597.907 226.254 598.167 226.289L600.016 226.534C599.757 226.5 599.512 226.326 599.307 225.999C599.184 225.796 599.088 225.579 599.021 225.351C598.918 225.006 598.852 224.651 598.822 224.292C598.796 224.004 598.787 223.715 598.794 223.426C598.799 223.241 598.809 223.053 598.825 222.863C598.867 222.388 598.948 221.917 599.066 221.455C599.119 221.251 599.179 221.051 599.247 220.857C599.263 220.814 599.278 220.77 599.294 220.727L608.182 196.884C608.283 196.608 608.406 196.34 608.551 196.083C608.697 195.814 608.885 195.569 609.107 195.357C609.212 195.243 609.342 195.154 609.487 195.097C609.631 195.039 609.787 195.014 609.942 195.023L608.092 194.777Z" fill="#111111"/>
<path d="M600.017 226.698C600.01 226.698 600.003 226.698 599.995 226.697L598.146 226.452C597.971 226.418 597.805 226.345 597.662 226.24C597.519 226.134 597.401 225.997 597.318 225.84C597.187 225.625 597.085 225.395 597.013 225.154C596.907 224.798 596.838 224.431 596.807 224.061C596.781 223.767 596.771 223.472 596.779 223.176C596.783 222.988 596.794 222.795 596.811 222.603C596.853 222.119 596.935 221.639 597.056 221.168C597.11 220.959 597.172 220.753 597.241 220.557C597.256 220.512 597.272 220.468 597.289 220.425L606.176 196.582C606.281 196.297 606.408 196.022 606.557 195.757C606.712 195.473 606.911 195.215 607.145 194.991C607.268 194.861 607.42 194.759 607.587 194.694C607.755 194.629 607.935 194.602 608.115 194.615L609.961 194.86H609.964C610.008 194.866 610.047 194.889 610.074 194.923C610.1 194.958 610.112 195.002 610.106 195.045C610.101 195.089 610.078 195.128 610.043 195.155C610.008 195.181 609.964 195.193 609.92 195.187C609.789 195.182 609.658 195.205 609.537 195.255C609.416 195.306 609.307 195.382 609.219 195.479C609.01 195.68 608.833 195.911 608.695 196.165C608.555 196.414 608.436 196.674 608.337 196.942L599.45 220.785C599.434 220.827 599.419 220.869 599.404 220.912C599.339 221.099 599.279 221.296 599.227 221.497C599.111 221.95 599.032 222.412 598.991 222.878C598.975 223.062 598.964 223.248 598.96 223.431C598.953 223.713 598.962 223.996 598.987 224.278C599.016 224.625 599.081 224.969 599.18 225.303C599.243 225.517 599.334 225.722 599.449 225.913C599.622 226.188 599.82 226.343 600.039 226.372C600.08 226.378 600.118 226.399 600.145 226.431C600.171 226.464 600.184 226.505 600.182 226.547C600.179 226.588 600.16 226.627 600.13 226.656C600.099 226.684 600.059 226.7 600.017 226.701L600.017 226.698ZM607.996 194.936C607.757 194.953 607.534 195.059 607.369 195.232C607.16 195.433 606.983 195.665 606.845 195.919C606.705 196.168 606.586 196.428 606.488 196.695L597.6 220.539C597.585 220.58 597.57 220.622 597.555 220.665C597.488 220.852 597.429 221.049 597.377 221.25C597.261 221.704 597.182 222.166 597.141 222.632C597.125 222.817 597.115 223.003 597.111 223.184C597.104 223.467 597.113 223.749 597.138 224.031C597.166 224.379 597.231 224.722 597.33 225.057C597.394 225.271 597.484 225.476 597.599 225.667C597.772 225.942 597.971 226.097 598.189 226.126L599.301 226.273C599.253 226.214 599.209 226.152 599.168 226.087C599.037 225.872 598.935 225.641 598.864 225.4C598.757 225.044 598.688 224.678 598.658 224.307C598.631 224.013 598.622 223.718 598.629 223.423C598.633 223.233 598.644 223.04 598.661 222.849C598.703 222.365 598.785 221.885 598.906 221.415C598.96 221.205 599.022 220.999 599.091 220.803C599.107 220.759 599.123 220.715 599.139 220.671L608.027 196.828C608.131 196.544 608.259 196.268 608.407 196.004C608.563 195.72 608.761 195.461 608.995 195.238C609.053 195.184 609.114 195.135 609.177 195.089L608.071 194.942C608.046 194.938 608.021 194.936 607.996 194.936Z" fill="#111111"/>
<path d="M610.654 195.561C611.335 196.644 611.339 199.019 610.662 200.835L601.775 224.678C601.101 226.487 599.989 227.082 599.309 225.998C598.626 224.91 598.621 222.535 599.295 220.727L608.182 196.883C608.859 195.067 609.971 194.472 610.654 195.561Z" fill="#FFDBBD"/>
<path d="M600.113 226.705C599.84 226.705 599.481 226.584 599.168 226.086C598.459 224.957 598.446 222.527 599.139 220.669L608.026 196.826C608.462 195.658 609.106 194.921 609.75 194.856C610.032 194.827 610.442 194.911 610.794 195.473C611.501 196.599 611.511 199.031 610.817 200.893L601.93 224.735C601.496 225.9 600.852 226.634 600.209 226.7C600.178 226.703 600.146 226.705 600.113 226.705ZM609.843 195.181C609.824 195.181 609.804 195.182 609.784 195.184C609.276 195.235 608.722 195.909 608.337 196.941L599.45 220.784C598.799 222.528 598.799 224.876 599.449 225.911C599.593 226.14 599.836 226.406 600.175 226.373C600.683 226.321 601.236 225.65 601.619 224.622L610.507 200.779C611.159 199.031 611.162 196.681 610.514 195.649C610.377 195.431 610.153 195.181 609.843 195.181Z" fill="#111111"/>
<path d="M594.625 230.909C594.469 230.899 594.314 230.924 594.169 230.982C594.025 231.04 593.895 231.129 593.789 231.243C593.567 231.455 593.38 231.7 593.233 231.969C593.089 232.226 592.965 232.494 592.864 232.77L583.977 256.613C583.96 256.656 583.945 256.699 583.93 256.743C583.862 256.937 583.801 257.137 583.749 257.341C583.63 257.803 583.55 258.274 583.508 258.749C583.492 258.938 583.481 259.127 583.477 259.312C583.47 259.601 583.479 259.89 583.505 260.177C583.534 260.536 583.601 260.892 583.703 261.237C583.771 261.464 583.867 261.682 583.99 261.885C584.195 262.211 584.439 262.386 584.699 262.42L586.549 262.665C586.289 262.631 586.045 262.457 585.84 262.13C585.717 261.927 585.62 261.71 585.553 261.482C585.45 261.137 585.384 260.782 585.354 260.423C585.329 260.135 585.319 259.846 585.326 259.557C585.331 259.372 585.341 259.184 585.358 258.994C585.399 258.519 585.48 258.048 585.598 257.586C585.651 257.383 585.712 257.182 585.779 256.988C585.795 256.945 585.81 256.901 585.826 256.859L594.714 233.016C594.815 232.739 594.938 232.471 595.083 232.215C595.229 231.945 595.417 231.7 595.639 231.488C595.744 231.374 595.874 231.285 596.019 231.228C596.163 231.17 596.319 231.145 596.474 231.154L594.625 230.909Z" fill="#111111"/>
<path d="M586.549 262.83C586.542 262.83 586.534 262.83 586.527 262.829L584.678 262.583C584.503 262.55 584.338 262.477 584.194 262.371C584.051 262.266 583.933 262.129 583.85 261.972C583.719 261.757 583.617 261.527 583.546 261.286C583.439 260.929 583.37 260.563 583.34 260.192C583.313 259.899 583.304 259.603 583.311 259.308C583.315 259.12 583.326 258.927 583.343 258.735C583.385 258.251 583.467 257.771 583.588 257.3C583.642 257.091 583.704 256.885 583.773 256.689C583.789 256.645 583.805 256.6 583.821 256.557L592.709 232.714C592.813 232.429 592.94 232.154 593.089 231.89C593.244 231.605 593.442 231.347 593.677 231.123C593.8 230.993 593.951 230.891 594.119 230.826C594.286 230.761 594.467 230.734 594.646 230.747L596.494 230.992H596.496C596.539 230.998 596.579 231.021 596.605 231.055C596.632 231.09 596.644 231.134 596.638 231.177C596.632 231.221 596.609 231.26 596.574 231.287C596.54 231.313 596.495 231.325 596.452 231.319C596.321 231.314 596.19 231.337 596.069 231.388C595.947 231.438 595.839 231.514 595.75 231.611C595.541 231.812 595.365 232.043 595.226 232.297C595.086 232.547 594.967 232.806 594.869 233.074L585.981 256.917C585.966 256.959 585.95 257.001 585.936 257.043C585.869 257.231 585.81 257.428 585.758 257.628C585.642 258.082 585.563 258.544 585.523 259.01C585.506 259.194 585.496 259.38 585.492 259.562C585.485 259.844 585.494 260.127 585.519 260.409C585.548 260.756 585.612 261.1 585.712 261.435C585.775 261.648 585.865 261.853 585.981 262.045C586.154 262.32 586.352 262.475 586.571 262.504C586.612 262.509 586.65 262.53 586.677 262.563C586.704 262.595 586.717 262.636 586.714 262.678C586.711 262.72 586.693 262.759 586.662 262.787C586.632 262.816 586.591 262.832 586.549 262.832V262.83ZM594.528 231.067C594.289 231.085 594.066 231.191 593.901 231.364C593.692 231.565 593.515 231.796 593.377 232.051C593.237 232.3 593.117 232.559 593.019 232.827L584.132 256.671C584.116 256.712 584.101 256.754 584.086 256.797C584.02 256.984 583.961 257.181 583.909 257.382C583.792 257.835 583.713 258.297 583.673 258.763C583.656 258.949 583.646 259.135 583.642 259.316C583.635 259.598 583.644 259.881 583.669 260.162C583.698 260.51 583.763 260.854 583.862 261.188C583.925 261.402 584.016 261.607 584.131 261.798C584.304 262.074 584.503 262.228 584.721 262.257L585.833 262.405C585.785 262.345 585.741 262.283 585.701 262.218C585.57 262.003 585.468 261.773 585.396 261.532C585.29 261.175 585.221 260.809 585.19 260.438C585.164 260.145 585.154 259.849 585.161 259.554C585.166 259.365 585.176 259.172 585.193 258.981C585.236 258.497 585.318 258.017 585.439 257.546C585.493 257.337 585.554 257.131 585.624 256.935C585.639 256.891 585.655 256.846 585.672 256.803L594.559 232.96C594.664 232.675 594.791 232.4 594.94 232.136C595.095 231.851 595.294 231.593 595.528 231.369C595.586 231.316 595.646 231.267 595.71 231.221L594.604 231.074C594.579 231.07 594.554 231.068 594.528 231.067Z" fill="#111111"/>
<path d="M597.186 231.693C597.866 232.777 597.871 235.151 597.194 236.968L588.307 260.812C587.632 262.62 586.521 263.215 585.84 262.13C585.157 261.042 585.152 258.668 585.826 256.859L594.714 233.016C595.391 231.199 596.503 230.605 597.186 231.693Z" fill="#FFDBBD"/>
<path d="M586.645 262.837C586.372 262.837 586.013 262.716 585.7 262.218C584.992 261.089 584.979 258.659 585.671 256.801L594.559 232.958C594.994 231.79 595.639 231.053 596.283 230.988C596.564 230.96 596.974 231.043 597.326 231.605C598.033 232.731 598.043 235.162 597.349 237.025L588.462 260.868C588.027 262.032 587.384 262.766 586.74 262.832C586.71 262.835 586.678 262.837 586.645 262.837ZM596.376 231.314C596.356 231.314 596.336 231.315 596.316 231.317C595.809 231.368 595.254 232.042 594.869 233.074L585.982 256.917C585.332 258.661 585.331 261.009 585.982 262.044C586.126 262.273 586.369 262.54 586.708 262.506C587.216 262.454 587.769 261.783 588.152 260.755L597.039 236.91C597.691 235.162 597.694 232.812 597.046 231.78C596.91 231.563 596.685 231.314 596.376 231.314Z" fill="#111111"/>
</g>
<g clip-path="url(#clip1_32_2676)">
<path d="M542.984 347.378L544.184 350.947C542.935 349.495 541.955 347.821 541.343 346.025L540.143 342.456C540.73 344.252 541.735 345.926 542.984 347.378Z" fill="#111111"/>
<path d="M544.184 351.194C544.11 351.194 544.037 351.169 543.988 351.095C542.665 349.544 541.685 347.846 541.097 346.099L539.897 342.529C539.848 342.406 539.922 342.259 540.044 342.21C540.167 342.16 540.314 342.234 540.363 342.357C540.95 344.056 541.881 345.705 543.155 347.206C543.179 347.231 543.179 347.255 543.204 347.28L544.404 350.849C544.453 350.972 544.404 351.095 544.282 351.144C544.257 351.194 544.233 351.194 544.184 351.194ZM541.538 345.877L541.563 345.951C542.004 347.255 542.64 348.486 543.498 349.668L542.763 347.502C542.322 346.96 541.906 346.443 541.538 345.877Z" fill="#111111"/>
<path d="M573.454 312.697L574.654 316.266C576.613 322.051 577.373 329.164 573.674 335.785C567.428 346.935 553.222 352.99 544.159 350.923L542.959 347.354C551.997 349.421 566.228 343.342 572.474 332.216C576.197 325.595 575.413 318.482 573.454 312.697Z" fill="#111111"/>
<path d="M547.932 351.587C546.585 351.587 545.311 351.464 544.135 351.193C544.062 351.169 543.988 351.12 543.964 351.021L542.764 347.452C542.739 347.378 542.764 347.28 542.813 347.206C542.861 347.132 542.959 347.108 543.057 347.132C551.777 349.126 565.935 343.44 572.303 332.118C575.389 326.58 575.732 320.082 573.283 312.796V312.771C573.234 312.648 573.307 312.5 573.43 312.451C573.552 312.402 573.699 312.476 573.748 312.599L574.948 316.168C577.447 323.601 577.128 330.247 573.944 335.884C568.286 345.926 556.7 351.587 547.932 351.587ZM544.38 350.75C553.124 352.646 567.159 346.985 573.479 335.687C576.246 330.739 576.81 325.029 575.144 318.679C575.806 323.7 574.997 328.278 572.719 332.364C566.375 343.711 552.292 349.471 543.376 347.723L544.38 350.75Z" fill="#111111"/>
<path d="M567.134 300.76C567.795 301.621 580.434 318.039 572.474 332.216C566.228 343.366 552.022 349.421 542.959 347.354C537.84 341.348 536.909 331.945 549.793 322.494C562.701 313.067 566.546 306.741 567.134 300.76Z" fill="white"/>
<path d="M546.73 348.018C545.383 348.018 544.11 347.895 542.934 347.625C542.885 347.625 542.836 347.575 542.811 347.551C540.925 345.335 538.77 341.668 539.333 336.942C539.921 331.872 543.399 326.949 549.694 322.346C561.108 313.977 566.252 307.529 566.913 300.76C566.913 300.661 566.987 300.563 567.085 300.538C567.183 300.514 567.281 300.538 567.354 300.637C568.726 302.409 580.532 318.457 572.718 332.364C567.085 342.357 555.499 348.018 546.73 348.018ZM543.105 347.157C551.85 349.101 565.934 343.416 572.253 332.118C579.43 319.319 569.657 304.649 567.281 301.4C566.35 308.07 561.133 314.494 549.939 322.715C543.767 327.244 540.338 332.044 539.774 336.967C539.26 341.496 541.293 344.991 543.105 347.157Z" fill="#111111"/>
<path d="M542.983 347.625C542.959 347.625 542.91 347.625 542.885 347.6C542.763 347.551 542.714 347.403 542.763 347.28C545.555 340.61 550.527 336.302 555.328 332.142C563.509 325.029 571.249 318.334 566.914 300.834C566.889 300.71 566.963 300.563 567.085 300.538C567.208 300.514 567.355 300.587 567.379 300.71C571.788 318.506 563.95 325.3 555.647 332.512C550.895 336.647 545.972 340.905 543.204 347.477C543.155 347.575 543.081 347.625 542.983 347.625Z" fill="#111111"/>
<path d="M486.183 318.58L487.995 321.878C488.559 326.186 489.661 329.361 491.057 331.872L489.244 328.573C487.848 326.038 486.77 322.863 486.183 318.58Z" fill="#111111"/>
<path d="M491.056 332.118C490.959 332.118 490.885 332.069 490.836 331.995L489.024 328.697C487.48 325.891 486.476 322.592 485.937 318.605C485.913 318.482 485.986 318.383 486.109 318.334C486.231 318.285 486.354 318.334 486.403 318.457L488.215 321.755C488.24 321.78 488.24 321.805 488.24 321.854C488.754 325.767 489.758 329.016 491.252 331.749C491.326 331.872 491.277 332.019 491.154 332.093C491.154 332.118 491.105 332.118 491.056 332.118ZM486.623 319.885C487.113 322.789 487.872 325.3 488.95 327.49C488.436 325.817 488.044 323.971 487.774 321.952L486.623 319.885Z" fill="#111111"/>
<path d="M494.02 378.392L495.833 381.69C489.514 382.355 483.317 381.764 478.393 379.5C474.964 377.924 472.148 375.561 470.335 372.263L468.522 368.965C470.335 372.263 473.152 374.626 476.581 376.201C481.529 378.441 487.726 379.032 494.02 378.392Z" fill="#111111"/>
<path d="M491.081 382.183C486.231 382.183 481.872 381.346 478.296 379.721C474.621 378.047 471.878 375.586 470.115 372.386L468.302 369.088C468.229 368.965 468.278 368.817 468.4 368.743C468.523 368.669 468.67 368.719 468.743 368.842C470.458 371.943 473.127 374.331 476.703 375.955C481.357 378.072 487.334 378.835 494.02 378.121C494.118 378.121 494.216 378.17 494.265 378.244L496.078 381.543C496.127 381.616 496.127 381.69 496.078 381.764C496.029 381.838 495.98 381.887 495.882 381.887C494.241 382.109 492.624 382.183 491.081 382.183ZM470.653 372.288C472.368 375.315 475.013 377.654 478.516 379.253C483.072 381.346 488.926 382.109 495.466 381.469L493.898 378.638C487.187 379.327 481.161 378.54 476.483 376.398C474.156 375.34 472.221 373.986 470.653 372.288Z" fill="#111111"/>
<path d="M486.183 318.58C488.412 335.391 498.577 335.022 503.892 345.705C510.701 359.415 502.544 370.515 494.021 378.392C487.701 379.056 481.504 378.466 476.581 376.201C470.727 373.518 466.637 368.497 466.269 360.473C465.412 341.619 485.154 319.737 486.183 318.58Z" fill="white"/>
<path d="M489.244 378.884C484.394 378.884 480.059 378.047 476.483 376.423C469.992 373.444 466.367 367.931 466.024 360.473C465.191 342.062 483.88 320.771 486.011 318.408C486.084 318.334 486.182 318.309 486.256 318.334C486.354 318.359 486.403 318.432 486.427 318.531C487.774 328.746 491.987 332.462 496.421 336.425C499.164 338.862 502.03 341.397 504.087 345.582C507.174 351.809 507.467 358.11 504.896 364.313C502.961 368.989 499.458 373.641 494.167 378.564C494.118 378.589 494.069 378.613 494.02 378.638C492.404 378.786 490.812 378.884 489.244 378.884ZM486.011 319.146C482.729 322.863 465.706 342.997 466.514 360.448C466.857 367.709 470.359 373.075 476.679 375.98C481.308 378.096 487.26 378.86 493.922 378.17C505.802 367.119 509.011 356.535 503.671 345.828C501.638 341.742 498.821 339.231 496.102 336.819C491.865 333.028 487.481 329.139 486.011 319.146Z" fill="#111111"/>
<path d="M503.451 344.818L505.263 348.117C505.41 348.387 505.557 348.683 505.704 348.978C512.513 362.688 504.357 373.789 495.833 381.665L494.021 378.367C502.52 370.466 510.701 359.39 503.891 345.68C503.745 345.385 503.598 345.114 503.451 344.818Z" fill="#111111"/>
<path d="M495.858 381.936C495.834 381.936 495.834 381.936 495.809 381.936C495.736 381.936 495.662 381.887 495.638 381.813L493.825 378.515C493.776 378.416 493.801 378.293 493.874 378.22C505.803 367.143 509.011 356.559 503.696 345.828C503.549 345.532 503.402 345.262 503.255 344.966C503.182 344.843 503.231 344.695 503.353 344.622C503.476 344.548 503.623 344.597 503.696 344.72V344.745L505.509 348.043C505.656 348.338 505.827 348.609 505.974 348.904C509.06 355.132 509.354 361.433 506.782 367.636C504.847 372.312 501.345 376.964 496.054 381.887C495.981 381.912 495.907 381.936 495.858 381.936ZM494.34 378.441L495.907 381.296C507.517 370.442 510.726 360.005 505.656 349.471C507.174 354.418 506.929 359.39 504.921 364.313C503.01 368.94 499.557 373.568 494.34 378.441Z" fill="#111111"/>
<path d="M494.021 378.638C493.923 378.638 493.849 378.589 493.8 378.515C493.506 377.924 493.188 377.309 492.87 376.718C485.228 361.901 475.724 343.489 485.938 318.506C485.987 318.383 486.134 318.309 486.256 318.383C486.379 318.432 486.452 318.58 486.379 318.703C476.287 343.416 485.717 361.753 493.311 376.472C493.629 377.087 493.923 377.678 494.241 378.269C494.315 378.392 494.266 378.54 494.143 378.589C494.094 378.613 494.07 378.638 494.021 378.638Z" fill="#111111"/>
<path d="M609.705 334.604L610.807 338.222C609.411 336.474 608.26 334.456 607.623 332.315L606.521 328.696C607.157 330.838 608.309 332.856 609.705 334.604Z" fill="#111111"/>
<path d="M610.783 338.468C610.709 338.468 610.636 338.444 610.587 338.37C609.093 336.499 607.966 334.431 607.354 332.389L606.251 328.77C606.202 328.647 606.276 328.5 606.423 328.475C606.545 328.426 606.692 328.5 606.717 328.647C607.305 330.641 608.407 332.659 609.852 334.481C609.877 334.505 609.877 334.53 609.901 334.555L611.003 338.173C611.028 338.296 610.979 338.419 610.881 338.468C610.856 338.468 610.832 338.468 610.783 338.468ZM607.893 332.413C608.382 333.939 609.142 335.49 610.146 336.942L609.485 334.727C608.897 333.988 608.358 333.201 607.893 332.413Z" fill="#111111"/>
<path d="M643.677 295.246C643.702 296.181 643.947 314.051 634.615 326.383C629.863 332.659 621.78 337.779 609.705 334.604C605.124 328.844 603.336 320.303 612.57 313.731C624.67 305.116 636.525 302.187 643.677 295.246Z" fill="white"/>
<path d="M616.759 335.81C614.579 335.81 612.203 335.514 609.631 334.825C609.582 334.801 609.533 334.776 609.509 334.751C606.594 331.109 605.271 327.023 605.81 323.232C606.325 319.54 608.553 316.266 612.424 313.51C618.106 309.473 623.789 306.642 628.81 304.156C634.664 301.252 639.734 298.741 643.506 295.049C643.58 294.975 643.677 294.951 643.775 295C643.873 295.049 643.922 295.123 643.922 295.222C643.947 297.166 643.922 314.445 634.811 326.53C631.945 330.321 626.164 335.81 616.759 335.81ZM609.827 334.382C623.201 337.877 630.965 330.789 634.394 326.235C642.845 315.085 643.408 299.381 643.433 295.812C639.636 299.332 634.713 301.793 629.006 304.599C624.009 307.085 618.326 309.891 612.693 313.928C608.945 316.586 606.79 319.762 606.276 323.306C605.786 326.924 607.035 330.862 609.827 334.382Z" fill="#111111"/>
<path d="M643.677 295.246C643.701 296.181 643.946 314.051 634.614 326.383C629.862 332.659 621.779 337.779 609.704 334.604L610.806 338.222C622.882 341.422 630.965 336.302 635.716 330.001C645.049 317.645 644.804 299.8 644.779 298.864L643.677 295.246Z" fill="#111111"/>
<path d="M617.861 339.428C615.681 339.428 613.305 339.133 610.733 338.443C610.66 338.419 610.587 338.37 610.562 338.271L609.46 334.653C609.435 334.579 609.46 334.481 609.509 334.407C609.582 334.333 609.656 334.308 609.754 334.333C612.277 334.998 614.603 335.293 616.759 335.293C625.969 335.293 631.627 329.902 634.419 326.21C643.433 314.297 643.457 297.166 643.433 295.246C643.433 295.123 643.531 295.025 643.629 295C643.751 294.975 643.873 295.049 643.898 295.172L645 298.79V298.864C645.025 300.809 645 318.088 635.888 330.173C633.047 333.939 627.267 339.428 617.861 339.428ZM610.978 338.025C624.327 341.496 632.067 334.407 635.497 329.878C644.461 318.014 644.535 301.006 644.51 298.914L643.898 296.871C643.751 301.843 642.673 316.143 634.786 326.555C631.308 331.158 623.495 338.32 610.048 334.973L610.978 338.025Z" fill="#111111"/>
<path d="M609.704 334.85C609.655 334.85 609.631 334.85 609.582 334.825C609.459 334.751 609.41 334.604 609.484 334.505C614.015 325.694 619.379 321.681 625.037 317.423C631.43 312.624 638.043 307.676 643.457 295.148C643.506 295.025 643.652 294.975 643.775 295.025C643.897 295.074 643.946 295.222 643.897 295.345C638.435 307.972 631.773 312.968 625.331 317.817C619.722 322.026 614.407 326.013 609.925 334.727C609.876 334.801 609.778 334.85 609.704 334.85Z" fill="#111111"/>
<path d="M536.126 358.848C539.922 358.209 543.939 357.839 547.834 357.618C555.329 357.175 562.775 357.175 569.437 356.387L581.512 362.639C582.247 363.033 583.276 362.787 583.79 362.098C584.256 361.482 584.084 360.793 583.594 360.276C583.423 360.104 574.63 355.599 574.63 355.599C581.659 354.369 587.881 352.498 593.49 349.938C600.299 346.837 606.202 342.751 611.493 337.73C612.13 337.114 612.13 336.228 611.468 335.711C610.831 335.244 609.827 335.342 609.19 335.933C604.12 340.708 598.609 344.523 592.192 347.452C585.799 350.357 578.475 352.375 569.853 353.483C565.591 354.024 560.742 354.196 555.696 354.393C550.552 354.59 545.164 354.787 539.8 355.452C540.681 354.418 542.69 352.277 544.527 350.307C545.09 349.692 545.041 348.855 544.429 348.388C544.404 348.363 544.38 348.363 544.355 348.338C543.67 347.895 542.641 348.043 542.053 348.683L535.219 356.141L534.191 356.338C533.505 356.461 532.819 356.609 532.133 356.756C528.214 357.642 524.369 358.873 520.719 360.645C517.069 362.418 513.64 364.756 510.554 367.783C508.521 369.777 506.684 372.066 504.994 374.675C504.921 374.774 503.255 377.58 502.545 379.007C501.614 380.903 500.757 382.946 499.997 385.136L496.838 379.303C496.74 379.13 496.617 379.007 496.47 378.884C496.005 378.54 495.295 378.466 494.658 378.761C493.825 379.155 493.458 380.016 493.825 380.706L498.626 389.517C498.136 391.314 497.719 393.185 497.328 395.179C497.23 395.671 497.425 396.114 497.817 396.385C498.038 396.557 498.332 396.655 498.675 396.68C499.556 396.729 500.414 396.139 500.561 395.351C500.953 393.283 501.932 389.394 501.932 389.394C502.937 385.825 504.137 382.65 505.508 379.869C506.072 378.737 506.66 377.654 507.272 376.644L522.336 374.257C523.242 374.109 523.903 373.371 523.83 372.608C523.805 372.263 523.609 371.943 523.34 371.746C523.021 371.5 522.556 371.402 522.066 371.475L509.403 373.469C510.505 371.992 511.656 370.688 512.881 369.482C516.604 365.839 520.841 363.328 525.446 361.581C528.826 360.35 532.451 359.464 536.126 358.848Z" fill="#BC5C00"/>
<path d="M498.797 397C498.748 397 498.724 397 498.675 397C498.307 396.975 497.964 396.852 497.67 396.655C497.205 396.311 496.985 395.769 497.107 395.203C497.474 393.283 497.891 391.413 498.381 389.64L493.629 380.902C493.433 380.558 493.408 380.139 493.531 379.746C493.678 379.278 494.07 378.86 494.56 378.613C495.245 378.293 496.054 378.343 496.617 378.761C496.789 378.884 496.936 379.056 497.034 379.253L499.948 384.595C500.659 382.625 501.467 380.73 502.324 378.958C503.034 377.506 504.725 374.675 504.798 374.577C506.439 371.992 508.325 369.654 510.383 367.636C513.322 364.756 516.751 362.344 520.596 360.448C524.026 358.775 527.773 357.495 532.06 356.535C532.647 356.412 533.284 356.264 534.068 356.116H534.117L535.072 355.944L541.857 348.56C542.518 347.846 543.694 347.649 544.478 348.166C544.502 348.191 544.527 348.191 544.551 348.215C544.894 348.461 545.115 348.831 545.139 349.249C545.188 349.692 545.017 350.135 544.674 350.504L540.387 355.156C545.58 354.566 550.699 354.369 555.647 354.172H555.769C560.791 353.975 565.542 353.803 569.78 353.261C578.304 352.153 585.578 350.184 592.045 347.231C598.241 344.4 603.777 340.659 608.97 335.761C609.68 335.096 610.831 334.973 611.566 335.539C611.933 335.834 612.129 336.204 612.154 336.647C612.178 337.114 611.982 337.582 611.591 337.927C606.055 343.145 600.152 347.157 593.514 350.16C588.003 352.67 582.027 354.492 575.315 355.722C580.753 358.504 583.57 359.981 583.692 360.104C584.329 360.768 584.427 361.581 583.913 362.245C583.325 363.008 582.174 363.279 581.316 362.86L569.314 356.633C565.028 357.125 560.497 357.298 555.696 357.495C553.1 357.593 550.43 357.692 547.784 357.839C543.351 358.11 539.53 358.504 536.101 359.07C532.133 359.735 528.557 360.67 525.471 361.851C520.523 363.747 516.457 366.306 513.003 369.703C511.926 370.762 510.872 371.943 509.917 373.174L521.968 371.278C522.507 371.205 523.021 371.303 523.413 371.598C523.756 371.845 523.977 372.214 524.001 372.632C524.075 373.518 523.315 374.38 522.287 374.552L507.345 376.915C506.758 377.9 506.17 378.958 505.655 380.016C504.259 382.847 503.059 386.047 502.104 389.493C502.006 389.887 501.099 393.48 500.732 395.449C500.659 396.335 499.752 397 498.797 397ZM495.49 378.909C495.245 378.909 495.001 378.958 494.756 379.081C494.364 379.253 494.094 379.573 493.972 379.918C493.874 380.189 493.898 380.459 494.021 380.681L498.822 389.493C498.846 389.542 498.871 389.616 498.846 389.665C498.356 391.462 497.94 393.357 497.572 395.302C497.499 395.671 497.646 396.015 497.964 396.262C498.16 396.409 498.405 396.508 498.699 396.508C499.458 396.557 500.193 396.04 500.316 395.375C500.683 393.406 501.589 389.813 501.712 389.394C502.692 385.899 503.892 382.675 505.312 379.819C505.876 378.687 506.464 377.604 507.076 376.57C507.1 376.521 507.125 376.497 507.174 376.472C507.198 376.472 507.223 376.447 507.247 376.447L522.311 374.084C523.095 373.961 523.658 373.346 523.609 372.706C523.585 372.435 523.438 372.189 523.217 372.017C522.923 371.795 522.531 371.721 522.14 371.795L509.476 373.789C509.378 373.814 509.28 373.764 509.231 373.666C509.182 373.568 509.182 373.469 509.256 373.395C510.334 371.968 511.509 370.614 512.758 369.383C516.261 365.937 520.401 363.328 525.397 361.433C528.508 360.251 532.108 359.291 536.101 358.627C539.53 358.061 543.376 357.642 547.833 357.396C550.503 357.249 553.173 357.125 555.769 357.027C560.595 356.855 565.15 356.682 569.437 356.166C569.486 356.166 569.535 356.166 569.584 356.19L581.61 362.442C582.247 362.787 583.129 362.565 583.57 361.974C584.06 361.334 583.619 360.744 583.398 360.498C583.031 360.251 577.887 357.593 574.483 355.87C574.385 355.821 574.336 355.722 574.36 355.624C574.385 355.526 574.458 355.427 574.556 355.427C581.537 354.221 587.685 352.375 593.343 349.766C599.932 346.763 605.786 342.8 611.297 337.607C611.566 337.336 611.713 337.016 611.689 336.696C611.664 336.401 611.542 336.154 611.297 335.957C610.758 335.564 609.876 335.638 609.337 336.154C604.095 341.077 598.511 344.868 592.29 347.723C585.774 350.701 578.451 352.67 569.878 353.778C565.64 354.319 560.864 354.492 555.818 354.689H555.696C550.528 354.886 545.213 355.083 539.824 355.747C539.726 355.772 539.628 355.698 539.579 355.624C539.53 355.526 539.555 355.427 539.628 355.353L544.355 350.209C544.6 349.938 544.723 349.643 544.674 349.323C544.649 349.052 544.502 348.806 544.282 348.634C544.257 348.609 544.233 348.609 544.233 348.584C543.645 348.191 542.763 348.338 542.249 348.904L535.415 356.362C535.366 356.412 535.317 356.436 535.268 356.436L534.264 356.609C534.239 356.609 534.239 356.609 534.215 356.609C533.407 356.756 532.77 356.904 532.182 357.027C527.92 357.987 524.197 359.242 520.817 360.891C517.02 362.737 513.616 365.125 510.725 367.98C508.693 369.974 506.855 372.288 505.214 374.847C505.116 374.971 503.475 377.752 502.765 379.18C501.834 381.075 500.977 383.142 500.218 385.284C500.193 385.382 500.095 385.431 499.997 385.456C499.899 385.456 499.801 385.407 499.752 385.333L496.617 379.475C496.544 379.352 496.446 379.229 496.323 379.155C496.103 378.983 495.809 378.909 495.49 378.909Z" fill="#111111"/>
<path d="M631.847 363.5C631.283 364.239 620.482 378.293 603.067 377.801C596.649 377.629 591.089 375.537 587.048 372.509C582.467 369.088 579.798 364.46 579.993 360.054C585.554 353.31 596.037 348.215 608.994 355.082C616.636 359.144 621.853 362.664 631.847 363.5Z" fill="white"/>
<path d="M603.924 378.072C603.63 378.072 603.336 378.072 603.042 378.072C597.017 377.9 591.26 376.004 586.876 372.731C582.198 369.236 579.528 364.51 579.724 360.055C579.724 360.005 579.748 359.956 579.773 359.907C585.48 352.99 596.159 348.018 609.067 354.861C610.072 355.378 611.027 355.919 611.958 356.412C618.228 359.833 623.176 362.516 631.847 363.254C631.945 363.254 632.018 363.328 632.043 363.402C632.067 363.476 632.067 363.574 632.018 363.648C630.891 365.15 620.457 378.072 603.924 378.072ZM580.238 360.153C580.091 364.411 582.688 368.965 587.195 372.337C591.505 375.561 597.139 377.407 603.066 377.58C618.938 378.023 629.299 366.282 631.381 363.722C622.906 362.91 617.983 360.251 611.762 356.855C610.831 356.362 609.876 355.821 608.871 355.304C596.282 348.609 585.823 353.409 580.238 360.153Z" fill="#111111"/>
<path d="M631.847 363.5L632.949 367.119C632.386 367.857 621.584 381.912 604.169 381.419C597.751 381.247 592.191 379.155 588.15 376.127C584.843 373.666 582.541 370.565 581.586 367.389L580.483 363.771C581.439 366.946 583.741 370.048 587.048 372.509C591.089 375.537 596.649 377.629 603.067 377.801C620.482 378.293 631.283 364.239 631.847 363.5Z" fill="#111111"/>
<path d="M605.026 381.69C604.733 381.69 604.439 381.69 604.145 381.69C598.119 381.518 592.363 379.623 587.979 376.349C584.672 373.863 582.296 370.737 581.317 367.488L580.214 363.87C580.165 363.747 580.239 363.599 580.386 363.574C580.508 363.525 580.655 363.599 580.68 363.747C581.635 366.897 583.937 369.949 587.146 372.361C591.457 375.586 597.091 377.432 603.018 377.604C619.821 378.072 630.451 364.879 631.602 363.377C631.651 363.304 631.749 363.279 631.847 363.279C631.945 363.304 632.019 363.353 632.043 363.451L633.145 367.069C633.17 367.143 633.145 367.217 633.096 367.291C631.994 368.768 621.56 381.69 605.026 381.69ZM581.782 367.217L581.806 367.34C582.762 370.491 585.064 373.543 588.273 375.955C592.584 379.18 598.217 381.026 604.145 381.198H605.002C620.996 381.198 631.186 368.94 632.655 367.069L631.749 364.017C629.618 366.651 619.135 378.49 603.067 378.047C597.042 377.875 591.285 375.98 586.901 372.706C584.746 371.106 583.007 369.235 581.782 367.217Z" fill="#111111"/>
<path d="M614.604 366.479C606.839 366.479 600.618 364.731 594.837 363.107C589.84 361.704 585.113 360.374 579.994 360.301C579.847 360.301 579.749 360.178 579.749 360.054C579.749 359.931 579.871 359.808 579.994 359.808C585.187 359.882 589.938 361.211 594.984 362.614C604.439 365.273 615.167 368.276 631.774 363.254C631.896 363.205 632.043 363.279 632.068 363.427C632.117 363.55 632.043 363.697 631.896 363.722C625.332 365.74 619.649 366.479 614.604 366.479Z" fill="#111111"/>
<path d="M561.085 366.897C572.719 375.61 578.769 389.493 579.087 390.207C567.233 386.145 559.811 392.102 543.67 390.477C536.101 389.714 530.761 387.671 526.989 384.865C522.727 381.666 520.45 377.481 519.151 373.001C526.475 365.051 537.228 357.421 551.238 361.753C554.863 362.885 558.145 364.707 561.085 366.897Z" fill="white"/>
<path d="M549.352 391.043C547.564 391.043 545.678 390.97 543.669 390.748C536.492 390.034 531.006 388.164 526.866 385.087C523.045 382.232 520.449 378.293 518.955 373.075C518.93 373.001 518.955 372.903 519.004 372.829C529.144 361.827 540.044 358.012 551.36 361.531C554.716 362.565 558.047 364.313 561.231 366.7C572.596 375.192 578.671 388.607 579.332 390.108C579.381 390.207 579.356 390.305 579.283 390.379C579.209 390.453 579.111 390.477 579.013 390.453C572.596 388.262 567.477 389.025 561.525 389.911C557.949 390.453 554.03 391.043 549.352 391.043ZM519.445 373.075C520.914 378.121 523.437 381.912 527.136 384.693C531.202 387.721 536.615 389.542 543.694 390.256C550.993 390.994 556.553 390.157 561.452 389.419C567.281 388.557 572.351 387.794 578.646 389.813C577.323 386.908 571.396 374.897 560.937 367.094C557.777 364.731 554.52 363.033 551.213 361.999C540.117 358.578 529.438 362.294 519.445 373.075Z" fill="#111111"/>
<path d="M579.087 390.231L580.189 393.849C568.334 389.788 560.913 395.745 544.771 394.12C537.203 393.357 531.863 391.314 528.091 388.508C523.952 385.407 521.698 381.37 520.376 377.038L519.298 373.42C520.596 377.752 522.874 381.789 527.013 384.89C530.785 387.721 536.101 389.739 543.694 390.502C559.81 392.126 567.232 386.17 579.087 390.231Z" fill="#111111"/>
<path d="M550.43 394.662C548.642 394.662 546.756 394.588 544.747 394.366C537.57 393.653 532.084 391.782 527.944 388.705C524.221 385.924 521.649 382.133 520.155 377.112L519.078 373.494C519.029 373.371 519.102 373.223 519.249 373.198C519.372 373.149 519.519 373.223 519.543 373.371V373.395C521.013 378.293 523.511 381.986 527.161 384.718C531.226 387.745 536.64 389.567 543.718 390.28C551.017 391.019 556.577 390.182 561.476 389.444C567.477 388.557 572.645 387.77 579.185 390.01C579.259 390.034 579.308 390.084 579.332 390.182L580.434 393.8C580.459 393.899 580.434 393.973 580.361 394.046C580.287 394.12 580.189 394.12 580.116 394.096C573.699 391.905 568.579 392.668 562.627 393.554C559.051 394.071 555.132 394.662 550.43 394.662ZM521.135 378.466C522.654 382.626 524.981 385.875 528.263 388.311C532.329 391.339 537.742 393.16 544.82 393.874C552.12 394.613 557.655 393.776 562.578 393.037C568.432 392.151 573.527 391.413 579.846 393.456L578.94 390.428C572.572 388.287 567.477 389.05 561.574 389.936C556.651 390.674 551.066 391.511 543.694 390.773C536.517 390.059 531.031 388.188 526.891 385.112C524.491 383.315 522.58 381.124 521.135 378.466Z" fill="#111111"/>
<path d="M579.088 390.477C579.039 390.477 578.99 390.453 578.941 390.428C561.722 376.964 542.568 365.568 519.25 373.248C519.127 373.297 518.98 373.223 518.931 373.1C518.882 372.977 518.956 372.829 519.078 372.78C529.978 369.186 540.657 369.408 551.753 373.469C562.187 377.284 571.495 383.979 579.21 390.034C579.308 390.108 579.333 390.28 579.259 390.379C579.235 390.428 579.161 390.477 579.088 390.477Z" fill="#111111"/>
</g>
<g clip-path="url(#clip2_32_2676)">
<path d="M401.238 191.082L460.675 224.872L440.692 227.641L447.243 245.486L406.385 222.26L406.027 265.774L392.883 251.176L379.513 264.824L380.049 201.512L394.105 202.016L401.238 191.082Z" fill="#BC5C00"/>
<path d="M406.026 266C405.964 266 405.903 265.974 405.86 265.926L392.876 251.504L379.671 264.982C379.608 265.048 379.511 265.068 379.426 265.032C379.342 264.997 379.287 264.914 379.288 264.822L379.824 201.51C379.825 201.449 379.85 201.391 379.894 201.349C379.937 201.307 379.999 201.285 380.056 201.286L393.987 201.786L401.05 190.957C401.115 190.858 401.245 190.826 401.347 190.885L460.784 224.675C460.868 224.723 460.912 224.819 460.894 224.914C460.876 225.009 460.8 225.082 460.705 225.095L440.999 227.826L447.452 245.407C447.484 245.496 447.458 245.596 447.387 245.657C447.316 245.719 447.214 245.728 447.132 245.682L406.605 222.645L406.25 265.776C406.249 265.869 406.192 265.952 406.106 265.985C406.08 265.995 406.053 266 406.026 266ZM392.883 250.95H392.887C392.949 250.951 393.007 250.978 393.049 251.024L405.807 265.195L406.161 222.259C406.161 222.179 406.204 222.105 406.272 222.066C406.341 222.025 406.425 222.025 406.494 222.064L446.82 244.987L440.482 227.72C440.458 227.656 440.465 227.584 440.5 227.526C440.534 227.467 440.594 227.428 440.661 227.418L459.986 224.74L401.309 191.382L394.291 202.14C394.249 202.206 394.172 202.245 394.096 202.241L380.27 201.746L379.741 264.27L392.723 251.017C392.766 250.974 392.823 250.95 392.883 250.95Z" fill="#111111"/>
<path d="M428.207 206.811L427.286 211.577C425.503 220.801 419.36 229.094 409.689 233.754C392.51 242.033 370.7 235.734 360.972 219.683C356.723 212.672 355.482 204.961 356.865 197.809L357.786 193.043C356.404 200.195 357.644 207.906 361.894 214.917C371.622 230.968 393.431 237.267 410.61 228.988C420.281 224.328 426.424 216.035 428.207 206.811Z" fill="#8E4600"/>
<path d="M393.534 237.612C380.505 237.612 367.637 231.112 360.781 219.8C356.677 213.028 355.207 205.202 356.645 197.766L357.566 193C357.589 192.878 357.707 192.797 357.828 192.822C357.95 192.845 358.029 192.964 358.005 193.086L358.004 193.094C356.59 200.417 358.04 208.126 362.085 214.799C371.738 230.727 393.463 237.001 410.514 228.784C419.774 224.322 426.142 216.301 427.985 206.776L427.987 206.768C428.01 206.645 428.129 206.565 428.249 206.589C428.371 206.613 428.45 206.731 428.426 206.854L427.505 211.62C425.637 221.289 419.178 229.431 409.786 233.957C404.64 236.437 399.072 237.612 393.534 237.612ZM357.033 198.124C355.705 205.369 357.167 212.972 361.163 219.565C370.817 235.493 392.543 241.767 409.593 233.55C418.748 229.139 425.075 221.248 426.999 211.866C424.163 219.311 418.426 225.472 410.707 229.191C393.455 237.505 371.472 231.154 361.702 215.035C358.532 209.804 356.934 203.946 357.033 198.124Z" fill="#111111"/>
<path d="M375.385 170.868C392.553 162.595 414.373 168.889 424.101 184.94C433.829 200.991 427.778 220.715 410.61 228.988C393.43 237.267 371.621 230.968 361.893 214.917C352.165 198.866 358.206 179.147 375.385 170.868Z" fill="#FFDBBD"/>
<path d="M394.455 232.847C381.426 232.847 368.559 226.346 361.703 215.035C357.03 207.326 355.801 198.515 358.241 190.227C360.75 181.7 366.805 174.753 375.289 170.664C392.54 162.352 414.523 168.703 424.293 184.822C428.963 192.529 430.192 201.339 427.752 209.629C425.241 218.157 419.188 225.105 410.707 229.191C405.562 231.671 399.993 232.847 394.455 232.847ZM375.482 171.072C367.114 175.104 361.143 181.953 358.67 190.355C356.267 198.52 357.48 207.201 362.085 214.8C368.858 225.975 381.574 232.397 394.448 232.398C399.923 232.398 405.426 231.236 410.514 228.784C418.879 224.753 424.848 217.905 427.322 209.5C429.726 201.334 428.514 192.654 423.91 185.057C414.257 169.13 392.533 162.856 375.482 171.072Z" fill="#111111"/>
<path d="M377.958 175.108C363.285 182.179 358.126 199.023 366.435 212.732C374.744 226.441 393.373 231.822 408.046 224.751C422.719 217.681 427.877 200.836 419.569 187.127C411.26 173.418 392.631 168.037 377.958 175.108Z" fill="white"/>
<path d="M394.247 228.079C383.108 228.079 372.105 222.521 366.244 212.85C362.248 206.257 361.197 198.722 363.283 191.633C365.43 184.341 370.607 178.4 377.861 174.904C392.611 167.797 411.406 173.227 419.76 187.01C423.755 193.602 424.806 201.137 422.72 208.226C420.573 215.518 415.396 221.459 408.142 224.954C403.743 227.075 398.982 228.079 394.247 228.079ZM378.054 175.311C370.916 178.751 365.822 184.593 363.712 191.761C361.662 198.726 362.697 206.132 366.626 212.615C372.405 222.15 383.255 227.63 394.24 227.631C398.912 227.631 403.608 226.64 407.949 224.548C415.087 221.108 420.181 215.266 422.29 208.098C424.341 201.133 423.306 193.727 419.377 187.245C411.14 173.654 392.603 168.3 378.054 175.311Z" fill="#111111"/>
<path d="M384.595 186.059L385.296 197.511L375.41 204.175L387.521 207.523L391.76 218.45L398.532 209.055L411.056 209.152L403.127 200.002L406.622 189.134L394.944 192.862L384.595 186.059Z" fill="#FFDBBD"/>
<path d="M391.76 218.676C391.751 218.676 391.741 218.675 391.732 218.674C391.651 218.663 391.582 218.609 391.552 218.532L387.354 207.71L375.351 204.393C375.267 204.369 375.204 204.298 375.189 204.211C375.175 204.124 375.213 204.037 375.286 203.988L385.065 197.396L384.372 186.073C384.367 185.988 384.409 185.907 384.482 185.864C384.555 185.821 384.646 185.823 384.718 185.87L394.977 192.615L406.555 188.919C406.634 188.893 406.722 188.915 406.782 188.975C406.841 189.035 406.861 189.123 406.836 189.204L403.379 199.95L411.225 209.003C411.283 209.07 411.297 209.165 411.26 209.246C411.223 209.326 411.132 209.379 411.055 209.377L398.646 209.282L391.942 218.583C391.899 218.642 391.832 218.676 391.76 218.676ZM375.942 204.088L387.581 207.305C387.649 207.324 387.704 207.374 387.73 207.441L391.82 217.984L398.351 208.922C398.394 208.863 398.463 208.829 398.534 208.829L410.561 208.922L402.959 200.151C402.907 200.091 402.89 200.008 402.915 199.933L406.276 189.481L395.011 193.077C394.948 193.097 394.878 193.088 394.821 193.051L384.846 186.493L385.519 197.497C385.524 197.577 385.487 197.654 385.421 197.699L375.942 204.088Z" fill="#111111"/>
</g>
<defs>
<linearGradient id="paint0_linear_32_2676" x1="1000" y1="563" x2="518.639" y2="-291.994" gradientUnits="userSpaceOnUse">
<stop stop-color="white"/>
<stop offset="1" stop-color="white" stop-opacity="0"/>
</linearGradient>
<clipPath id="clip0_32_2676">
<rect width="252" height="300" fill="white" transform="translate(370 132)"/>
</clipPath>
<clipPath id="clip1_32_2676">
<rect width="179" height="102" fill="white" transform="translate(466 295)"/>
</clipPath>
<clipPath id="clip2_32_2676">
<rect width="105" height="99" fill="white" transform="translate(356 167)"/>
</clipPath>
</defs>
</svg>
