<svg width="1000" height="563" viewBox="0 0 1000 563" fill="none" xmlns="http://www.w3.org/2000/svg">
<rect width="1000" height="563" fill="#D23B2C"/>
<rect width="1000" height="563" fill="url(#paint0_linear_32_1567)" fill-opacity="0.2"/>
<g clip-path="url(#clip0_32_1567)">
<path d="M385.631 174.627C386.178 170.174 390.134 167.407 394.472 168.442L576.514 211.872C580.853 212.907 583.928 217.352 583.381 221.805L560.442 408.645C559.895 413.098 555.934 415.869 551.596 414.834L369.553 371.404C365.215 370.369 362.145 365.92 362.692 361.467L385.631 174.627Z" fill="#C42F21"/>
<path d="M553.415 415.23C552.803 415.23 552.18 415.156 551.555 415.007L369.512 371.577C365.097 370.524 361.959 365.979 362.515 361.446L385.454 174.605C385.726 172.392 386.824 170.515 388.546 169.318C390.254 168.131 392.373 167.759 394.513 168.269L576.556 211.699C580.973 212.753 584.114 217.296 583.558 221.826L560.618 408.667C560.347 410.88 559.248 412.758 557.524 413.956C556.314 414.797 554.898 415.23 553.415 415.23ZM385.631 174.627L385.808 174.649L362.868 361.489C362.333 365.848 365.351 370.218 369.595 371.231L551.637 414.661C553.677 415.148 555.695 414.794 557.321 413.664C558.96 412.525 560.006 410.735 560.265 408.624L583.204 221.783C583.739 217.427 580.72 213.059 576.473 212.045L394.43 168.615C392.39 168.129 390.373 168.482 388.749 169.61C387.111 170.748 386.067 172.538 385.808 174.649L385.631 174.627Z" fill="#111111"/>
<path d="M396.953 185.001L375.843 356.94C375.643 358.569 376.768 360.197 378.355 360.576L545.88 400.543C547.471 400.922 548.921 399.908 549.121 398.28L570.231 226.34C570.431 224.707 569.306 223.078 567.714 222.699L400.19 182.732C398.603 182.353 397.154 183.367 396.953 185.001Z" fill="#F4B6B0"/>
<path d="M546.549 400.801C546.309 400.8 546.071 400.772 545.838 400.715L378.314 360.749C376.644 360.35 375.456 358.632 375.667 356.919L396.776 184.979C396.88 184.135 397.3 183.417 397.958 182.96C398.61 182.507 399.417 182.364 400.231 182.559L567.756 222.525C569.428 222.924 570.618 224.645 570.407 226.362L549.297 398.301C549.194 399.143 548.775 399.857 548.118 400.314C547.656 400.635 547.115 400.801 546.549 400.801ZM399.526 182.83C399.032 182.83 398.562 182.974 398.161 183.252C397.587 183.651 397.221 184.28 397.13 185.023L376.02 356.962C375.831 358.501 376.897 360.045 378.396 360.403L545.921 400.369C546.638 400.54 547.347 400.417 547.915 400.022C548.488 399.624 548.853 398.997 548.944 398.258L570.054 226.319C570.243 224.776 569.175 223.23 567.673 222.871L400.149 182.905C399.945 182.856 399.736 182.831 399.526 182.83Z" fill="#111111"/>
<path d="M475.009 115.47C472.913 114.97 470.906 115.357 469.33 116.394L388.792 169.366C390.368 168.33 392.375 167.942 394.472 168.442L576.514 211.872L657.052 158.9L475.009 115.47Z" fill="white"/>
<path d="M576.515 212.05C576.501 212.05 576.487 212.049 576.473 212.046L394.431 168.615C392.456 168.144 390.489 168.464 388.89 169.515C388.87 169.528 388.849 169.537 388.826 169.541C388.803 169.546 388.779 169.545 388.756 169.541C388.733 169.536 388.712 169.527 388.692 169.514C388.673 169.5 388.656 169.484 388.644 169.464C388.631 169.445 388.622 169.423 388.617 169.4C388.613 169.377 388.613 169.353 388.618 169.33C388.623 169.308 388.632 169.286 388.645 169.266C388.658 169.247 388.675 169.231 388.694 169.218V169.218L388.703 169.212L469.232 116.246C470.913 115.14 472.98 114.803 475.051 115.297L657.094 158.727C657.127 158.735 657.158 158.753 657.182 158.778C657.206 158.804 657.222 158.836 657.228 158.87C657.234 158.904 657.23 158.939 657.216 158.971C657.202 159.003 657.179 159.03 657.15 159.049L576.612 212.021C576.583 212.04 576.549 212.05 576.515 212.05ZM392.657 168.047C393.268 168.047 393.891 168.12 394.513 168.269L576.481 211.681L656.611 158.978L474.968 115.643C472.993 115.172 471.026 115.492 469.428 116.543L390.74 168.298C391.365 168.13 392.01 168.046 392.657 168.047Z" fill="#111111"/>
<path d="M583.381 221.805L560.441 408.645C560.159 410.946 558.965 412.798 557.277 413.908L637.815 360.936C639.502 359.826 640.697 357.974 640.979 355.673L663.918 168.833L583.381 221.805Z" fill="#A01E11"/>
<path d="M557.278 414.086C557.24 414.086 557.203 414.073 557.172 414.051C557.142 414.028 557.119 413.996 557.108 413.959C557.097 413.922 557.098 413.883 557.111 413.847C557.124 413.811 557.149 413.78 557.18 413.759L557.193 413.751C558.908 412.618 559.999 410.797 560.266 408.623L583.205 221.783C583.211 221.731 583.24 221.685 583.284 221.656L663.821 168.684C663.85 168.665 663.883 168.655 663.917 168.655C663.951 168.654 663.984 168.664 664.013 168.682C664.042 168.7 664.065 168.725 664.079 168.756C664.094 168.787 664.1 168.821 664.096 168.855L641.156 355.695C640.876 357.979 639.724 359.894 637.914 361.085L557.376 414.057C557.347 414.076 557.313 414.086 557.278 414.086ZM583.548 221.908L560.619 408.667C560.438 410.142 559.893 411.463 559.043 412.534L637.718 360.787C639.44 359.654 640.536 357.831 640.803 355.651L663.695 169.193L583.548 221.908Z" fill="#111111"/>
<path d="M576.515 211.872L657.052 158.9C661.391 159.935 664.466 164.38 663.919 168.833L583.381 221.805C583.928 217.352 580.853 212.907 576.515 211.872Z" fill="#F4B6B0"/>
<path d="M583.381 221.983C583.356 221.983 583.331 221.978 583.308 221.967C583.285 221.957 583.264 221.942 583.247 221.923C583.231 221.904 583.218 221.882 583.211 221.858C583.203 221.834 583.201 221.808 583.204 221.783C583.739 217.427 580.719 213.059 576.473 212.045C576.439 212.037 576.408 212.02 576.384 211.994C576.361 211.969 576.345 211.937 576.339 211.903C576.333 211.869 576.337 211.834 576.351 211.802C576.364 211.77 576.387 211.743 576.416 211.723L656.954 158.751C656.995 158.725 657.045 158.715 657.093 158.727C661.51 159.781 664.651 164.324 664.095 168.854C664.092 168.88 664.083 168.905 664.07 168.927C664.056 168.949 664.038 168.967 664.016 168.981L583.479 221.953C583.45 221.973 583.416 221.983 583.381 221.983ZM576.945 211.802C581.035 212.988 583.928 217.182 583.595 221.451L663.751 168.73C664.236 164.426 661.265 160.131 657.085 159.092L576.945 211.802Z" fill="#111111"/>
<path d="M562.859 384.697C561.898 385.542 558.919 385.717 556.208 385.091C553.996 384.58 552.644 383.695 552.738 382.928L550.181 403.869C550.088 404.636 551.44 405.521 553.652 406.032C556.363 406.658 559.342 406.483 560.303 405.638L560.906 405.108L563.462 384.167L562.859 384.697Z" fill="#F4B6B0"/>
<path d="M556.925 406.589C555.883 406.589 554.733 406.464 553.612 406.206C551.311 405.674 549.895 404.749 550.005 403.848L552.561 382.907C552.564 382.884 552.571 382.861 552.583 382.841C552.594 382.82 552.61 382.802 552.628 382.788C552.646 382.774 552.668 382.763 552.69 382.757C552.713 382.751 552.736 382.749 552.759 382.752C552.806 382.758 552.849 382.782 552.878 382.819C552.907 382.856 552.92 382.903 552.915 382.95C552.844 383.529 553.967 384.391 556.249 384.918C558.908 385.532 561.821 385.373 562.742 384.564L563.345 384.034C563.372 384.01 563.406 383.995 563.442 383.991C563.478 383.987 563.514 383.993 563.546 384.01C563.577 384.027 563.603 384.053 563.62 384.085C563.637 384.117 563.644 384.153 563.639 384.189L561.083 405.13C561.078 405.173 561.057 405.213 561.024 405.242L560.421 405.772C559.812 406.307 558.491 406.589 556.925 406.589ZM552.826 383.675L550.358 403.891C550.288 404.47 551.41 405.332 553.692 405.859C556.352 406.473 559.265 406.314 560.186 405.505L560.738 405.02L563.229 384.609L562.977 384.831C561.964 385.722 558.973 385.912 556.168 385.265C554.525 384.885 553.333 384.305 552.826 383.675Z" fill="#111111"/>
<path d="M556.209 385.091C553.494 384.464 552.073 383.273 553.034 382.429L553.637 381.898L563.462 384.167L562.859 384.697C561.899 385.542 558.92 385.717 556.209 385.091Z" fill="white"/>
<path d="M559.482 385.648C558.44 385.648 557.289 385.523 556.169 385.264C554.159 384.8 552.784 384.014 552.582 383.212C552.523 382.98 552.534 382.631 552.916 382.295L553.52 381.765C553.563 381.727 553.621 381.713 553.677 381.725L563.503 383.994C563.535 384.001 563.564 384.017 563.587 384.04C563.611 384.063 563.627 384.092 563.635 384.124C563.643 384.155 563.642 384.189 563.633 384.22C563.623 384.251 563.605 384.279 563.58 384.301L562.977 384.831C562.369 385.366 561.048 385.648 559.482 385.648ZM553.686 382.092L553.151 382.562C552.95 382.74 552.876 382.924 552.927 383.125C553.064 383.667 554.144 384.432 556.249 384.918C558.909 385.532 561.822 385.373 562.742 384.564L563.085 384.263L553.686 382.092Z" fill="#111111"/>
<path d="M565.413 363.759C564.454 364.602 561.484 364.778 558.773 364.152L553.852 363.016L536.963 357.881L534.406 378.822L551.296 383.957L556.217 385.093C558.928 385.719 561.898 385.543 562.857 384.7L563.463 384.167L566.019 363.226L565.413 363.759Z" fill="#F4B6B0"/>
<path d="M559.484 385.649C558.444 385.649 557.296 385.525 556.177 385.266L551.256 384.13L534.355 378.992C534.315 378.98 534.28 378.954 534.257 378.919C534.235 378.884 534.225 378.842 534.23 378.801L536.786 357.86C536.789 357.834 536.798 357.809 536.812 357.787C536.826 357.765 536.844 357.746 536.866 357.732C536.887 357.718 536.912 357.709 536.938 357.705C536.963 357.701 536.989 357.703 537.014 357.711L553.904 362.846L558.813 363.979C561.468 364.592 564.377 364.433 565.296 363.625L565.902 363.093C565.929 363.069 565.963 363.054 565.998 363.05C566.034 363.046 566.07 363.052 566.102 363.069C566.168 363.103 566.205 363.175 566.196 363.248L563.64 384.189C563.634 384.232 563.613 384.272 563.58 384.301L562.975 384.834C562.367 385.367 561.048 385.649 559.484 385.649ZM534.601 378.695L551.348 383.787L556.257 384.919C558.912 385.533 561.82 385.374 562.739 384.566L563.294 384.078L565.786 363.668L565.531 363.893C564.519 364.782 561.533 364.972 558.733 364.326L553.812 363.189L537.113 358.113L534.601 378.695Z" fill="#111111"/>
<path d="M553.852 363.016L536.962 357.881L538.19 356.801L566.018 363.226L565.413 363.759C564.453 364.602 561.483 364.778 558.772 364.152L553.852 363.016Z" fill="white"/>
<path d="M562.04 364.708C561 364.708 559.851 364.584 558.733 364.325L553.812 363.189C553.808 363.188 553.804 363.187 553.8 363.186L536.91 358.051C536.88 358.042 536.853 358.025 536.831 358.002C536.81 357.978 536.795 357.95 536.788 357.919C536.781 357.888 536.783 357.855 536.793 357.825C536.803 357.795 536.821 357.768 536.845 357.747L538.073 356.667C538.116 356.629 538.175 356.615 538.231 356.627L566.059 363.052C566.091 363.06 566.12 363.076 566.143 363.099C566.167 363.122 566.183 363.151 566.191 363.182C566.199 363.214 566.198 363.247 566.189 363.279C566.179 363.31 566.161 363.338 566.136 363.359L565.53 363.892C564.923 364.426 563.603 364.708 562.04 364.708ZM553.897 362.844L558.812 363.979C561.468 364.592 564.376 364.433 565.295 363.625L565.641 363.322L538.239 356.995L537.32 357.804L553.897 362.844Z" fill="#111111"/>
<path d="M577.54 265.119C576.58 265.964 573.601 266.139 570.89 265.513C568.678 265.002 567.325 264.117 567.419 263.35L564.863 284.291C564.769 285.058 566.122 285.943 568.333 286.454C571.044 287.08 574.024 286.905 574.984 286.06L575.587 285.53L578.144 264.589L577.54 265.119Z" fill="#F4B6B0"/>
<path d="M571.606 287.011C570.564 287.011 569.414 286.886 568.294 286.627C565.992 286.096 564.577 285.17 564.687 284.269L567.243 263.33L567.243 263.328C567.255 263.231 567.344 263.159 567.441 263.173C567.488 263.179 567.531 263.203 567.56 263.24C567.589 263.278 567.602 263.325 567.596 263.372L567.596 263.373C567.527 263.952 568.65 264.813 570.93 265.339C573.59 265.954 576.503 265.795 577.424 264.986L578.027 264.455C578.054 264.432 578.088 264.417 578.123 264.412C578.159 264.408 578.195 264.415 578.227 264.432C578.259 264.449 578.285 264.475 578.302 264.507C578.319 264.538 578.325 264.575 578.321 264.61L575.765 285.552C575.759 285.595 575.738 285.635 575.705 285.664L575.102 286.194C574.494 286.728 573.173 287.011 571.606 287.011ZM567.508 264.097L565.04 284.313C564.969 284.892 566.092 285.753 568.374 286.28C571.034 286.895 573.947 286.736 574.867 285.927L575.419 285.441L577.911 265.031L577.658 265.253C576.645 266.144 573.655 266.334 570.85 265.686C569.206 265.307 568.014 264.726 567.508 264.097Z" fill="#111111"/>
<path d="M570.889 265.513C568.174 264.886 566.754 263.695 567.714 262.851L568.317 262.32L578.143 264.589L577.54 265.119C576.58 265.964 573.6 266.139 570.889 265.513Z" fill="white"/>
<path d="M574.162 266.07C573.12 266.07 571.97 265.945 570.849 265.686C568.839 265.222 567.465 264.436 567.263 263.634C567.204 263.401 567.214 263.053 567.597 262.717L568.2 262.187C568.243 262.149 568.302 262.134 568.358 262.147L578.183 264.415C578.215 264.423 578.244 264.439 578.268 264.462C578.291 264.485 578.308 264.514 578.316 264.545C578.324 264.577 578.323 264.61 578.313 264.642C578.303 264.673 578.285 264.701 578.261 264.722L577.658 265.253C577.05 265.788 575.728 266.07 574.162 266.07ZM568.367 262.514L567.832 262.984C567.63 263.161 567.557 263.345 567.608 263.547C567.745 264.089 568.825 264.854 570.93 265.339C573.59 265.954 576.502 265.795 577.423 264.986L577.765 264.684L568.367 262.514Z" fill="#111111"/>
<path d="M580.094 244.181C579.135 245.024 576.165 245.2 573.454 244.574L568.533 243.437L551.643 238.303L549.087 259.244L565.977 264.378L570.897 265.515C573.608 266.14 576.578 265.965 577.538 265.122L578.143 264.589L580.7 243.648L580.094 244.181Z" fill="#F4B6B0"/>
<path d="M574.165 266.071C573.124 266.071 571.976 265.946 570.857 265.688L565.937 264.552L549.035 259.414C548.995 259.402 548.961 259.376 548.938 259.341C548.915 259.306 548.905 259.264 548.91 259.222L551.467 238.281C551.47 238.256 551.479 238.231 551.492 238.209C551.506 238.187 551.525 238.168 551.546 238.154C551.568 238.14 551.593 238.131 551.618 238.127C551.644 238.123 551.67 238.125 551.695 238.133L568.585 243.267L573.494 244.4C576.149 245.013 579.057 244.855 579.976 244.047L580.582 243.514C580.609 243.491 580.643 243.476 580.679 243.471C580.715 243.467 580.751 243.474 580.783 243.491C580.815 243.508 580.841 243.534 580.857 243.566C580.874 243.598 580.881 243.634 580.876 243.67L578.32 264.611C578.315 264.654 578.294 264.694 578.261 264.723L577.655 265.255C577.048 265.789 575.728 266.071 574.165 266.071ZM549.282 259.117L566.028 264.208L570.937 265.341C573.593 265.954 576.501 265.795 577.42 264.988L577.975 264.5L580.466 244.09L580.211 244.314C579.2 245.204 576.214 245.393 573.413 244.747L568.493 243.611L551.794 238.535L549.282 259.117Z" fill="#111111"/>
<path d="M568.533 243.438L551.644 238.303L552.872 237.223L580.7 243.648L580.094 244.181C579.135 245.024 576.165 245.2 573.454 244.574L568.533 243.438Z" fill="white"/>
<path d="M576.722 245.13C575.681 245.13 574.533 245.005 573.414 244.747L568.493 243.611C568.489 243.61 568.485 243.609 568.482 243.608L551.592 238.473C551.562 238.464 551.534 238.447 551.513 238.424C551.491 238.4 551.477 238.372 551.47 238.341C551.463 238.31 551.465 238.278 551.475 238.247C551.485 238.217 551.502 238.19 551.526 238.169L552.755 237.089C552.798 237.051 552.856 237.037 552.912 237.05L580.74 243.475C580.772 243.482 580.801 243.498 580.825 243.521C580.848 243.544 580.865 243.573 580.873 243.604C580.881 243.636 580.88 243.669 580.87 243.701C580.861 243.732 580.842 243.76 580.818 243.782L580.212 244.314C579.604 244.848 578.285 245.13 576.722 245.13ZM568.579 243.266L573.494 244.4C576.15 245.014 579.058 244.855 579.977 244.047L580.322 243.743L552.921 237.417L552.001 238.226L568.579 243.266Z" fill="#111111"/>
<path d="M527.537 316.417L525.651 317.883C529.045 315.246 531.43 311.276 532.109 306.427C533.612 295.689 526.181 284.707 515.511 281.897C509.66 280.356 504.049 281.593 499.928 284.795L501.814 283.329C505.936 280.127 511.546 278.89 517.397 280.431C528.067 283.241 535.498 294.223 533.995 304.961C533.317 309.81 530.932 313.78 527.537 316.417Z" fill="#C42F21"/>
<path d="M525.651 318.061C525.614 318.061 525.578 318.049 525.548 318.028C525.518 318.006 525.495 317.976 525.483 317.941C525.471 317.906 525.47 317.868 525.481 317.832C525.491 317.797 525.513 317.765 525.542 317.742C529.018 315.042 531.287 311.015 531.933 306.402C533.421 295.768 526.034 284.852 515.466 282.069C509.894 280.602 504.271 281.647 500.037 284.936C500 284.964 499.953 284.977 499.906 284.972C499.859 284.966 499.816 284.941 499.787 284.904C499.758 284.867 499.746 284.82 499.751 284.773C499.757 284.726 499.782 284.683 499.819 284.654L501.705 283.189C506.027 279.831 511.763 278.763 517.443 280.259C528.18 283.087 535.685 294.179 534.172 304.986C533.513 309.69 531.196 313.8 527.647 316.558L525.76 318.023C525.729 318.048 525.691 318.061 525.651 318.061ZM510.529 281.063C512.185 281.063 513.873 281.281 515.556 281.725C526.293 284.552 533.798 295.645 532.286 306.451C531.808 309.865 530.457 312.966 528.395 315.464C531.325 312.798 533.236 309.107 533.82 304.936C535.308 294.302 527.921 283.386 517.352 280.603C512.226 279.253 507.055 280.03 502.964 282.725C505.293 281.627 507.869 281.063 510.529 281.063Z" fill="#111111"/>
<path d="M493.47 296.251C494.973 285.514 504.84 279.087 515.51 281.897C526.18 284.707 533.611 295.689 532.109 306.426C530.605 317.164 520.738 323.591 510.068 320.781C499.398 317.971 491.967 306.989 493.47 296.251ZM496.257 296.985C494.971 306.174 501.33 315.571 510.46 317.976C519.591 320.38 528.035 314.88 529.321 305.692C530.607 296.504 524.248 287.107 515.118 284.702C505.987 282.298 497.543 287.797 496.257 296.985Z" fill="white"/>
<path d="M515.087 321.623C513.424 321.623 511.725 321.402 510.023 320.953C499.285 318.125 491.781 307.033 493.293 296.227C494.019 291.047 496.69 286.682 500.817 283.936C505.047 281.121 510.281 280.336 515.556 281.725C526.293 284.552 533.797 295.645 532.285 306.451C531.56 311.631 528.888 315.996 524.762 318.742C521.897 320.648 518.573 321.623 515.087 321.623ZM493.646 296.276C492.157 306.91 499.545 317.826 510.113 320.609C515.288 321.972 520.42 321.203 524.565 318.446C528.605 315.757 531.222 311.48 531.932 306.402C533.421 295.768 526.034 284.852 515.465 282.069C510.291 280.706 505.158 281.475 501.014 284.232C496.973 286.921 494.356 291.198 493.646 296.276ZM514.755 318.722C513.33 318.722 511.875 318.532 510.415 318.147C501.215 315.725 494.785 306.221 496.081 296.961C496.703 292.521 498.993 288.779 502.53 286.426C506.156 284.013 510.643 283.339 515.163 284.53C524.363 286.953 530.793 296.457 529.497 305.717C528.876 310.157 526.585 313.898 523.048 316.252C520.593 317.886 517.743 318.722 514.755 318.722ZM510.824 284.312C507.905 284.312 505.123 285.128 502.727 286.722C499.276 289.019 497.041 292.673 496.434 297.01C495.162 306.097 501.474 315.425 510.506 317.803C514.927 318.968 519.311 318.311 522.851 315.955C526.303 313.659 528.537 310.005 529.145 305.668C530.416 296.58 524.104 287.253 515.072 284.874C513.644 284.498 512.218 284.312 510.824 284.312Z" fill="#111111"/>
<path d="M523.791 315.496C530.727 310.107 531.425 299.399 525.35 291.578C519.275 283.758 508.727 281.786 501.791 287.175C494.855 292.564 494.157 303.273 500.233 311.093C506.308 318.914 516.855 320.885 523.791 315.496Z" fill="white"/>
<path d="M514.755 318.722C513.33 318.722 511.875 318.532 510.415 318.147C501.215 315.725 494.785 306.221 496.081 296.961C496.703 292.521 498.993 288.779 502.53 286.426C506.156 284.013 510.643 283.339 515.163 284.53C524.363 286.953 530.793 296.457 529.497 305.717C528.876 310.157 526.585 313.898 523.048 316.252C520.593 317.886 517.743 318.722 514.755 318.722ZM510.824 284.312C507.905 284.312 505.123 285.128 502.727 286.722C499.276 289.019 497.041 292.673 496.433 297.01C495.162 306.097 501.474 315.425 510.506 317.803C514.927 318.968 519.311 318.311 522.851 315.955C526.302 313.659 528.537 310.005 529.144 305.668C530.416 296.58 524.104 287.253 515.072 284.874C513.644 284.498 512.218 284.312 510.824 284.312Z" fill="#111111"/>
<path d="M523.791 315.496C530.727 310.107 531.425 299.399 525.35 291.578C519.275 283.758 508.727 281.786 501.791 287.175C494.855 292.564 494.157 303.273 500.233 311.093C506.308 318.914 516.855 320.885 523.791 315.496Z" fill="white"/>
<path d="M514.755 318.722C513.33 318.722 511.875 318.532 510.415 318.147C501.215 315.725 494.785 306.221 496.081 296.961C496.703 292.521 498.993 288.779 502.53 286.426C506.156 284.013 510.643 283.339 515.163 284.53C524.363 286.953 530.793 296.457 529.497 305.717C528.876 310.157 526.585 313.898 523.048 316.252C520.593 317.886 517.743 318.722 514.755 318.722ZM510.824 284.312C507.905 284.312 505.123 285.128 502.727 286.722C499.276 289.019 497.041 292.673 496.433 297.01C495.162 306.097 501.474 315.425 510.506 317.803C514.927 318.968 519.311 318.311 522.851 315.955C526.302 313.659 528.537 310.005 529.144 305.668C530.416 296.58 524.104 287.253 515.072 284.874C513.644 284.498 512.218 284.312 510.824 284.312Z" fill="#111111"/>
<path d="M515.118 284.703C510.302 283.434 505.676 284.366 502.191 286.878C499.071 289.128 496.866 292.645 496.258 296.986C494.972 306.174 501.331 315.572 510.461 317.976C516.096 319.46 521.469 317.933 525.06 314.387C527.287 312.188 528.829 309.21 529.321 305.693C530.608 296.504 524.249 287.107 515.118 284.703ZM522.147 305.732C521.813 308.117 520.767 310.136 519.257 311.628C516.822 314.032 513.178 315.068 509.357 314.061C503.165 312.431 498.853 306.058 499.725 299.827C500.137 296.883 501.633 294.498 503.749 292.973C506.112 291.269 509.249 290.637 512.515 291.498C518.707 293.128 523.019 299.501 522.147 305.732Z" fill="#F4B6B0"/>
<path d="M514.716 318.713C513.302 318.713 511.857 318.527 510.415 318.148C501.215 315.725 494.785 306.221 496.081 296.961C496.673 292.731 498.806 289.098 502.086 286.733C505.732 284.105 510.498 283.301 515.163 284.53C524.363 286.953 530.793 296.457 529.497 305.717C529.015 309.162 527.523 312.204 525.184 314.514C522.409 317.254 518.68 318.713 514.716 318.713ZM510.872 284.323C507.75 284.323 504.759 285.245 502.295 287.022C499.093 289.33 497.012 292.877 496.434 297.01C495.162 306.097 501.474 315.425 510.506 317.804C515.865 319.214 521.258 317.89 524.934 314.261C527.217 312.006 528.673 309.035 529.145 305.668C530.417 296.581 524.104 287.253 515.073 284.874C513.67 284.505 512.258 284.323 510.872 284.323ZM512.243 314.619C511.278 314.619 510.294 314.492 509.311 314.233C503.045 312.583 498.666 306.11 499.548 299.802C499.952 296.918 501.406 294.441 503.644 292.828C506.13 291.036 509.38 290.488 512.56 291.325C518.826 292.975 523.205 299.449 522.322 305.756C521.993 308.105 520.976 310.179 519.381 311.754C517.488 313.624 514.945 314.619 512.243 314.619ZM509.635 291.298C507.53 291.298 505.514 291.919 503.852 293.117C501.694 294.672 500.291 297.064 499.901 299.852C499.042 305.986 503.304 312.283 509.402 313.889C513.016 314.84 516.653 313.948 519.131 311.501C520.67 309.981 521.652 307.977 521.97 305.707C522.829 299.572 518.567 293.275 512.469 291.669C511.523 291.42 510.57 291.298 509.635 291.298Z" fill="#111111"/>
<path d="M526.863 293.851L523.748 295.754L526.863 293.851Z" fill="white"/>
<path d="M523.748 295.932C523.71 295.932 523.672 295.919 523.641 295.896C523.61 295.872 523.587 295.84 523.577 295.802C523.566 295.765 523.568 295.725 523.583 295.689C523.597 295.653 523.623 295.622 523.656 295.602L526.771 293.699C526.791 293.687 526.813 293.679 526.836 293.675C526.859 293.671 526.883 293.672 526.906 293.677C526.929 293.683 526.95 293.692 526.97 293.706C526.989 293.72 527.005 293.738 527.017 293.758C527.029 293.778 527.037 293.8 527.041 293.823C527.044 293.846 527.043 293.87 527.038 293.893C527.032 293.916 527.022 293.937 527.008 293.956C526.994 293.975 526.976 293.991 526.956 294.003L523.841 295.906C523.813 295.923 523.781 295.932 523.748 295.932Z" fill="#111111"/>
<path d="M518.984 286.276L517.059 289.353L518.984 286.276Z" fill="white"/>
<path d="M517.058 289.531C517.027 289.531 516.996 289.522 516.968 289.506C516.941 289.49 516.918 289.467 516.903 289.439C516.888 289.411 516.88 289.38 516.881 289.348C516.882 289.317 516.891 289.286 516.908 289.259L518.834 286.181C518.859 286.142 518.899 286.115 518.944 286.105C518.99 286.094 519.038 286.103 519.077 286.127C519.117 286.152 519.145 286.191 519.156 286.237C519.167 286.282 519.159 286.33 519.135 286.37L517.21 289.448C517.193 289.473 517.171 289.494 517.145 289.509C517.118 289.523 517.089 289.531 517.058 289.531Z" fill="#111111"/>
<path d="M508.558 284.345L508.32 287.763L508.558 284.345Z" fill="white"/>
<path d="M508.32 287.941L508.307 287.941C508.26 287.938 508.216 287.916 508.185 287.88C508.154 287.845 508.139 287.798 508.142 287.751L508.379 284.333C508.386 284.235 508.473 284.162 508.569 284.168C508.667 284.175 508.741 284.26 508.734 284.358L508.497 287.776C508.494 287.821 508.474 287.863 508.441 287.894C508.408 287.924 508.365 287.941 508.32 287.941Z" fill="#111111"/>
<path d="M499.965 288.802L501.135 291.482L499.965 288.802Z" fill="white"/>
<path d="M501.134 291.66C501.1 291.66 501.066 291.65 501.037 291.631C501.008 291.612 500.985 291.585 500.971 291.553L499.801 288.873C499.792 288.851 499.787 288.828 499.786 288.805C499.786 288.781 499.79 288.758 499.798 288.736C499.807 288.715 499.82 288.695 499.836 288.678C499.852 288.661 499.871 288.648 499.893 288.638C499.914 288.629 499.937 288.624 499.961 288.624C499.984 288.623 500.007 288.627 500.029 288.636C500.051 288.644 500.071 288.657 500.087 288.673C500.104 288.69 500.118 288.709 500.127 288.73L501.297 291.411C501.309 291.438 501.314 291.468 501.312 291.497C501.309 291.527 501.3 291.555 501.284 291.58C501.267 291.605 501.245 291.625 501.219 291.639C501.193 291.653 501.164 291.66 501.134 291.66Z" fill="#111111"/>
<path d="M525.925 304.411L529.478 304.133L525.925 304.411Z" fill="white"/>
<path d="M525.924 304.589C525.878 304.589 525.834 304.571 525.801 304.539C525.768 304.507 525.748 304.464 525.746 304.418C525.744 304.372 525.761 304.327 525.791 304.293C525.822 304.258 525.864 304.237 525.91 304.233L529.463 303.955C529.486 303.953 529.51 303.956 529.532 303.963C529.555 303.97 529.575 303.982 529.593 303.997C529.611 304.012 529.626 304.031 529.636 304.052C529.647 304.073 529.653 304.095 529.654 304.119C529.656 304.142 529.653 304.166 529.646 304.188C529.639 304.21 529.627 304.231 529.612 304.248C529.597 304.266 529.579 304.281 529.558 304.291C529.537 304.302 529.514 304.308 529.491 304.31L525.938 304.588C525.933 304.589 525.929 304.589 525.924 304.589Z" fill="#111111"/>
<path d="M522.744 312.383L525.644 313.614L522.744 312.383Z" fill="white"/>
<path d="M525.644 313.792C525.62 313.792 525.596 313.788 525.574 313.778L522.675 312.546C522.653 312.537 522.633 312.524 522.616 312.508C522.599 312.491 522.586 312.471 522.577 312.449C522.568 312.427 522.563 312.404 522.563 312.38C522.564 312.357 522.568 312.333 522.578 312.312C522.587 312.29 522.6 312.27 522.617 312.254C522.634 312.237 522.654 312.224 522.676 312.216C522.698 312.207 522.722 312.203 522.746 312.203C522.769 312.204 522.792 312.209 522.814 312.219L525.714 313.451C525.751 313.467 525.782 313.495 525.801 313.532C525.82 313.568 525.826 313.61 525.818 313.65C525.81 313.69 525.788 313.726 525.756 313.752C525.725 313.778 525.685 313.792 525.644 313.792Z" fill="#111111"/>
<path d="M515.621 316.203L517.315 318.325L515.621 316.203Z" fill="white"/>
<path d="M517.316 318.503C517.289 318.503 517.262 318.497 517.238 318.485C517.214 318.473 517.193 318.457 517.176 318.436L515.482 316.314C515.467 316.296 515.455 316.275 515.448 316.252C515.441 316.229 515.439 316.205 515.441 316.182C515.444 316.158 515.451 316.135 515.462 316.114C515.473 316.093 515.489 316.075 515.507 316.06C515.526 316.045 515.547 316.034 515.57 316.028C515.593 316.021 515.617 316.02 515.64 316.023C515.664 316.026 515.687 316.033 515.707 316.045C515.728 316.057 515.746 316.073 515.76 316.092L517.454 318.214C517.475 318.24 517.488 318.271 517.492 318.305C517.496 318.338 517.49 318.372 517.476 318.402C517.461 318.432 517.438 318.457 517.41 318.475C517.382 318.493 517.349 318.503 517.316 318.503Z" fill="#111111"/>
<path d="M496.133 298.702L497.811 299.75L496.133 298.702Z" fill="white"/>
<path d="M497.811 299.928C497.778 299.928 497.745 299.919 497.717 299.901L496.039 298.853C496.019 298.84 496.002 298.824 495.988 298.805C495.975 298.786 495.965 298.765 495.96 298.742C495.954 298.719 495.954 298.696 495.958 298.673C495.961 298.65 495.97 298.628 495.982 298.608C495.995 298.588 496.011 298.571 496.03 298.557C496.049 298.544 496.07 298.534 496.093 298.529C496.116 298.523 496.139 298.523 496.162 298.527C496.185 298.53 496.207 298.539 496.227 298.551L497.906 299.6C497.938 299.62 497.964 299.651 497.978 299.687C497.991 299.723 497.993 299.763 497.982 299.8C497.972 299.837 497.949 299.87 497.918 299.893C497.887 299.916 497.85 299.929 497.811 299.928Z" fill="#111111"/>
<path d="M518.399 312.379L515.231 314.84C517.201 313.31 518.585 311.006 518.979 308.192C519.851 301.961 515.539 295.588 509.347 293.958C505.952 293.064 502.696 293.782 500.305 295.64L503.472 293.179C505.864 291.321 509.119 290.603 512.514 291.497C518.706 293.128 523.018 299.5 522.146 305.731C521.752 308.545 520.368 310.849 518.399 312.379Z" fill="#C42F21"/>
<path d="M515.232 315.018C515.195 315.018 515.159 315.006 515.128 314.985C515.098 314.963 515.075 314.933 515.063 314.898C515.051 314.863 515.051 314.825 515.061 314.789C515.072 314.754 515.093 314.722 515.123 314.7C517.124 313.145 518.431 310.825 518.803 308.168C519.662 302.033 515.4 295.736 509.302 294.13C506.092 293.285 502.852 293.886 500.414 295.78C500.377 295.809 500.33 295.822 500.283 295.816C500.236 295.81 500.193 295.786 500.164 295.749C500.135 295.712 500.122 295.664 500.128 295.617C500.134 295.571 500.158 295.528 500.196 295.499L503.363 293.039C505.889 291.076 509.241 290.451 512.56 291.325C518.826 292.975 523.205 299.449 522.323 305.756C521.938 308.506 520.583 310.908 518.508 312.52L515.341 314.981C515.31 315.005 515.271 315.018 515.232 315.018ZM506.457 293.4C507.423 293.4 508.41 293.527 509.393 293.786C515.659 295.436 520.038 301.91 519.155 308.217C518.9 310.039 518.219 311.709 517.185 313.098L518.29 312.239C520.291 310.684 521.598 308.365 521.97 305.707C522.829 299.572 518.567 293.276 512.47 291.67C509.259 290.824 506.019 291.426 503.582 293.32L502.483 294.173C503.724 293.662 505.07 293.4 506.457 293.4Z" fill="#111111"/>
<path d="M515.23 314.84C519.933 311.185 520.406 303.923 516.286 298.62C512.167 293.316 505.014 291.98 500.31 295.634C495.607 299.288 495.134 306.55 499.254 311.854C503.373 317.157 510.526 318.494 515.23 314.84Z" fill="white"/>
<path d="M509.102 317.085C508.131 317.085 507.139 316.956 506.144 316.694C499.878 315.044 495.499 308.57 496.382 302.263C496.805 299.236 498.367 296.685 500.78 295.079C503.252 293.433 506.312 292.975 509.393 293.786C515.659 295.436 520.039 301.909 519.156 308.217C518.732 311.244 517.17 313.795 514.758 315.401C513.083 316.515 511.139 317.085 509.102 317.085ZM506.437 293.751C504.468 293.751 502.592 294.301 500.977 295.375C498.65 296.924 497.144 299.387 496.734 302.312C495.875 308.447 500.137 314.744 506.235 316.35C509.217 317.135 512.174 316.693 514.56 315.104C516.887 313.556 518.394 311.092 518.803 308.167C519.662 302.033 515.4 295.736 509.302 294.13C508.338 293.876 507.377 293.751 506.437 293.751Z" fill="#111111"/>
<path d="M426.107 295.361C430.562 292.431 431.516 286.014 428.238 281.028C424.959 276.042 418.689 274.376 414.234 277.307C409.779 280.237 408.825 286.654 412.104 291.64C415.382 296.626 421.652 298.292 426.107 295.361Z" fill="white"/>
<path d="M421.22 296.985C420.449 296.985 419.664 296.892 418.877 296.704C413.313 295.376 409.356 289.65 410.057 283.939C410.399 281.154 411.782 278.789 413.951 277.282C416.103 275.787 418.772 275.318 421.465 275.96C427.029 277.287 430.986 283.014 430.285 288.724C429.943 291.51 428.56 293.875 426.391 295.382C424.868 296.44 423.086 296.984 421.22 296.985ZM419.124 276.035C417.329 276.035 415.617 276.558 414.154 277.574C412.07 279.023 410.74 281.299 410.41 283.983C409.73 289.519 413.566 295.071 418.96 296.358C421.553 296.976 424.12 296.526 426.188 295.089C428.272 293.641 429.602 291.365 429.932 288.681C430.611 283.144 426.776 277.593 421.382 276.306C420.623 276.125 419.866 276.035 419.124 276.035Z" fill="#111111"/>
<path d="M437.298 275.582C435.738 273.018 433.231 271.035 430.253 270.325C429.12 270.055 428.007 269.989 426.949 270.106C425.53 270.262 424.209 270.745 423.066 271.496L414.236 277.304C415.379 276.553 416.7 276.07 418.119 275.914C419.177 275.797 420.29 275.862 421.423 276.133C424.401 276.843 426.908 278.825 428.468 281.39C429.783 283.552 430.425 286.127 430.109 288.703C429.751 291.613 428.24 293.956 426.106 295.36L434.936 289.552C437.07 288.148 438.581 285.805 438.939 282.895C439.255 280.319 438.613 277.744 437.298 275.582Z" fill="#C42F21"/>
<path d="M426.107 295.537C426.068 295.537 426.031 295.525 426 295.502C425.97 295.479 425.947 295.447 425.936 295.41C425.925 295.374 425.926 295.335 425.939 295.299C425.953 295.263 425.977 295.232 426.009 295.211L426.013 295.208C428.201 293.767 429.592 291.449 429.932 288.681C430.231 286.244 429.658 283.687 428.316 281.482C426.723 278.864 424.196 276.977 421.382 276.306C420.293 276.046 419.202 275.974 418.139 276.091C416.757 276.243 415.477 276.701 414.334 277.453C414.315 277.466 414.293 277.475 414.27 277.479C414.247 277.483 414.223 277.483 414.201 277.478C414.178 277.474 414.156 277.464 414.137 277.451C414.117 277.438 414.101 277.421 414.088 277.402C414.075 277.382 414.066 277.36 414.062 277.337C414.057 277.314 414.058 277.291 414.062 277.268C414.067 277.245 414.076 277.223 414.089 277.204C414.102 277.185 414.119 277.168 414.139 277.155L422.969 271.347C424.142 270.576 425.512 270.085 426.93 269.929C428.034 269.807 429.166 269.882 430.295 270.152C433.201 270.845 435.809 272.79 437.45 275.49C438.833 277.762 439.424 280.4 439.115 282.916C438.762 285.792 437.313 288.201 435.034 289.7L426.208 295.505C426.178 295.526 426.143 295.538 426.107 295.537ZM419.134 275.681C419.906 275.681 420.686 275.774 421.465 275.96C424.37 276.653 426.978 278.598 428.62 281.297C430.003 283.571 430.594 286.208 430.285 288.724C430.043 290.693 429.288 292.443 428.104 293.832L434.839 289.403C437.029 287.962 438.422 285.643 438.762 282.873C439.061 280.436 438.487 277.879 437.146 275.675C435.553 273.056 433.026 271.169 430.212 270.498C429.124 270.238 428.032 270.166 426.969 270.283C425.587 270.435 424.307 270.894 423.164 271.645L416.409 276.088C416.96 275.918 417.526 275.8 418.1 275.737C418.443 275.699 418.788 275.681 419.134 275.681Z" fill="#111111"/>
<path d="M409.591 316.304L413.123 313.981C412.752 314.967 412.118 315.737 411.333 316.253L407.801 318.576C408.586 318.06 409.22 317.291 409.591 316.304Z" fill="#C42F21"/>
<path d="M407.802 318.754C407.764 318.754 407.726 318.742 407.696 318.719C407.665 318.696 407.642 318.664 407.632 318.627C407.621 318.591 407.622 318.551 407.635 318.515C407.648 318.48 407.672 318.449 407.704 318.428C408.486 317.913 409.081 317.157 409.425 316.241C409.438 316.206 409.462 316.176 409.494 316.155L413.026 313.832C413.057 313.811 413.094 313.801 413.132 313.803C413.169 313.805 413.205 313.818 413.235 313.842C413.264 313.865 413.285 313.897 413.295 313.934C413.305 313.97 413.303 314.008 413.29 314.043C412.919 315.03 412.277 315.846 411.431 316.402L407.899 318.725C407.869 318.745 407.835 318.754 407.802 318.754ZM409.737 316.421C409.598 316.781 409.418 317.124 409.201 317.443L411.236 316.105C411.856 315.696 412.359 315.136 412.712 314.464L409.737 316.421Z" fill="#111111"/>
<path d="M391.164 274.16C390.425 274.242 389.734 274.493 389.136 274.887L385.604 277.21C386.213 276.81 386.908 276.561 387.632 276.483C388.316 276.408 389.041 276.478 389.772 276.716L393.304 274.393C392.573 274.155 391.848 274.085 391.164 274.16Z" fill="#C42F21"/>
<path d="M385.604 277.388C385.565 277.388 385.528 277.375 385.497 277.353C385.467 277.33 385.444 277.298 385.433 277.261C385.422 277.224 385.423 277.185 385.436 277.149C385.45 277.113 385.474 277.082 385.506 277.061L385.508 277.06L389.038 274.738C389.662 274.327 390.391 274.067 391.145 273.983C391.877 273.903 392.622 273.984 393.359 274.224C393.391 274.234 393.419 274.253 393.441 274.279C393.462 274.305 393.476 274.336 393.48 274.369C393.485 274.403 393.48 274.436 393.466 274.467C393.452 274.497 393.43 274.523 393.402 274.542L389.87 276.865C389.825 276.895 389.768 276.902 389.717 276.885C389.028 276.661 388.332 276.585 387.652 276.66C386.954 276.737 386.281 276.978 385.704 277.357L385.701 277.359C385.672 277.378 385.638 277.388 385.604 277.388ZM388.164 276.276C388.689 276.276 389.219 276.358 389.745 276.521L392.883 274.457C392.314 274.316 391.744 274.276 391.184 274.337C390.485 274.414 389.811 274.656 389.233 275.035L387.205 276.369C387.521 276.307 387.842 276.276 388.164 276.276Z" fill="#111111"/>
<path d="M415.449 298.799C415.668 298.851 415.885 298.895 416.103 298.932L409.591 316.304C408.517 319.162 405.231 320.195 402.467 318.547C400.35 317.285 399.231 314.859 399.505 312.628C399.588 311.946 399.802 311.282 400.158 310.675L409.385 294.926C410.927 296.809 413.033 298.222 415.449 298.799Z" fill="white"/>
<path d="M405.232 319.511C404.263 319.511 403.275 319.236 402.376 318.7C400.26 317.439 399.036 314.99 399.328 312.606C399.417 311.878 399.645 311.198 400.005 310.585L409.232 294.836C409.246 294.811 409.266 294.79 409.291 294.775C409.315 294.76 409.343 294.751 409.371 294.749C409.4 294.746 409.429 294.751 409.455 294.762C409.482 294.774 409.505 294.791 409.523 294.813C411.091 296.728 413.21 298.082 415.49 298.626C415.704 298.677 415.92 298.721 416.132 298.757C416.158 298.762 416.183 298.772 416.204 298.787C416.226 298.802 416.244 298.821 416.257 298.844C416.27 298.867 416.278 298.892 416.28 298.918C416.282 298.944 416.278 298.971 416.269 298.995L409.757 316.366C409.24 317.745 408.212 318.764 406.863 319.237C406.339 319.419 405.787 319.512 405.232 319.511ZM409.411 295.234L400.311 310.765C399.977 311.336 399.765 311.97 399.681 312.65C399.405 314.895 400.562 317.204 402.558 318.394C403.883 319.184 405.409 319.369 406.745 318.901C407.993 318.464 408.944 317.519 409.424 316.241L415.861 299.07C415.709 299.04 415.558 299.008 415.408 298.972C413.131 298.429 411.01 297.105 409.411 295.234Z" fill="#111111"/>
<path d="M416.102 298.933L419.635 296.61L413.123 313.981L409.591 316.304L416.102 298.933Z" fill="#C42F21"/>
<path d="M409.591 316.482C409.562 316.482 409.534 316.475 409.508 316.462C409.483 316.448 409.461 316.429 409.445 316.405C409.428 316.382 409.418 316.354 409.414 316.326C409.411 316.297 409.414 316.268 409.424 316.242L415.936 298.87C415.95 298.835 415.974 298.805 416.005 298.784L419.537 296.461C419.569 296.44 419.606 296.43 419.643 296.432C419.681 296.434 419.717 296.447 419.746 296.471C419.775 296.494 419.796 296.526 419.806 296.562C419.816 296.598 419.815 296.637 419.801 296.672L413.29 314.043C413.276 314.079 413.252 314.109 413.221 314.13L409.689 316.453C409.66 316.472 409.626 316.482 409.591 316.482ZM416.249 299.049L409.949 315.855L412.977 313.864L419.277 297.058L416.249 299.049Z" fill="#111111"/>
<path d="M389.771 276.716L393.304 274.393L411.465 280.295L407.933 282.619L389.771 276.716Z" fill="#C42F21"/>
<path d="M407.933 282.797C407.914 282.797 407.896 282.794 407.878 282.788L389.717 276.885C389.685 276.875 389.657 276.856 389.635 276.83C389.614 276.804 389.6 276.773 389.595 276.74C389.591 276.707 389.596 276.673 389.61 276.642C389.624 276.612 389.646 276.586 389.674 276.567L393.206 274.244C393.251 274.215 393.308 274.208 393.359 274.224L411.52 280.126C411.552 280.137 411.58 280.156 411.601 280.182C411.623 280.207 411.637 280.239 411.641 280.272C411.646 280.305 411.641 280.339 411.627 280.369C411.613 280.4 411.591 280.426 411.563 280.444L408.03 282.768C408.001 282.787 407.967 282.797 407.933 282.797ZM390.179 276.661L407.906 282.423L411.058 280.35L393.33 274.589L390.179 276.661Z" fill="#111111"/>
<path d="M389.772 276.716L407.933 282.618C407.335 283.679 406.928 284.894 406.764 286.229C406.6 287.564 406.694 288.899 407.005 290.176L388.469 287.327C385.419 286.859 383.134 283.793 383.516 280.683C383.898 277.573 386.784 275.744 389.772 276.716Z" fill="white"/>
<path d="M407.005 290.354C406.996 290.354 406.987 290.353 406.978 290.352L388.442 287.503C385.28 287.018 382.944 283.885 383.34 280.661C383.528 279.129 384.338 277.803 385.564 277.023C386.794 276.239 388.348 276.066 389.827 276.547L407.988 282.449C408.013 282.457 408.036 282.471 408.055 282.489C408.074 282.507 408.089 282.529 408.099 282.554C408.109 282.578 408.112 282.605 408.111 282.631C408.109 282.657 408.101 282.683 408.088 282.706C407.484 283.776 407.098 284.969 406.941 286.251C406.783 287.535 406.863 288.841 407.178 290.134C407.185 290.16 407.185 290.187 407.179 290.214C407.174 290.24 407.162 290.265 407.145 290.286C407.129 290.307 407.107 290.325 407.083 290.336C407.059 290.348 407.032 290.354 407.005 290.354ZM388.151 276.63C387.297 276.63 386.477 276.863 385.755 277.323C384.603 278.057 383.87 279.258 383.693 280.704C383.32 283.742 385.519 286.695 388.496 287.152L406.772 289.96C406.497 288.71 406.435 287.449 406.587 286.207C406.741 284.954 407.106 283.783 407.673 282.721L389.717 276.885C389.191 276.715 388.665 276.63 388.151 276.63Z" fill="#111111"/>
<path d="M430.176 286.065C429.576 280.292 424.089 275.183 418.18 275.859C416.982 275.991 415.854 276.356 414.843 276.919C414.548 277.064 411.133 279.338 410.768 279.572C418.037 274.982 427.044 281.976 426.713 289.994C426.667 293.002 425.121 296.045 422.636 297.628C425.369 295.759 428.346 294.458 429.574 291.048C430.177 289.503 430.375 287.731 430.176 286.065Z" fill="#C42F21"/>
<path d="M422.636 297.805C422.598 297.805 422.561 297.793 422.53 297.771C422.499 297.748 422.477 297.716 422.465 297.68C422.454 297.644 422.455 297.605 422.467 297.569C422.48 297.533 422.504 297.502 422.535 297.48C422.643 297.407 422.752 297.333 422.861 297.261C425.06 295.694 426.49 292.885 426.535 289.991C426.704 285.884 424.402 281.838 420.669 279.679C417.44 277.811 413.865 277.827 410.862 279.723C410.842 279.735 410.82 279.744 410.797 279.748C410.774 279.752 410.751 279.751 410.728 279.746C410.705 279.741 410.684 279.731 410.665 279.718C410.645 279.704 410.629 279.687 410.617 279.668C410.604 279.648 410.596 279.626 410.592 279.603C410.587 279.58 410.588 279.556 410.593 279.533C410.598 279.511 410.608 279.489 410.621 279.47C410.635 279.451 410.652 279.434 410.671 279.422C410.964 279.231 411.256 279.039 411.547 278.846C413.062 277.846 414.558 276.861 414.765 276.759C415.804 276.179 416.949 275.816 418.161 275.682C420.841 275.375 423.585 276.225 425.887 278.075C428.409 280.101 430.036 283.006 430.352 286.045C430.559 287.773 430.341 289.572 429.739 291.113C428.718 293.95 426.547 295.329 424.248 296.79C423.857 297.038 423.457 297.292 423.062 297.555C422.953 297.632 422.843 297.706 422.731 297.777C422.703 297.796 422.67 297.805 422.636 297.805ZM415.719 277.931C417.44 277.931 419.188 278.411 420.847 279.371C424.693 281.596 427.065 285.768 426.89 290.001C426.855 292.274 425.992 294.5 424.58 296.156C426.627 294.844 428.5 293.502 429.405 290.988C429.988 289.496 430.198 287.757 429.998 286.086L429.998 286.083C429.697 283.181 428.076 280.29 425.663 278.352C423.436 276.563 420.785 275.74 418.2 276.036C417.036 276.164 415.935 276.514 414.929 277.074C414.785 277.145 413.835 277.765 412.916 278.369C413.822 278.079 414.768 277.931 415.719 277.931Z" fill="#111111"/>
<path d="M426.041 293.371L429.573 291.048L444.067 304.669L440.535 306.992L426.041 293.371Z" fill="#C42F21"/>
<path d="M440.536 307.17C440.49 307.17 440.447 307.153 440.414 307.122L425.919 293.501C425.9 293.482 425.885 293.46 425.875 293.435C425.865 293.41 425.862 293.383 425.864 293.356C425.866 293.329 425.875 293.303 425.888 293.28C425.902 293.257 425.921 293.237 425.943 293.222L429.475 290.899C429.509 290.877 429.549 290.867 429.589 290.871C429.628 290.874 429.666 290.891 429.695 290.918L444.189 304.539C444.209 304.558 444.224 304.58 444.234 304.605C444.243 304.63 444.247 304.657 444.245 304.684C444.243 304.711 444.234 304.737 444.22 304.76C444.207 304.783 444.188 304.803 444.165 304.818L440.633 307.141C440.604 307.16 440.57 307.17 440.536 307.17ZM426.328 293.396L440.555 306.766L443.781 304.644L429.554 291.274L426.328 293.396Z" fill="#111111"/>
<path d="M406.764 286.229C407.11 283.274 408.772 280.648 411.311 279.242C418.491 275.331 427.056 282.219 426.713 289.994C426.661 293.706 424.372 297.246 420.943 298.492C413.452 301.254 405.751 293.809 406.764 286.229Z" fill="white"/>
<path d="M417.668 299.26C415.375 299.26 413.088 298.433 411.087 296.83C407.79 294.19 406.066 290.119 406.588 286.207C406.946 283.159 408.679 280.497 411.225 279.087C414.338 277.391 417.966 277.571 421.182 279.578C424.829 281.855 427.07 285.947 426.891 290.001C426.838 293.857 424.417 297.42 421.005 298.659C419.913 299.062 418.79 299.26 417.668 299.26ZM415.703 278.29C414.22 278.29 412.757 278.658 411.397 279.399C408.951 280.753 407.286 283.314 406.941 286.25L406.941 286.253C406.435 290.042 408.109 293.989 411.309 296.552C414.19 298.86 417.68 299.506 420.882 298.325C424.16 297.135 426.484 293.708 426.535 289.991C426.709 286.057 424.534 282.09 420.994 279.88C419.299 278.822 417.487 278.29 415.703 278.29Z" fill="#111111"/>
<path d="M420.943 298.492C423.245 297.617 425.098 295.803 426.041 293.371L440.535 306.992C442.025 308.388 442.686 310.351 442.466 312.139C442.333 313.221 441.879 314.238 441.09 315.027C438.999 317.12 435.453 316.706 433.405 314.133L420.943 298.492Z" fill="white"/>
<path d="M437.821 316.542C437.722 316.542 437.624 316.539 437.525 316.533C435.904 316.442 434.351 315.607 433.266 314.243L420.805 298.603C420.787 298.581 420.775 298.555 420.769 298.528C420.764 298.5 420.765 298.472 420.772 298.445C420.779 298.418 420.793 298.393 420.812 298.372C420.831 298.351 420.854 298.335 420.88 298.325C423.186 297.449 424.96 295.667 425.875 293.307C425.886 293.279 425.903 293.255 425.925 293.236C425.947 293.217 425.973 293.204 426.002 293.197C426.03 293.191 426.06 293.191 426.088 293.199C426.116 293.207 426.142 293.221 426.163 293.241L440.658 306.862C442.138 308.249 442.88 310.23 442.643 312.161C442.5 313.328 442.007 314.362 441.217 315.153C440.315 316.054 439.119 316.542 437.821 316.542ZM421.233 298.569L433.544 314.022C434.567 315.306 436.025 316.092 437.545 316.178C438.853 316.251 440.068 315.798 440.965 314.901C441.698 314.167 442.157 313.205 442.29 312.117C442.513 310.299 441.812 308.431 440.414 307.122L426.109 293.679C425.163 295.937 423.445 297.66 421.233 298.569Z" fill="#111111"/>
<path d="M445.145 305.994C444.848 305.505 444.486 305.06 444.068 304.669L440.536 306.992C440.953 307.383 441.316 307.828 441.613 308.317C442.333 309.5 442.624 310.864 442.467 312.139C442.334 313.221 441.879 314.238 441.091 315.027C440.872 315.247 440.631 315.444 440.371 315.614L443.903 313.291C444.163 313.12 444.404 312.924 444.623 312.704C445.412 311.915 445.866 310.898 445.999 309.816C446.155 308.541 445.865 307.177 445.145 305.994Z" fill="#C42F21"/>
<path d="M440.371 315.792C440.333 315.793 440.295 315.78 440.264 315.758C440.234 315.735 440.211 315.703 440.2 315.666C440.189 315.629 440.19 315.59 440.203 315.554C440.216 315.518 440.241 315.487 440.273 315.466C440.523 315.302 440.754 315.112 440.965 314.901C441.699 314.167 442.157 313.205 442.291 312.118C442.445 310.86 442.15 309.543 441.461 308.409C441.172 307.934 440.82 307.501 440.415 307.122C440.395 307.103 440.38 307.081 440.37 307.056C440.36 307.031 440.357 307.004 440.359 306.977C440.361 306.95 440.369 306.924 440.383 306.901C440.397 306.878 440.416 306.858 440.438 306.843L443.97 304.52C444.004 304.498 444.044 304.488 444.083 304.492C444.123 304.495 444.161 304.512 444.19 304.539C444.619 304.941 444.991 305.399 445.297 305.901C446.028 307.103 446.34 308.501 446.176 309.838C446.033 311.005 445.539 312.039 444.749 312.83C444.521 313.058 444.27 313.262 444.001 313.44L440.469 315.763C440.44 315.782 440.406 315.792 440.371 315.792ZM440.819 307.019C441.181 307.382 441.498 307.786 441.765 308.224C442.495 309.426 442.807 310.824 442.643 312.161C442.538 313.017 442.244 313.803 441.783 314.473L443.805 313.142C444.054 312.978 444.286 312.789 444.497 312.578C445.23 311.844 445.689 310.881 445.822 309.794C445.977 308.537 445.682 307.219 444.993 306.086C444.728 305.651 444.41 305.251 444.047 304.895L440.819 307.019Z" fill="#111111"/>
<path d="M416.604 259.18L420.137 256.857L422.134 276.255L418.602 278.578L416.604 259.18Z" fill="#C42F21"/>
<path d="M418.601 278.756C418.557 278.756 418.515 278.74 418.482 278.71C418.449 278.68 418.429 278.64 418.424 278.596L416.427 259.198C416.423 259.166 416.429 259.133 416.443 259.104C416.457 259.074 416.479 259.049 416.506 259.032L420.038 256.708C420.09 256.675 420.156 256.67 420.212 256.696C420.268 256.723 420.306 256.777 420.313 256.839L422.31 276.236C422.314 276.269 422.308 276.302 422.294 276.331C422.28 276.36 422.258 276.385 422.231 276.403L418.699 278.727C418.67 278.746 418.636 278.756 418.601 278.756ZM416.792 259.27L418.748 278.268L421.945 276.165L419.989 257.167L416.792 259.27Z" fill="#111111"/>
<path d="M410.422 253.758C413.422 253.485 416.274 255.987 416.604 259.18L418.602 278.578C418.388 278.512 418.172 278.453 417.954 278.401C415.538 277.824 413.214 278.181 411.311 279.243L406.366 260.116C406.175 259.378 406.132 258.652 406.216 257.97C406.49 255.738 408.124 253.97 410.422 253.758Z" fill="white"/>
<path d="M411.311 279.421C411.271 279.421 411.233 279.408 411.202 279.383C411.17 279.359 411.148 279.325 411.138 279.287L406.193 260.16C406.001 259.418 405.949 258.674 406.038 257.948C406.333 255.55 408.088 253.795 410.405 253.581H410.405C413.52 253.297 416.438 255.853 416.781 259.162L418.778 278.559C418.781 278.588 418.777 278.618 418.766 278.645C418.755 278.672 418.737 278.696 418.714 278.715C418.668 278.753 418.606 278.765 418.549 278.748C418.339 278.683 418.126 278.625 417.912 278.574C415.637 278.031 413.324 278.324 411.398 279.398C411.371 279.413 411.341 279.421 411.311 279.421ZM410.437 253.936C408.291 254.134 406.665 255.764 406.392 257.991C406.308 258.673 406.357 259.373 406.537 260.071L411.426 278.978C413.389 277.95 415.712 277.683 417.995 278.227C418.128 278.259 418.263 278.294 418.397 278.332L416.427 259.198C416.104 256.08 413.361 253.667 410.437 253.936Z" fill="#111111"/>
<path d="M419.271 254.306C418.14 252.447 416.084 251.241 413.953 251.435C413.925 251.438 413.896 251.441 413.868 251.444C413.109 251.527 412.425 251.781 411.841 252.165L408.309 254.489C408.893 254.104 409.577 253.85 410.335 253.767C410.364 253.764 410.393 253.761 410.422 253.758C412.552 253.564 414.608 254.77 415.739 256.629C416.201 257.387 416.509 258.255 416.604 259.18L420.136 256.857C420.04 255.932 419.733 255.064 419.271 254.306Z" fill="#C42F21"/>
<path d="M416.605 259.358C416.561 259.358 416.518 259.342 416.485 259.313C416.453 259.283 416.432 259.242 416.428 259.198C416.338 258.334 416.048 257.477 415.588 256.721C414.448 254.848 412.427 253.753 410.438 253.935L410.356 253.944C409.643 254.022 408.987 254.256 408.407 254.637C408.387 254.65 408.365 254.659 408.342 254.663C408.319 254.668 408.296 254.668 408.273 254.663C408.25 254.658 408.228 254.649 408.209 254.636C408.19 254.623 408.173 254.606 408.16 254.586C408.147 254.567 408.138 254.545 408.134 254.522C408.13 254.499 408.13 254.475 408.135 254.453C408.139 254.43 408.148 254.408 408.162 254.389C408.175 254.369 408.192 254.353 408.211 254.34L411.743 252.017C412.371 251.604 413.079 251.352 413.849 251.267L413.938 251.258C416.061 251.067 418.214 252.225 419.424 254.213C419.911 255.014 420.219 255.922 420.314 256.839C420.317 256.871 420.311 256.904 420.297 256.933C420.283 256.963 420.262 256.988 420.234 257.006L416.702 259.329C416.673 259.348 416.639 259.358 416.605 259.358ZM410.866 253.56C412.836 253.56 414.77 254.692 415.892 256.537C416.328 257.252 416.617 258.047 416.745 258.875L419.948 256.769C419.846 255.941 419.561 255.123 419.12 254.399C417.98 252.525 415.959 251.43 413.97 251.613L413.887 251.621C413.175 251.7 412.519 251.933 411.939 252.315L409.904 253.653C410.04 253.627 410.178 253.606 410.316 253.59L410.405 253.581C410.558 253.567 410.712 253.56 410.866 253.56Z" fill="#111111"/>
<path d="M423.064 281.24L426.597 278.917L442.077 269.944L438.545 272.268L423.064 281.24Z" fill="#C42F21"/>
<path d="M423.065 281.418C423.027 281.418 422.989 281.406 422.959 281.383C422.928 281.36 422.905 281.328 422.894 281.291C422.883 281.254 422.884 281.215 422.897 281.179C422.911 281.143 422.935 281.112 422.967 281.091L426.499 278.768L441.988 269.791C442.028 269.767 442.076 269.76 442.121 269.771C442.166 269.783 442.205 269.811 442.229 269.851C442.254 269.89 442.262 269.938 442.252 269.983C442.241 270.028 442.214 270.068 442.175 270.093L438.643 272.416L423.154 281.394C423.127 281.41 423.096 281.418 423.065 281.418Z" fill="#111111"/>
<path d="M449.539 272.664C449.46 272.507 449.375 272.353 449.284 272.203C448.072 270.211 445.914 269.13 443.889 269.351C443.25 269.42 442.633 269.622 442.077 269.944L438.545 272.268C439.101 271.945 439.718 271.743 440.357 271.674C442.382 271.453 444.54 272.534 445.752 274.526C445.842 274.675 445.927 274.829 446.007 274.987C446.562 276.095 446.749 277.265 446.616 278.346C446.44 279.775 445.708 281.05 444.534 281.822L448.066 279.499C449.24 278.726 449.972 277.452 450.148 276.023C450.28 274.942 450.094 273.772 449.539 272.664Z" fill="#C42F21"/>
<path d="M444.535 281.999C444.496 281.999 444.459 281.987 444.428 281.964C444.398 281.941 444.375 281.909 444.364 281.872C444.353 281.836 444.354 281.797 444.367 281.761C444.38 281.725 444.405 281.694 444.437 281.673C445.537 280.949 446.267 279.728 446.44 278.324C446.574 277.232 446.369 276.106 445.848 275.067C445.772 274.914 445.689 274.764 445.6 274.618C444.444 272.717 442.394 271.631 440.377 271.851C439.763 271.917 439.169 272.111 438.635 272.421C438.595 272.446 438.546 272.454 438.5 272.443C438.454 272.432 438.415 272.404 438.39 272.364C438.365 272.323 438.357 272.275 438.368 272.229C438.379 272.183 438.407 272.143 438.448 272.119L441.98 269.795C442.559 269.457 443.203 269.246 443.87 269.174C446.024 268.939 448.208 270.091 449.436 272.11C449.53 272.264 449.618 272.423 449.698 272.584C450.251 273.686 450.468 274.882 450.325 276.044C450.14 277.553 449.352 278.866 448.164 279.647L444.632 281.97C444.603 281.989 444.569 282 444.535 281.999ZM440.896 271.467C442.861 271.467 444.782 272.588 445.904 274.434C445.997 274.587 446.086 274.746 446.166 274.908C446.719 276.009 446.935 277.206 446.793 278.368C446.687 279.226 446.387 280.022 445.928 280.692L447.969 279.35C449.069 278.626 449.799 277.405 449.971 276.001C450.105 274.909 449.901 273.782 449.38 272.744V272.744C449.304 272.591 449.221 272.441 449.132 272.295C447.975 270.393 445.925 269.307 443.909 269.528C443.294 269.594 442.701 269.788 442.167 270.098L439.952 271.555C440.263 271.497 440.579 271.467 440.896 271.467Z" fill="#111111"/>
<path d="M423.064 281.24L438.545 272.268C441.091 270.79 444.533 272.044 446.007 274.987C446.562 276.095 446.748 277.265 446.615 278.346C446.396 280.134 445.304 281.68 443.567 282.303L426.643 288.388C426.326 285.674 425.015 283.122 423.064 281.24Z" fill="white"/>
<path d="M426.643 288.566C426.6 288.566 426.558 288.55 426.525 288.521C426.493 288.492 426.472 288.452 426.467 288.409C426.157 285.763 424.905 283.262 422.941 281.368C422.921 281.349 422.906 281.325 422.897 281.299C422.888 281.273 422.885 281.246 422.888 281.218C422.891 281.191 422.901 281.165 422.916 281.142C422.931 281.119 422.952 281.1 422.975 281.086L438.456 272.114C439.631 271.432 441.038 271.284 442.419 271.696C444.018 272.174 445.384 273.345 446.166 274.907C446.718 276.009 446.935 277.206 446.792 278.368C446.553 280.312 445.37 281.846 443.627 282.47L426.704 288.555C426.684 288.562 426.664 288.566 426.643 288.566ZM423.356 281.277C425.228 283.153 426.44 285.576 426.792 288.145L443.507 282.136C445.121 281.557 446.217 280.133 446.439 278.325C446.573 277.232 446.368 276.106 445.847 275.067C445.109 273.591 443.822 272.487 442.317 272.038C441.031 271.653 439.723 271.789 438.634 272.422L423.356 281.277Z" fill="#111111"/>
</g>
<path d="M650.793 390.746L649.884 396.385C648.824 402.961 645.324 409.177 639.485 413.756C626.523 423.92 606.939 422.164 595.744 409.834C589.59 403.055 587.251 394.493 588.545 386.469L589.454 380.83C588.16 388.855 590.499 397.417 596.653 404.195C607.848 416.526 627.432 418.282 640.394 408.117C646.233 403.538 649.733 397.322 650.793 390.746Z" fill="#A01E11"/>
<path d="M619.954 420.551C610.952 420.551 601.927 416.943 595.596 409.969C589.636 403.405 586.994 394.828 588.347 386.437L589.256 380.798C589.274 380.689 589.377 380.615 589.486 380.633C589.595 380.65 589.669 380.753 589.652 380.862C588.318 389.132 590.924 397.587 596.801 404.061C607.91 416.296 627.41 418.045 640.27 407.96C645.838 403.594 649.504 397.473 650.594 390.722L650.595 390.714C650.613 390.605 650.715 390.53 650.825 390.548C650.934 390.566 651.008 390.669 650.991 390.778L650.082 396.416C648.977 403.27 645.257 409.483 639.608 413.913C633.918 418.376 626.942 420.551 619.954 420.551ZM588.911 385.455L588.742 386.501C587.409 394.77 590.015 403.226 595.892 409.699C607 421.934 626.501 423.683 639.361 413.598C644.931 409.231 648.597 403.106 649.686 396.353L649.858 395.287C648.117 400.333 644.897 404.84 640.517 408.275C627.495 418.486 607.751 416.717 596.504 404.33C591.646 398.979 588.992 392.29 588.911 385.455Z" fill="#111111"/>
<path d="M643.596 367.384C654.791 379.715 653.358 397.951 640.394 408.117C627.432 418.282 607.848 416.526 596.653 404.195C585.456 391.863 586.889 373.627 599.851 363.462C612.815 353.296 632.399 355.052 643.596 367.384Z" fill="#F4B6B0"/>
<path d="M620.864 414.912C611.861 414.912 602.837 411.304 596.505 404.33C591.009 398.277 588.346 390.645 589.006 382.839C589.655 375.154 593.463 368.217 599.727 363.304C612.751 353.092 632.497 354.862 643.744 367.25C649.238 373.301 651.901 380.933 651.241 388.738C650.592 396.423 646.783 403.362 640.518 408.275C634.827 412.738 627.852 414.912 620.864 414.912ZM619.385 357.065C612.483 357.065 605.595 359.212 599.975 363.62C593.799 368.463 590.045 375.3 589.405 382.872C588.755 390.566 591.382 398.091 596.801 404.061C607.91 416.296 627.41 418.045 640.271 407.96C646.448 403.116 650.202 396.277 650.842 388.704C651.492 381.011 648.866 373.488 643.448 367.519C637.193 360.63 628.277 357.065 619.385 357.065Z" fill="#111111"/>
<path d="M624.929 369.056C623.595 367.587 620.6 367.895 618.241 369.745C615.881 371.596 615.051 374.288 616.384 375.757C617.718 377.226 620.712 376.916 623.071 375.066C625.431 373.216 626.263 370.525 624.929 369.056Z" fill="#111111"/>
<path d="M618.808 376.878C617.76 376.878 616.839 376.555 616.236 375.892C615.722 375.325 615.488 374.573 615.561 373.718C615.681 372.293 616.637 370.748 618.117 369.588C620.554 367.677 623.676 367.378 625.078 368.922C625.591 369.488 625.825 370.239 625.753 371.093C625.632 372.518 624.676 374.062 623.195 375.224C621.807 376.312 620.196 376.878 618.808 376.878ZM622.503 368.325C621.21 368.325 619.685 368.867 618.364 369.903C616.97 370.996 616.071 372.435 615.96 373.752C615.897 374.494 616.095 375.14 616.533 375.622C617.795 377.013 620.673 376.692 622.947 374.908C624.343 373.814 625.242 372.375 625.353 371.059C625.416 370.319 625.218 369.673 624.781 369.191C624.251 368.608 623.437 368.325 622.503 368.325Z" fill="#111111"/>
<path d="M638.681 384.203C637.347 382.734 634.353 383.043 631.994 384.894C629.634 386.744 628.802 389.434 630.136 390.903C631.47 392.372 634.463 392.063 636.823 390.212C639.182 388.362 640.014 385.672 638.681 384.203Z" fill="#111111"/>
<path d="M632.56 392.024C631.512 392.024 630.59 391.702 629.988 391.038C629.474 390.472 629.24 389.721 629.313 388.867C629.433 387.442 630.389 385.898 631.871 384.736C634.307 382.825 637.429 382.526 638.829 384.068C639.343 384.634 639.576 385.385 639.504 386.239C639.384 387.664 638.428 389.208 636.946 390.37C635.558 391.458 633.948 392.024 632.56 392.024ZM636.258 383.473C634.964 383.473 633.44 384.015 632.118 385.052C630.722 386.146 629.823 387.585 629.712 388.901C629.649 389.641 629.847 390.287 630.284 390.769C631.547 392.159 634.424 391.839 636.699 390.055C638.094 388.961 638.994 387.522 639.105 386.206C639.167 385.465 638.969 384.819 638.532 384.338C638.004 383.755 637.191 383.473 636.258 383.473Z" fill="#111111"/>
<path d="M616.462 388.891C612.102 384.093 605.861 381.728 600.012 382.205C599.162 382.274 598.552 382.976 598.648 383.768C598.683 384.07 598.815 384.342 599.012 384.559C599.333 384.913 599.827 385.122 600.354 385.079C605.127 384.685 610.408 386.633 614.122 390.726C614.124 390.729 614.126 390.731 614.128 390.733C617.691 394.658 618.918 399.572 617.931 403.768C617.823 404.227 617.965 404.688 618.273 405.027C618.484 405.259 618.773 405.434 619.112 405.511C619.946 405.698 620.77 405.223 620.953 404.448C622.155 399.32 620.645 393.502 616.462 388.891Z" fill="#111111"/>
<path d="M619.476 405.752C619.342 405.752 619.205 405.737 619.069 405.706C618.698 405.622 618.372 405.434 618.124 405.161C617.763 404.763 617.618 404.226 617.736 403.722C618.756 399.387 617.352 394.582 613.98 390.868C610.483 387.013 605.272 384.874 600.37 385.279C599.802 385.326 599.239 385.107 598.864 384.694C598.631 384.437 598.488 384.126 598.449 383.792C598.398 383.371 598.519 382.956 598.791 382.624C599.08 382.27 599.519 382.044 599.996 382.005C606.105 381.506 612.317 384.031 616.611 388.756C620.704 393.269 622.4 399.152 621.149 404.494C620.971 405.245 620.263 405.752 619.476 405.752ZM601.56 384.83C606.211 384.83 610.986 386.971 614.27 390.592C617.737 394.41 619.176 399.351 618.126 403.814C618.037 404.194 618.145 404.587 618.421 404.892C618.613 405.104 618.868 405.25 619.157 405.315C619.882 405.478 620.601 405.069 620.759 404.402C621.98 399.189 620.319 393.44 616.314 389.025C612.103 384.391 606.015 381.915 600.028 382.404C599.654 382.435 599.325 382.603 599.101 382.877C598.899 383.124 598.809 383.432 598.847 383.744C598.876 383.995 598.984 384.23 599.161 384.424C599.452 384.746 599.892 384.916 600.337 384.88C600.743 384.846 601.151 384.83 601.56 384.83Z" fill="#111111"/>
<path d="M391.386 192.77C391.998 193.222 392.47 193.806 392.758 194.489L407.907 230.453C408.657 232.243 408.031 234.429 406.299 236.058L386.081 255.078C355.845 283.523 318.437 280.566 305.258 275.622C304.801 275.45 304.388 275.226 304.023 274.957C303.658 274.687 303.342 274.372 303.082 274.015C295.608 263.703 287.584 233.104 317.821 204.659L338.039 185.639C339.771 184.01 342.299 183.229 344.521 183.634L389.174 191.842C390.022 191.998 390.774 192.318 391.386 192.77Z" fill="white"/>
<path d="M326.574 279.008C317.322 279.008 309.704 277.499 305.188 275.805C304.717 275.627 304.286 275.394 303.906 275.114C303.524 274.832 303.194 274.501 302.924 274.13C299.255 269.068 295.27 258.696 296.114 246.123C296.812 235.744 301.121 220.1 317.687 204.516L337.904 185.496C339.672 183.833 342.283 183.026 344.556 183.441L389.209 191.648C390.082 191.809 390.854 192.134 391.502 192.612C392.145 193.087 392.642 193.709 392.939 194.412L408.088 230.376C408.866 232.236 408.216 234.522 406.433 236.2L386.215 255.22C369.659 270.796 351.565 276.24 339.302 278.064C334.836 278.728 330.553 279.008 326.574 279.008ZM343.338 183.724C341.493 183.724 339.56 184.475 338.172 185.781L317.954 204.801C301.48 220.299 297.197 235.841 296.505 246.15C295.667 258.618 299.609 268.892 303.24 273.9C303.486 274.239 303.789 274.542 304.138 274.799C304.489 275.059 304.888 275.274 305.326 275.439C316.236 279.532 354.467 284.55 385.946 254.936L406.165 235.916C407.828 234.351 408.441 232.236 407.727 230.528L392.577 194.565C392.304 193.917 391.864 193.366 391.269 192.927C390.669 192.484 389.952 192.183 389.137 192.033L344.484 183.826C344.11 183.758 343.726 183.724 343.338 183.724Z" fill="#0A0A0A"/>
<path d="M386.055 197.783C385.518 197.386 384.858 197.105 384.114 196.968L344.907 189.766C342.955 189.406 340.737 190.093 339.217 191.523L321.468 208.221C294.916 233.199 301.966 260.062 308.526 269.114C308.754 269.428 309.032 269.706 309.353 269.942C309.674 270.179 310.037 270.375 310.436 270.525C322.009 274.867 354.847 277.465 381.398 252.487L399.147 235.79C400.667 234.359 401.218 232.441 400.559 230.872L387.259 199.291C387.007 198.692 386.593 198.179 386.055 197.783Z" fill="#C42F21"/>
<path d="M329.156 273.523C321.03 273.523 314.335 272.196 310.368 270.708C309.955 270.553 309.575 270.348 309.238 270.099C308.9 269.85 308.608 269.557 308.369 269.229C305.145 264.781 301.644 255.669 302.386 244.626C302.997 235.509 306.782 221.768 321.334 208.078L339.083 191.38C340.642 189.914 342.941 189.205 344.942 189.573L384.15 196.775C384.909 196.915 385.608 197.209 386.172 197.625C386.74 198.044 387.178 198.594 387.44 199.215L400.74 230.796C401.428 232.434 400.856 234.451 399.281 235.931L381.532 252.629C366.989 266.311 351.099 271.092 340.33 272.694C336.41 273.277 332.649 273.522 329.156 273.522L329.156 273.523ZM343.862 189.868C342.252 189.868 340.565 190.524 339.352 191.665L321.603 208.363C294.003 234.327 303.265 261.52 308.686 268.999C308.9 269.295 309.165 269.559 309.47 269.784C309.778 270.012 310.126 270.199 310.505 270.341C320.08 273.934 353.633 278.339 381.265 252.344L399.014 235.647C400.468 234.279 401.004 232.435 400.379 230.948L387.08 199.367C386.842 198.803 386.458 198.323 385.94 197.94C385.424 197.559 384.781 197.289 384.079 197.16L344.872 189.958C344.542 189.897 344.204 189.867 343.862 189.867L343.862 189.868Z" fill="#0A0A0A"/>
<path d="M410.99 237.582L407.907 230.453C408.656 232.243 408.031 234.429 406.298 236.058L386.081 255.078C355.844 283.523 318.436 280.566 305.257 275.622C304.801 275.45 304.387 275.226 304.022 274.957C303.658 274.687 303.342 274.372 303.082 274.015C301.993 272.513 300.892 270.581 299.9 268.287L302.984 275.416C303.976 277.71 305.077 279.642 306.165 281.145C306.425 281.501 306.741 281.817 307.106 282.086C307.471 282.356 307.885 282.579 308.341 282.751C321.52 287.695 358.928 290.652 389.164 262.207L409.382 243.188C411.115 241.558 411.74 239.372 410.99 237.582Z" fill="#A01E11"/>
<path d="M329.658 286.137C320.407 286.137 312.788 284.628 308.272 282.934C307.801 282.756 307.37 282.524 306.991 282.243C306.609 281.962 306.279 281.631 306.007 281.259C304.858 279.672 303.75 277.679 302.805 275.494L299.729 268.381C299.726 268.375 299.724 268.37 299.721 268.364C299.678 268.265 299.724 268.15 299.823 268.107C299.921 268.065 300.038 268.11 300.08 268.209C301.015 270.369 302.107 272.337 303.24 273.9C303.487 274.238 303.789 274.541 304.138 274.799C304.489 275.058 304.889 275.274 305.326 275.439C316.237 279.531 354.467 284.549 385.947 254.935L406.165 235.915C407.829 234.35 408.442 232.235 407.727 230.528C407.685 230.429 407.732 230.315 407.831 230.272C407.929 230.231 408.044 230.276 408.087 230.375L411.17 237.504C411.17 237.504 411.17 237.506 411.171 237.506C411.95 239.366 411.3 241.652 409.517 243.33L389.299 262.35C372.743 277.925 354.649 283.37 342.386 285.194C337.92 285.858 333.637 286.138 329.658 286.138V286.137ZM302.146 272.985L303.164 275.338C304.098 277.498 305.191 279.465 306.324 281.029C306.571 281.368 306.873 281.671 307.223 281.928C307.574 282.188 307.973 282.403 308.411 282.568C319.32 286.66 357.551 291.68 389.031 262.065L409.249 243.045C410.913 241.48 411.526 239.366 410.811 237.658L408.411 232.11C408.384 233.534 407.69 235.018 406.433 236.2L386.215 255.22C369.658 270.796 351.565 276.24 339.302 278.064C324.454 280.272 311.646 278.227 305.188 275.805C304.717 275.627 304.286 275.394 303.906 275.114C303.525 274.831 303.194 274.501 302.924 274.13C302.662 273.769 302.402 273.386 302.146 272.985V272.985Z" fill="#0A0A0A"/>
<defs>
<linearGradient id="paint0_linear_32_1567" x1="1000" y1="563" x2="518.639" y2="-291.994" gradientUnits="userSpaceOnUse">
<stop stop-color="white"/>
<stop offset="1" stop-color="white" stop-opacity="0"/>
</linearGradient>
<clipPath id="clip0_32_1567">
<rect width="301.709" height="300.154" fill="white" transform="translate(362.451 115.075)"/>
</clipPath>
</defs>
</svg>
