<svg width="1000" height="563" viewBox="0 0 1000 563" fill="none" xmlns="http://www.w3.org/2000/svg">
<rect width="1000" height="563" fill="#FE943E"/>
<rect width="1000" height="563" fill="url(#paint0_linear_36_2930)" fill-opacity="0.3"/>
<g clip-path="url(#clip0_36_2930)">
<path d="M474.042 266.447L480.422 263.461C481.301 267.027 481.273 270.847 480.142 274.531C478.487 279.92 474.804 283.968 470.23 286.109L463.851 289.095C468.425 286.954 472.108 282.905 473.763 277.517C474.894 273.833 474.922 270.012 474.042 266.447Z" fill="#BC5C00"/>
<path d="M463.851 289.287C463.779 289.287 463.71 289.246 463.677 289.176C463.632 289.079 463.674 288.965 463.77 288.92C468.508 286.702 471.992 282.633 473.58 277.46C474.662 273.936 474.757 270.144 473.856 266.493C473.834 266.403 473.878 266.311 473.962 266.272L480.341 263.286C480.393 263.262 480.453 263.262 480.504 263.287C480.556 263.312 480.594 263.359 480.608 263.414C481.526 267.133 481.428 270.997 480.325 274.588C478.705 279.866 475.148 284.02 470.311 286.283L463.932 289.269C463.905 289.281 463.878 289.287 463.851 289.287V289.287ZM474.266 266.555C475.143 270.226 475.033 274.033 473.946 277.574C472.715 281.583 470.368 284.943 467.19 287.319L470.149 285.934C474.887 283.717 478.371 279.647 479.959 274.474C481.018 271.023 481.132 267.316 480.29 263.735L474.266 266.555Z" fill="#111111"/>
<path d="M531.424 237.823L537.803 234.837L524.04 279.661L517.661 282.646L531.424 237.823Z" fill="#8E4600"/>
<path d="M517.662 282.839C517.616 282.839 517.571 282.823 517.535 282.792C517.478 282.742 517.456 282.662 517.478 282.589L531.241 237.766C531.257 237.714 531.294 237.671 531.344 237.648L537.723 234.663C537.791 234.631 537.872 234.642 537.93 234.692C537.987 234.742 538.009 234.822 537.987 234.895L524.224 279.718C524.208 279.77 524.171 279.813 524.121 279.836L517.742 282.821C517.717 282.833 517.689 282.839 517.662 282.839ZM531.582 237.962L517.972 282.288L523.883 279.522L537.493 235.196L531.582 237.962Z" fill="#111111"/>
<path d="M541.278 205.729L547.658 202.743C551.046 201.972 554.713 202.158 558.302 203.491C568.471 207.268 574.118 218.803 570.908 229.257C569.254 234.644 565.57 238.692 560.995 240.833L554.616 243.819C559.191 241.678 562.875 237.629 564.529 232.243C567.739 221.789 562.092 210.253 551.922 206.476C548.334 205.144 544.667 204.958 541.278 205.729Z" fill="#BC5C00"/>
<path d="M554.616 244.012C554.544 244.012 554.475 243.971 554.442 243.9C554.398 243.804 554.439 243.689 554.535 243.644C559.274 241.426 562.758 237.357 564.346 232.186C567.521 221.846 561.918 210.394 551.856 206.657C548.429 205.385 544.786 205.128 541.321 205.917C541.224 205.939 541.129 205.884 541.097 205.791C541.066 205.698 541.109 205.595 541.198 205.554L547.577 202.568C547.589 202.562 547.602 202.558 547.615 202.555C551.153 201.75 554.871 202.011 558.368 203.31C568.618 207.116 574.325 218.782 571.091 229.314C569.471 234.591 565.914 238.744 561.076 241.008L554.697 243.994C554.671 244.006 554.643 244.012 554.616 244.012ZM545.32 205.083C547.564 205.083 549.819 205.489 551.989 206.295C562.239 210.102 567.946 221.768 564.712 232.3C563.482 236.307 561.134 239.666 557.957 242.043L560.914 240.658C565.653 238.44 569.138 234.371 570.725 229.2C573.9 218.861 568.297 207.409 558.236 203.672C554.815 202.402 551.179 202.144 547.72 202.927L542.72 205.267C543.582 205.144 544.45 205.083 545.32 205.083V205.083Z" fill="#111111"/>
<path d="M555.041 160.906L561.42 157.92L547.658 202.743L541.278 205.729L555.041 160.906Z" fill="#BC5C00"/>
<path d="M541.279 205.922C541.233 205.922 541.188 205.906 541.153 205.874C541.095 205.824 541.073 205.745 541.095 205.672L554.858 160.849C554.874 160.796 554.911 160.754 554.961 160.731L561.34 157.745C561.409 157.713 561.49 157.725 561.547 157.774C561.604 157.825 561.626 157.904 561.604 157.977L547.841 202.8C547.825 202.852 547.788 202.895 547.739 202.918L541.36 205.904C541.334 205.916 541.306 205.922 541.279 205.922V205.922ZM555.2 161.045L541.589 205.371L547.5 202.604L561.11 158.278L555.199 161.045H555.2Z" fill="#111111"/>
<path d="M460.175 120.319C455.565 118.606 450.808 118.912 446.786 120.795L440.407 123.78C444.428 121.898 449.186 121.592 453.796 123.304L555.041 160.905L561.42 157.92L460.175 120.319Z" fill="white"/>
<path d="M555.041 161.099C555.019 161.099 554.997 161.094 554.975 161.087L453.73 123.485C449.329 121.851 444.627 122.018 440.488 123.955C440.392 124 440.278 123.958 440.234 123.862C440.189 123.765 440.231 123.65 440.327 123.605L446.706 120.619C450.938 118.639 455.745 118.467 460.241 120.138L561.487 157.739C561.56 157.766 561.609 157.834 561.612 157.912C561.615 157.99 561.572 158.062 561.501 158.095L555.122 161.081C555.096 161.093 555.069 161.099 555.041 161.099ZM447.611 121.984C449.703 121.984 451.815 122.363 453.862 123.123L555.033 160.697L560.922 157.94L460.109 120.5C455.709 118.866 451.006 119.033 446.867 120.969L443.774 122.417C445.032 122.129 446.318 121.984 447.611 121.984V121.984Z" fill="#111111"/>
<path d="M555.041 160.906L541.278 205.729C544.667 204.958 548.334 205.144 551.922 206.476C562.092 210.253 567.739 221.789 564.529 232.243C561.32 242.693 550.469 248.106 540.3 244.329C536.711 242.996 533.694 240.695 531.424 237.823L517.661 282.646L474.042 266.447C474.922 270.012 474.893 273.833 473.762 277.517C470.552 287.971 459.706 293.381 449.533 289.603C439.364 285.826 433.717 274.29 436.927 263.836C438.058 260.152 440.145 257.096 442.81 254.848L399.191 238.648L431.137 134.607C434.138 124.833 444.281 119.77 453.796 123.304L555.041 160.905V160.906Z" fill="#FFDBBD"/>
<path d="M456.153 291.005C453.919 291.005 451.662 290.6 449.467 289.784C439.217 285.978 433.51 274.312 436.744 263.78C437.813 260.299 439.778 257.241 442.437 254.915L399.125 238.829C399.03 238.794 398.979 238.689 399.009 238.591L430.954 134.55C432.424 129.763 435.623 125.938 439.961 123.782C444.283 121.633 449.22 121.399 453.862 123.123L555.108 160.725C555.203 160.76 555.255 160.865 555.225 160.963L541.558 205.47C544.999 204.753 548.598 205.036 551.989 206.296C562.239 210.102 567.946 221.768 564.712 232.3C563.142 237.414 559.724 241.5 555.088 243.805C550.468 246.102 545.193 246.352 540.234 244.51C536.853 243.255 533.841 241.086 531.501 238.226L517.844 282.703C517.829 282.754 517.793 282.796 517.746 282.819C517.699 282.843 517.644 282.846 517.595 282.827L474.312 266.753C475.139 270.363 475.014 274.096 473.946 277.574C472.375 282.69 468.957 286.777 464.322 289.081C461.748 290.361 458.968 291.005 456.153 291.005H456.153ZM399.428 238.531L442.877 254.667C442.941 254.691 442.987 254.747 442.999 254.815C443.011 254.883 442.986 254.951 442.933 254.996C440.204 257.299 438.19 260.376 437.11 263.894C433.935 274.234 439.538 285.686 449.6 289.423C454.461 291.228 459.629 290.984 464.152 288.735C468.692 286.478 472.04 282.474 473.579 277.46C474.661 273.936 474.757 270.144 473.856 266.494C473.839 266.424 473.861 266.351 473.914 266.303C473.967 266.256 474.042 266.241 474.108 266.266L517.537 282.395L531.241 237.766C531.262 237.698 531.319 237.647 531.388 237.634C531.459 237.62 531.53 237.647 531.574 237.703C533.901 240.648 536.941 242.876 540.366 244.149C545.226 245.953 550.394 245.709 554.918 243.459C559.459 241.202 562.807 237.198 564.346 232.186C567.521 221.846 561.918 210.394 551.856 206.657C548.429 205.385 544.786 205.129 541.321 205.917C541.253 205.933 541.184 205.911 541.138 205.86C541.091 205.81 541.075 205.738 541.095 205.672L554.804 161.023L453.73 123.485C449.186 121.798 444.357 122.026 440.13 124.128C435.888 126.237 432.759 129.979 431.32 134.664L399.428 238.531Z" fill="#111111"/>
<path d="M482.914 178.569C479.275 177.217 475.392 179.151 474.243 182.895C473.094 186.635 475.116 190.761 478.756 192.113C482.395 193.464 486.274 191.529 487.422 187.789C488.571 184.046 486.553 179.921 482.914 178.569" fill="#BC5C00"/>
<path d="M481.124 192.738C480.31 192.738 479.489 192.59 478.689 192.293C474.961 190.909 472.884 186.667 474.059 182.837C474.632 180.973 475.877 179.484 477.566 178.645C479.25 177.808 481.172 177.716 482.98 178.388C486.707 179.772 488.781 184.015 487.605 187.846C487.033 189.709 485.788 191.198 484.1 192.037C483.162 192.503 482.149 192.738 481.124 192.738V192.738ZM480.545 178.329C479.576 178.329 478.621 178.551 477.736 178.991C476.142 179.783 474.967 181.19 474.426 182.951C473.309 186.588 475.281 190.616 478.822 191.931C480.529 192.565 482.343 192.48 483.93 191.691C485.523 190.899 486.698 189.493 487.239 187.732C488.356 184.093 486.386 180.064 482.848 178.75C482.091 178.469 481.314 178.329 480.545 178.329L480.545 178.329Z" fill="#111111"/>
<path d="M477.55 196.038C470.636 193.47 463.332 196.245 459.765 202.297L488.24 212.872C488.743 205.683 484.46 198.604 477.55 196.038" fill="#BC5C00"/>
<path d="M488.24 213.065C488.217 213.065 488.195 213.061 488.174 213.053L459.698 202.478C459.645 202.458 459.603 202.415 459.584 202.361C459.565 202.307 459.571 202.248 459.6 202.198C463.311 195.903 470.72 193.296 477.616 195.857C484.506 198.416 488.953 205.418 488.431 212.886C488.427 212.946 488.395 213.001 488.344 213.034C488.313 213.055 488.276 213.065 488.24 213.065ZM460.049 202.197L488.065 212.601C488.456 205.401 484.135 198.69 477.483 196.219C470.835 193.75 463.701 196.208 460.049 202.197Z" fill="#111111"/>
</g>
<g clip-path="url(#clip1_36_2930)">
<path d="M647.359 252.252L594.277 192.906L590.543 203.695L643.625 263.042C651.102 271.401 653.134 281.846 650.057 290.738L653.791 279.948C656.869 271.056 654.836 260.611 647.359 252.252Z" fill="#8E4600"/>
<path d="M650.057 290.924C650.036 290.924 650.016 290.921 649.996 290.914C649.898 290.88 649.846 290.774 649.879 290.677C653.061 281.484 650.671 271.199 643.485 263.165L590.403 203.819C590.358 203.769 590.344 203.698 590.366 203.635L594.1 192.845C594.122 192.783 594.175 192.736 594.241 192.723C594.306 192.71 594.373 192.733 594.418 192.782L647.5 252.128C654.777 260.264 657.195 270.686 653.969 280.008L650.234 290.798C650.208 290.876 650.135 290.924 650.057 290.924ZM590.756 203.653L643.765 262.918C649.955 269.838 652.629 278.413 651.305 286.558L653.614 279.887C656.795 270.694 654.405 260.409 647.219 252.376L594.35 193.268L590.756 203.653Z" fill="#111111"/>
<path d="M660.884 312.265C635.89 329.156 598.262 323.563 577.004 299.797L523.922 240.451L520.188 251.24L573.27 310.587C594.527 334.353 632.156 339.946 657.15 323.055C666.221 316.925 672.401 308.663 675.576 299.487L679.311 288.697C676.135 297.873 669.956 306.135 660.884 312.266V312.265Z" fill="#8E4600"/>
<path d="M623.845 332.998C605.231 332.998 586.128 325.242 573.129 310.71L520.047 251.364C520.002 251.314 519.988 251.243 520.01 251.18L523.745 240.39C523.766 240.327 523.82 240.281 523.885 240.268C523.951 240.255 524.018 240.278 524.062 240.327L577.145 299.673C590.071 314.124 609.069 321.838 627.576 321.839C639.417 321.839 651.056 318.682 660.779 312.111C669.515 306.208 675.862 298.091 679.134 288.637C679.167 288.539 679.274 288.488 679.372 288.521C679.47 288.555 679.522 288.661 679.489 288.758L675.754 299.547C672.456 309.078 666.059 317.26 657.256 323.209C647.472 329.821 635.759 332.998 623.845 332.998L623.845 332.998ZM520.401 251.198L573.41 310.463C594.607 334.161 632.125 339.741 657.045 322.901C665.78 316.998 672.127 308.88 675.399 299.427L677.233 294.128C673.627 301.369 668.092 307.621 660.99 312.42C635.921 329.361 598.182 323.754 576.864 299.92L523.995 240.813L520.401 251.198V251.198Z" fill="#111111"/>
<path d="M614.579 179.186L631.846 198.491L611.544 212.21L594.277 192.906L614.579 179.186Z" fill="white"/>
<path d="M611.545 212.397C611.493 212.397 611.441 212.375 611.404 212.334L594.137 193.029C594.101 192.989 594.085 192.936 594.091 192.883C594.098 192.83 594.127 192.782 594.172 192.752L614.473 179.032C614.552 178.98 614.657 178.993 614.719 179.063L631.986 198.367C632.022 198.407 632.039 198.461 632.032 198.514C632.026 198.567 631.996 198.615 631.952 198.645L611.65 212.365C611.618 212.386 611.581 212.397 611.545 212.397ZM594.56 192.941L611.575 211.964L631.564 198.456L614.548 179.433L594.56 192.941Z" fill="#111111"/>
<path d="M611.544 212.211L607.81 223L590.543 203.695L594.277 192.906L611.544 212.211Z" fill="#FFDBBD"/>
<path d="M607.81 223.187C607.757 223.187 607.706 223.164 607.67 223.124L590.403 203.819C590.358 203.769 590.344 203.699 590.366 203.635L594.1 192.845C594.122 192.783 594.175 192.736 594.241 192.723C594.306 192.71 594.373 192.733 594.418 192.782L611.685 212.087C611.73 212.137 611.744 212.208 611.722 212.271L607.988 223.061C607.966 223.124 607.912 223.17 607.847 223.183C607.835 223.185 607.822 223.187 607.81 223.187V223.187ZM590.756 203.653L607.737 222.638L611.331 212.253L594.35 193.268L590.756 203.653Z" fill="#111111"/>
<path d="M544.223 226.731L561.49 246.036L541.189 259.755L523.922 240.451L544.223 226.731Z" fill="white"/>
<path d="M541.189 259.942C541.137 259.942 541.085 259.92 541.049 259.879L523.782 240.574C523.746 240.534 523.729 240.481 523.736 240.428C523.742 240.374 523.772 240.327 523.816 240.296L544.118 226.577C544.196 226.525 544.302 226.537 544.364 226.608L561.631 245.912C561.667 245.952 561.683 246.006 561.677 246.059C561.67 246.112 561.641 246.16 561.596 246.19L541.295 259.909C541.262 259.931 541.226 259.942 541.189 259.942ZM524.204 240.485L541.22 259.509L561.209 246.001L544.193 226.977L524.204 240.485Z" fill="#111111"/>
<path d="M541.189 259.755L537.454 270.545L520.188 251.24L523.922 240.451L541.189 259.755Z" fill="#FFDBBD"/>
<path d="M537.455 270.731C537.402 270.731 537.351 270.709 537.314 270.669L520.047 251.364C520.002 251.314 519.988 251.243 520.01 251.18L523.745 240.39C523.766 240.327 523.82 240.281 523.885 240.268C523.951 240.255 524.018 240.277 524.062 240.327L541.329 259.631C541.374 259.682 541.389 259.752 541.367 259.816L537.632 270.605C537.611 270.668 537.557 270.714 537.492 270.727C537.479 270.73 537.467 270.731 537.455 270.731ZM520.401 251.198L537.382 270.183L540.976 259.798L523.995 240.813L520.401 251.198H520.401Z" fill="#111111"/>
<path d="M611.545 212.21L631.847 198.491L667.662 238.533C688.92 262.299 685.879 295.375 660.885 312.266C635.891 329.156 598.262 323.563 577.005 299.797L541.189 259.755L561.491 246.036L597.306 286.077C609.043 299.199 629.817 302.287 643.618 292.961C657.418 283.635 659.097 265.374 647.36 252.252L611.545 212.21Z" fill="#FFDBBD"/>
<path d="M627.579 322.208C608.965 322.208 589.862 314.453 576.863 299.92L541.048 259.879C541.013 259.839 540.996 259.785 541.002 259.732C541.009 259.679 541.038 259.631 541.083 259.601L561.385 245.882C561.463 245.829 561.568 245.842 561.63 245.912L597.446 285.954C609.122 299.007 629.786 302.082 643.511 292.807C649.872 288.508 653.877 282.125 654.789 274.833C655.778 266.915 653.09 258.939 647.219 252.376L611.404 212.334C611.368 212.294 611.351 212.241 611.358 212.188C611.365 212.134 611.394 212.087 611.439 212.056L631.74 198.337C631.818 198.284 631.924 198.297 631.986 198.367L667.801 238.409C673.209 244.454 677.15 251.181 679.517 258.402C681.804 265.379 682.519 272.477 681.641 279.498C679.971 292.857 672.637 304.549 660.989 312.42C651.206 319.031 639.492 322.209 627.578 322.209L627.579 322.208ZM541.471 259.79L577.144 299.673C598.341 323.371 635.859 328.952 660.778 312.111C672.335 304.302 679.612 292.703 681.269 279.452C683.067 265.067 678.184 250.578 667.521 238.656L631.815 198.737L611.827 212.245L647.5 252.128C650.493 255.475 652.675 259.198 653.986 263.196C655.252 267.059 655.648 270.99 655.161 274.879C654.236 282.279 650.174 288.755 643.723 293.115C638.308 296.774 631.822 298.533 625.229 298.534C614.927 298.534 604.358 294.243 597.165 286.201L561.46 246.282L541.471 259.79H541.471Z" fill="#111111"/>
</g>
<g clip-path="url(#clip2_36_2930)">
<path d="M480.913 330.804L474.729 338.876C476.765 336.217 477.974 332.895 478.028 329.175C478.08 325.569 477.036 322.07 475.19 318.994L481.374 310.922C483.221 313.998 484.264 317.497 484.212 321.103C484.158 324.823 482.95 328.146 480.913 330.804Z" fill="#FFDBBD"/>
<path d="M474.729 339.067C474.688 339.067 474.647 339.054 474.612 339.028C474.527 338.965 474.51 338.845 474.574 338.761C476.656 336.044 477.783 332.728 477.834 329.172C477.884 325.723 476.912 322.237 475.024 319.091C474.984 319.024 474.989 318.94 475.036 318.879L481.22 310.807C481.259 310.756 481.322 310.728 481.386 310.731C481.45 310.735 481.508 310.77 481.541 310.824C483.466 314.031 484.457 317.586 484.406 321.105C484.353 324.743 483.199 328.137 481.067 330.919L474.883 338.991C474.845 339.04 474.787 339.066 474.729 339.066V339.067ZM475.423 319.007C477.304 322.184 478.272 325.698 478.222 329.177C478.187 331.591 477.667 333.897 476.698 335.988L480.758 330.689C482.84 327.972 483.968 324.656 484.019 321.1C484.067 317.741 483.146 314.347 481.354 311.265L475.423 319.007L475.423 319.007Z" fill="#111111"/>
<path d="M553.505 389.531L547.321 397.603C543.758 402.254 537.662 404.871 530.784 404.029C526.974 403.563 523.437 402.095 520.453 399.944L526.637 391.872C529.621 394.023 533.158 395.491 536.968 395.957C543.846 396.799 549.942 394.182 553.505 389.531Z" fill="#FFDBBD"/>
<path d="M533.32 404.376C532.477 404.376 531.623 404.324 530.76 404.219C527.053 403.765 523.449 402.34 520.339 400.098C520.297 400.068 520.269 400.022 520.262 399.972C520.254 399.921 520.268 399.87 520.299 399.829L526.483 391.757C526.547 391.674 526.666 391.657 526.752 391.718C529.809 393.922 533.35 395.323 536.992 395.768C543.571 396.572 549.687 394.199 553.351 389.417C553.415 389.332 553.537 389.315 553.622 389.379C553.707 389.443 553.724 389.563 553.659 389.646L547.475 397.718C544.208 401.983 539.041 404.376 533.32 404.376L533.32 404.376ZM520.727 399.904C523.747 402.042 527.229 403.402 530.808 403.84C537.387 404.644 543.503 402.27 547.167 397.488L551.21 392.21C547.469 395.36 542.358 396.81 536.944 396.147C533.298 395.701 529.753 394.315 526.677 392.136L520.727 399.904Z" fill="#111111"/>
<path d="M418.427 422.574C408.321 421.338 400.241 412.582 400.379 403.016L401.846 301.191L395.662 309.263L394.195 411.088C394.057 420.654 402.137 429.409 412.243 430.646L519.821 443.809L526.005 435.737L418.427 422.574Z" fill="#BC5C00"/>
<path d="M519.821 444C519.813 444 519.806 443.999 519.798 443.998L412.219 430.835C402.035 429.589 393.863 420.729 394.002 411.085L395.468 309.26C395.469 309.219 395.483 309.18 395.507 309.148L401.692 301.076C401.742 301.01 401.829 300.983 401.909 301.01C401.988 301.037 402.041 301.111 402.04 301.193L400.573 403.019C400.437 412.474 408.457 421.162 418.451 422.385L526.029 435.548C526.098 435.556 526.157 435.6 526.184 435.663C526.211 435.726 526.202 435.798 526.16 435.852L519.976 443.924C519.939 443.972 519.882 444 519.821 444V444ZM395.855 309.328L394.389 411.091C394.253 420.546 402.273 429.234 412.267 430.457L519.734 443.606L525.649 435.886L418.404 422.763C408.219 421.517 400.047 412.657 400.186 403.013L401.644 301.771L395.855 309.328Z" fill="#111111"/>
<path d="M527.722 316.593L527.09 360.458C530.125 359.043 533.692 358.444 537.502 358.911C548.311 360.233 556.952 369.597 556.805 379.828C556.657 390.06 547.777 397.28 536.968 395.957C533.159 395.491 529.622 394.023 526.637 391.872L526.006 435.737L418.428 422.574C408.322 421.338 400.242 412.582 400.38 403.016L401.846 301.191L448.189 306.861C446.265 309.476 445.125 312.708 445.073 316.314C444.926 326.541 453.567 335.909 464.376 337.232C475.185 338.554 484.065 331.33 484.213 321.103C484.264 317.497 483.221 313.998 481.375 310.922L527.722 316.593H527.722Z" fill="white"/>
<path d="M526.006 435.928C525.998 435.928 525.99 435.928 525.982 435.927L418.404 422.764C408.22 421.518 400.047 412.658 400.186 403.014L401.653 301.188C401.654 301.134 401.678 301.083 401.719 301.047C401.761 301.011 401.816 300.995 401.87 301.001L448.214 306.672C448.282 306.68 448.34 306.723 448.367 306.785C448.395 306.847 448.387 306.919 448.346 306.974C446.381 309.643 445.316 312.874 445.267 316.317C445.121 326.436 453.704 335.734 464.4 337.042C469.751 337.696 474.759 336.288 478.502 333.074C481.992 330.077 483.951 325.824 484.019 321.1C484.069 317.651 483.097 314.165 481.208 311.019C481.171 310.956 481.173 310.878 481.213 310.817C481.254 310.756 481.326 310.723 481.399 310.733L527.746 316.403C527.844 316.416 527.917 316.498 527.916 316.595L527.288 360.158C530.392 358.777 533.924 358.281 537.526 358.721C548.411 360.053 557.147 369.523 556.998 379.831C556.929 384.666 554.922 389.019 551.349 392.088C547.522 395.374 542.406 396.815 536.944 396.147C533.357 395.708 529.866 394.359 526.826 392.24L526.199 435.74C526.199 435.794 526.175 435.846 526.133 435.881C526.098 435.912 526.052 435.928 526.006 435.928ZM402.037 301.406L400.573 403.019C400.437 412.475 408.457 421.162 418.451 422.385L525.815 435.522L526.444 391.87C526.445 391.798 526.487 391.733 526.551 391.701C526.616 391.67 526.693 391.676 526.752 391.718C529.809 393.922 533.35 395.323 536.992 395.768C542.344 396.423 547.352 395.014 551.095 391.8C554.584 388.804 556.543 384.551 556.611 379.826C556.757 369.706 548.174 360.409 537.478 359.1C533.84 358.655 530.277 359.184 527.173 360.631C527.113 360.658 527.042 360.654 526.986 360.619C526.93 360.583 526.896 360.521 526.897 360.455L527.526 316.761L481.738 311.159C483.533 314.277 484.455 317.708 484.406 321.106C484.336 325.94 482.33 330.293 478.756 333.362C474.929 336.648 469.814 338.09 464.352 337.421C453.466 336.089 444.731 326.619 444.879 316.311C444.928 312.901 445.952 309.693 447.844 307.011L402.037 301.406Z" fill="#111111"/>
<path d="M436.154 353.529L435.397 388.783L491.854 395.691L492.61 360.436L436.154 353.529Z" fill="white"/>
</g>
<g clip-path="url(#clip3_36_2930)">
<path d="M396.9 365.689C396.901 365.689 396.901 365.689 396.902 365.69C396.901 365.689 396.901 365.688 396.9 365.687L396.9 365.688C393.82 358.562 391.768 354.712 391.149 350.652C390.964 349.123 391.082 347.677 391.263 345.458C391.268 345.407 391.272 345.357 391.276 345.307C391.828 339.752 391.174 334.933 389.162 329.721C388.681 328.563 387.963 326.852 386.783 324.962C381.021 315.743 371.141 309.794 360.574 309.406C347.53 308.926 335.601 316.239 330.185 328.037C324.787 339.795 327.111 353.568 335.775 363.423C337.164 365.002 338.75 366.337 339.66 367.037C339.659 367.033 339.658 367.029 339.656 367.025C339.665 367.031 339.672 367.038 339.681 367.045C344.15 370.46 348.62 372.433 354.152 373.437C354.179 373.443 354.205 373.449 354.233 373.454C356.398 373.898 357.804 374.187 359.214 374.793C363.172 376.774 364.444 378.262 370.921 383.61C370.795 383.503 370.686 383.409 370.589 383.327C370.686 383.41 370.797 383.504 370.924 383.612C370.923 383.612 370.922 383.611 370.921 383.61C371.26 383.898 371.605 384.191 371.965 384.493C371.965 384.493 371.964 384.492 371.964 384.491C373.777 386.037 375.646 386.921 378.006 387.353C378.022 387.356 378.038 387.359 378.054 387.362C378.065 387.364 378.075 387.366 378.086 387.368C378.079 387.367 378.072 387.364 378.064 387.363C379.183 387.554 380.899 387.208 383.087 386.252C388.519 383.881 394.799 378.661 397.114 374.594C397.616 373.712 397.889 372.957 397.956 372.34C397.955 372.348 397.955 372.357 397.954 372.365C397.955 372.356 397.955 372.346 397.956 372.337C397.957 372.325 397.958 372.313 397.959 372.301C398.203 369.908 397.875 367.864 396.9 365.689Z" fill="#FFDBBD"/>
<path d="M382.511 386.676C380.675 387.409 379.154 387.705 378.08 387.536C378.074 387.536 378.068 387.535 378.061 387.534C378.061 387.534 378.06 387.534 378.059 387.534L377.987 387.52C375.589 387.082 373.704 386.191 371.868 384.629C371.865 384.627 371.862 384.625 371.859 384.622C371.5 384.321 371.157 384.03 370.819 383.743C370.819 383.742 370.818 383.742 370.817 383.741L370.813 383.738C369.308 382.495 368.104 381.478 367.042 380.58C363.589 377.663 362.16 376.456 359.14 374.944C357.754 374.348 356.341 374.058 354.201 373.619C354.186 373.616 354.167 373.613 354.149 373.608L354.12 373.602C348.566 372.595 344.085 370.617 339.598 367.193C339.585 367.187 339.572 367.18 339.559 367.171C338.897 366.661 337.192 365.287 335.65 363.534C331.357 358.65 328.553 352.75 327.542 346.47C326.522 340.136 327.384 333.737 330.033 327.966C335.478 316.107 347.468 308.756 360.58 309.238C365.775 309.429 370.957 310.981 375.566 313.728C380.146 316.457 384.073 320.311 386.925 324.873C388.134 326.811 388.874 328.592 389.316 329.657C391.343 334.904 391.998 339.735 391.443 345.325L391.439 345.368C391.436 345.403 391.433 345.439 391.43 345.475C391.251 347.668 391.133 349.118 391.315 350.633C391.794 353.769 393.136 356.782 395.169 361.343C395.733 362.61 396.373 364.046 397.053 365.618L397.053 365.619C397.053 365.619 397.053 365.62 397.054 365.62L397.054 365.622L397.056 365.625L397.056 365.626L397.056 365.626L397.056 365.627L397.057 365.628L397.057 365.628L397.057 365.629L397.057 365.63L397.058 365.63C397.058 365.631 397.058 365.632 397.059 365.633C398.043 367.834 398.373 369.897 398.127 372.319L398.121 372.385L398.12 372.385L398.12 372.387C398.12 372.391 398.119 372.396 398.118 372.401C398.04 373.049 397.751 373.815 397.26 374.678C394.934 378.765 388.607 384.027 383.155 386.407C382.936 386.502 382.721 386.592 382.511 386.676ZM378.094 387.198C379.227 387.391 380.931 387.011 383.02 386.099C388.416 383.743 394.674 378.544 396.969 374.51C397.448 373.669 397.724 372.932 397.79 372.321L397.79 372.321L397.791 372.318C397.791 372.317 397.791 372.316 397.791 372.315L397.792 372.301C397.792 372.3 397.794 372.284 397.794 372.284C398.034 369.919 397.711 367.906 396.748 365.757C396.745 365.752 396.744 365.746 396.742 365.741C396.065 364.174 395.426 362.743 394.863 361.479C392.82 356.893 391.47 353.864 390.984 350.677C390.797 349.124 390.916 347.66 391.097 345.444L391.11 345.293C391.66 339.756 391.011 334.972 389.006 329.781C388.57 328.731 387.836 326.965 386.642 325.051C383.819 320.535 379.93 316.719 375.396 314.017C370.835 311.299 365.708 309.763 360.569 309.574C347.592 309.097 335.725 316.372 330.337 328.108C327.716 333.818 326.863 340.15 327.872 346.417C328.873 352.634 331.649 358.476 335.9 363.312C337.388 365.004 339.032 366.339 339.716 366.869C339.732 366.874 339.747 366.883 339.761 366.894C339.762 366.895 339.775 366.906 339.776 366.907C344.231 370.311 348.672 372.272 354.181 373.272L354.263 373.289C356.426 373.733 357.853 374.025 359.279 374.639C362.344 376.173 363.782 377.388 367.257 380.323C368.23 381.146 369.322 382.069 370.656 383.174C370.671 383.18 370.684 383.189 370.697 383.199L371.029 383.482C371.364 383.767 371.705 384.056 372.061 384.355C372.065 384.357 372.069 384.36 372.072 384.363C373.864 385.89 375.703 386.761 378.036 387.187L378.082 387.196C378.085 387.197 378.089 387.197 378.092 387.198C378.093 387.198 378.093 387.198 378.093 387.198C378.093 387.198 378.093 387.198 378.094 387.198Z" fill="#111111"/>
<path d="M403.654 395.538C401.473 396.491 398.952 398.586 398.022 400.219C397.407 401.3 397.644 401.907 398.523 401.918C401.152 401.878 404.435 399.412 405.738 397.224C406.039 396.686 406.143 396.335 406.212 396.102C406.514 395.005 405.503 394.731 403.654 395.538Z" fill="#111111"/>
<path d="M400.701 401.604C399.963 401.899 399.222 402.075 398.526 402.086C397.968 402.079 397.724 401.853 397.616 401.665C397.413 401.31 397.501 400.795 397.877 400.135C398.82 398.478 401.381 396.347 403.587 395.384C404.822 394.844 405.741 394.757 406.176 395.136C406.351 395.289 406.527 395.588 406.373 396.147C406.301 396.391 406.194 396.753 405.884 397.306C404.901 398.958 402.81 400.763 400.701 401.604ZM403.721 395.692C401.572 396.631 399.08 398.699 398.167 400.303C397.863 400.837 397.771 401.262 397.906 401.499C398.022 401.702 398.306 401.747 398.524 401.75C401.094 401.711 404.314 399.287 405.595 397.137C405.884 396.62 405.985 396.279 406.051 396.054C406.137 395.744 406.105 395.519 405.957 395.39C405.635 395.109 404.797 395.223 403.721 395.692Z" fill="#111111"/>
<path d="M406.507 385.987C405.49 385.978 404.1 386.324 402.404 387.064C400.443 387.921 398.362 389.178 396.426 390.617C393.392 392.87 390.713 395.569 389.404 397.87C387.987 400.359 388.527 401.76 390.508 401.792L398.5 401.918C397.642 401.904 397.641 401.236 398.058 400.377C398.559 399.345 399.785 398.211 401.099 397.235C401.938 396.612 402.84 396.067 403.689 395.696C404.424 395.376 405.026 395.226 405.466 395.23C406.132 395.236 406.392 395.438 406.213 396.096L408.314 388.351C408.726 386.833 408.044 386.002 406.507 385.987Z" fill="#BC5C00"/>
<path d="M398.562 402.074C398.542 402.082 398.521 402.086 398.498 402.086L390.506 401.96C389.603 401.945 388.962 401.65 388.652 401.106C388.233 400.368 388.442 399.22 389.258 397.786C390.527 395.557 393.169 392.827 396.326 390.481C398.347 388.98 400.426 387.745 402.337 386.91C403.997 386.185 405.438 385.809 406.508 385.819C407.343 385.827 407.942 386.063 408.286 386.52C408.627 386.972 408.691 387.603 408.475 388.396L406.375 396.139C406.375 396.139 406.375 396.14 406.375 396.14C406.35 396.23 406.258 396.282 406.169 396.257C406.08 396.233 406.028 396.14 406.052 396.05C406.118 395.808 406.117 395.64 406.05 395.551C405.975 395.451 405.783 395.401 405.465 395.398C405.035 395.393 404.443 395.55 403.757 395.85C402.945 396.205 402.061 396.73 401.199 397.37C400.133 398.163 398.748 399.34 398.208 400.451C397.959 400.964 397.889 401.357 398.012 401.557C398.087 401.68 398.252 401.745 398.5 401.749L398.502 401.749C398.594 401.751 398.668 401.827 398.667 401.92C398.666 401.99 398.623 402.05 398.562 402.074ZM403.054 386.975C402.863 387.051 402.669 387.132 402.472 387.219C400.583 388.043 398.527 389.265 396.525 390.752C393.404 393.071 390.796 395.764 389.549 397.954C388.795 399.279 388.585 400.312 388.943 400.94C389.256 401.49 389.967 401.615 390.509 401.624L397.73 401.738C397.729 401.736 397.728 401.735 397.727 401.733C397.537 401.422 397.597 400.941 397.907 400.303C398.476 399.132 399.903 397.915 400.999 397.1C401.881 396.445 402.788 395.907 403.622 395.542C404.353 395.223 404.99 395.057 405.467 395.062C405.736 395.065 406.061 395.094 406.259 395.285L408.152 388.307C408.339 387.619 408.294 387.087 408.02 386.723C407.741 386.354 407.232 386.163 406.505 386.156C405.607 386.147 404.423 386.429 403.054 386.975Z" fill="#111111"/>
<path d="M390.529 401.792C389.489 401.758 387.972 401.543 386.81 400.065C386.283 399.363 386.428 398.154 387.368 396.502C389.693 392.418 395.999 387.176 401.454 384.795C404.702 383.376 406.916 383.292 407.684 384.318C408.766 385.83 408.565 387.331 408.32 388.328C409.011 385.834 406.677 385.199 402.404 387.065C397.369 389.263 391.548 394.101 389.403 397.871C387.981 400.369 388.531 401.771 390.529 401.792Z" fill="#111111"/>
<path d="M390.592 401.948C390.573 401.956 390.551 401.96 390.529 401.96C390.42 401.959 390.314 401.954 390.213 401.944C389.162 401.872 387.772 401.559 386.679 400.169C386.087 399.379 386.276 398.083 387.223 396.418C389.559 392.314 395.913 387.031 401.387 384.641C404.617 383.23 406.962 383.075 407.818 384.217C408.81 385.602 408.766 386.971 408.569 387.982C408.549 388.105 408.52 388.236 408.482 388.374C408.457 388.462 408.366 388.514 408.278 388.491C408.19 388.467 408.136 388.376 408.158 388.287C408.188 388.165 408.218 388.035 408.244 387.898C408.338 387.299 408.216 386.848 407.879 386.553C407.069 385.845 405.047 386.094 402.472 387.219C397.473 389.401 391.676 394.217 389.549 397.954C388.794 399.281 388.585 400.315 388.945 400.943C389.207 401.402 389.749 401.564 390.24 401.61C390.342 401.616 390.44 401.621 390.535 401.624C390.626 401.627 390.699 401.704 390.697 401.796C390.696 401.865 390.653 401.924 390.592 401.948ZM402.151 384.685C401.946 384.767 401.736 384.855 401.521 384.949C396.103 387.314 389.82 392.535 387.514 396.585C386.651 398.103 386.448 399.303 386.944 399.965C387.509 400.683 388.165 401.092 388.805 401.323C388.749 401.257 388.699 401.185 388.655 401.109C388.232 400.371 388.441 399.222 389.259 397.786C391.416 393.996 397.283 389.117 402.337 386.91C405.117 385.697 407.162 385.48 408.098 386.3C408.18 386.372 408.262 386.46 408.336 386.568C408.289 385.893 408.079 385.155 407.549 384.415C406.86 383.496 404.864 383.603 402.151 384.685Z" fill="#111111"/>
<path d="M397.672 371.046C397.492 370.809 397.234 370.631 396.903 370.516C395.818 370.141 393.945 370.443 391.469 371.525C388.704 372.732 385.719 374.677 383.15 376.833C380.671 378.912 378.579 381.186 377.442 383.183C376.507 384.826 376.362 386.029 376.879 386.724L386.803 400.057C386.284 399.359 386.429 398.151 387.368 396.502C388.509 394.496 390.61 392.212 393.099 390.125C395.679 387.96 398.677 386.007 401.453 384.794C403.94 383.709 405.82 383.405 406.91 383.782C407.242 383.897 407.501 384.075 407.681 384.314L397.672 371.046Z" fill="#BC5C00"/>
<path d="M386.865 400.213C386.797 400.24 386.715 400.219 386.669 400.157C386.669 400.157 386.668 400.156 386.668 400.156L376.746 386.824C376.164 386.043 376.355 384.755 377.297 383.099C378.404 381.154 380.445 378.882 383.042 376.704C385.74 374.44 388.709 372.546 391.402 371.37C393.821 370.314 395.793 369.955 396.957 370.357C397.32 370.483 397.605 370.681 397.805 370.945L407.815 384.213C407.87 384.287 407.856 384.393 407.783 384.448C407.71 384.504 407.604 384.489 407.548 384.415L407.547 384.414C407.388 384.203 407.155 384.044 406.856 383.941C405.767 383.564 403.871 383.922 401.52 384.949C398.845 386.117 395.892 388.001 393.206 390.254C390.628 392.417 388.606 394.666 387.513 396.585C386.651 398.1 386.446 399.297 386.936 399.956L386.936 399.957C386.992 400.031 386.977 400.136 386.903 400.192C386.891 400.201 386.879 400.208 386.865 400.213ZM392.167 371.415C391.961 371.497 391.751 371.585 391.536 371.679C388.872 372.842 385.932 374.718 383.257 376.962C380.689 379.116 378.676 381.355 377.588 383.267C376.729 384.776 376.525 385.968 377.013 386.624L386.34 399.155C386.311 398.425 386.607 397.499 387.223 396.418C388.335 394.464 390.383 392.183 392.992 389.996C395.701 387.723 398.683 385.821 401.386 384.641C403.805 383.585 405.776 383.223 406.946 383.617L397.539 371.148C397.38 370.938 397.148 370.779 396.85 370.675C395.864 370.334 394.217 370.597 392.167 371.415Z" fill="#111111"/>
</g>
<defs>
<linearGradient id="paint0_linear_36_2930" x1="1000" y1="563" x2="518.639" y2="-291.994" gradientUnits="userSpaceOnUse">
<stop stop-color="white"/>
<stop offset="1" stop-color="white" stop-opacity="0"/>
</linearGradient>
<clipPath id="clip0_36_2930">
<rect width="173" height="172" fill="white" transform="translate(399 119)"/>
</clipPath>
<clipPath id="clip1_36_2930">
<rect width="162" height="154" fill="white" transform="translate(520 179)"/>
</clipPath>
<clipPath id="clip2_36_2930">
<rect width="163" height="143" fill="white" transform="translate(394 301)"/>
</clipPath>
<clipPath id="clip3_36_2930">
<rect width="64.4144" height="103.453" fill="white" transform="translate(317.48 323.43) rotate(-21.7551)"/>
</clipPath>
</defs>
</svg>
