<svg width="1000" height="563" viewBox="0 0 1000 563" fill="none" xmlns="http://www.w3.org/2000/svg">
<rect width="1000" height="563" fill="#FE943E"/>
<rect width="1000" height="563" fill="url(#paint0_linear_32_2442)" fill-opacity="0.3"/>
<g clip-path="url(#clip0_32_2442)">
<path d="M548.313 260.29L512.491 418.703L359.28 359.903L395.103 201.491L548.313 260.29Z" fill="#111111"/>
<path d="M512.491 418.865C512.471 418.865 512.451 418.862 512.433 418.855L359.222 360.055C359.147 360.026 359.104 359.946 359.122 359.868L394.944 201.455C394.955 201.409 394.985 201.37 395.026 201.348C395.067 201.326 395.117 201.323 395.161 201.339L548.371 260.139C548.446 260.168 548.489 260.248 548.471 260.326L512.649 418.739C512.638 418.785 512.609 418.824 512.567 418.846C512.543 418.859 512.517 418.865 512.491 418.865ZM359.469 359.802L512.374 418.485L548.124 260.391L395.219 201.709L359.469 359.802Z" fill="#111111"/>
<path d="M446.172 221.092L395.103 201.492L383.163 254.295L434.232 273.894L446.172 221.092Z" fill="#111111"/>
<path d="M434.232 274.056C434.212 274.056 434.192 274.053 434.174 274.046L383.105 254.446C383.03 254.417 382.987 254.338 383.005 254.259L394.945 201.457C394.956 201.411 394.986 201.372 395.027 201.349C395.069 201.327 395.118 201.324 395.162 201.341L446.23 220.94C446.305 220.969 446.348 221.049 446.33 221.127L434.39 273.93C434.379 273.976 434.35 274.015 434.308 274.037C434.284 274.05 434.258 274.056 434.231 274.056H434.232ZM383.352 254.194L434.115 273.676L445.983 221.193L395.22 201.711L383.352 254.194H383.352Z" fill="#111111"/>
<path d="M485.3 293.494L434.232 273.894L422.291 326.697L473.36 346.296L485.3 293.494Z" fill="#111111"/>
<path d="M473.36 346.459C473.34 346.459 473.32 346.455 473.302 346.448L422.233 326.849C422.158 326.82 422.115 326.74 422.133 326.662L434.073 273.859C434.084 273.813 434.114 273.774 434.155 273.752C434.197 273.73 434.246 273.726 434.29 273.743L485.359 293.343C485.434 293.371 485.476 293.451 485.459 293.53L473.518 346.332C473.508 346.378 473.478 346.417 473.436 346.44C473.413 346.452 473.386 346.459 473.36 346.459ZM422.48 326.596L473.243 346.078L485.111 293.595L434.348 274.113L422.48 326.596Z" fill="#111111"/>
<path d="M524.433 365.897L473.36 346.296L461.419 399.104L512.492 418.705L524.433 365.897Z" fill="#111111"/>
<path d="M512.492 418.867C512.472 418.867 512.453 418.864 512.434 418.856L461.361 399.255C461.286 399.227 461.243 399.147 461.261 399.068L473.202 346.261C473.213 346.215 473.243 346.176 473.284 346.154C473.326 346.132 473.375 346.129 473.419 346.145L524.492 365.746C524.567 365.775 524.61 365.855 524.592 365.933L512.65 418.741C512.64 418.787 512.61 418.826 512.569 418.848C512.545 418.861 512.518 418.867 512.492 418.867ZM461.608 399.003L512.375 418.486L524.244 365.999L473.477 346.515L461.608 399.003Z" fill="#111111"/>
<path d="M548.314 260.292L497.241 240.691L485.301 293.494L536.374 313.095L548.314 260.292Z" fill="#111111"/>
<path d="M536.374 313.257C536.354 313.257 536.335 313.253 536.316 313.246L485.243 293.645C485.168 293.616 485.125 293.536 485.143 293.458L497.083 240.655C497.093 240.609 497.123 240.57 497.165 240.548C497.206 240.526 497.255 240.523 497.299 240.539L548.372 260.141C548.448 260.169 548.49 260.249 548.472 260.328L536.532 313.13C536.522 313.176 536.492 313.215 536.45 313.238C536.427 313.25 536.4 313.257 536.374 313.257ZM485.49 293.393L536.257 312.876L548.125 260.393L497.358 240.909L485.49 293.393Z" fill="#111111"/>
<path d="M422.291 326.697L371.223 307.098L359.281 359.905L410.35 379.504L422.291 326.697Z" fill="#111111"/>
<path d="M410.35 379.667C410.33 379.667 410.31 379.663 410.292 379.656L359.223 360.057C359.148 360.028 359.105 359.948 359.123 359.87L371.065 307.062C371.075 307.016 371.105 306.977 371.146 306.955C371.188 306.933 371.237 306.93 371.281 306.947L422.35 326.546C422.425 326.575 422.467 326.654 422.45 326.733L410.508 379.54C410.498 379.586 410.468 379.625 410.426 379.647C410.403 379.66 410.376 379.667 410.35 379.667ZM359.47 359.804L410.233 379.286L422.102 326.798L371.34 307.316L359.47 359.804Z" fill="#111111"/>
<path d="M548.314 260.29L598.837 230.962L563.015 389.375L512.491 418.703L548.314 260.29Z" fill="#BC5C00"/>
<path d="M512.491 418.865C512.458 418.865 512.424 418.855 512.395 418.834C512.343 418.796 512.319 418.73 512.333 418.668L548.155 260.255C548.165 260.211 548.193 260.173 548.232 260.15L598.756 230.822C598.811 230.789 598.881 230.793 598.933 230.831C598.985 230.869 599.01 230.935 598.995 230.998L563.173 389.411C563.163 389.455 563.135 389.493 563.096 389.515L512.573 418.844C512.547 418.858 512.519 418.865 512.491 418.865ZM548.456 260.395L512.731 418.377L562.873 389.27L598.597 231.289L548.456 260.395Z" fill="#111111"/>
<path d="M549.693 351.235L574.957 336.57L586.897 283.767L561.634 298.432L549.693 351.235Z" fill="white"/>
<path d="M549.693 351.398C549.659 351.398 549.625 351.387 549.597 351.366C549.545 351.328 549.52 351.263 549.534 351.2L561.475 298.397C561.485 298.353 561.513 298.315 561.552 298.292L586.815 283.627C586.871 283.595 586.94 283.599 586.992 283.637C587.044 283.675 587.069 283.741 587.055 283.803L575.114 336.606C575.104 336.65 575.076 336.688 575.037 336.711L549.774 351.376C549.749 351.391 549.721 351.398 549.693 351.398V351.398ZM561.776 298.537L549.933 350.909L574.813 336.466L586.656 284.094L561.776 298.537Z" fill="#111111"/>
<path d="M536.372 313.096L561.633 298.432L573.575 245.625L548.314 260.289L536.372 313.096Z" fill="#BC5C00"/>
<path d="M536.372 313.258C536.338 313.258 536.305 313.248 536.276 313.227C536.224 313.189 536.2 313.123 536.214 313.061L548.155 260.253C548.165 260.209 548.193 260.171 548.232 260.149L573.493 245.485C573.549 245.453 573.619 245.456 573.671 245.495C573.723 245.533 573.747 245.598 573.733 245.661L561.792 298.469C561.782 298.512 561.754 298.55 561.715 298.573L536.454 313.237C536.428 313.251 536.4 313.258 536.372 313.258ZM548.456 260.394L536.612 312.77L561.491 298.328L573.335 245.952L548.456 260.394Z" fill="#111111"/>
<path d="M512.491 418.702L537.752 404.038L549.693 351.235L524.432 365.899L512.491 418.702Z" fill="#FFDBBD"/>
<path d="M512.491 418.864C512.458 418.864 512.424 418.854 512.395 418.833C512.343 418.795 512.319 418.729 512.333 418.666L524.274 365.863C524.284 365.82 524.311 365.782 524.35 365.759L549.611 351.095C549.667 351.063 549.737 351.067 549.789 351.105C549.841 351.143 549.865 351.209 549.851 351.271L537.911 404.074C537.901 404.118 537.873 404.156 537.834 404.179L512.573 418.842C512.547 418.857 512.519 418.864 512.491 418.864ZM524.574 366.004L512.731 418.375L537.61 403.933L549.452 351.562L524.574 366.004H524.574Z" fill="#111111"/>
<path d="M395.103 201.491L445.626 172.162L598.837 230.962L548.313 260.29L395.103 201.491Z" fill="#FFDBBD"/>
<path d="M548.313 260.452C548.293 260.452 548.274 260.449 548.255 260.442L395.044 201.642C394.986 201.62 394.946 201.566 394.941 201.504C394.936 201.441 394.967 201.382 395.021 201.35L445.545 172.022C445.587 171.997 445.639 171.993 445.684 172.011L598.895 230.81C598.953 230.833 598.993 230.887 598.998 230.949C599.003 231.011 598.972 231.071 598.918 231.102L548.394 260.431C548.369 260.445 548.341 260.452 548.313 260.452ZM395.477 201.461L548.299 260.111L598.462 230.992L445.64 172.341L395.477 201.461Z" fill="#111111"/>
<path d="M471.435 206.426L446.172 221.091L497.241 240.69L522.504 226.025L471.435 206.426Z" fill="white"/>
<path d="M497.241 240.852C497.221 240.852 497.201 240.849 497.183 240.842L446.114 221.242C446.056 221.22 446.015 221.166 446.01 221.104C446.005 221.042 446.037 220.982 446.091 220.951L471.354 206.286C471.396 206.261 471.447 206.257 471.493 206.275L522.562 225.874C522.62 225.896 522.661 225.95 522.666 226.012C522.671 226.075 522.639 226.134 522.585 226.165L497.322 240.831C497.297 240.845 497.269 240.853 497.241 240.853V240.852ZM446.546 221.061L497.226 240.511L522.129 226.055L471.449 206.605L446.546 221.061H446.546Z" fill="#111111"/>
<path d="M547.765 211.361L522.504 226.025L573.577 245.626L598.838 230.962L547.765 211.361Z" fill="#FFDBBD"/>
<path d="M573.577 245.788C573.557 245.788 573.538 245.785 573.519 245.778L522.446 226.177C522.388 226.154 522.347 226.1 522.342 226.038C522.337 225.976 522.369 225.916 522.423 225.885L547.684 211.221C547.726 211.197 547.777 211.192 547.823 211.21L598.896 230.811C598.954 230.834 598.995 230.887 599 230.95C599.005 231.012 598.973 231.072 598.919 231.103L573.658 245.767C573.633 245.781 573.605 245.789 573.577 245.789V245.788ZM522.878 225.995L573.563 245.447L598.464 230.992L547.779 211.541L522.878 225.995Z" fill="#111111"/>
<path d="M445.627 172.163L420.366 186.826L471.435 206.426L496.696 191.762L445.627 172.163Z" fill="white"/>
<path d="M471.435 206.588C471.415 206.588 471.395 206.584 471.377 206.577L420.308 186.978C420.25 186.956 420.21 186.902 420.205 186.84C420.2 186.777 420.231 186.718 420.285 186.686L445.546 172.022C445.588 171.998 445.64 171.993 445.685 172.011L496.754 191.611C496.812 191.633 496.853 191.687 496.858 191.749C496.862 191.811 496.831 191.871 496.777 191.902L471.516 206.566C471.491 206.58 471.463 206.588 471.435 206.588H471.435ZM420.741 186.797L471.421 206.246L496.321 191.792L445.642 172.342L420.741 186.797Z" fill="#111111"/>
<path d="M481.935 230.621L520.887 398.792L371.114 419.837L332.162 251.666L481.935 230.621Z" fill="#FFDBBD"/>
<path d="M371.114 419.999C371.04 419.999 370.973 419.948 370.956 419.873L332.004 251.703C331.994 251.659 332.003 251.612 332.028 251.574C332.054 251.537 332.094 251.512 332.14 251.506L481.913 230.461C481.996 230.449 482.075 230.503 482.093 230.585L521.045 398.755C521.055 398.799 521.047 398.846 521.021 398.884C520.995 398.921 520.955 398.946 520.91 398.952L371.137 419.997C371.129 419.998 371.121 419.999 371.114 419.999ZM332.36 251.802L371.239 419.655L520.689 398.656L481.811 230.803L332.36 251.802Z" fill="#111111"/>
<path d="M382.087 244.653L332.164 251.667L345.148 307.722L395.071 300.708L382.087 244.653Z" fill="#BC5C00"/>
<path d="M345.147 307.885C345.073 307.885 345.007 307.834 344.99 307.759L332.006 251.704C331.996 251.66 332.005 251.613 332.03 251.576C332.056 251.538 332.096 251.513 332.142 251.507L382.064 244.492C382.147 244.48 382.226 244.534 382.245 244.616L395.228 300.671C395.239 300.715 395.23 300.762 395.204 300.8C395.178 300.837 395.138 300.862 395.093 300.868L345.17 307.883C345.163 307.884 345.155 307.885 345.147 307.885ZM332.362 251.803L345.272 307.541L394.873 300.572L381.963 244.834L332.362 251.803Z" fill="#111111"/>
<path d="M444.993 293.693L395.07 300.708L408.054 356.763L457.977 349.748L444.993 293.693Z" fill="white"/>
<path d="M408.054 356.925C407.979 356.925 407.913 356.874 407.896 356.8L394.912 300.744C394.902 300.7 394.911 300.653 394.937 300.616C394.962 300.579 395.003 300.553 395.048 300.547L444.971 293.532C445.053 293.52 445.132 293.575 445.151 293.656L458.135 349.712C458.145 349.756 458.136 349.803 458.11 349.84C458.085 349.877 458.044 349.903 457.999 349.909L408.076 356.924C408.069 356.925 408.061 356.925 408.054 356.925ZM395.268 300.843L408.178 356.582L457.779 349.612L444.869 293.874L395.268 300.843Z" fill="#111111"/>
<path d="M507.904 342.733L457.977 349.748L470.961 405.808L520.888 398.793L507.904 342.733Z" fill="#BC5C00"/>
<path d="M470.961 405.971C470.887 405.971 470.82 405.919 470.803 405.845L457.819 349.785C457.808 349.741 457.817 349.694 457.843 349.657C457.869 349.619 457.909 349.594 457.954 349.588L507.881 342.573C507.964 342.56 508.043 342.615 508.062 342.697L521.047 398.757C521.057 398.801 521.048 398.848 521.022 398.885C520.996 398.922 520.956 398.947 520.911 398.954L470.984 405.969C470.976 405.97 470.969 405.971 470.961 405.971ZM458.174 349.884L471.086 405.627L520.691 398.657L507.779 342.914L458.174 349.884Z" fill="#111111"/>
<path d="M481.937 230.622L432.01 237.638L444.993 293.693L494.921 286.678L481.937 230.622Z" fill="white"/>
<path d="M444.993 293.855C444.919 293.855 444.853 293.804 444.835 293.73L431.852 237.675C431.842 237.63 431.85 237.584 431.876 237.546C431.902 237.509 431.942 237.484 431.987 237.478L481.914 230.462C481.997 230.45 482.076 230.504 482.095 230.586L495.078 286.641C495.089 286.685 495.08 286.732 495.054 286.77C495.028 286.807 494.988 286.832 494.943 286.838L445.016 293.854C445.008 293.855 445.001 293.855 444.993 293.855ZM432.208 237.774L445.118 293.512L494.723 286.542L481.813 230.804L432.208 237.774Z" fill="#111111"/>
<path d="M408.054 356.763L358.131 363.778L371.116 419.838L421.038 412.823L408.054 356.763Z" fill="#FFDBBD"/>
<path d="M371.115 420C371.041 420 370.975 419.949 370.958 419.875L357.973 363.814C357.963 363.77 357.971 363.724 357.997 363.686C358.023 363.649 358.063 363.624 358.108 363.617L408.031 356.603C408.114 356.59 408.193 356.645 408.212 356.727L421.196 412.787C421.207 412.831 421.198 412.878 421.172 412.915C421.146 412.952 421.106 412.978 421.061 412.984L371.138 419.999C371.13 420 371.123 420 371.115 420ZM358.329 363.914L371.24 419.657L420.84 412.687L407.929 356.944L358.329 363.914Z" fill="#111111"/>
<path d="M481.936 230.621L508.915 216.625L547.867 384.795L520.888 398.792L481.936 230.621Z" fill="#FFDBBD"/>
<path d="M520.888 398.954C520.864 398.954 520.841 398.949 520.82 398.939C520.774 398.918 520.741 398.877 520.729 398.828L481.778 230.658C481.761 230.586 481.795 230.512 481.861 230.478L508.84 216.481C508.884 216.457 508.937 216.456 508.983 216.477C509.028 216.498 509.061 216.539 509.073 216.588L548.025 384.758C548.041 384.83 548.007 384.905 547.941 384.939L520.962 398.936C520.939 398.948 520.913 398.954 520.887 398.954L520.888 398.954ZM482.122 230.707L520.998 398.552L547.68 384.709L508.804 216.865L482.122 230.707Z" fill="#111111"/>
<path d="M534.881 328.737L507.902 342.733L520.887 398.793L547.866 384.797L534.881 328.737Z" fill="white"/>
<path d="M520.887 398.955C520.864 398.955 520.841 398.95 520.819 398.94C520.774 398.919 520.741 398.878 520.729 398.83L507.744 342.77C507.728 342.698 507.762 342.623 507.828 342.589L534.806 328.593C534.85 328.569 534.903 328.568 534.949 328.589C534.994 328.61 535.027 328.651 535.039 328.7L548.024 384.76C548.04 384.832 548.006 384.906 547.94 384.94L520.962 398.937C520.938 398.949 520.913 398.955 520.887 398.955L520.887 398.955ZM508.089 342.819L520.998 398.553L547.679 384.711L534.77 328.977L508.089 342.819Z" fill="#111111"/>
<path d="M508.914 216.626L481.936 230.623L494.919 286.678L521.897 272.681L508.914 216.626Z" fill="#BC5C00"/>
<path d="M494.919 286.84C494.896 286.84 494.873 286.835 494.851 286.825C494.806 286.804 494.773 286.763 494.761 286.714L481.778 230.659C481.761 230.587 481.795 230.513 481.861 230.479L508.839 216.482C508.884 216.459 508.936 216.458 508.982 216.479C509.027 216.5 509.061 216.541 509.072 216.59L522.056 272.645C522.072 272.717 522.038 272.791 521.972 272.825L494.994 286.822C494.97 286.834 494.945 286.84 494.919 286.84ZM482.122 230.709L495.03 286.438L521.711 272.595L508.803 216.866L482.122 230.709Z" fill="#111111"/>
<path d="M332.162 251.666L359.141 237.669L508.914 216.625L481.935 230.621L332.162 251.666Z" fill="#FFDBBD"/>
<path d="M332.162 251.828C332.092 251.828 332.029 251.784 332.008 251.716C331.984 251.64 332.017 251.559 332.087 251.523L359.067 237.526C359.083 237.517 359.101 237.512 359.119 237.509L508.892 216.464C508.97 216.453 509.045 216.5 509.069 216.575C509.093 216.651 509.059 216.732 508.989 216.769L482.01 230.765C481.994 230.774 481.976 230.78 481.958 230.782L332.185 251.827C332.177 251.828 332.17 251.828 332.162 251.828ZM359.191 237.826L333.078 251.374L481.885 230.465L507.999 216.917L359.191 237.826Z" fill="#111111"/>
<path d="M382.089 244.651L409.068 230.654L359.14 237.669L332.162 251.666L382.089 244.651Z" fill="white"/>
<path d="M332.162 251.828C332.092 251.828 332.029 251.783 332.008 251.715C331.984 251.64 332.017 251.559 332.087 251.522L359.066 237.526C359.082 237.517 359.1 237.512 359.118 237.509L409.045 230.494C409.123 230.482 409.198 230.53 409.222 230.605C409.246 230.68 409.212 230.762 409.142 230.798L382.164 244.795C382.148 244.803 382.13 244.809 382.112 244.811L332.185 251.827C332.177 251.828 332.17 251.828 332.162 251.828ZM359.191 237.826L333.078 251.374L382.039 244.494L408.152 230.947L359.191 237.826Z" fill="#111111"/>
<path d="M481.936 230.621L508.914 216.625L458.991 223.639L432.013 237.636L481.936 230.621Z" fill="#FFDBBD"/>
<path d="M432.013 237.798C431.943 237.798 431.88 237.753 431.858 237.685C431.834 237.61 431.868 237.528 431.938 237.492L458.916 223.495C458.933 223.487 458.95 223.481 458.968 223.479L508.891 216.464C508.97 216.452 509.044 216.5 509.068 216.575C509.092 216.651 509.059 216.732 508.989 216.769L482.01 230.765C481.994 230.774 481.976 230.779 481.958 230.782L432.035 237.797C432.028 237.798 432.02 237.798 432.013 237.798V237.798ZM459.041 223.796L432.928 237.343L481.886 230.464L507.998 216.917L459.041 223.796Z" fill="#111111"/>
</g>
<g clip-path="url(#clip1_32_2442)">
<path d="M405.597 423.325L402.746 428.666C400.728 432.447 397.759 435.795 393.864 438.421C379.294 448.239 357.282 444.214 344.701 429.446C335.481 418.622 333.875 405.035 339.403 394.681L342.254 389.339C336.727 399.693 338.332 413.281 347.553 424.104C360.134 438.872 382.146 442.897 396.715 433.079C400.611 430.454 403.579 427.105 405.597 423.325Z" fill="#BC5C00"/>
<path d="M375.513 443.986C364.25 443.986 352.502 438.925 344.542 429.582C335.576 419.057 333.486 405.319 339.218 394.582L342.062 389.254C342.064 389.249 342.066 389.245 342.069 389.24C342.124 389.138 342.25 389.099 342.352 389.154C342.454 389.209 342.493 389.336 342.438 389.438C336.788 400.022 338.858 413.576 347.712 423.968C360.21 438.639 382.14 442.648 396.598 432.906C400.378 430.358 403.343 427.102 405.412 423.226C405.467 423.124 405.593 423.086 405.696 423.14C405.797 423.195 405.836 423.322 405.781 423.424L402.93 428.766C400.829 432.702 397.817 436.01 393.98 438.595C388.569 442.241 382.124 443.986 375.513 443.986ZM340.218 393.596L339.587 394.78C333.937 405.363 336.007 418.917 344.86 429.309C357.359 443.98 379.289 447.99 393.747 438.247C397.526 435.7 400.492 432.443 402.561 428.567L403.187 427.394C401.425 429.629 399.299 431.59 396.831 433.253C382.203 443.111 360.025 439.068 347.393 424.24C339.601 415.093 337.002 403.519 340.218 393.596Z" fill="#111111"/>
<path d="M405.598 423.301C413.635 408.244 405.971 388.439 388.479 379.065C370.987 369.692 350.292 374.3 342.255 389.357C334.218 404.415 341.882 424.22 359.374 433.593C376.866 442.967 397.561 438.359 405.598 423.301Z" fill="white"/>
<path d="M378.364 438.644C367.101 438.644 355.353 433.584 347.393 424.24C340.93 416.653 337.916 407.233 339.124 398.395C340.188 390.604 344.414 383.861 351.022 379.408C365.651 369.55 387.829 373.593 400.461 388.421C406.922 396.006 409.935 405.426 408.727 414.266C407.662 422.058 403.438 428.801 396.831 433.253C391.421 436.899 384.975 438.644 378.364 438.644ZM351.256 379.755C344.748 384.141 340.587 390.781 339.539 398.452C338.347 407.172 341.326 416.472 347.712 423.968C355.591 433.216 367.22 438.227 378.36 438.228C384.892 438.229 391.254 436.506 396.598 432.905C403.104 428.521 407.265 421.881 408.313 414.209C409.505 405.487 406.527 396.187 400.143 388.693C387.644 374.022 365.713 370.012 351.256 379.755Z" fill="#111111"/>
<path d="M361.491 392.448C357.235 395.316 356.759 401.147 360.442 405.47C364.118 409.786 370.559 410.955 374.814 408.087C379.077 405.214 379.546 399.389 375.87 395.073C372.186 390.75 365.754 389.576 361.491 392.448Z" fill="#FFDBBD"/>
<path d="M369.445 409.863C366.111 409.863 362.636 408.368 360.283 405.606C358.366 403.356 357.473 400.559 357.832 397.931C358.149 395.609 359.407 393.6 361.374 392.274C365.713 389.35 372.288 390.545 376.029 394.938C377.944 397.185 378.836 399.979 378.478 402.603C378.16 404.925 376.901 406.934 374.931 408.262C373.323 409.345 371.408 409.863 369.445 409.863ZM361.608 392.622C359.741 393.88 358.547 395.786 358.247 397.988C357.904 400.497 358.762 403.175 360.602 405.334C364.206 409.565 370.53 410.722 374.697 407.913C376.567 406.654 377.762 404.747 378.063 402.546C378.406 400.04 377.548 397.366 375.711 395.209C372.103 390.974 365.776 389.814 361.608 392.622Z" fill="#111111"/>
<path d="M396.715 433.079C402.975 428.861 406.837 422.775 408.213 416.033C399.844 408.646 387.391 407.091 378.862 412.838C370.527 418.455 368.731 429.167 374.01 438.199C382.06 439.118 390.145 437.507 396.715 433.079Z" fill="#FFDBBD"/>
<path d="M378.314 438.655C376.885 438.655 375.44 438.573 373.986 438.407C373.921 438.4 373.862 438.362 373.829 438.305C368.403 429.023 370.471 418.24 378.744 412.664C382.882 409.876 388.165 408.682 393.621 409.302C399.011 409.914 404.242 412.249 408.35 415.876C408.407 415.925 408.432 416.001 408.417 416.075C406.988 423.081 402.873 429.181 396.831 433.253C391.581 436.791 385.127 438.655 378.314 438.655ZM374.138 438.002C382.382 438.921 390.355 437.112 396.598 432.905C402.6 428.86 406.535 423.055 407.983 416.11C403.952 412.585 398.84 410.317 393.573 409.718C388.217 409.11 383.033 410.28 378.978 413.012C370.92 418.443 368.893 428.938 374.138 438.002Z" fill="#111111"/>
</g>
<g clip-path="url(#clip2_32_2442)">
<path d="M648.674 382.384C667.288 393.997 669.141 418.264 652.823 436.591C636.495 454.927 608.182 460.375 589.568 448.762C570.954 437.15 569.101 412.882 585.428 394.546C601.746 376.22 630.059 370.772 648.674 382.384Z" fill="#FFDBBD"/>
<path d="M612.111 455.126C603.96 455.126 596.067 453.148 589.418 448.999C581.061 443.786 575.712 435.759 574.357 426.397C572.787 415.552 576.745 403.875 585.217 394.361C601.597 375.965 630.131 370.486 648.824 382.147C657.182 387.361 662.531 395.389 663.887 404.753C665.456 415.596 661.5 427.268 653.034 436.776C642.477 448.632 626.873 455.126 612.111 455.126ZM626.118 376.573C611.519 376.573 596.086 382.999 585.639 394.732C577.277 404.122 573.368 415.635 574.914 426.317C576.246 435.513 581.503 443.4 589.717 448.525C608.187 460.047 636.401 454.61 652.611 436.405C660.968 427.02 664.875 415.512 663.329 404.832C661.998 395.635 656.74 387.747 648.524 382.621C641.961 378.527 634.165 376.573 626.118 376.573Z" fill="#111111"/>
<path d="M634.253 397.714C628.817 394.322 620.53 395.909 615.753 401.274C610.984 406.629 611.536 413.729 616.972 417.121C622.419 420.518 630.696 418.926 635.464 413.571C640.242 408.206 639.7 401.111 634.253 397.714Z" fill="white"/>
<path d="M623.568 419.179C621.146 419.179 618.8 418.591 616.823 417.358C614.329 415.802 612.733 413.404 612.327 410.605C611.86 407.376 613.032 403.908 615.542 401.088C620.397 395.637 628.857 394.017 634.404 397.476C636.899 399.033 638.497 401.431 638.902 404.227C639.369 407.455 638.193 410.929 635.676 413.756C632.555 417.261 627.94 419.179 623.568 419.179ZM627.656 396.21C623.442 396.21 618.983 398.069 615.964 401.459C613.564 404.156 612.441 407.46 612.885 410.525C613.266 413.158 614.771 415.417 617.122 416.884C622.446 420.204 630.58 418.635 635.254 413.385C637.662 410.681 638.788 407.372 638.344 404.307C637.963 401.676 636.458 399.419 634.104 397.95C632.215 396.773 629.972 396.21 627.656 396.21Z" fill="#111111"/>
<path d="M660.89 395.807L664.647 403.661C670.513 415.925 667.985 431.636 656.579 444.444C640.252 462.781 611.939 468.229 593.325 456.616C587.721 453.12 583.636 448.477 581.109 443.195L577.353 435.341C579.879 440.624 583.964 445.267 589.568 448.762C608.182 460.375 636.495 454.927 652.822 436.591C664.228 423.782 666.756 408.071 660.89 395.807Z" fill="#BC5C00"/>
<path d="M615.868 462.98C607.717 462.98 599.825 461.001 593.176 456.853C587.726 453.453 583.466 448.772 580.856 443.315L577.099 435.461C577.032 435.321 577.092 435.155 577.232 435.088C577.373 435.021 577.541 435.081 577.607 435.221C580.171 440.581 584.359 445.182 589.718 448.525C608.187 460.047 636.401 454.61 652.612 436.405C663.601 424.064 666.676 408.553 660.636 395.927C660.569 395.788 660.629 395.621 660.77 395.554C660.911 395.488 661.078 395.547 661.145 395.687L664.902 403.541C671.041 416.373 667.932 432.118 656.791 444.63C646.234 456.486 630.63 462.979 615.868 462.98ZM580.125 440.484L581.364 443.075C583.928 448.435 588.116 453.036 593.475 456.379C611.944 467.901 640.158 462.465 656.369 444.259C667.358 431.918 670.433 416.407 664.393 403.781L663.194 401.275C666.247 412.898 662.604 426.029 653.034 436.776C642.477 448.632 626.873 455.125 612.111 455.126C603.961 455.126 596.068 453.147 589.419 448.999C585.727 446.696 582.582 443.806 580.125 440.484Z" fill="#111111"/>
<path d="M611.722 423.016C601.074 416.374 585.54 418.333 574.742 427.034C576.189 435.714 581.173 443.525 589.568 448.762C597.566 453.752 607.355 455.583 617.214 454.605C624.669 443.286 622.617 429.813 611.722 423.016Z" fill="white"/>
<path d="M612.045 455.144C603.658 455.144 595.917 453.054 589.418 448.999C581.286 443.926 575.975 436.141 574.465 427.08C574.448 426.981 574.486 426.88 574.565 426.817C585.635 417.897 601.325 416.199 611.872 422.78C616.906 425.92 620.209 430.501 621.426 436.028C622.776 442.163 621.364 448.815 617.45 454.758C617.403 454.829 617.327 454.875 617.242 454.884C615.487 455.057 613.752 455.144 612.045 455.144ZM575.047 427.149C576.567 435.981 581.772 443.568 589.718 448.525C597.399 453.317 606.849 455.327 617.052 454.339C620.827 448.552 622.185 442.096 620.875 436.147C619.692 430.77 616.475 426.312 611.573 423.253C601.263 416.822 585.928 418.465 575.047 427.149Z" fill="#111111"/>
</g>
<g clip-path="url(#clip3_32_2442)">
<path d="M508.327 156.627L511.892 166.023C513.951 171.45 517.526 176.388 522.621 180.353C539.88 193.783 568.049 190.95 585.537 174.019C597.862 162.086 601.59 146.333 596.672 133.371L593.107 123.975C598.025 136.937 594.297 152.69 581.972 164.622C564.483 181.554 536.315 184.387 519.056 170.957C513.961 166.992 510.386 162.054 508.327 156.627Z" fill="#8E4600"/>
<path d="M548.816 189.004C538.863 189.004 529.67 186.053 522.518 180.487C517.51 176.591 513.882 171.745 511.734 166.083L508.169 156.687C508.136 156.6 508.18 156.501 508.267 156.468C508.353 156.434 508.452 156.478 508.485 156.566C510.61 162.168 514.201 166.964 519.159 170.822C536.329 184.183 564.454 181.347 581.855 164.5C587.787 158.756 591.932 151.889 593.843 144.641C595.7 137.595 595.391 130.469 592.95 124.035C592.917 123.947 592.96 123.849 593.047 123.816C593.134 123.782 593.232 123.826 593.265 123.914L596.83 133.31C599.297 139.811 599.609 147.009 597.734 154.124C595.808 161.433 591.631 168.354 585.654 174.141C577.169 182.356 565.931 187.541 554.009 188.741C552.26 188.917 550.527 189.004 548.816 189.004ZM510.141 160.932L512.05 165.962C514.175 171.564 517.767 176.36 522.724 180.218C539.894 193.579 568.019 190.743 585.42 173.896C591.352 168.153 595.497 161.285 597.408 154.037C599.265 146.991 598.956 139.865 596.515 133.431L594.599 128.38C595.762 133.636 595.624 139.207 594.169 144.728C592.243 152.036 588.066 158.958 582.089 164.745C573.604 172.959 562.366 178.144 550.445 179.344C538.518 180.544 527.334 177.613 518.953 171.091C515.246 168.206 512.295 164.802 510.141 160.932Z" fill="#111111"/>
<path d="M564.213 175.88C587.626 166.883 600.563 143.66 593.109 124.012C585.655 104.364 560.633 95.7295 537.221 104.727C513.809 113.725 500.871 136.947 508.325 156.596C515.779 176.244 540.801 184.878 564.213 175.88Z" fill="white"/>
<path d="M545.251 179.607C535.298 179.607 526.105 176.657 518.953 171.091C511.183 165.045 506.622 156.439 506.108 146.856C505.819 141.47 506.791 136.062 508.996 130.783C511.277 125.322 514.76 120.301 519.348 115.859C527.833 107.645 539.07 102.46 550.99 101.26C562.916 100.059 574.102 102.99 582.485 109.513C590.252 115.557 594.813 124.164 595.326 133.747C595.615 139.134 594.644 144.542 592.439 149.822C590.158 155.283 586.676 160.303 582.088 164.745C573.603 172.96 562.365 178.144 550.444 179.344C548.695 179.52 546.962 179.607 545.251 179.607ZM556.14 101.355C543.156 101.355 529.596 106.409 519.582 116.104C515.028 120.514 511.57 125.497 509.307 130.914C507.122 136.146 506.159 141.504 506.445 146.838C506.954 156.32 511.469 164.838 519.159 170.822C536.329 184.183 564.454 181.347 581.854 164.5C586.409 160.091 589.865 155.108 592.128 149.69C594.313 144.458 595.276 139.1 594.989 133.765C594.481 124.282 589.967 115.765 582.278 109.781C574.988 104.109 565.72 101.355 556.14 101.355Z" fill="#111111"/>
<path d="M577.075 133.295C579.131 134.895 578.22 138.692 575.037 141.773C571.854 144.855 567.605 146.054 565.549 144.454C563.493 142.854 564.407 139.059 567.59 135.978C570.772 132.896 575.019 131.695 577.075 133.295Z" fill="#BC5C00"/>
<path d="M567.898 145.326C566.937 145.326 566.088 145.089 565.445 144.588C564.741 144.04 564.341 143.225 564.288 142.229C564.183 140.271 565.373 137.888 567.473 135.855C570.708 132.723 575.062 131.514 577.178 133.16C577.883 133.709 578.283 134.525 578.337 135.522C578.44 137.453 577.221 139.895 575.154 141.896C572.9 144.077 570.104 145.326 567.898 145.326ZM574.713 132.753C572.608 132.753 569.901 133.976 567.706 136.1C565.707 138.036 564.526 140.377 564.625 142.211C564.673 143.105 565.028 143.834 565.652 144.319C567.642 145.868 571.8 144.671 574.919 141.651C576.918 139.716 578.098 137.375 577.999 135.541C577.951 134.645 577.596 133.915 576.971 133.429C576.382 132.97 575.601 132.753 574.713 132.753Z" fill="#111111"/>
<path d="M555.875 116.797C557.931 118.397 557.016 122.192 553.834 125.274C550.651 128.355 546.405 129.557 544.348 127.957C542.292 126.357 543.207 122.562 546.389 119.481C549.572 116.399 553.818 115.197 555.875 116.797Z" fill="#BC5C00"/>
<path d="M546.695 128.827C545.735 128.827 544.887 128.59 544.245 128.091C543.541 127.543 543.141 126.727 543.087 125.731C542.982 123.773 544.173 121.39 546.272 119.358C549.508 116.225 553.862 115.016 555.978 116.663C556.682 117.211 557.082 118.027 557.136 119.022C557.241 120.981 556.05 123.363 553.951 125.396C551.697 127.578 548.9 128.827 546.695 128.827ZM553.513 116.255C551.408 116.255 548.701 117.478 546.506 119.603C544.507 121.539 543.326 123.88 543.425 125.713C543.472 126.607 543.828 127.336 544.452 127.822C546.441 129.37 550.597 128.172 553.717 125.151C555.716 123.215 556.897 120.874 556.799 119.041C556.751 118.147 556.395 117.418 555.771 116.932C555.182 116.473 554.401 116.255 553.513 116.255Z" fill="#111111"/>
<path d="M531.073 133.925C531.57 134.312 531.818 134.925 531.675 135.593C530.301 141.968 532.781 148.344 538.31 152.647C543.581 156.748 550.845 158.268 557.744 156.718C558.463 156.555 559.148 156.707 559.621 157.075C559.946 157.329 560.172 157.684 560.239 158.108C560.406 159.152 559.554 160.216 558.339 160.491C550.067 162.352 541.397 160.562 535.153 155.704C528.598 150.602 525.67 142.984 527.318 135.324C527.549 134.248 528.712 133.436 529.916 133.509C530.373 133.537 530.769 133.689 531.073 133.925Z" fill="#BC5C00"/>
<path d="M551.848 161.382C545.68 161.382 539.698 159.455 535.05 155.838C528.442 150.696 525.491 143.014 527.153 135.288C527.401 134.135 528.641 133.261 529.926 133.34C530.402 133.369 530.835 133.525 531.176 133.791C531.744 134.233 531.992 134.92 531.84 135.629C530.48 141.94 532.938 148.251 538.414 152.512C543.642 156.581 550.855 158.091 557.707 156.552C558.454 156.383 559.189 156.524 559.724 156.941C560.098 157.232 560.334 157.626 560.405 158.082C560.586 159.207 559.676 160.362 558.376 160.657C556.211 161.144 554.018 161.382 551.848 161.382ZM529.764 133.674C528.693 133.674 527.688 134.406 527.483 135.36C525.849 142.955 528.754 150.509 535.256 155.569C541.461 160.398 550.077 162.176 558.302 160.325C559.43 160.07 560.224 159.087 560.072 158.135C560.014 157.767 559.822 157.447 559.518 157.21C559.063 156.856 558.43 156.736 557.781 156.883C550.832 158.445 543.514 156.911 538.207 152.781C532.625 148.438 530.122 141.999 531.51 135.557C531.634 134.979 531.432 134.419 530.97 134.059C530.682 133.835 530.314 133.704 529.906 133.679C529.858 133.676 529.811 133.674 529.764 133.674Z" fill="#111111"/>
</g>
<defs>
<linearGradient id="paint0_linear_32_2442" x1="1000" y1="563" x2="518.639" y2="-291.994" gradientUnits="userSpaceOnUse">
<stop stop-color="white"/>
<stop offset="1" stop-color="white" stop-opacity="0"/>
</linearGradient>
<clipPath id="clip0_32_2442">
<rect width="267" height="248" fill="white" transform="translate(332 172)"/>
</clipPath>
<clipPath id="clip1_32_2442">
<rect width="73" height="70" fill="white" transform="translate(336 374)"/>
</clipPath>
<clipPath id="clip2_32_2442">
<rect width="94" height="87" fill="white" transform="translate(574 376)"/>
</clipPath>
<clipPath id="clip3_32_2442">
<rect width="93" height="88" fill="white" transform="translate(506 101)"/>
</clipPath>
</defs>
</svg>
