<svg width="1000" height="563" viewBox="0 0 1000 563" fill="none" xmlns="http://www.w3.org/2000/svg">
<rect width="1000" height="563" fill="#FE943E"/>
<rect width="1000" height="563" fill="url(#paint0_linear_32_560)" fill-opacity="0.3"/>
<g clip-path="url(#clip0_32_560)">
<path d="M638.67 182.328L635.385 176.852C636.227 178.255 636.429 180.038 635.785 181.817L547.115 426.715C545.896 430.081 542.113 432.155 538.668 431.352L348.897 387.106C347.272 386.728 346.012 385.777 345.261 384.524L348.545 390.001C349.296 391.253 350.557 392.204 352.181 392.583L541.952 436.828C545.398 437.631 549.18 435.557 550.399 432.191L639.069 187.293C639.713 185.514 639.512 183.732 638.67 182.328Z" fill="#8E4600"/>
<path d="M543.46 437.173C542.942 437.173 542.424 437.116 541.912 436.997L352.142 392.752C350.531 392.376 349.2 391.431 348.396 390.09L345.119 384.625L345.112 384.614C345.088 384.574 345.081 384.527 345.092 384.482C345.103 384.438 345.132 384.399 345.171 384.376C345.211 384.352 345.258 384.345 345.302 384.356C345.347 384.367 345.385 384.396 345.409 384.435C346.165 385.695 347.417 386.583 348.936 386.938L538.707 431.183C542.065 431.966 545.764 429.935 546.951 426.656L635.621 181.758C636.22 180.103 636.08 178.348 635.236 176.941C635.224 176.921 635.217 176.9 635.213 176.877C635.21 176.855 635.211 176.832 635.217 176.81C635.222 176.787 635.232 176.767 635.246 176.748C635.259 176.73 635.276 176.715 635.296 176.703C635.315 176.691 635.337 176.684 635.359 176.68C635.382 176.677 635.405 176.678 635.427 176.684C635.449 176.689 635.47 176.699 635.488 176.712C635.507 176.726 635.522 176.743 635.534 176.763L638.818 182.239C639.716 183.736 639.867 185.599 639.232 187.352L550.562 432.251C549.497 435.191 546.507 437.173 543.46 437.173ZM346.407 386.098L348.694 389.912C349.449 391.171 350.702 392.06 352.22 392.414L541.991 436.659C545.35 437.442 549.048 435.412 550.236 432.132L638.906 187.234C639.505 185.58 639.365 183.824 638.521 182.417L636.231 178.6C636.433 179.658 636.341 180.788 635.948 181.876L547.277 426.774C546.032 430.213 542.152 432.342 538.628 431.521L348.857 387.275C347.932 387.06 347.1 386.656 346.407 386.098Z" fill="#111111"/>
<path d="M631.749 174.27C635.195 175.073 637.004 178.451 635.785 181.817L547.115 426.715C545.896 430.081 542.113 432.155 538.668 431.352L348.897 387.106C345.452 386.303 343.643 382.925 344.862 379.559L433.532 134.661C434.751 131.295 438.533 129.221 441.979 130.024L631.749 174.27Z" fill="#FFDBBD"/>
<path d="M540.175 431.697C539.658 431.697 539.14 431.64 538.628 431.52L348.857 387.275C347.155 386.878 345.783 385.859 344.994 384.406C344.192 382.93 344.087 381.188 344.698 379.501L433.368 134.602C434.614 131.163 438.494 129.034 442.018 129.856L631.789 174.101C633.491 174.498 634.863 175.517 635.653 176.97C636.454 178.446 636.559 180.188 635.948 181.876L547.278 426.774C546.213 429.714 543.223 431.697 540.175 431.697ZM440.465 130.025C437.56 130.025 434.71 131.916 433.695 134.72L345.025 379.618C344.448 381.211 344.545 382.853 345.299 384.241C346.04 385.606 347.332 386.563 348.936 386.938L538.707 431.183C542.066 431.966 545.764 429.935 546.952 426.656L635.622 181.758C636.199 180.165 636.101 178.523 635.348 177.135C634.607 175.77 633.315 174.813 631.71 174.439L441.939 130.193C441.456 130.081 440.961 130.025 440.465 130.025Z" fill="#111111"/>
<path d="M443.685 139.914L356.942 379.487L536.966 421.46L623.708 181.886L443.685 139.914Z" fill="white"/>
<path d="M536.967 421.633C536.953 421.633 536.94 421.632 536.927 421.629L356.904 379.656C356.88 379.65 356.857 379.64 356.838 379.625C356.818 379.61 356.802 379.591 356.791 379.57C356.779 379.548 356.772 379.524 356.77 379.5C356.768 379.475 356.772 379.451 356.78 379.428L443.522 139.855C443.537 139.815 443.565 139.781 443.603 139.761C443.64 139.741 443.683 139.735 443.725 139.745L623.748 181.717C623.772 181.723 623.795 181.734 623.814 181.748C623.834 181.763 623.85 181.782 623.861 181.804C623.873 181.825 623.88 181.849 623.882 181.873C623.884 181.898 623.881 181.922 623.872 181.945L537.13 421.519C537.118 421.552 537.096 421.581 537.066 421.602C537.037 421.622 537.002 421.633 536.967 421.633ZM357.173 379.362L536.856 421.256L623.479 182.011L443.796 140.117L357.173 379.362Z" fill="#111111"/>
<path d="M551.829 124.002C551.167 122.01 549.465 120.404 547.116 119.856C543.376 118.984 539.42 121.143 538.276 124.67C537.849 125.987 537.875 127.31 538.271 128.504C538.88 130.398 539.126 132.616 539.273 134.336C539.216 133.632 539.324 132.902 539.621 132.18C540.856 129.167 544.888 127.428 548.628 128.299C551.478 128.963 553.331 130.944 553.513 133.177C553.191 129.408 552.688 126.665 551.829 124.002Z" fill="#111111"/>
<path d="M539.272 134.51C539.183 134.51 539.107 134.442 539.1 134.351C538.954 132.639 538.709 130.433 538.105 128.557C537.684 127.29 537.686 125.927 538.111 124.617C539.28 121.009 543.337 118.798 547.155 119.687C549.478 120.228 551.287 121.821 551.993 123.947L551.993 123.948C552.853 126.614 553.359 129.359 553.681 133.121L553.685 133.162C553.689 133.208 553.674 133.254 553.644 133.289C553.615 133.324 553.572 133.346 553.526 133.35C553.48 133.353 553.435 133.339 553.4 133.309C553.365 133.28 553.343 133.237 553.339 133.191L553.336 133.151C553.135 130.93 551.276 129.094 548.588 128.468C544.935 127.617 540.984 129.311 539.78 132.245C539.501 132.926 539.388 133.624 539.445 134.321V134.322C539.447 134.346 539.444 134.37 539.436 134.393C539.428 134.415 539.416 134.436 539.4 134.454C539.384 134.471 539.364 134.486 539.342 134.495C539.32 134.505 539.296 134.51 539.272 134.51ZM545.432 119.837C542.331 119.837 539.389 121.798 538.441 124.724C538.039 125.963 538.037 127.251 538.435 128.449C538.864 129.782 539.114 131.271 539.277 132.637C539.328 132.46 539.389 132.285 539.46 132.114C540.725 129.029 544.855 127.241 548.667 128.13C550.75 128.616 552.362 129.799 553.156 131.332C552.835 128.495 552.37 126.247 551.663 124.055C550.995 122.045 549.281 120.538 547.076 120.025C546.537 119.899 545.986 119.836 545.432 119.837ZM569.286 134.614C568.858 129.59 568.161 125.922 566.88 121.955C568.209 125.956 568.295 130.418 566.855 134.86L561.992 149.866C562.408 151.119 562.699 152.745 562.858 154.705L568.114 141.89C569.113 139.456 569.479 136.995 569.286 134.614Z" fill="#111111"/>
<path d="M562.858 154.878C562.814 154.878 562.772 154.862 562.74 154.832C562.708 154.803 562.689 154.762 562.685 154.719C562.527 152.774 562.239 151.159 561.827 149.921C561.816 149.886 561.815 149.848 561.827 149.813L566.69 134.807C568.015 130.721 568.078 126.486 566.879 122.523C566.825 122.351 566.771 122.179 566.715 122.008C566.708 121.986 566.705 121.963 566.707 121.941C566.709 121.918 566.715 121.896 566.725 121.876C566.736 121.855 566.75 121.837 566.767 121.822C566.784 121.807 566.805 121.796 566.826 121.789C566.848 121.782 566.871 121.779 566.893 121.781C566.916 121.783 566.938 121.789 566.959 121.799C566.979 121.81 566.997 121.824 567.012 121.841C567.027 121.858 567.038 121.878 567.045 121.9C567.102 122.073 567.158 122.247 567.21 122.421C568.39 126.206 569.048 129.781 569.459 134.599V134.6C569.66 137.075 569.261 139.55 568.275 141.956L563.019 154.771C562.991 154.836 562.927 154.878 562.858 154.878ZM562.174 149.866C562.534 150.968 562.8 152.35 562.966 153.984L567.953 141.825C568.919 139.47 569.31 137.049 569.113 134.629C568.864 131.713 568.525 129.256 568.034 126.932C568.212 129.581 567.875 132.278 567.02 134.914L562.174 149.866Z" fill="#111111"/>
<path d="M521.115 124.2C524.975 112.289 538.347 105.01 550.975 107.953C563.61 110.897 570.716 122.949 566.856 134.86L561.992 149.866L564.744 150.507C584.14 155.027 595.058 173.527 589.129 191.822L467.64 163.509C473.569 145.214 494.104 134.045 513.499 138.565L516.251 139.206L521.115 124.2ZM551.821 127.827C552.964 124.299 550.865 120.73 547.116 119.856C543.376 118.984 539.42 121.143 538.277 124.67C537.133 128.198 539.233 131.768 542.973 132.639C546.721 133.513 550.678 131.355 551.821 127.827Z" fill="#BC5C00"/>
<path d="M589.129 191.995C589.115 191.995 589.102 191.994 589.089 191.991L467.6 163.677C467.577 163.672 467.555 163.662 467.535 163.647C467.516 163.633 467.5 163.615 467.488 163.594C467.476 163.573 467.469 163.55 467.467 163.526C467.464 163.502 467.467 163.478 467.474 163.455C473.422 145.104 494.087 133.863 513.539 138.396L516.135 139.001L520.949 124.147C524.832 112.166 538.319 104.825 551.013 107.784C557.32 109.254 562.444 112.984 565.442 118.288C568.297 123.34 568.858 129.244 567.021 134.914L562.215 149.74L564.783 150.339C574.441 152.589 582.287 158.301 586.878 166.423C591.249 174.156 592.107 183.195 589.293 191.875C589.282 191.91 589.26 191.94 589.231 191.962C589.201 191.984 589.165 191.995 589.129 191.995ZM467.863 163.383L589.012 191.617C591.737 183.076 590.873 174.196 586.576 166.593C582.034 158.557 574.266 152.905 564.704 150.676L561.953 150.035C561.929 150.029 561.907 150.019 561.888 150.005C561.869 149.99 561.853 149.972 561.841 149.951C561.829 149.93 561.822 149.907 561.819 149.883C561.817 149.86 561.82 149.835 561.827 149.813L566.691 134.807C568.498 129.231 567.947 123.425 565.14 118.459C562.19 113.24 557.145 109.569 550.935 108.122C538.412 105.203 525.108 112.44 521.279 124.253L516.415 139.259C516.402 139.301 516.374 139.335 516.336 139.357C516.298 139.378 516.254 139.385 516.211 139.375L513.46 138.734C494.243 134.255 473.833 145.305 467.863 163.383ZM544.656 133.005C544.084 133.005 543.506 132.942 542.934 132.808C541.035 132.366 539.492 131.242 538.588 129.643C537.725 128.116 537.556 126.331 538.111 124.617C539.281 121.009 543.338 118.798 547.156 119.687C549.058 120.131 550.604 121.256 551.509 122.857C552.372 124.383 552.541 126.167 551.986 127.88C550.992 130.948 547.907 133.005 544.656 133.005ZM545.433 119.837C542.331 119.837 539.389 121.798 538.441 124.724C537.916 126.344 538.076 128.03 538.89 129.472C539.746 130.985 541.21 132.05 543.012 132.471C546.663 133.321 550.54 131.214 551.656 127.773C552.181 126.154 552.021 124.468 551.207 123.027C550.351 121.512 548.884 120.446 547.077 120.025C546.538 119.899 545.986 119.836 545.433 119.837Z" fill="#111111"/>
</g>
<g clip-path="url(#clip1_32_560)">
<path d="M569.531 194.861L481.85 174.405C480.679 174.132 479.384 174.842 478.967 175.993L477.037 181.327C476.621 182.478 477.24 183.635 478.412 183.908L566.093 204.364C567.272 204.639 568.567 203.928 568.984 202.778L570.914 197.444C571.33 196.293 570.711 195.136 569.531 194.861Z" fill="#FFDBBD"/>
<path d="M566.608 204.596C566.421 204.597 566.235 204.575 566.053 204.533L478.372 184.078C477.761 183.935 477.267 183.567 476.982 183.042C476.692 182.506 476.653 181.877 476.873 181.268L478.804 175.934C479.249 174.705 480.633 173.942 481.89 174.236L569.571 194.692C570.186 194.835 570.683 195.205 570.969 195.732C571.259 196.266 571.297 196.895 571.077 197.503L569.147 202.837C568.767 203.888 567.698 204.596 566.608 204.596ZM481.334 174.52C480.389 174.52 479.462 175.137 479.131 176.052L477.2 181.386C477.015 181.9 477.046 182.429 477.288 182.875C477.525 183.312 477.938 183.619 478.451 183.739L566.132 204.194C567.227 204.45 568.433 203.788 568.82 202.719L570.75 197.385C570.936 196.872 570.905 196.343 570.663 195.898C570.425 195.459 570.009 195.151 569.492 195.03L481.811 174.575C481.654 174.538 481.494 174.52 481.334 174.52Z" fill="#111111"/>
<path d="M403.204 369.238C393.83 367.051 388.914 357.868 392.223 348.724C395.529 339.587 405.808 333.949 415.182 336.135C424.556 338.322 429.471 347.505 426.165 356.642C422.857 365.786 412.577 371.425 403.204 369.238ZM416.755 331.787C404.923 329.027 391.948 336.151 387.774 347.686C383.597 359.228 389.801 370.818 401.633 373.579C413.465 376.339 426.438 369.223 430.615 357.68C434.789 346.145 428.587 334.548 416.755 331.787Z" fill="#BC5C00"/>
<path d="M406.82 374.344C405.073 374.344 403.322 374.151 401.594 373.748C395.863 372.411 391.248 368.985 388.598 364.102C385.909 359.147 385.559 353.296 387.61 347.626C391.808 336.024 404.9 328.842 416.795 331.618C422.524 332.954 427.138 336.38 429.788 341.264C432.478 346.22 432.829 352.071 430.778 357.739C427.19 367.656 417.102 374.343 406.82 374.344ZM411.563 331.369C401.423 331.369 391.477 337.963 387.937 347.745C385.92 353.32 386.263 359.07 388.904 363.936C391.506 368.731 396.041 372.095 401.673 373.41C403.376 373.807 405.105 373.997 406.826 373.997C416.966 373.998 426.912 367.402 430.452 357.621C432.468 352.048 432.124 346.298 429.483 341.43C426.881 336.635 422.347 333.27 416.716 331.956C415.014 331.559 413.285 331.369 411.563 331.369ZM407.313 369.881C405.926 369.881 404.536 369.728 403.165 369.408C398.614 368.346 394.949 365.626 392.845 361.747C390.71 357.812 390.431 353.166 392.06 348.664C395.39 339.46 405.781 333.764 415.221 335.966C419.772 337.028 423.438 339.749 425.543 343.628C427.677 347.561 427.956 352.204 426.329 356.701C423.481 364.573 415.474 369.88 407.313 369.881ZM411.066 335.84C403.048 335.84 395.184 341.052 392.387 348.783C390.792 353.19 391.063 357.735 393.151 361.581C395.207 365.371 398.792 368.03 403.244 369.069C404.58 369.379 405.947 369.535 407.319 369.534C415.337 369.534 423.203 364.318 426.002 356.583C427.595 352.18 427.324 347.638 425.237 343.794C423.18 340.003 419.595 337.344 415.143 336.305C413.806 335.994 412.438 335.838 411.066 335.84Z" fill="#111111"/>
<path d="M414.458 338.137C406.225 336.217 397.189 341.173 394.283 349.204C391.377 357.235 395.698 365.308 403.931 367.229C412.164 369.149 421.2 364.193 424.106 356.162C427.011 348.131 422.691 340.058 414.458 338.137ZM423.255 355.963C421.885 359.751 419.066 362.812 415.626 364.699C412.184 366.594 408.114 367.305 404.231 366.4C400.349 365.494 397.387 363.142 395.745 360.061C394.1 356.988 393.763 353.19 395.134 349.403C396.504 345.615 399.32 342.562 402.763 340.667C406.203 338.78 410.272 338.069 414.158 338.967C418.038 339.88 420.999 342.232 422.644 345.305C424.286 348.386 424.626 352.176 423.255 355.963Z" fill="#BC5C00"/>
<path d="M407.541 367.814C406.313 367.816 405.088 367.676 403.892 367.398C399.889 366.464 396.665 364.07 394.812 360.656C392.933 357.193 392.687 353.105 394.12 349.145C397.051 341.044 406.193 336.03 414.498 337.968C418.5 338.902 421.724 341.296 423.576 344.71C425.456 348.173 425.702 352.261 424.269 356.221C421.764 363.145 414.72 367.814 407.541 367.814ZM410.842 337.899C403.805 337.899 396.903 342.476 394.447 349.263C393.048 353.128 393.287 357.115 395.118 360.49C396.923 363.816 400.067 366.149 403.971 367.06C405.143 367.332 406.343 367.469 407.546 367.467C414.583 367.468 421.486 362.891 423.942 356.102C425.341 352.238 425.102 348.251 423.271 344.876C421.466 341.55 418.323 339.218 414.419 338.307C413.246 338.035 412.046 337.898 410.842 337.899ZM407.668 366.966C406.498 366.967 405.331 366.834 404.192 366.569C400.381 365.68 397.326 363.398 395.592 360.143C393.849 356.888 393.628 353.052 394.97 349.343C396.306 345.65 399.044 342.515 402.679 340.515C406.301 338.527 410.391 337.917 414.197 338.797C418.005 339.694 421.059 341.976 422.797 345.223C424.537 348.487 424.758 352.322 423.419 356.022C422.08 359.724 419.342 362.859 415.709 364.852C413.171 366.248 410.405 366.966 407.668 366.966ZM410.731 338.752C408.048 338.752 405.335 339.454 402.846 340.819C399.286 342.779 396.604 345.848 395.297 349.462C393.989 353.076 394.203 356.811 395.898 359.979C397.585 363.144 400.559 365.364 404.271 366.23C407.99 367.098 411.993 366.5 415.542 364.547C419.1 362.595 421.781 359.526 423.092 355.904C424.397 352.298 424.183 348.563 422.49 345.387C420.8 342.229 417.827 340.009 414.118 339.136C413.007 338.88 411.871 338.751 410.731 338.752ZM495.33 212.058C495.317 212.058 495.304 212.056 495.29 212.053L441.857 199.588C441.835 199.583 441.814 199.573 441.796 199.56C441.777 199.546 441.761 199.53 441.749 199.51C441.737 199.491 441.729 199.469 441.725 199.447C441.722 199.424 441.722 199.401 441.728 199.379C441.733 199.357 441.742 199.336 441.756 199.317C441.769 199.298 441.786 199.283 441.805 199.271C441.825 199.259 441.846 199.25 441.869 199.247C441.891 199.243 441.914 199.244 441.936 199.249L495.369 211.714C495.411 211.724 495.447 211.749 495.472 211.784C495.496 211.819 495.507 211.861 495.503 211.904C495.498 211.946 495.477 211.985 495.446 212.014C495.414 212.042 495.373 212.058 495.33 212.058ZM586.572 233.344C586.559 233.344 586.546 233.343 586.532 233.34L505.361 214.403C505.316 214.392 505.277 214.364 505.253 214.325C505.229 214.286 505.221 214.239 505.231 214.194C505.236 214.172 505.246 214.151 505.259 214.132C505.272 214.113 505.289 214.097 505.309 214.085C505.328 214.073 505.35 214.065 505.372 214.062C505.395 214.058 505.418 214.059 505.44 214.064L586.612 233.001C586.653 233.011 586.69 233.035 586.714 233.07C586.739 233.105 586.75 233.148 586.745 233.19C586.74 233.233 586.72 233.272 586.688 233.3C586.656 233.329 586.615 233.344 586.572 233.344ZM529.115 249.534C529.102 249.534 529.089 249.533 529.076 249.53L431.982 226.878C431.96 226.873 431.939 226.864 431.921 226.85C431.902 226.837 431.886 226.82 431.874 226.801C431.862 226.781 431.854 226.76 431.85 226.737C431.847 226.715 431.847 226.692 431.853 226.669C431.858 226.647 431.867 226.626 431.881 226.608C431.894 226.589 431.911 226.573 431.93 226.561C431.95 226.549 431.971 226.541 431.994 226.537C432.016 226.534 432.039 226.534 432.062 226.54L529.155 249.191C529.196 249.201 529.232 249.226 529.257 249.26C529.281 249.295 529.292 249.338 529.287 249.38C529.282 249.422 529.262 249.461 529.231 249.49C529.199 249.518 529.158 249.534 529.115 249.534ZM576.697 260.635C576.684 260.635 576.671 260.634 576.657 260.63L538.166 251.651C538.121 251.64 538.082 251.612 538.058 251.573C538.034 251.534 538.026 251.487 538.036 251.442C538.041 251.419 538.051 251.398 538.064 251.38C538.077 251.361 538.094 251.345 538.114 251.333C538.133 251.321 538.155 251.313 538.177 251.309C538.2 251.306 538.223 251.307 538.245 251.312L576.736 260.292C576.778 260.301 576.814 260.326 576.839 260.361C576.864 260.396 576.874 260.438 576.87 260.481C576.865 260.523 576.844 260.562 576.813 260.591C576.781 260.619 576.74 260.635 576.697 260.635ZM566.825 287.918C566.812 287.918 566.798 287.917 566.785 287.914L422.11 254.162C422.065 254.151 422.026 254.123 422.002 254.084C421.978 254.045 421.97 253.998 421.98 253.953C421.986 253.93 421.995 253.909 422.008 253.891C422.022 253.872 422.038 253.856 422.058 253.844C422.077 253.832 422.099 253.824 422.121 253.82C422.144 253.817 422.167 253.818 422.189 253.823L566.864 287.575C566.906 287.584 566.943 287.609 566.968 287.644C566.993 287.679 567.004 287.722 566.999 287.764C566.994 287.807 566.974 287.846 566.941 287.875C566.909 287.903 566.868 287.919 566.825 287.918ZM450.329 290.335C450.316 290.335 450.303 290.333 450.289 290.33L412.235 281.452C412.213 281.447 412.192 281.438 412.173 281.424C412.155 281.411 412.139 281.394 412.127 281.375C412.115 281.356 412.107 281.334 412.103 281.311C412.099 281.289 412.1 281.266 412.105 281.244C412.11 281.221 412.12 281.2 412.133 281.182C412.146 281.163 412.163 281.147 412.183 281.135C412.202 281.123 412.224 281.115 412.246 281.111C412.269 281.108 412.292 281.108 412.314 281.114L450.368 289.992C450.41 290.001 450.447 290.026 450.471 290.061C450.496 290.096 450.507 290.138 450.502 290.181C450.497 290.223 450.477 290.262 450.445 290.291C450.413 290.319 450.372 290.335 450.329 290.335ZM556.95 315.209C556.937 315.209 556.924 315.208 556.91 315.204L460.46 292.703C460.415 292.692 460.376 292.665 460.352 292.625C460.327 292.586 460.32 292.539 460.33 292.494C460.341 292.449 460.368 292.41 460.408 292.386C460.447 292.361 460.494 292.354 460.539 292.364L556.989 314.866C557.031 314.875 557.067 314.9 557.092 314.935C557.116 314.97 557.127 315.012 557.122 315.055C557.118 315.097 557.097 315.136 557.065 315.165C557.034 315.193 556.992 315.209 556.95 315.209ZM464.895 323.319C464.882 323.319 464.869 323.318 464.855 323.315L402.363 308.735C402.341 308.73 402.32 308.721 402.301 308.707C402.283 308.694 402.267 308.677 402.255 308.658C402.243 308.638 402.235 308.617 402.231 308.594C402.227 308.572 402.228 308.549 402.233 308.526C402.238 308.504 402.248 308.483 402.261 308.465C402.275 308.446 402.291 308.43 402.311 308.418C402.33 308.406 402.352 308.398 402.374 308.394C402.397 308.391 402.42 308.391 402.442 308.396L464.935 322.976C464.976 322.985 465.013 323.01 465.037 323.045C465.062 323.08 465.073 323.123 465.068 323.165C465.063 323.207 465.043 323.247 465.011 323.275C464.979 323.303 464.938 323.319 464.895 323.319ZM528.111 394.666C524.637 394.666 520.92 392.986 518.933 390.425C518.764 390.208 518.607 389.982 518.46 389.75C518.236 389.836 518.01 389.918 517.781 389.994C513.733 391.34 509.092 391.007 505.958 389.145C503.019 387.398 504.804 383.447 506.108 380.562C506.692 379.268 507.42 377.657 507.111 377.286C506.152 376.136 501.337 379.513 497.82 381.979C494.559 384.266 491.737 386.244 490.335 386.245C490.317 386.245 490.3 386.245 490.283 386.244C489.771 386.225 489.513 385.991 489.388 385.798C488.904 385.052 489.475 383.632 490.198 381.835C490.951 379.965 491.804 377.846 491.289 376.712C491.204 376.524 491.08 376.408 490.901 376.349C489.903 376.02 487.521 377.349 485 378.754C480.532 381.245 474.972 384.344 471.519 381.782C468.679 379.675 467.73 374.124 468.915 366.553C469.323 363.949 469.962 361.276 470.787 358.651C467.574 359.907 463.975 361.034 460.073 361.988C459.984 362.008 459.891 361.992 459.814 361.944C459.736 361.896 459.681 361.819 459.659 361.731C459.638 361.642 459.652 361.549 459.698 361.471C459.745 361.392 459.82 361.335 459.908 361.312C464 360.312 467.751 359.124 471.062 357.8C472.521 353.395 474.497 349.162 476.781 345.658C481.613 338.246 484.767 339.364 485.618 339.883C487.704 341.155 487.881 344.861 486.013 348.144C483.91 351.839 478.788 355.404 471.623 358.318C470.725 361.082 470.033 363.909 469.603 366.661C468.475 373.86 469.347 379.304 471.933 381.224C475.027 383.518 480.369 380.54 484.661 378.147C487.55 376.537 489.833 375.265 491.118 375.689C491.485 375.81 491.756 376.057 491.922 376.424C492.56 377.83 491.649 380.096 490.844 382.095C490.3 383.445 489.684 384.976 489.971 385.419C489.991 385.449 490.05 385.539 490.309 385.549C490.32 385.549 490.331 385.549 490.343 385.549C491.517 385.549 494.518 383.445 497.421 381.409C502.771 377.658 506.373 375.314 507.645 376.841C508.233 377.547 507.607 378.932 506.741 380.848C505.479 383.642 503.909 387.118 506.313 388.547C509.236 390.283 513.756 390.6 517.562 389.334C517.747 389.272 517.931 389.207 518.113 389.138C517.316 387.577 516.887 385.424 517.911 382.721C519.402 378.783 521.838 377.095 523.47 376.846C524.408 376.703 525.207 376.984 525.719 377.637C526.577 378.732 526.498 380.667 525.498 383.086C524.324 385.923 522.083 388.154 519.113 389.478C519.229 389.657 519.352 389.831 519.483 389.999C521.55 392.662 525.621 394.308 529.167 393.913C529.212 393.908 529.258 393.912 529.302 393.924C529.346 393.937 529.387 393.958 529.423 393.987C529.459 394.015 529.488 394.051 529.51 394.091C529.532 394.131 529.546 394.175 529.551 394.22C529.556 394.266 529.552 394.312 529.539 394.356C529.527 394.399 529.505 394.44 529.477 394.476C529.448 394.512 529.413 394.541 529.373 394.563C529.333 394.585 529.289 394.599 529.244 394.604C528.867 394.646 528.489 394.667 528.111 394.666ZM523.937 377.505C523.809 377.505 523.687 377.517 523.574 377.534C522.013 377.772 519.858 379.545 518.561 382.967C517.614 385.469 518.021 387.449 518.761 388.875C520.974 387.91 523.488 386.122 524.854 382.821C525.742 380.675 525.858 378.942 525.171 378.067C524.827 377.627 524.355 377.505 523.937 377.505ZM484.159 340.183C482.561 340.183 480.187 341.705 477.363 346.038C475.208 349.344 473.331 353.309 471.912 357.453C478.638 354.651 483.429 351.278 485.408 347.8C487.235 344.589 486.804 341.421 485.255 340.476C484.948 340.289 484.58 340.183 484.159 340.183Z" fill="#111111"/>
<path d="M420.566 355.565C420.538 355.565 420.51 355.562 420.482 355.555L397.74 349.977C397.65 349.955 397.573 349.899 397.525 349.82C397.477 349.741 397.463 349.646 397.485 349.556C397.507 349.467 397.563 349.39 397.642 349.342C397.721 349.294 397.816 349.28 397.905 349.302L420.648 354.879C420.731 354.9 420.803 354.949 420.852 355.019C420.9 355.089 420.921 355.174 420.911 355.259C420.901 355.343 420.86 355.421 420.797 355.478C420.733 355.534 420.651 355.565 420.566 355.565ZM416.296 357.484C416.268 357.484 416.241 357.481 416.213 357.474L400.562 353.636C400.517 353.625 400.476 353.605 400.439 353.578C400.402 353.551 400.371 353.517 400.347 353.478C400.323 353.439 400.308 353.396 400.301 353.351C400.294 353.306 400.296 353.259 400.307 353.215C400.318 353.171 400.337 353.129 400.364 353.092C400.391 353.055 400.425 353.024 400.464 353C400.503 352.977 400.547 352.961 400.592 352.954C400.637 352.947 400.683 352.949 400.727 352.96L416.378 356.799C416.461 356.819 416.534 356.869 416.582 356.939C416.63 357.009 416.652 357.094 416.641 357.178C416.631 357.263 416.59 357.341 416.527 357.397C416.463 357.453 416.381 357.485 416.296 357.484ZM415.621 351.397C415.594 351.397 415.566 351.394 415.538 351.387L404.043 348.568C403.998 348.557 403.957 348.537 403.92 348.51C403.883 348.483 403.852 348.449 403.828 348.41C403.804 348.371 403.789 348.328 403.782 348.283C403.775 348.237 403.777 348.191 403.788 348.147C403.799 348.103 403.818 348.061 403.845 348.024C403.872 347.987 403.906 347.956 403.945 347.932C403.984 347.909 404.028 347.893 404.073 347.886C404.118 347.879 404.164 347.881 404.208 347.892L415.704 350.711C415.787 350.731 415.859 350.781 415.907 350.851C415.956 350.921 415.977 351.006 415.967 351.091C415.957 351.175 415.916 351.253 415.852 351.309C415.789 351.366 415.706 351.397 415.621 351.397Z" fill="#111111"/>
</g>
<g clip-path="url(#clip2_32_560)">
<path d="M330.168 267.649L326.856 261.124C327.416 262.227 328.479 263.099 330.077 263.672C337.78 266.437 355.002 261.245 368.545 252.075C379.276 244.808 384.477 237.224 382.34 233.013L385.651 239.538C387.788 243.749 382.588 251.333 371.856 258.6C358.313 267.77 341.091 272.963 333.389 270.198C331.79 269.624 330.727 268.752 330.168 267.649Z" fill="#8E4600"/>
<path d="M338.432 271.107C336.467 271.107 334.74 270.866 333.331 270.361C331.724 269.784 330.607 268.898 330.014 267.728L326.703 261.203C326.692 261.182 326.685 261.16 326.682 261.137C326.68 261.114 326.683 261.091 326.689 261.068C326.696 261.046 326.708 261.026 326.723 261.008C326.737 260.99 326.756 260.976 326.777 260.965C326.797 260.955 326.82 260.949 326.843 260.947C326.866 260.946 326.889 260.949 326.911 260.956C326.933 260.964 326.953 260.976 326.971 260.991C326.988 261.006 327.002 261.025 327.012 261.046C327.564 262.135 328.616 262.964 330.137 263.51C337.782 266.254 354.967 261.06 368.448 251.932C378.82 244.909 384.341 237.337 382.187 233.091C382.176 233.071 382.169 233.048 382.166 233.025C382.164 233.002 382.166 232.979 382.173 232.957C382.18 232.934 382.191 232.914 382.206 232.896C382.221 232.879 382.24 232.864 382.26 232.854C382.281 232.843 382.304 232.837 382.327 232.835C382.35 232.834 382.373 232.837 382.395 232.844C382.417 232.852 382.437 232.864 382.454 232.879C382.472 232.895 382.486 232.913 382.496 232.934L385.807 239.46C388.044 243.868 382.477 251.618 371.954 258.744C360.863 266.253 347.253 271.107 338.432 271.107ZM327.792 262.584L330.323 267.571C330.875 268.66 331.927 269.489 333.448 270.035C334.832 270.532 336.53 270.768 338.462 270.768C347.196 270.769 360.72 265.932 371.759 258.457C382.131 251.434 387.652 243.862 385.498 239.616L382.966 234.627C383.351 239.162 377.924 245.933 368.642 252.218C357.552 259.728 343.942 264.582 335.121 264.582C333.155 264.582 331.429 264.341 330.02 263.836C329.122 263.513 328.378 263.095 327.792 262.584Z" fill="#111111"/>
<path d="M357.887 253.556C373.503 245.644 383.808 234.592 380.905 228.87C378.001 223.148 362.989 224.923 347.374 232.834C331.758 240.746 321.453 251.798 324.356 257.52C327.26 263.242 342.272 261.467 357.887 253.556Z" fill="#FFDBBD"/>
<path d="M332.775 261.045C330.771 261.045 329.012 260.799 327.575 260.284C325.308 259.47 323.981 258.017 323.737 256.082C323.145 251.386 328.732 244.437 338.317 237.947C352.141 228.586 369.805 223.273 377.689 226.104C379.956 226.917 381.283 228.37 381.527 230.305C382.119 235.001 376.532 241.95 366.947 248.441C355.641 256.096 341.767 261.045 332.775 261.045ZM372.459 225.681C363.554 225.681 349.766 230.612 338.511 238.233C333.794 241.427 329.957 244.804 327.415 248C324.96 251.086 323.807 253.865 324.081 256.039C324.311 257.861 325.526 259.18 327.692 259.958C329.104 260.464 330.835 260.706 332.805 260.706C341.71 260.706 355.498 255.775 366.753 248.154C371.469 244.96 375.306 241.583 377.849 238.387C380.304 235.301 381.457 232.521 381.183 230.348C380.953 228.525 379.738 227.207 377.572 226.429C376.16 225.923 374.429 225.681 372.459 225.681Z" fill="#111111"/>
<path d="M379.402 226.009C379.33 225.984 379.257 225.963 379.183 225.946C370.402 223.424 358.057 227.802 351.526 230.684C340.186 235.687 330.203 242.959 325.472 249.661C320.824 256.244 321.75 261.972 327.83 264.252C333.591 266.414 344.272 264.622 355.704 259.578C380.133 248.799 392.536 231.23 379.402 226.009ZM366.85 248.297C353.044 257.646 335.486 262.939 327.634 260.121C319.781 257.302 324.608 247.438 338.414 238.09C352.22 228.741 369.778 223.448 377.63 226.266C385.482 229.085 380.656 238.949 366.85 248.297Z" fill="white"/>
<path d="M333.739 265.324C331.422 265.324 329.401 265.026 327.77 264.414C325.114 263.418 323.353 261.731 322.676 259.535C321.805 256.705 322.723 253.256 325.331 249.561C330.079 242.835 340.09 235.541 351.457 230.525C354.535 229.167 359.291 227.3 364.473 226.12C370.372 224.776 375.337 224.661 379.232 225.78C379.311 225.798 379.39 225.82 379.467 225.848C382.963 227.238 384.841 229.592 384.898 232.655C384.97 236.505 382.181 241.307 377.047 246.178C371.743 251.209 364.189 256.024 355.775 259.736C347.529 263.375 339.664 265.324 333.739 265.324ZM326.92 248.056C326.463 248.608 326.028 249.176 325.614 249.76C323.106 253.314 322.18 256.749 323.007 259.433C323.651 261.523 325.34 263.133 327.892 264.09C333.612 266.236 344.243 264.447 355.634 259.42C364.013 255.723 371.533 250.931 376.808 245.927C381.871 241.124 384.621 236.413 384.551 232.661C384.497 229.75 382.696 227.506 379.341 226.172C379.277 226.149 379.212 226.13 379.146 226.115C378.158 225.832 376.577 225.505 374.366 225.421C375.605 225.531 376.721 225.756 377.689 226.104C379.956 226.917 381.283 228.37 381.527 230.305C382.119 235.001 376.533 241.95 366.947 248.441C353.123 257.802 335.462 263.115 327.576 260.284C325.309 259.47 323.982 258.017 323.738 256.082C323.453 253.827 324.595 251.051 326.92 248.056ZM372.46 225.681C363.555 225.681 349.767 230.612 338.512 238.233C333.795 241.427 329.958 244.804 327.416 248C324.961 251.086 323.808 253.865 324.082 256.039C324.311 257.861 325.527 259.18 327.693 259.958C335.488 262.755 353.01 257.46 366.753 248.154C371.47 244.96 375.307 241.583 377.85 238.387C380.305 235.301 381.458 232.521 381.184 230.348C380.954 228.525 379.739 227.207 377.572 226.429C376.161 225.923 374.429 225.681 372.46 225.681Z" fill="#111111"/>
<path d="M340.493 249.348C340.746 244.098 339.76 238.621 337.391 233.977C337.56 234.31 337.882 234.573 338.365 234.747C340.699 235.584 345.916 234.011 350.018 231.233C353.267 229.033 354.842 226.737 354.198 225.461C356.548 230.115 360.386 234.147 364.774 237.046C365.704 238.889 363.428 242.206 358.735 245.384C352.808 249.397 345.272 251.67 341.901 250.46C341.203 250.209 340.739 249.829 340.493 249.348Z" fill="#BC5C00"/>
<path d="M344.1 250.953C343.231 250.953 342.467 250.847 341.843 250.623C341.117 250.362 340.611 249.96 340.34 249.427C340.326 249.4 340.319 249.37 340.321 249.34C340.583 243.897 339.488 238.469 337.237 234.057L337.237 234.056C337.226 234.035 337.22 234.013 337.218 233.991C337.217 233.968 337.219 233.945 337.226 233.924C337.233 233.902 337.244 233.882 337.259 233.865C337.274 233.847 337.292 233.833 337.312 233.823C337.333 233.812 337.355 233.806 337.377 233.804C337.4 233.803 337.423 233.805 337.445 233.812C337.466 233.819 337.486 233.831 337.504 233.845C337.521 233.86 337.535 233.878 337.545 233.899C337.699 234.199 337.994 234.429 338.424 234.584C340.709 235.403 345.866 233.836 349.922 231.09C352.96 229.032 354.655 226.75 354.044 225.539C354.033 225.519 354.026 225.496 354.024 225.473C354.022 225.45 354.024 225.427 354.031 225.405C354.038 225.383 354.049 225.362 354.064 225.345C354.079 225.327 354.098 225.312 354.118 225.302C354.139 225.292 354.162 225.285 354.185 225.284C354.208 225.282 354.231 225.285 354.253 225.293C354.275 225.301 354.295 225.313 354.313 225.328C354.33 225.344 354.344 225.362 354.353 225.383C356.586 229.805 360.32 233.896 364.87 236.902C364.895 236.918 364.916 236.941 364.929 236.968C365.926 238.944 363.476 242.383 358.833 245.528C353.965 248.824 347.985 250.953 344.1 250.953ZM340.669 249.309C340.905 249.742 341.339 250.074 341.96 250.297C345.28 251.488 352.761 249.22 358.638 245.241C363.098 242.221 365.499 238.985 364.639 237.164C360.352 234.323 356.782 230.525 354.495 226.392C354.294 227.783 352.711 229.619 350.116 231.377C345.98 234.177 340.682 235.762 338.307 234.91C338.189 234.868 338.075 234.818 337.964 234.76C339.952 239.046 340.909 244.171 340.669 249.309Z" fill="#111111"/>
<path d="M350.695 206.779C347.258 205.82 343.512 205.062 335.854 208.478C319.466 216.283 321.485 231.115 331.919 234.971C340.712 238.151 356.674 231.124 358.633 219.824C358.699 219.447 360.066 210.244 350.695 206.779Z" fill="#FFDBBD"/>
<path d="M336.735 235.914C334.967 235.914 333.311 235.659 331.86 235.134C327.02 233.345 323.876 229.196 323.654 224.305C323.522 221.405 324.443 218.469 326.315 215.814C328.417 212.832 331.602 210.311 335.778 208.322C343.285 204.974 346.996 205.567 350.741 206.612L350.755 206.617C360.384 210.177 358.82 219.757 358.803 219.854C357.964 224.691 354.398 229.256 349.019 232.376C345.045 234.682 340.62 235.914 336.735 235.914ZM345.589 206.141C343.114 206.141 340.123 206.763 335.923 208.636C331.805 210.598 328.666 213.08 326.598 216.013C324.771 218.605 323.872 221.467 324 224.29C324.215 229.039 327.273 233.07 331.979 234.809C336.527 236.454 343.148 235.382 348.845 232.077C354.136 229.008 357.641 224.531 358.462 219.794C358.479 219.7 359.996 210.407 350.642 206.944C349.053 206.501 347.47 206.141 345.589 206.141Z" fill="#111111"/>
</g>
<g clip-path="url(#clip3_32_560)">
<path d="M673.505 228.276C671.808 224.793 667.715 222.407 664.063 224.625C664.529 224.318 665.254 224.294 666.193 224.616C668.635 225.455 671.607 228.324 672.83 231.025C673.46 232.415 673.504 233.489 673.065 234.091C673.898 232.931 674.637 230.951 673.505 228.276Z" fill="#BC5C00"/>
<path d="M673.066 234.264C673.034 234.263 673.003 234.255 672.976 234.238C672.948 234.221 672.926 234.198 672.912 234.169C672.897 234.141 672.891 234.109 672.893 234.078C672.896 234.046 672.907 234.015 672.925 233.99L672.938 233.971C673.339 233.399 673.243 232.353 672.673 231.096C671.469 228.437 668.537 225.604 666.138 224.78C665.336 224.505 664.686 224.484 664.248 224.717C664.216 224.736 664.185 224.754 664.154 224.773C664.135 224.785 664.113 224.793 664.091 224.797C664.068 224.801 664.046 224.801 664.023 224.796C663.979 224.785 663.94 224.758 663.915 224.719C663.891 224.68 663.883 224.633 663.893 224.589C663.903 224.544 663.93 224.505 663.969 224.481C664.004 224.458 664.04 224.436 664.078 224.416C665.529 223.57 667.139 223.371 668.744 223.843C670.786 224.443 672.624 226.072 673.661 228.2C673.663 228.203 673.664 228.206 673.665 228.208C674.894 231.113 673.923 233.182 673.222 234.169C673.216 234.177 673.211 234.185 673.205 234.192C673.189 234.214 673.168 234.232 673.144 234.245C673.12 234.257 673.093 234.264 673.066 234.264ZM665.307 224.231C665.597 224.263 665.913 224.337 666.25 224.453C668.727 225.303 671.75 228.22 672.988 230.953C673.32 231.687 673.5 232.35 673.526 232.914C673.99 231.793 674.159 230.268 673.349 228.348C672.353 226.308 670.595 224.748 668.647 224.175C667.516 223.843 666.38 223.864 665.307 224.231Z" fill="#111111"/>
<path d="M672.923 234.25C674.038 233.188 672.92 230.202 670.426 227.581C667.932 224.96 665.007 223.696 663.893 224.759C662.778 225.821 663.897 228.806 666.39 231.427C668.884 234.048 671.809 235.312 672.923 234.25Z" fill="white"/>
<path d="M671.837 234.799C671.461 234.799 671.034 234.72 670.568 234.56C668.091 233.709 665.069 230.793 663.83 228.059C663.16 226.579 663.115 225.357 663.707 224.705C664.209 224.151 665.113 224.062 666.25 224.453C668.727 225.303 671.75 228.22 672.988 230.953C673.659 232.433 673.703 233.656 673.111 234.308C672.815 234.634 672.378 234.799 671.837 234.799ZM664.981 224.558C664.54 224.558 664.192 224.685 663.963 224.938C663.468 225.483 663.534 226.568 664.145 227.916C665.349 230.575 668.281 233.409 670.68 234.233C671.679 234.576 672.452 234.52 672.855 234.075C673.35 233.53 673.284 232.445 672.673 231.096C671.469 228.437 668.537 225.604 666.138 224.78C665.706 224.632 665.316 224.558 664.981 224.558Z" fill="#111111"/>
<path d="M663.574 224.29C663.44 224.352 663.317 224.435 663.209 224.536C663.32 224.44 663.443 224.357 663.574 224.29Z" fill="white"/>
<path d="M663.209 224.709C663.175 224.709 663.141 224.699 663.112 224.68C663.083 224.66 663.061 224.633 663.048 224.601C663.036 224.568 663.033 224.533 663.04 224.499C663.048 224.466 663.065 224.435 663.09 224.411C663.211 224.297 663.35 224.203 663.502 224.134C663.543 224.114 663.589 224.112 663.632 224.127C663.675 224.142 663.71 224.173 663.73 224.214C663.75 224.254 663.753 224.301 663.739 224.344C663.725 224.387 663.695 224.423 663.654 224.444C663.535 224.504 663.424 224.579 663.323 224.666C663.292 224.694 663.251 224.709 663.209 224.709Z" fill="#111111"/>
<path d="M662.353 225.352C662.197 225.525 661.84 225.918 661.791 226.685C661.691 228.285 663.031 231.264 666.212 234.024C667.61 235.237 670.671 237.161 672.257 235.766L673.113 234.95C673.642 234.446 673.835 233.412 673.428 232.155C673.335 231.871 673.226 231.592 673.102 231.32C671.9 228.667 669.159 225.865 666.676 224.648C666.399 224.512 666.114 224.392 665.821 224.29C664.656 223.89 663.703 224.066 663.209 224.536L662.353 225.352Z" fill="white"/>
<path d="M670.866 236.419C669.205 236.419 667.172 235.086 666.099 234.155C662.873 231.356 661.516 228.315 661.619 226.674C661.67 225.851 662.057 225.422 662.222 225.239L662.234 225.226L663.09 224.411C663.681 223.848 664.749 223.739 665.877 224.127C666.176 224.23 666.468 224.353 666.752 224.493C669.319 225.75 672.055 228.592 673.258 231.248C673.385 231.526 673.497 231.811 673.592 232.101C673.994 233.341 673.856 234.481 673.231 235.075L672.376 235.891C671.95 236.266 671.43 236.419 670.866 236.419ZM662.477 225.472C662.323 225.643 662.008 225.996 661.964 226.696C661.866 228.255 663.189 231.172 666.325 233.894C666.653 234.178 667.832 235.151 669.228 235.713C670.515 236.231 671.496 236.205 672.142 235.636L672.993 234.825C673.512 234.331 673.618 233.303 673.263 232.208C673.172 231.93 673.065 231.658 672.943 231.392C671.77 228.8 669.102 226.03 666.6 224.804C666.329 224.67 666.05 224.553 665.765 224.454C664.562 224.041 663.717 224.291 663.328 224.662L662.477 225.472Z" fill="#111111"/>
<path d="M671.65 232.373C670.379 229.567 667.292 226.586 664.754 225.715C663.752 225.37 662.986 225.407 662.481 225.766C654.883 231.303 640.747 242.547 605.859 276.113C606.504 275.491 608.009 276.024 609.269 276.819C612.407 278.798 615.921 282.161 618.161 285.784C619.373 287.744 619.676 288.955 618.83 289.751C654.064 256.496 665.973 242.917 671.866 235.596C672.352 234.978 672.317 233.846 671.65 232.373Z" fill="#BC5C00"/>
<path d="M618.83 289.924C618.796 289.924 618.762 289.914 618.733 289.894C618.705 289.875 618.683 289.847 618.67 289.815C618.657 289.783 618.654 289.748 618.662 289.714C618.669 289.68 618.687 289.649 618.712 289.626L618.712 289.625L618.713 289.624L618.712 289.626C619.44 288.938 619.237 287.851 618.014 285.875C615.929 282.502 612.543 279.089 609.177 276.965C607.988 276.215 606.538 275.699 605.979 276.238L605.979 276.238C605.946 276.27 605.902 276.287 605.856 276.286C605.81 276.286 605.767 276.267 605.735 276.233C605.703 276.2 605.686 276.156 605.687 276.11C605.687 276.064 605.706 276.021 605.739 275.989L605.74 275.989C640.635 242.415 654.778 231.166 662.38 225.626C662.945 225.224 663.784 225.198 664.81 225.551C667.383 226.434 670.522 229.463 671.808 232.302C672.484 233.794 672.553 235.002 672.003 235.702C666.105 243.029 654.192 256.613 618.955 289.871L618.949 289.877C618.917 289.907 618.874 289.924 618.83 289.924ZM606.657 275.67C607.459 275.67 608.493 276.124 609.362 276.672C612.769 278.822 616.197 282.278 618.308 285.692C619.013 286.832 619.602 287.984 619.459 288.92C654.109 256.183 665.884 242.752 671.732 235.487C672.191 234.903 672.104 233.794 671.493 232.445C670.241 229.68 667.193 226.735 664.698 225.878C663.782 225.563 663.05 225.573 662.581 225.906C655.032 231.409 641.021 242.55 606.568 275.672C606.597 275.671 606.627 275.67 606.657 275.67Z" fill="#111111"/>
<path d="M601.524 277.875C601.203 278.205 600.52 278.975 600.43 280.408C600.028 286.843 611.964 298.302 616.859 294L619.026 291.935C619.845 291.154 620.005 289.691 619.374 287.744C619.23 287.304 619.061 286.873 618.869 286.452C617.008 282.344 612.765 278.006 608.92 276.121C608.472 275.902 608.029 275.716 607.596 275.567C605.792 274.947 604.455 275.082 603.691 275.81C603.692 275.81 602.047 277.34 601.524 277.875Z" fill="white"/>
<path d="M614.211 295.121C613.135 295.121 611.912 294.791 610.572 294.133C608.113 292.925 605.434 290.636 603.406 288.011C601.275 285.252 600.127 282.476 600.257 280.397C600.355 278.825 601.142 278.019 601.401 277.755C601.92 277.222 603.506 275.746 603.573 275.684C604.421 274.876 605.832 274.779 607.652 275.403C608.084 275.552 608.536 275.741 608.995 275.966C612.952 277.904 617.17 282.284 619.026 286.38C619.23 286.831 619.402 287.272 619.538 287.691C620.176 289.659 620.036 291.211 619.145 292.061L616.977 294.126C616.222 294.789 615.291 295.121 614.211 295.121ZM601.648 277.996C601.411 278.238 600.692 278.975 600.602 280.418C600.326 284.824 605.938 291.471 610.724 293.822C613.945 295.404 615.776 294.722 616.744 293.87L618.906 291.81C619.696 291.057 619.804 289.632 619.209 287.797C619.067 287.363 618.901 286.938 618.711 286.523C616.885 282.492 612.735 278.183 608.843 276.276C608.397 276.058 607.959 275.874 607.54 275.73C605.873 275.158 604.549 275.231 603.81 275.935C603.793 275.952 602.162 277.47 601.648 277.996Z" fill="#111111"/>
<path d="M614.519 289.056C612.77 285.195 608.522 281.093 605.03 279.894C603.502 279.369 602.372 279.487 601.731 280.11C579.39 301.871 560.257 321.443 547.857 335.222C548.299 334.727 549.123 334.618 550.255 335.007C552.729 335.857 555.74 338.764 556.98 341.501C557.708 343.108 557.663 344.299 557.003 344.834C571.366 333.11 591.835 314.944 614.639 293.683C615.486 292.891 615.512 291.248 614.519 289.056Z" fill="#BC5C00"/>
<path d="M557.003 345.007C556.968 345.007 556.933 344.996 556.904 344.975C556.874 344.955 556.852 344.926 556.84 344.892C556.828 344.858 556.827 344.822 556.837 344.787C556.846 344.753 556.867 344.722 556.894 344.7L556.902 344.694C557.51 344.191 557.481 343.026 556.823 341.572C555.602 338.877 552.631 336.005 550.199 335.17C549.186 334.822 548.403 334.879 547.993 335.33L547.986 335.337C547.955 335.372 547.913 335.392 547.867 335.395C547.821 335.397 547.776 335.381 547.742 335.351C547.708 335.32 547.687 335.277 547.685 335.231C547.682 335.185 547.698 335.141 547.729 335.106L547.729 335.106L547.736 335.099C560.137 321.319 579.27 301.747 601.611 279.986C602.322 279.295 603.556 279.204 605.086 279.73C608.611 280.94 612.913 285.092 614.676 288.984C615.667 291.172 615.697 292.93 614.757 293.809C591.954 315.069 571.487 333.234 557.122 344.96L557.112 344.968C557.081 344.993 557.043 345.007 557.003 345.007ZM549.026 334.6C549.407 334.6 549.839 334.681 550.311 334.843C552.82 335.705 555.883 338.659 557.138 341.429C557.621 342.496 557.785 343.417 557.631 344.097C571.949 332.361 592.107 314.454 614.521 293.556C615.346 292.785 615.288 291.171 614.362 289.127C612.632 285.31 608.421 281.241 604.975 280.057C603.574 279.576 602.465 279.639 601.852 280.234C579.889 301.626 561.029 320.901 548.62 334.634C548.754 334.611 548.89 334.6 549.026 334.6Z" fill="#111111"/>
<path d="M557.077 344.769C558.206 343.693 557.073 340.668 554.546 338.012C552.02 335.357 549.056 334.076 547.927 335.152C546.797 336.228 547.93 339.254 550.457 341.909C552.984 344.565 555.948 345.846 557.077 344.769Z" fill="white"/>
<path d="M555.973 345.323C555.592 345.323 555.16 345.243 554.688 345.081C552.179 344.219 549.116 341.265 547.861 338.495C547.182 336.996 547.137 335.758 547.736 335.098C548.245 334.538 549.159 334.448 550.31 334.843C552.82 335.705 555.882 338.66 557.137 341.429C557.816 342.928 557.862 344.166 557.262 344.826C556.962 345.156 556.521 345.323 555.973 345.323ZM549.026 334.945C548.578 334.945 548.225 335.074 547.992 335.331C547.49 335.884 547.557 336.985 548.176 338.352C549.397 341.047 552.369 343.919 554.8 344.754C555.813 345.101 556.597 345.044 557.007 344.593C557.509 344.04 557.442 342.939 556.823 341.572C555.602 338.877 552.63 336.005 550.199 335.17C549.761 335.02 549.366 334.945 549.026 334.945Z" fill="#111111"/>
<path d="M557.101 341.781C557.062 341.687 557.022 341.593 556.98 341.501C555.949 339.225 553.694 336.832 551.541 335.601C551.104 335.352 550.672 335.15 550.255 335.007C548.93 334.552 548.028 334.779 547.665 335.507L540.901 348.709C540.984 348.543 541.454 348.431 541.895 348.709C542.375 349.011 542.983 349.705 543.292 350.221C543.438 350.464 543.434 351.025 543.232 351.113L556.708 345.013C557.589 344.626 557.784 343.451 557.101 341.781Z" fill="#FFDBBD"/>
<path d="M543.233 351.286C543.194 351.286 543.155 351.272 543.124 351.248C543.094 351.223 543.072 351.188 543.064 351.15C543.056 351.111 543.061 351.071 543.079 351.035C543.096 351 543.126 350.972 543.162 350.955L543.164 350.955C543.234 350.896 543.253 350.491 543.145 350.31C542.863 349.839 542.27 349.149 541.804 348.856C541.433 348.622 541.098 348.733 541.056 348.788C541.035 348.828 540.999 348.858 540.955 348.872C540.912 348.885 540.866 348.881 540.825 348.861C540.785 348.841 540.754 348.805 540.74 348.763C540.725 348.72 540.728 348.673 540.747 348.632L540.75 348.627L547.512 335.428C547.93 334.589 548.951 334.376 550.311 334.843C550.731 334.987 551.173 335.192 551.627 335.451C553.854 336.724 556.12 339.182 557.138 341.429C557.181 341.524 557.222 341.619 557.262 341.716C557.966 343.438 557.785 344.729 556.778 345.172L543.308 351.269C543.284 351.28 543.259 351.286 543.233 351.286ZM541.332 348.367C541.552 348.367 541.784 348.434 541.988 348.563C542.504 348.888 543.132 349.616 543.441 350.132C543.536 350.291 543.581 350.546 543.563 350.774L556.637 344.856C557.453 344.498 557.566 343.373 556.942 341.847C556.904 341.755 556.864 341.663 556.823 341.572C555.832 339.385 553.625 336.991 551.455 335.752C551.021 335.503 550.598 335.308 550.199 335.171C549.02 334.766 548.153 334.916 547.821 335.584L541.271 348.368C541.291 348.367 541.312 348.367 541.332 348.367Z" fill="#111111"/>
<path d="M543.319 351.056C543.607 350.781 543.318 350.007 542.672 349.328C542.026 348.649 541.268 348.322 540.979 348.597C540.69 348.872 540.98 349.646 541.626 350.325C542.272 351.004 543.03 351.331 543.319 351.056Z" fill="#111111"/>
<path d="M543.035 351.327C542.932 351.327 542.81 351.308 542.665 351.258C541.983 351.024 541.183 350.254 540.844 349.505C540.645 349.067 540.642 348.709 540.834 348.497C540.931 348.391 541.163 348.237 541.629 348.397C542.311 348.631 543.111 349.401 543.45 350.149C543.649 350.588 543.652 350.946 543.46 351.158C543.394 351.231 543.263 351.327 543.035 351.327ZM541.259 348.674C541.182 348.674 541.124 348.692 541.09 348.73C541.023 348.803 541 349.014 541.159 349.363C541.458 350.024 542.184 350.727 542.777 350.931C542.978 351 543.138 350.998 543.204 350.925C543.271 350.851 543.293 350.641 543.135 350.292C542.836 349.631 542.11 348.927 541.517 348.724C541.419 348.69 541.331 348.674 541.259 348.674Z" fill="#111111"/>
<path d="M543.19 350.088C543.184 350.075 543.178 350.061 543.172 350.048C542.963 349.585 542.507 349.098 542.068 348.841C541.979 348.788 541.884 348.744 541.786 348.709C541.507 348.613 541.32 348.664 541.248 348.821C541.248 348.821 540.593 350.238 540.307 350.87C540.111 351.303 540.592 351.815 541.102 351.578C541.102 351.579 541.101 351.58 541.1 351.58L543.107 350.775C543.3 350.699 543.342 350.447 543.19 350.088Z" fill="white"/>
<path d="M540.839 351.812C540.644 351.812 540.457 351.736 540.311 351.591C540.093 351.375 540.03 351.064 540.15 350.798C540.461 350.114 540.775 349.431 541.091 348.748C541.133 348.655 541.314 348.364 541.841 348.545C541.942 348.58 542.047 348.629 542.155 348.692C542.637 348.974 543.109 349.49 543.329 349.976L543.349 350.021C543.462 350.29 543.485 350.524 543.413 350.697C543.391 350.752 543.358 350.801 543.316 350.842C543.275 350.883 543.225 350.915 543.171 350.936L541.165 351.741L541.161 351.742L541.158 351.743C541.057 351.788 540.948 351.811 540.839 351.812ZM541.531 348.833C541.475 348.833 541.425 348.848 541.405 348.893C541.404 348.893 540.75 350.31 540.465 350.941C540.392 351.102 540.467 351.259 540.554 351.345C540.682 351.472 540.86 351.5 541.03 351.421C541.037 351.418 541.045 351.415 541.053 351.413L543.043 350.615C543.055 350.611 543.065 350.604 543.074 350.595C543.083 350.586 543.09 350.576 543.094 350.564C543.107 350.533 543.14 350.413 543.031 350.156L543.03 350.155L543.015 350.119C542.825 349.699 542.4 349.235 541.981 348.99C541.901 348.943 541.817 348.903 541.73 348.872C541.693 348.86 541.607 348.833 541.531 348.833Z" fill="#111111"/>
<path d="M673.046 231.39C673.019 231.331 672.965 231.284 672.884 231.256L670.536 230.457C671.229 231.475 671.959 232.833 672.343 234.445L674.692 235.244C674.772 235.272 674.826 235.319 674.853 235.377L673.046 231.39Z" fill="#111111"/>
<path d="M674.853 235.551C674.787 235.551 674.724 235.513 674.695 235.449C674.688 235.434 674.667 235.419 674.636 235.408L672.288 234.609C672.26 234.599 672.235 234.583 672.215 234.561C672.196 234.54 672.182 234.513 672.175 234.485C671.856 233.146 671.256 231.824 670.393 230.554C670.373 230.524 670.362 230.489 670.363 230.452C670.364 230.416 670.377 230.381 670.399 230.352C670.421 230.323 670.451 230.302 670.486 230.292C670.52 230.281 670.557 230.282 670.592 230.293L672.94 231.093C673.097 231.147 673.17 231.245 673.203 231.319L675.01 235.306L675.01 235.306C675.022 235.333 675.027 235.362 675.025 235.39C675.023 235.419 675.014 235.447 674.998 235.471C674.982 235.496 674.961 235.516 674.935 235.529C674.91 235.543 674.882 235.55 674.853 235.551ZM672.489 234.312L674.488 234.993L672.888 231.461C672.881 231.446 672.859 231.431 672.828 231.42L670.956 230.783C671.676 231.927 672.191 233.112 672.489 234.312Z" fill="#111111"/>
<path d="M634.005 270.565L635.812 274.553C635.528 274.456 635.339 274.292 635.247 274.088L633.439 270.101C633.531 270.304 633.72 270.468 634.005 270.565Z" fill="white"/>
<path d="M635.812 274.726C635.794 274.726 635.775 274.723 635.757 274.717C635.435 274.607 635.205 274.415 635.089 274.16L633.283 270.174L633.282 270.172C633.263 270.13 633.262 270.083 633.278 270.04C633.294 269.997 633.326 269.962 633.368 269.943C633.41 269.924 633.457 269.923 633.5 269.939C633.543 269.955 633.578 269.988 633.597 270.029L633.597 270.03C633.672 270.195 633.832 270.323 634.061 270.401C634.083 270.409 634.104 270.421 634.121 270.437C634.139 270.453 634.153 270.472 634.162 270.493L635.97 274.481C635.982 274.508 635.987 274.537 635.985 274.565C635.983 274.594 635.973 274.622 635.958 274.646C635.942 274.671 635.92 274.691 635.895 274.705C635.87 274.718 635.841 274.726 635.812 274.726Z" fill="#111111"/>
<path d="M675.034 230.174C675.604 230.369 675.639 230.947 675.112 231.472L635.573 270.837C635.055 271.352 634.14 271.644 633.575 271.451C633.077 271.282 633.663 271.028 634.005 270.565C633.207 270.293 633.164 269.497 633.879 268.786L637.394 265.286C638.104 264.579 639.299 264.216 640.076 264.468L672.919 231.77C673.125 231.565 673.111 231.334 672.884 231.256L670.536 230.457L671.894 229.105L674.01 229.826L674.546 230.008L675.034 230.174Z" fill="white"/>
<path d="M633.975 271.684C633.811 271.684 633.657 271.662 633.519 271.615C633.454 271.593 633.255 271.525 633.216 271.347C633.174 271.156 633.33 271.009 633.528 270.822C633.591 270.763 633.659 270.699 633.723 270.63C633.46 270.486 633.286 270.269 633.225 270.003C633.128 269.585 633.322 269.096 633.757 268.663L637.272 265.163C638.001 264.438 639.187 264.061 640.027 264.274L672.798 231.647C672.873 231.572 672.898 231.503 672.89 231.468C672.884 231.444 672.853 231.429 672.828 231.42L670.48 230.621C670.452 230.611 670.427 230.595 670.408 230.573C670.388 230.551 670.374 230.524 670.368 230.496C670.361 230.467 670.362 230.437 670.37 230.409C670.378 230.381 670.393 230.355 670.414 230.334L671.772 228.982C671.819 228.936 671.888 228.92 671.949 228.941L675.09 230.01C675.385 230.111 675.58 230.308 675.64 230.567C675.714 230.889 675.566 231.264 675.234 231.595L635.695 270.959C635.246 271.406 634.553 271.684 633.975 271.684ZM633.576 271.266C633.589 271.272 633.607 271.279 633.63 271.287C634.124 271.456 634.975 271.188 635.451 270.714L674.99 231.349C675.232 231.108 675.349 230.845 675.303 230.645C675.262 230.469 675.104 230.381 674.979 230.338L671.94 229.303L670.855 230.383L672.94 231.093C673.09 231.144 673.195 231.253 673.227 231.39C673.265 231.554 673.197 231.737 673.041 231.892L640.198 264.591C640.152 264.637 640.084 264.653 640.023 264.633C639.305 264.399 638.18 264.747 637.516 265.408L634.001 268.908C633.652 269.255 633.492 269.626 633.561 269.925C633.611 270.143 633.784 270.307 634.06 270.401C634.086 270.41 634.109 270.425 634.128 270.444C634.147 270.464 634.161 270.487 634.169 270.513C634.178 270.539 634.18 270.567 634.175 270.594C634.171 270.62 634.16 270.646 634.144 270.668C634.025 270.827 633.881 270.964 633.765 271.074C633.7 271.135 633.616 271.214 633.576 271.266Z" fill="#111111"/>
<path d="M677.245 234.495L675.438 230.507C675.558 230.772 675.452 231.133 675.112 231.472L635.573 270.836C635.055 271.352 634.14 271.644 633.575 271.451C633.469 271.415 633.412 271.375 633.392 271.33L635.199 275.318C635.219 275.363 635.276 275.403 635.382 275.439C635.947 275.631 636.862 275.34 637.381 274.824L676.92 235.46C677.259 235.121 677.366 234.76 677.245 234.495Z" fill="#FFDBBD"/>
<path d="M635.782 275.672C635.619 275.672 635.464 275.649 635.326 275.603C635.231 275.57 635.097 275.513 635.041 275.389L633.234 271.401C633.215 271.36 633.214 271.313 633.23 271.27C633.245 271.228 633.277 271.193 633.318 271.174C633.36 271.154 633.407 271.152 633.449 271.167C633.492 271.183 633.527 271.214 633.547 271.255C633.547 271.251 633.567 271.266 633.63 271.287C634.125 271.455 634.975 271.188 635.451 270.714L674.99 231.349C675.262 231.079 675.373 230.783 675.28 230.578H675.28C675.262 230.537 675.262 230.49 675.278 230.448C675.294 230.406 675.327 230.371 675.368 230.353C675.409 230.334 675.456 230.332 675.498 230.348C675.541 230.363 675.575 230.395 675.595 230.436L675.596 230.437L677.403 234.423C677.559 234.768 677.424 235.202 677.041 235.583L637.502 274.947C637.053 275.394 636.361 275.672 635.782 275.672ZM635.355 275.242C635.36 275.242 635.383 275.256 635.438 275.275C635.932 275.443 636.783 275.176 637.259 274.702L676.797 235.337C677.069 235.067 677.181 234.771 677.088 234.566L675.548 231.17C675.477 231.314 675.372 231.458 675.234 231.595L635.695 270.959C635.181 271.471 634.35 271.761 633.733 271.666L635.354 275.243C635.354 275.242 635.355 275.242 635.355 275.242Z" fill="#111111"/>
</g>
<g clip-path="url(#clip4_32_560)">
<path d="M565.329 432.04L567.634 437.616C566.941 437.292 566.454 436.771 566.201 436.159L563.896 430.584C564.148 431.196 564.635 431.717 565.329 432.04Z" fill="#111111"/>
<path d="M567.635 437.789C567.609 437.789 567.584 437.783 567.561 437.772C566.848 437.439 566.322 436.904 566.041 436.225L563.737 430.652L563.736 430.65C563.727 430.629 563.722 430.606 563.722 430.583C563.721 430.56 563.726 430.538 563.734 430.516C563.743 430.495 563.756 430.476 563.772 430.459C563.788 430.443 563.807 430.43 563.829 430.421C563.85 430.413 563.873 430.408 563.896 430.408C563.919 430.408 563.941 430.413 563.963 430.422C563.984 430.431 564.003 430.444 564.019 430.461C564.035 430.477 564.048 430.497 564.056 430.518L564.057 430.52C564.304 431.117 564.77 431.588 565.402 431.883C565.442 431.902 565.473 431.934 565.489 431.974L567.795 437.549C567.805 437.576 567.81 437.604 567.807 437.633C567.804 437.661 567.794 437.688 567.778 437.712C567.763 437.735 567.741 437.755 567.716 437.768C567.691 437.782 567.663 437.789 567.635 437.789ZM564.575 431.773L566.361 436.093C566.549 436.548 566.863 436.93 567.282 437.217L565.194 432.168C564.973 432.06 564.766 431.928 564.575 431.773Z" fill="#111111"/>
<path d="M583.622 440.577L585.928 446.152L567.634 437.616L565.329 432.04L583.622 440.577Z" fill="#111111"/>
<path d="M585.928 446.325C585.903 446.325 585.878 446.32 585.855 446.309L567.561 437.772C567.522 437.754 567.491 437.722 567.475 437.682L565.169 432.106C565.156 432.074 565.153 432.039 565.16 432.005C565.167 431.971 565.185 431.94 565.21 431.915C565.235 431.891 565.267 431.875 565.301 431.87C565.335 431.864 565.371 431.869 565.402 431.884L583.696 440.42C583.735 440.438 583.766 440.471 583.783 440.511L586.088 446.086C586.099 446.112 586.103 446.141 586.1 446.169C586.097 446.197 586.088 446.225 586.072 446.248C586.056 446.272 586.035 446.291 586.01 446.305C585.984 446.318 585.957 446.325 585.928 446.325ZM567.769 437.487L585.598 445.807L583.488 440.705L565.659 432.385L567.769 437.487Z" fill="#111111"/>
<path d="M622.556 383.83C624.216 384.605 624.682 386.514 623.601 388.089L588.585 439.128C587.504 440.703 585.284 441.352 583.623 440.577L565.33 432.04C563.669 431.265 563.194 429.359 564.275 427.783L599.291 376.745C600.372 375.17 602.602 374.518 604.262 375.293L622.556 383.83Z" fill="#BC5C00"/>
<path d="M585.141 441.075C584.59 441.075 584.046 440.965 583.55 440.734L565.256 432.197C564.428 431.811 563.848 431.143 563.623 430.318C563.385 429.446 563.566 428.511 564.132 427.686L599.148 376.647C600.275 375.005 602.602 374.327 604.335 375.136L622.629 383.673C623.453 384.058 624.031 384.723 624.256 385.546C624.495 386.42 624.313 387.358 623.744 388.187L588.728 439.226C587.925 440.395 586.513 441.075 585.141 441.075ZM602.734 375.138C601.473 375.138 600.173 375.765 599.434 376.843L564.418 427.881C563.91 428.622 563.746 429.455 563.957 430.227C564.155 430.953 564.669 431.541 565.403 431.884L583.696 440.42C585.28 441.159 587.409 440.536 588.442 439.03L623.458 387.992C623.969 387.248 624.133 386.411 623.922 385.637C623.724 384.914 623.213 384.327 622.483 383.987L604.189 375.45C603.736 375.239 603.238 375.138 602.734 375.138Z" fill="#111111"/>
<path d="M626.288 390.855L623.983 385.28C624.336 386.135 624.232 387.169 623.601 388.089L588.585 439.128C587.504 440.703 585.284 441.352 583.623 440.577L585.928 446.152C587.589 446.927 589.809 446.279 590.89 444.703L625.907 393.665C626.538 392.745 626.642 391.711 626.288 390.855Z" fill="#8E4600"/>
<path d="M587.447 446.65C586.895 446.65 586.351 446.54 585.855 446.309C585.816 446.291 585.785 446.258 585.769 446.218L583.463 440.643C583.45 440.611 583.447 440.575 583.454 440.541C583.461 440.507 583.478 440.476 583.504 440.452C583.529 440.428 583.561 440.412 583.595 440.406C583.629 440.401 583.665 440.405 583.696 440.42C585.281 441.16 587.409 440.536 588.442 439.03L623.459 387.992C624.036 387.15 624.169 386.187 623.824 385.349L623.823 385.346C623.814 385.325 623.809 385.302 623.808 385.279C623.808 385.257 623.812 385.234 623.821 385.212C623.83 385.191 623.842 385.172 623.859 385.155C623.875 385.139 623.894 385.126 623.915 385.117C623.937 385.109 623.959 385.104 623.982 385.104C624.005 385.104 624.028 385.109 624.049 385.118C624.07 385.127 624.09 385.14 624.106 385.157C624.122 385.173 624.134 385.193 624.143 385.214L626.448 390.789C626.84 391.738 626.695 392.822 626.05 393.763L591.033 444.801C590.231 445.97 588.818 446.65 587.447 446.65ZM586.063 446.023C587.639 446.719 589.728 446.092 590.748 444.605L625.764 393.567C626.342 392.724 626.475 391.76 626.128 390.921L624.344 386.607C624.289 387.146 624.088 387.687 623.744 388.187L588.728 439.226C587.686 440.745 585.615 441.437 583.939 440.887L586.063 446.023Z" fill="#111111"/>
<path d="M582.887 441.123L574.673 453.192L558.233 445.533L566.448 433.465L582.887 441.123Z" fill="white"/>
<path d="M574.673 453.365C574.648 453.365 574.623 453.359 574.6 453.348L558.161 445.69C558.138 445.68 558.118 445.664 558.101 445.645C558.085 445.626 558.073 445.603 558.067 445.579C558.06 445.555 558.059 445.53 558.063 445.505C558.067 445.48 558.076 445.457 558.091 445.436L566.305 433.368C566.328 433.334 566.362 433.309 566.402 433.298C566.442 433.287 566.484 433.291 566.521 433.308L582.961 440.966C582.983 440.977 583.004 440.992 583.02 441.012C583.036 441.031 583.048 441.053 583.054 441.077C583.061 441.101 583.062 441.127 583.058 441.152C583.054 441.176 583.045 441.2 583.031 441.221L574.816 453.289C574.801 453.312 574.779 453.332 574.754 453.345C574.729 453.358 574.701 453.365 574.673 453.365ZM558.491 445.462L574.613 452.973L582.63 441.194L566.508 433.684L558.491 445.462Z" fill="#111111"/>
<path d="M569.301 440.549L565.837 438.935L564.003 441.629L567.467 443.243L569.301 440.549Z" fill="#111111"/>
<path d="M567.467 443.416C567.442 443.416 567.417 443.41 567.394 443.4L563.93 441.786C563.907 441.775 563.887 441.76 563.871 441.741C563.855 441.722 563.843 441.699 563.836 441.675C563.83 441.651 563.828 441.626 563.832 441.601C563.837 441.576 563.846 441.553 563.86 441.532L565.694 438.838C565.717 438.804 565.751 438.779 565.791 438.768C565.831 438.757 565.873 438.761 565.91 438.778L569.375 440.392C569.397 440.403 569.417 440.418 569.434 440.437C569.45 440.456 569.462 440.479 569.468 440.503C569.475 440.527 569.476 440.552 569.472 440.577C569.468 440.602 569.459 440.625 569.444 440.646L567.611 443.34C567.595 443.364 567.573 443.383 567.548 443.396C567.523 443.409 567.496 443.416 567.467 443.416ZM564.261 441.558L567.407 443.024L569.044 440.62L565.898 439.154L564.261 441.558Z" fill="#111111"/>
<path d="M577.548 444.391L574.09 442.78L572.256 445.474L575.715 447.085L577.548 444.391Z" fill="#111111"/>
<path d="M575.715 447.258C575.69 447.258 575.665 447.253 575.642 447.242L572.183 445.631C572.16 445.62 572.14 445.605 572.124 445.585C572.108 445.566 572.096 445.544 572.089 445.52C572.083 445.496 572.081 445.47 572.085 445.446C572.089 445.421 572.099 445.397 572.113 445.377L573.947 442.682C573.97 442.648 574.004 442.624 574.044 442.613C574.084 442.602 574.126 442.605 574.163 442.623L577.622 444.234C577.645 444.245 577.665 444.26 577.681 444.279C577.697 444.298 577.709 444.321 577.716 444.345C577.723 444.369 577.724 444.394 577.72 444.419C577.716 444.444 577.706 444.467 577.692 444.488L575.858 447.182C575.842 447.206 575.821 447.225 575.796 447.238C575.771 447.251 575.743 447.258 575.715 447.258ZM572.514 445.403L575.655 446.866L577.291 444.462L574.151 442.999L572.514 445.403Z" fill="#111111"/>
<path d="M582.888 441.123L584.433 444.805L576.219 456.873L574.674 453.192L582.888 441.123Z" fill="#FFDBBD"/>
<path d="M576.219 457.046C576.185 457.046 576.151 457.036 576.123 457.017C576.095 456.999 576.072 456.972 576.059 456.94L574.514 453.259C574.502 453.232 574.498 453.203 574.501 453.174C574.504 453.146 574.514 453.118 574.53 453.094L582.744 441.026C582.762 441 582.786 440.98 582.814 440.967C582.842 440.953 582.874 440.948 582.905 440.951C582.936 440.954 582.965 440.966 582.99 440.984C583.015 441.003 583.035 441.028 583.047 441.056L584.592 444.738C584.604 444.765 584.608 444.794 584.605 444.822C584.602 444.851 584.592 444.878 584.576 444.902L576.362 456.971C576.346 456.994 576.325 457.013 576.3 457.026C576.275 457.039 576.247 457.046 576.219 457.046ZM574.869 453.211L576.255 456.513L584.237 444.785L582.851 441.484L574.869 453.211Z" fill="#111111"/>
<path d="M559.007 447.375L558.234 445.533L574.674 453.192L575.447 455.033L559.007 447.375Z" fill="#111111"/>
<path d="M575.446 455.206C575.421 455.206 575.397 455.201 575.373 455.19L558.934 447.531C558.895 447.513 558.864 447.481 558.847 447.441L558.074 445.6C558.061 445.568 558.057 445.532 558.064 445.498C558.071 445.464 558.088 445.432 558.114 445.408C558.139 445.384 558.171 445.368 558.205 445.362C558.24 445.356 558.276 445.361 558.307 445.376L574.747 453.035C574.786 453.053 574.816 453.085 574.833 453.125L575.606 454.966C575.617 454.992 575.622 455.021 575.619 455.049C575.616 455.078 575.607 455.105 575.591 455.129C575.575 455.153 575.554 455.172 575.528 455.186C575.503 455.199 575.475 455.206 575.446 455.206ZM559.141 447.246L575.113 454.687L574.54 453.32L558.567 445.879L559.141 447.246Z" fill="#111111"/>
<path d="M575.447 455.033L576.22 456.873L559.78 449.215L559.008 447.375L575.447 455.033Z" fill="#FFDBBD"/>
<path d="M576.219 457.046C576.195 457.046 576.17 457.041 576.146 457.03L559.707 449.372C559.668 449.354 559.637 449.321 559.62 449.282L558.848 447.441C558.834 447.409 558.83 447.374 558.837 447.339C558.844 447.305 558.862 447.274 558.887 447.249C558.912 447.225 558.944 447.209 558.979 447.203C559.014 447.198 559.049 447.203 559.081 447.218L575.52 454.876C575.559 454.894 575.59 454.926 575.607 454.966L576.379 456.806C576.39 456.833 576.395 456.861 576.392 456.89C576.389 456.918 576.38 456.946 576.364 456.969C576.348 456.993 576.327 457.013 576.301 457.026C576.276 457.039 576.248 457.046 576.219 457.046ZM559.914 449.086L575.886 456.527L575.313 455.162L559.34 447.721L559.914 449.086Z" fill="#111111"/>
</g>
<defs>
<linearGradient id="paint0_linear_32_560" x1="1000" y1="563" x2="518.639" y2="-291.994" gradientUnits="userSpaceOnUse">
<stop stop-color="white"/>
<stop offset="1" stop-color="white" stop-opacity="0"/>
</linearGradient>
<clipPath id="clip0_32_560">
<rect width="295.315" height="330.048" fill="white" transform="translate(344.308 107.126)"/>
</clipPath>
<clipPath id="clip1_32_560">
<rect width="200.448" height="220.493" fill="white" transform="translate(386.298 174.173)"/>
</clipPath>
<clipPath id="clip2_32_560">
<rect width="63.936" height="65.3184" fill="white" transform="translate(322.361 205.795)"/>
</clipPath>
<clipPath id="clip3_32_560">
<rect width="137.376" height="128.218" fill="white" transform="translate(540.09 223.594)"/>
</clipPath>
<clipPath id="clip4_32_560">
<rect width="68.6016" height="82.2528" fill="white" transform="translate(558.061 374.794)"/>
</clipPath>
</defs>
</svg>
