<svg width="1000" height="563" viewBox="0 0 1000 563" fill="none" xmlns="http://www.w3.org/2000/svg">
<rect width="1000" height="563" fill="#D23B2C"/>
<rect width="1000" height="563" fill="url(#paint0_linear_32_73)" fill-opacity="0.2"/>
<g clip-path="url(#clip0_32_73)">
<path d="M646.071 147.031L643.147 144.503C647.391 148.173 649.61 153.994 648.519 160.182L600.527 432.187C598.832 441.794 589.799 448.638 580.346 447.478L396.472 424.927C393.107 424.514 390.143 423.144 387.798 421.116L390.721 423.644C393.067 425.671 396.03 427.042 399.395 427.455L583.269 450.006C592.723 451.166 601.756 444.321 603.451 434.715L651.442 162.71C652.534 156.522 650.315 150.701 646.071 147.031Z" fill="#A01E11"/>
<path d="M585.354 450.306C584.655 450.306 583.953 450.264 583.248 450.178L399.374 427.627C396.088 427.224 393.057 425.892 390.608 423.774L387.685 421.247C387.65 421.216 387.629 421.174 387.626 421.128C387.623 421.083 387.638 421.038 387.668 421.004C387.698 420.969 387.74 420.948 387.786 420.944C387.831 420.941 387.876 420.956 387.911 420.985C390.307 423.057 393.275 424.361 396.493 424.756L580.367 447.307C589.713 448.451 598.681 441.657 600.357 432.157L648.348 160.152C649.395 154.218 647.409 148.417 643.034 144.634C643 144.604 642.979 144.562 642.976 144.516C642.973 144.471 642.988 144.426 643.018 144.391C643.048 144.357 643.09 144.336 643.136 144.332C643.181 144.329 643.226 144.343 643.261 144.373L646.184 146.901C650.652 150.763 652.681 156.685 651.613 162.74L603.621 434.745C602.04 443.706 594.086 450.306 585.354 450.306ZM390.423 423.156L390.835 423.513C393.231 425.585 396.199 426.889 399.416 427.284L583.29 449.835C592.638 450.981 601.604 444.185 603.28 434.685L651.272 162.68C652.319 156.746 650.332 150.945 645.958 147.162L645.574 146.83C648.397 150.53 649.551 155.327 648.689 160.212L600.698 432.217C599.116 441.179 591.162 447.778 582.43 447.779C581.726 447.779 581.023 447.736 580.325 447.65L396.451 425.099C394.302 424.835 392.262 424.174 390.423 423.156Z" fill="#111111"/>
<path d="M634.474 140.692C643.927 141.852 650.213 150.574 648.518 160.182L600.527 432.187C598.832 441.794 589.799 448.638 580.345 447.478L396.471 424.927C387.017 423.768 380.732 415.045 382.426 405.438L430.418 133.433C432.113 123.826 441.146 116.981 450.6 118.141L634.474 140.692Z" fill="#C42F21"/>
<path d="M582.43 447.778C581.732 447.778 581.029 447.736 580.324 447.65L396.45 425.099C391.91 424.542 387.934 422.242 385.254 418.624C382.478 414.876 381.413 410.183 382.256 405.408L430.247 133.403C431.955 123.724 441.094 116.799 450.621 117.969L634.495 140.521C639.035 141.077 643.011 143.377 645.691 146.995C648.467 150.743 649.531 155.437 648.689 160.212L600.697 432.217C599.116 441.178 591.162 447.778 582.43 447.778ZM448.514 118.186C439.945 118.186 432.141 124.665 430.588 133.463L382.597 405.468C381.771 410.148 382.813 414.748 385.532 418.418C388.155 421.96 392.047 424.21 396.492 424.755L580.366 447.307C581.057 447.391 581.747 447.433 582.431 447.433C591 447.433 598.804 440.954 600.356 432.156L648.348 160.152C649.174 155.471 648.132 150.871 645.413 147.201C642.79 143.659 638.898 141.409 634.452 140.864L450.578 118.313C449.893 118.229 449.204 118.186 448.514 118.186Z" fill="#111111"/>
<path d="M638.751 162.353C639.779 156.526 635.961 151.228 630.227 150.525L451.275 128.578C445.531 127.873 440.045 132.029 439.017 137.857L392.19 403.26C391.16 409.098 394.978 414.395 400.722 415.1L579.674 437.047C585.408 437.75 590.894 433.594 591.924 427.756L638.751 162.353Z" fill="white"/>
<path d="M580.937 437.297C580.511 437.297 580.083 437.272 579.653 437.219L400.701 415.271C397.924 414.931 395.491 413.524 393.852 411.311C392.155 409.02 391.505 406.15 392.02 403.23L438.846 137.827C439.889 131.918 445.474 127.691 451.296 128.406L630.248 150.353C633.021 150.694 635.45 152.099 637.089 154.311C638.785 156.602 639.436 159.468 638.922 162.383L592.095 427.786C591.128 433.263 586.27 437.297 580.937 437.297ZM450.006 128.673C444.834 128.673 440.124 132.581 439.187 137.887L392.361 403.29C391.862 406.116 392.491 408.891 394.13 411.105C395.712 413.242 398.061 414.599 400.743 414.928L579.695 436.875C585.332 437.565 590.742 433.463 591.754 427.726L638.581 162.323C639.078 159.503 638.45 156.73 636.81 154.517C635.229 152.381 632.883 151.025 630.206 150.696L451.254 128.749C450.84 128.699 450.424 128.673 450.006 128.673ZM542.026 132.328C540.853 132.184 539.729 133.035 539.521 134.217C539.311 135.409 540.092 136.494 541.265 136.637C542.428 136.78 543.551 135.929 543.762 134.737C543.97 133.556 543.189 132.47 542.026 132.328Z" fill="#111111"/>
<path d="M541.522 136.826C541.43 136.826 541.337 136.82 541.245 136.809C540.639 136.735 540.109 136.428 539.751 135.944C539.381 135.445 539.239 134.821 539.351 134.187C539.576 132.912 540.786 132 542.047 132.156C542.647 132.23 543.174 132.536 543.532 133.018C543.901 133.517 544.043 134.138 543.932 134.767C543.723 135.953 542.674 136.826 541.522 136.826ZM541.765 132.485C540.774 132.485 539.871 133.232 539.692 134.247C539.596 134.786 539.716 135.316 540.029 135.738C540.33 136.145 540.777 136.403 541.287 136.466C542.364 136.597 543.397 135.809 543.592 134.707C543.686 134.173 543.566 133.646 543.254 133.224C542.953 132.819 542.51 132.561 542.005 132.499C541.926 132.49 541.845 132.485 541.765 132.485Z" fill="#111111"/>
</g>
<g clip-path="url(#clip1_32_73)">
<path d="M630.81 206.106L598.362 202.121L563.607 197.407L531.442 380.007L598.721 388.272L630.81 206.106Z" fill="#F4B6B0"/>
<path d="M598.721 388.445C598.714 388.445 598.707 388.444 598.7 388.443L531.421 380.179C531.398 380.176 531.376 380.168 531.355 380.156C531.335 380.145 531.317 380.129 531.303 380.11C531.289 380.091 531.28 380.07 531.274 380.047C531.269 380.024 531.268 380 531.272 379.977L563.437 197.377C563.445 197.333 563.469 197.294 563.505 197.268C563.541 197.241 563.586 197.23 563.63 197.236L598.385 201.949L630.831 205.935C630.854 205.938 630.876 205.945 630.897 205.957C630.917 205.969 630.935 205.985 630.949 206.004C630.962 206.023 630.972 206.044 630.978 206.067C630.983 206.09 630.984 206.114 630.98 206.137L598.891 388.302C598.884 388.342 598.863 388.378 598.832 388.404C598.801 388.43 598.762 388.445 598.721 388.445ZM531.644 379.858L598.579 388.08L630.608 206.256L598.341 202.292L563.749 197.601L531.644 379.858Z" fill="#111111"/>
<path d="M431.346 181.604L399.258 363.769L466.546 372.035L498.703 189.481L431.346 181.604Z" fill="#F4B6B0"/>
<path d="M466.546 372.208C466.539 372.208 466.532 372.208 466.525 372.207L399.237 363.941C399.213 363.938 399.191 363.93 399.171 363.919C399.15 363.907 399.133 363.891 399.119 363.872C399.105 363.853 399.095 363.832 399.09 363.809C399.084 363.786 399.084 363.762 399.088 363.739L431.176 181.574C431.184 181.531 431.208 181.492 431.244 181.466C431.279 181.439 431.323 181.427 431.367 181.432L498.724 189.309C498.747 189.312 498.769 189.319 498.79 189.331C498.81 189.343 498.828 189.359 498.842 189.378C498.856 189.397 498.866 189.418 498.872 189.441C498.877 189.464 498.878 189.488 498.874 189.511L466.716 372.065C466.709 372.105 466.688 372.141 466.657 372.168C466.626 372.194 466.587 372.208 466.546 372.208ZM399.46 363.62L466.405 371.843L498.501 189.631L431.488 181.795L399.46 363.62Z" fill="#111111"/>
<path d="M467.449 164.842L435.358 347.018L569.926 363.548L602.016 181.372L467.449 164.842Z" fill="white"/>
<path d="M569.926 363.721C569.919 363.721 569.912 363.721 569.905 363.72L435.337 347.189C435.314 347.186 435.292 347.179 435.271 347.167C435.251 347.155 435.233 347.139 435.219 347.12C435.206 347.102 435.196 347.08 435.19 347.057C435.185 347.034 435.184 347.011 435.188 346.988L467.279 164.812C467.295 164.721 467.376 164.657 467.47 164.67L602.037 181.201C602.061 181.204 602.083 181.211 602.103 181.223C602.124 181.235 602.141 181.251 602.155 181.27C602.169 181.289 602.179 181.31 602.184 181.333C602.19 181.356 602.191 181.379 602.186 181.403L570.096 363.578C570.089 363.618 570.068 363.654 570.037 363.681C570.006 363.707 569.967 363.721 569.926 363.721ZM435.56 346.868L569.784 363.357L601.815 181.522L467.591 165.033L435.56 346.868Z" fill="#111111"/>
<path d="M558.969 189.307L505.947 182.793L496.442 236.752L549.464 243.265L558.969 189.307Z" fill="#F4B6B0"/>
<path d="M549.464 243.438C549.457 243.438 549.45 243.438 549.443 243.437L496.421 236.923C496.398 236.921 496.376 236.913 496.355 236.901C496.335 236.889 496.317 236.873 496.303 236.855C496.289 236.836 496.28 236.814 496.274 236.791C496.269 236.769 496.268 236.745 496.272 236.722L505.777 182.763C505.784 182.719 505.809 182.68 505.844 182.654C505.88 182.628 505.924 182.616 505.968 182.622L558.99 189.135C559.013 189.138 559.035 189.145 559.056 189.157C559.076 189.169 559.094 189.185 559.107 189.204C559.121 189.223 559.131 189.244 559.137 189.267C559.142 189.29 559.143 189.314 559.139 189.337L549.634 243.295C549.627 243.335 549.606 243.371 549.575 243.398C549.544 243.424 549.505 243.438 549.464 243.438ZM496.644 236.602L549.322 243.073L558.767 189.456L506.089 182.985L496.644 236.602Z" fill="#111111"/>
<path d="M530.212 198.798C524.986 198.156 520.002 201.948 519.066 207.257C518.131 212.566 521.597 217.396 526.823 218.038C532.039 218.679 537.033 214.888 537.968 209.579C538.904 204.27 535.428 199.439 530.212 198.798Z" fill="#C42F21"/>
<path d="M527.974 218.281C527.586 218.281 527.195 218.258 526.802 218.21C524.274 217.899 522.059 216.616 520.567 214.598C519.021 212.507 518.428 209.889 518.897 207.227C519.847 201.833 524.932 197.975 530.234 198.626C532.76 198.937 534.974 200.22 536.467 202.24C538.014 204.332 538.608 206.949 538.139 209.609C537.259 214.603 532.833 218.281 527.974 218.281ZM529.06 198.9C524.365 198.9 520.088 202.457 519.237 207.287C518.785 209.855 519.356 212.378 520.844 214.392C522.28 216.334 524.411 217.567 526.845 217.866C531.964 218.495 536.88 214.764 537.799 209.549C538.25 206.983 537.679 204.46 536.189 202.446C534.753 200.503 532.623 199.268 530.191 198.969C529.816 198.924 529.438 198.9 529.06 198.9Z" fill="#111111"/>
<path d="M525.841 223.612C515.929 222.394 506.388 228.364 502.539 237.501L543.366 242.516C542.821 232.839 535.752 224.829 525.841 223.612Z" fill="#C42F21"/>
<path d="M543.366 242.689C543.36 242.689 543.352 242.688 543.345 242.688L502.518 237.672C502.492 237.669 502.466 237.66 502.444 237.645C502.421 237.63 502.403 237.61 502.389 237.587C502.376 237.564 502.368 237.538 502.367 237.511C502.365 237.485 502.369 237.458 502.38 237.433C504.274 232.938 507.629 229.064 511.827 226.525C516.152 223.911 521.005 222.843 525.863 223.44C530.721 224.037 535.002 226.228 538.244 229.775C541.39 233.218 543.27 237.739 543.539 242.506C543.542 242.557 543.522 242.607 543.485 242.642C543.453 242.672 543.41 242.689 543.366 242.689ZM502.789 237.357L543.181 242.319C542.875 237.708 541.035 233.343 537.989 230.008C534.803 226.523 530.596 224.37 525.82 223.783C521.042 223.197 516.264 224.247 512.006 226.821C507.936 229.283 504.67 233.018 502.789 237.357Z" fill="#111111"/>
<path d="M470.548 277.839C469.036 277.653 467.585 278.745 467.313 280.294C467.041 281.833 468.052 283.237 469.564 283.423C471.076 283.609 472.528 282.507 472.799 280.968C473.072 279.419 472.06 278.024 470.548 277.839Z" fill="white"/>
<path d="M469.898 283.617C469.781 283.617 469.662 283.609 469.544 283.595C468.777 283.501 468.105 283.111 467.651 282.496C467.182 281.861 467.001 281.068 467.143 280.264C467.43 278.635 468.968 277.469 470.569 277.667C471.338 277.761 472.011 278.151 472.464 278.765C472.932 279.398 473.112 280.191 472.97 280.998C472.704 282.506 471.367 283.616 469.898 283.617ZM470.213 277.991C468.908 277.991 467.72 278.98 467.483 280.324C467.358 281.034 467.516 281.733 467.929 282.29C468.326 282.828 468.915 283.169 469.586 283.251C471.008 283.425 472.374 282.388 472.629 280.937C472.755 280.225 472.597 279.526 472.186 278.97C471.79 278.434 471.201 278.093 470.527 278.01C470.423 277.997 470.318 277.991 470.213 277.991Z" fill="#111111"/>
<path d="M466.712 299.616C465.2 299.43 463.748 300.532 463.477 302.071C463.206 303.61 464.216 305.014 465.728 305.2C467.24 305.386 468.692 304.284 468.963 302.745C469.234 301.206 468.224 299.801 466.712 299.616Z" fill="white"/>
<path d="M466.062 305.393C465.945 305.393 465.826 305.386 465.708 305.372C464.941 305.278 464.269 304.887 463.815 304.273C463.346 303.638 463.165 302.845 463.307 302.041C463.594 300.412 465.132 299.246 466.734 299.444C467.499 299.538 468.171 299.928 468.625 300.542C469.095 301.177 469.276 301.97 469.134 302.775C468.868 304.283 467.531 305.393 466.062 305.393ZM466.377 299.768C465.072 299.768 463.884 300.758 463.647 302.101C463.522 302.811 463.68 303.509 464.093 304.067C464.49 304.604 465.079 304.946 465.75 305.028C467.17 305.201 468.538 304.166 468.793 302.715C468.918 302.005 468.76 301.306 468.347 300.748C467.95 300.211 467.362 299.87 466.691 299.787C466.587 299.774 466.482 299.768 466.377 299.768Z" fill="#111111"/>
<path d="M462.877 321.392C461.364 321.207 459.912 322.309 459.641 323.848C459.368 325.397 460.381 326.791 461.893 326.977C463.405 327.163 464.855 326.07 465.128 324.522C465.399 322.983 464.388 321.578 462.877 321.392Z" fill="white"/>
<path d="M462.226 327.171C462.108 327.171 461.99 327.163 461.871 327.149C461.103 327.054 460.43 326.664 459.976 326.051C459.508 325.418 459.328 324.625 459.47 323.818C459.757 322.189 461.295 321.022 462.897 321.221C463.662 321.315 464.334 321.705 464.788 322.319C465.258 322.955 465.439 323.748 465.297 324.552C465.032 326.06 463.694 327.17 462.226 327.171ZM462.541 321.545C461.236 321.545 460.047 322.535 459.811 323.878C459.685 324.59 459.843 325.289 460.254 325.845C460.65 326.382 461.24 326.723 461.913 326.805C463.333 326.979 464.701 325.943 464.957 324.492C465.082 323.782 464.923 323.083 464.511 322.525C464.113 321.988 463.525 321.647 462.855 321.564C462.751 321.552 462.646 321.545 462.541 321.545Z" fill="#111111"/>
<path d="M478.155 281.625L500.892 284.418L478.155 281.625Z" fill="white"/>
<path d="M500.892 284.591C500.885 284.592 500.878 284.591 500.871 284.59L478.134 281.797C478.112 281.794 478.09 281.787 478.07 281.776C478.05 281.765 478.033 281.75 478.019 281.732C478.005 281.714 477.995 281.694 477.989 281.672C477.983 281.65 477.981 281.627 477.984 281.604C477.986 281.582 477.993 281.56 478.004 281.54C478.015 281.52 478.03 281.502 478.048 281.488C478.066 281.474 478.087 281.464 478.109 281.458C478.131 281.452 478.154 281.451 478.176 281.454L500.913 284.247C500.935 284.25 500.957 284.257 500.977 284.268C500.997 284.279 501.014 284.294 501.028 284.312C501.042 284.33 501.052 284.35 501.058 284.372C501.064 284.394 501.066 284.417 501.063 284.44C501.058 284.481 501.038 284.52 501.006 284.548C500.975 284.576 500.934 284.591 500.892 284.591Z" fill="#111111"/>
<path d="M508.431 285.344L562.895 292.035L508.431 285.344Z" fill="white"/>
<path d="M562.895 292.208C562.888 292.208 562.881 292.208 562.874 292.207L508.409 285.516C508.387 285.514 508.365 285.506 508.345 285.495C508.326 285.484 508.308 285.469 508.294 285.451C508.28 285.433 508.27 285.413 508.264 285.391C508.258 285.369 508.256 285.346 508.259 285.324C508.262 285.301 508.269 285.279 508.28 285.259C508.291 285.239 508.306 285.222 508.324 285.208C508.342 285.194 508.362 285.183 508.384 285.177C508.406 285.171 508.429 285.17 508.452 285.173L562.916 291.864C562.96 291.868 563.001 291.889 563.03 291.923C563.059 291.957 563.074 292.001 563.071 292.046C563.069 292.09 563.049 292.132 563.016 292.163C562.983 292.193 562.94 292.209 562.895 292.208Z" fill="#111111"/>
<path d="M474.319 303.403L537.844 311.207L474.319 303.403Z" fill="white"/>
<path d="M537.844 311.38C537.836 311.38 537.829 311.379 537.822 311.378L474.298 303.575C474.276 303.572 474.254 303.565 474.234 303.554C474.214 303.542 474.197 303.528 474.183 303.51C474.169 303.492 474.159 303.471 474.153 303.449C474.147 303.427 474.145 303.405 474.148 303.382C474.159 303.287 474.242 303.217 474.34 303.232L537.865 311.035C537.909 311.04 537.949 311.062 537.978 311.095C538.006 311.129 538.021 311.173 538.018 311.217C538.015 311.262 537.996 311.303 537.963 311.333C537.931 311.364 537.888 311.38 537.844 311.38Z" fill="#111111"/>
<path d="M470.483 325.18L520.411 331.313L470.483 325.18Z" fill="white"/>
<path d="M520.412 331.486C520.404 331.486 520.397 331.486 520.39 331.485L470.462 325.352C470.44 325.349 470.418 325.342 470.398 325.331C470.378 325.319 470.361 325.304 470.347 325.287C470.333 325.269 470.323 325.248 470.317 325.226C470.311 325.204 470.309 325.182 470.312 325.159C470.314 325.136 470.321 325.114 470.332 325.094C470.343 325.074 470.358 325.057 470.376 325.043C470.394 325.029 470.415 325.018 470.437 325.013C470.459 325.007 470.482 325.005 470.504 325.009L520.432 331.142C520.477 331.147 520.517 331.168 520.546 331.202C520.574 331.236 520.589 331.28 520.586 331.324C520.583 331.368 520.564 331.41 520.531 331.44C520.499 331.47 520.456 331.487 520.412 331.486Z" fill="#111111"/>
<path d="M527.44 332.177L549.736 334.916L527.44 332.177Z" fill="white"/>
<path d="M549.737 335.089C549.73 335.089 549.722 335.088 549.715 335.087L527.419 332.348C527.397 332.346 527.375 332.338 527.355 332.327C527.335 332.316 527.318 332.301 527.304 332.283C527.29 332.265 527.28 332.245 527.274 332.223C527.268 332.201 527.266 332.178 527.269 332.156C527.28 332.061 527.363 331.99 527.461 332.005L549.758 334.744C549.802 334.749 549.842 334.771 549.871 334.804C549.899 334.838 549.914 334.882 549.911 334.926C549.908 334.971 549.889 335.012 549.856 335.042C549.824 335.073 549.781 335.089 549.737 335.089Z" fill="#111111"/>
<path d="M565.744 255.295L476.52 244.334C475.596 244.221 474.707 244.894 474.542 245.835L473.805 250.016C473.639 250.957 474.258 251.816 475.182 251.93L564.406 262.89C565.34 263.005 566.229 262.331 566.395 261.39L567.131 257.209C567.297 256.269 566.678 255.41 565.744 255.295Z" fill="#C42F21"/>
<path d="M564.613 263.076C564.537 263.076 564.462 263.072 564.386 263.062L475.162 252.102C474.675 252.042 474.248 251.794 473.958 251.403C473.66 251 473.545 250.497 473.635 249.987L474.372 245.805C474.554 244.775 475.525 244.038 476.542 244.163L565.766 255.123C566.258 255.184 566.689 255.433 566.979 255.826C567.277 256.228 567.392 256.73 567.302 257.24L566.565 261.421C566.397 262.374 565.547 263.076 564.613 263.076ZM476.315 244.495C475.549 244.495 474.851 245.076 474.712 245.865L473.975 250.047C473.902 250.462 473.995 250.871 474.236 251.197C474.468 251.511 474.812 251.71 475.204 251.758L564.428 262.719C565.268 262.821 566.075 262.213 566.225 261.361L566.961 257.179C567.035 256.765 566.942 256.357 566.701 256.032C566.468 255.716 566.121 255.515 565.723 255.466L476.5 244.506C476.438 244.498 476.377 244.495 476.315 244.495Z" fill="#111111"/>
<path d="M556.321 268.186L481.099 258.945C480.175 258.832 479.287 259.506 479.121 260.446L478.384 264.628C478.219 265.568 478.837 266.428 479.761 266.541L554.983 275.782C555.917 275.897 556.796 275.221 556.961 274.28L557.698 270.099C557.863 269.158 557.255 268.3 556.321 268.186Z" fill="#C42F21"/>
<path d="M555.187 275.967C555.113 275.967 555.038 275.963 554.962 275.954L479.74 266.713C479.253 266.653 478.826 266.405 478.538 266.015C478.239 265.611 478.124 265.108 478.214 264.598L478.951 260.416C479.133 259.386 480.105 258.648 481.12 258.774L556.343 268.014C556.832 268.074 557.26 268.322 557.547 268.711C557.845 269.113 557.959 269.617 557.868 270.129L557.132 274.31C556.964 275.265 556.117 275.967 555.187 275.967ZM480.894 259.106C480.128 259.106 479.43 259.687 479.291 260.477L478.555 264.658C478.481 265.074 478.574 265.483 478.816 265.809C479.047 266.123 479.391 266.322 479.782 266.37L555.005 275.61C555.84 275.713 556.642 275.103 556.792 274.25L557.528 270.069C557.602 269.651 557.51 269.242 557.27 268.916C557.039 268.604 556.695 268.406 556.301 268.358L481.078 259.117C481.017 259.109 480.956 259.106 480.894 259.106Z" fill="#111111"/>
</g>
<g clip-path="url(#clip2_32_73)">
<path d="M619.538 383.385C619.086 379.476 618.066 376.293 617.145 373.617C617.128 373.571 617.099 373.567 617.043 373.574C619.793 381.283 620.231 387.738 618.021 387.99C615.811 388.243 611.79 382.197 609.04 374.488C606.29 366.779 605.852 360.324 608.062 360.072C610.272 359.819 614.293 365.864 617.043 373.574C617.099 373.567 617.128 373.571 617.133 373.583C615.931 370.324 614.354 366.487 611.77 362.735C610.191 360.507 608.721 359.233 607.651 359.355C605.32 359.621 605.782 366.431 608.683 374.565C611.584 382.699 615.827 389.076 618.158 388.81C619.43 388.665 619.87 386.574 619.538 383.385Z" fill="white"/>
<path d="M618.019 388.991C615.553 388.991 611.428 382.776 608.52 374.623C606.138 367.945 605.34 361.893 606.578 359.905C606.846 359.475 607.2 359.232 607.632 359.183C609.029 359.02 610.732 360.972 611.911 362.635C614.507 366.404 616.089 370.252 617.294 373.521L617.296 373.525C617.297 373.53 617.299 373.535 617.3 373.54C617.303 373.546 617.305 373.553 617.308 373.559C618.232 376.245 619.256 379.438 619.71 383.365L619.71 383.367C620.071 386.834 619.527 388.828 618.178 388.982C618.125 388.988 618.072 388.991 618.019 388.991ZM607.798 359.52C607.755 359.52 607.713 359.522 607.671 359.527C607.345 359.564 607.084 359.747 606.872 360.087C605.685 361.992 606.497 367.922 608.846 374.507C611.669 382.42 615.929 388.886 618.139 388.638C618.782 388.565 619.205 387.862 619.38 386.659C619.295 386.98 619.184 387.253 619.046 387.474C618.791 387.883 618.453 388.115 618.041 388.162C617.991 388.168 617.941 388.17 617.89 388.17C615.549 388.171 611.635 382.278 608.877 374.546C606.619 368.214 605.862 362.474 607.037 360.588C607.293 360.179 607.631 359.947 608.043 359.9C608.481 359.849 608.982 360.023 609.523 360.391C608.866 359.818 608.281 359.52 607.798 359.52ZM608.203 360.237C608.162 360.237 608.122 360.239 608.082 360.243C607.776 360.278 607.53 360.451 607.331 360.771C606.208 362.574 606.977 368.191 609.203 374.43C611.877 381.927 615.904 388.06 618.001 387.818C618.308 387.783 618.553 387.611 618.752 387.291C619.876 385.488 619.106 379.871 616.88 373.632C614.257 366.278 610.329 360.237 608.203 360.237Z" fill="#111111"/>
<path d="M617.132 373.583C619.499 380.447 621.403 389.012 617.03 390.833C616.931 390.871 616.829 390.896 616.724 390.908C614.175 391.199 609.537 384.226 606.365 375.334C603.323 366.805 602.734 359.608 604.94 358.777C611.016 356.706 616.524 371.849 617.132 373.583C617.128 373.571 617.099 373.567 617.043 373.574C614.293 365.864 610.272 359.819 608.062 360.072C605.852 360.324 606.289 366.779 609.039 374.488C611.789 382.198 615.81 388.243 618.02 387.99C620.23 387.738 619.792 381.283 617.043 373.574C617.099 373.567 617.128 373.571 617.132 373.583Z" fill="white"/>
<path d="M616.57 391.089C613.882 391.089 609.379 384.299 606.202 375.392C603.105 366.71 602.537 359.497 604.879 358.615C611.117 356.488 616.68 371.771 617.295 373.525L617.295 373.525V373.525C617.295 373.526 617.296 373.526 617.296 373.527C619.687 380.461 621.593 389.12 617.097 390.993C616.929 391.058 616.75 391.09 616.57 391.089ZM606.076 358.76C605.719 358.76 605.358 358.817 604.996 358.941C602.91 359.726 603.595 367.055 606.528 375.276C609.616 383.933 614.269 391.011 616.704 390.736C616.795 390.725 616.884 390.704 616.969 390.671C618.137 390.185 619.197 389.006 619.437 386.416C619.346 386.844 619.216 387.199 619.045 387.474C618.79 387.883 618.452 388.115 618.04 388.162C617.99 388.167 617.94 388.17 617.889 388.17C615.548 388.17 611.634 382.277 608.877 374.546C606.618 368.214 605.861 362.474 607.037 360.588C607.292 360.178 607.63 359.947 608.042 359.9C608.48 359.848 608.981 360.023 609.522 360.391C608.447 359.411 607.279 358.76 606.076 358.76ZM608.202 360.237C608.161 360.237 608.121 360.239 608.081 360.243C607.775 360.278 607.53 360.451 607.33 360.771C606.207 362.574 606.977 368.191 609.202 374.43C611.876 381.927 615.903 388.06 618.001 387.818C618.307 387.783 618.552 387.611 618.752 387.291C619.875 385.488 619.105 379.871 616.88 373.632C614.256 366.278 610.329 360.237 608.202 360.237Z" fill="#111111"/>
<path d="M579.085 370.834C575.308 372.317 571.644 375.355 569.944 378.976C567.999 383.118 567.574 389.936 572.777 395.519C574.113 396.953 576.54 398.849 580.514 399.737C584.183 400.558 588.112 399.222 589.455 398.778C585.673 395.328 579.042 380.255 579.085 370.834Z" fill="#F4B6B0"/>
<path d="M583.024 400.173C582.185 400.173 581.325 400.096 580.476 399.906C576.458 399.008 574.003 397.089 572.65 395.637C567.389 389.991 567.82 383.093 569.788 378.903C571.423 375.42 574.961 372.267 579.022 370.673C579.048 370.663 579.077 370.659 579.105 370.662C579.133 370.665 579.16 370.675 579.183 370.691C579.206 370.707 579.225 370.729 579.239 370.754C579.252 370.779 579.258 370.807 579.258 370.835C579.216 380.107 585.753 395.166 589.571 398.65C589.594 398.67 589.61 398.696 589.619 398.725C589.629 398.754 589.63 398.784 589.624 398.814C589.618 398.843 589.604 398.871 589.584 398.893C589.563 398.915 589.538 398.932 589.509 398.942L589.442 398.964C588.327 399.334 585.795 400.173 583.024 400.173ZM578.912 371.09C575.03 372.68 571.668 375.712 570.101 379.05C568.179 383.143 567.759 389.881 572.903 395.401C574.222 396.817 576.62 398.69 580.551 399.569C583.956 400.33 587.566 399.218 589.127 398.704C585.278 394.874 578.988 380.288 578.912 371.09Z" fill="#111111"/>
<path d="M675.498 353.572C668.402 334.331 661.887 324.486 657.672 319.615C656.54 318.307 653.096 314.329 649.66 313.609C645.88 312.817 644.126 315.476 643.547 316.656C640.976 321.896 642.406 331.698 643.141 335.669C643.84 339.452 645.969 350.964 652.884 367.144C655.858 374.104 660.702 383.955 666.886 391.368C669.754 394.806 674.007 398.613 677.979 397.225L678.002 397.217C679.255 396.687 683.069 395.075 682.398 383.371C681.725 371.642 677.201 358.513 675.498 353.572Z" fill="#C42F21"/>
<path d="M676.243 397.69C672.737 397.69 669.231 394.45 666.753 391.479C660.555 384.05 655.703 374.182 652.725 367.212C645.802 351.014 643.671 339.488 642.97 335.701C642.233 331.713 640.797 321.866 643.391 316.58C643.988 315.364 645.798 312.623 649.695 313.439C653.188 314.171 656.66 318.183 657.801 319.501C662.027 324.383 668.555 334.247 675.66 353.512L675.661 353.516C677.366 358.464 681.896 371.608 682.57 383.362C683.248 395.187 679.35 396.835 678.069 397.376L678.042 397.386C677.464 397.588 676.856 397.691 676.243 397.69ZM648.332 313.638C645.553 313.638 644.192 315.732 643.702 316.732C641.153 321.926 642.579 331.684 643.31 335.638C644.009 339.416 646.135 350.914 653.043 367.076C656.013 374.025 660.848 383.861 667.018 391.257C669.852 394.654 674.043 398.419 677.922 397.062C679.16 396.54 682.889 394.963 682.225 383.382C681.554 371.677 677.036 358.568 675.335 353.631C668.248 334.415 661.746 324.588 657.541 319.728C656.417 318.431 653.002 314.485 649.624 313.778C649.163 313.681 648.733 313.638 648.332 313.638Z" fill="#111111"/>
<path d="M667.102 360.218L615.386 383.965C615.314 383.998 615.237 384.019 615.155 384.029C613.586 384.208 610.732 379.917 608.78 374.445C606.885 369.133 606.537 364.661 607.953 364.239L662.489 347.977C661.611 348.239 661.827 351.015 663.003 354.311C664.214 357.707 665.985 360.369 666.959 360.258C667.01 360.252 667.058 360.239 667.102 360.218Z" fill="#F4B6B0"/>
<path d="M615.058 384.207C613.19 384.207 610.341 379.335 608.618 374.503C607.048 370.103 606.496 366.156 607.244 364.68C607.406 364.36 607.629 364.155 607.903 364.073L662.44 347.812C662.462 347.805 662.485 347.802 662.508 347.804C662.531 347.806 662.553 347.813 662.574 347.823C662.594 347.834 662.612 347.849 662.627 347.866C662.641 347.884 662.652 347.905 662.659 347.927C662.666 347.949 662.668 347.972 662.665 347.995C662.663 348.018 662.656 348.04 662.645 348.06C662.633 348.08 662.618 348.098 662.6 348.112C662.582 348.126 662.561 348.137 662.539 348.143C662.445 348.171 662.365 348.25 662.3 348.378C661.875 349.216 662.231 351.632 663.166 354.252C664.431 357.8 666.165 360.168 666.939 360.086C666.972 360.082 667.002 360.074 667.03 360.061C667.072 360.042 667.119 360.04 667.162 360.056C667.205 360.072 667.24 360.104 667.259 360.146C667.279 360.188 667.28 360.235 667.264 360.278C667.248 360.321 667.216 360.356 667.174 360.375L615.458 384.122C615.368 384.163 615.273 384.19 615.175 384.2C615.136 384.205 615.097 384.207 615.058 384.207ZM661.946 348.32L608.002 364.404C607.822 364.458 607.67 364.604 607.552 364.837C606.856 366.211 607.427 370.138 608.943 374.387C611.029 380.236 613.829 384.014 615.135 383.857C615.197 383.85 615.257 383.833 615.313 383.808L666.479 360.314C665.504 359.82 664.063 357.797 662.84 354.369C661.893 351.714 661.543 349.317 661.946 348.32Z" fill="#111111"/>
<path d="M667.872 353.288C665.62 347.183 663.265 347.781 662.491 347.977C661.611 348.237 661.827 351.013 663.003 354.311C664.215 357.706 665.986 360.369 666.959 360.258C667.011 360.252 667.059 360.239 667.104 360.218C668.923 359.336 669.175 357.069 667.872 353.288Z" fill="#F4B6B0"/>
<path d="M666.911 360.434C665.973 360.434 664.26 358.349 662.84 354.369C661.86 351.621 661.519 349.15 661.992 348.22C662.101 348.005 662.253 347.867 662.442 347.811C663.259 347.603 665.728 346.977 668.033 353.229L668.035 353.232C669.371 357.111 669.091 359.447 667.179 360.374C667.095 360.413 667.004 360.433 666.911 360.434ZM663.257 348.039C662.949 348.039 662.702 348.102 662.533 348.145C662.446 348.171 662.365 348.249 662.3 348.377C661.874 349.214 662.23 351.63 663.166 354.253C664.431 357.8 666.164 360.168 666.939 360.086C666.971 360.083 667.002 360.074 667.03 360.061C668.754 359.226 668.977 357.029 667.708 353.347C666.013 348.753 664.293 348.039 663.257 348.039Z" fill="#111111"/>
<path d="M668.237 357.491C668.829 357.268 668.623 355.266 667.777 353.018C666.931 350.771 665.765 349.13 665.172 349.353C664.58 349.576 664.786 351.578 665.632 353.826C666.478 356.073 667.644 357.715 668.237 357.491Z" fill="white"/>
<path d="M668.12 357.684C667.274 357.684 666.079 355.613 665.366 353.614C664.682 351.698 664.47 350.013 664.838 349.422C664.957 349.231 665.113 349.176 665.223 349.164C666.076 349.065 667.306 351.187 668.034 353.231C668.718 355.147 668.93 356.832 668.562 357.423C668.443 357.614 668.287 357.669 668.177 357.681C668.158 357.683 668.139 357.684 668.12 357.684ZM665.284 349.506C665.276 349.506 665.269 349.506 665.262 349.507C665.23 349.511 665.181 349.525 665.132 349.605C664.869 350.025 664.978 351.498 665.691 353.498C666.566 355.95 667.698 357.385 668.138 357.337C668.17 357.334 668.218 357.32 668.268 357.24C668.53 356.819 668.422 355.347 667.709 353.347C666.849 350.935 665.732 349.506 665.284 349.506Z" fill="#111111"/>
<path d="M649.64 357.36C643.862 341.16 641.79 326.971 643.835 320.846C643.512 321.814 643.512 321.814 643.835 320.846C635.761 344.816 615.066 355.459 607.275 359.466C606.915 359.646 606.643 360.027 606.459 360.578C605.676 362.925 606.469 368.359 608.683 374.565C611.139 381.45 614.556 387.077 616.961 388.481C617.397 388.735 617.8 388.851 618.158 388.81C618.214 388.803 618.268 388.793 618.321 388.78C621.686 387.909 626.276 386.826 631.954 386.166C653.173 383.7 666.305 390.955 671.25 393.688C664.971 390.022 656.051 375.333 649.64 357.36Z" fill="#F4B6B0"/>
<path d="M671.25 393.861C671.22 393.861 671.192 393.854 671.166 393.839C666.236 391.115 653.14 383.879 631.974 386.338C626.306 386.997 621.723 388.078 618.363 388.947C618.303 388.963 618.241 388.975 618.178 388.982C617.789 389.027 617.35 388.908 616.874 388.63C614.377 387.173 610.942 381.413 608.52 374.623C606.345 368.525 605.471 362.99 606.295 360.524C606.497 359.918 606.801 359.51 607.197 359.311C614.969 355.314 635.619 344.694 643.671 320.791C643.681 320.76 643.699 320.734 643.723 320.713L643.724 320.713L643.725 320.712H643.725L643.725 320.712L643.726 320.711L643.727 320.711L643.727 320.71L643.728 320.71L643.728 320.71L643.728 320.709L643.729 320.709L643.729 320.709L643.729 320.709C643.73 320.708 643.73 320.708 643.73 320.708C643.73 320.708 643.73 320.708 643.731 320.708C643.731 320.707 643.731 320.707 643.731 320.707C643.732 320.707 643.732 320.706 643.732 320.706L643.733 320.706L643.734 320.705C643.734 320.705 643.734 320.706 643.734 320.705L643.735 320.705L643.735 320.704L643.736 320.704L643.736 320.704C643.736 320.704 643.736 320.703 643.736 320.703L643.737 320.703C643.737 320.703 643.738 320.703 643.738 320.702L643.739 320.702C643.739 320.702 643.739 320.702 643.739 320.701L643.74 320.701L643.741 320.701L643.741 320.7L643.742 320.7L643.743 320.699L643.743 320.699C643.743 320.699 643.743 320.699 643.744 320.698C643.763 320.687 643.785 320.679 643.807 320.675C643.807 320.674 643.807 320.675 643.808 320.675L643.809 320.674C643.809 320.674 643.809 320.674 643.809 320.674L643.81 320.674C643.81 320.674 643.811 320.674 643.812 320.674C643.852 320.668 643.894 320.677 643.928 320.699C643.963 320.721 643.988 320.755 644 320.794L644.001 320.795L644.001 320.796H644.001L644.001 320.797L644.002 320.798C644.002 320.798 644.002 320.799 644.002 320.799L644.002 320.8C644.002 320.801 644.002 320.801 644.002 320.801C644.002 320.802 644.002 320.802 644.003 320.802L644.003 320.803L644.003 320.804L644.003 320.805C644.004 320.805 644.004 320.806 644.004 320.806L644.004 320.807L644.004 320.808L644.004 320.809L644.005 320.81L644.005 320.811L644.005 320.812C644.005 320.812 644.005 320.813 644.005 320.813C644.005 320.813 644.005 320.814 644.005 320.814L644.006 320.815L644.006 320.816L644.006 320.817L644.006 320.818L644.007 320.825L644.008 320.839L644.008 320.84V320.853L644.008 320.853C644.008 320.869 644.005 320.886 643.999 320.901L643.997 320.908C642.99 323.932 642.982 328.908 643.975 335.299C644.994 341.862 647.01 349.471 649.803 357.302C656.081 374.901 664.936 389.802 671.337 393.539C671.37 393.558 671.396 393.588 671.41 393.623C671.425 393.658 671.427 393.697 671.417 393.734C671.407 393.77 671.385 393.803 671.355 393.826C671.325 393.849 671.288 393.861 671.25 393.861ZM640.478 385.49C654.407 385.49 663.96 389.652 669.098 392.329C662.893 386.957 655.132 373.271 649.477 357.418C644.49 343.438 642.128 330.614 643.096 323.395C634.455 345.682 614.886 355.746 607.354 359.62C607.04 359.776 606.795 360.117 606.623 360.633C605.834 362.994 606.728 368.57 608.845 374.507C611.243 381.227 614.615 386.912 617.048 388.331C617.458 388.57 617.825 388.674 618.138 388.638C618.185 388.633 618.232 388.624 618.277 388.612C621.647 387.741 626.245 386.656 631.934 385.994C634.944 385.645 637.793 385.49 640.478 385.49Z" fill="#111111"/>
<path d="M617.022 390.837C616.926 390.872 616.826 390.896 616.724 390.908C614.175 391.199 609.537 384.226 606.366 375.334C603.323 366.805 602.734 359.608 604.941 358.777C604.941 358.777 580.075 368.115 579.736 368.281C579.32 368.48 578.627 368.877 578.083 369.876C575.857 373.958 579.126 384.395 581.71 390.015C585.259 397.736 588.676 401.19 591.871 400.291C592.473 400.141 617.022 390.837 617.022 390.837Z" fill="#C42F21"/>
<path d="M590.874 400.604C587.896 400.604 584.765 397.076 581.552 390.087C578.955 384.437 575.675 373.931 577.931 369.793C578.486 368.774 579.184 368.353 579.661 368.125C580.002 367.958 603.861 358.998 604.88 358.615L604.88 358.615C604.901 358.607 604.924 358.603 604.946 358.604C604.969 358.605 604.992 358.61 605.012 358.619C605.033 358.629 605.052 358.642 605.067 358.659C605.083 358.675 605.095 358.695 605.103 358.716C605.111 358.737 605.114 358.76 605.114 358.783C605.113 358.805 605.108 358.828 605.098 358.848C605.089 358.869 605.076 358.888 605.059 358.903C605.042 358.919 605.023 358.931 605.002 358.939C602.911 359.726 603.596 367.055 606.528 375.276C609.616 383.933 614.27 391.011 616.705 390.736C616.792 390.726 616.878 390.705 616.961 390.675C617.004 390.658 617.051 390.66 617.093 390.679C617.135 390.698 617.167 390.732 617.184 390.775C617.2 390.818 617.198 390.866 617.179 390.908C617.16 390.95 617.126 390.982 617.083 390.998C616.08 391.378 592.518 400.308 591.913 400.459C591.569 400.556 591.222 400.604 590.874 400.604ZM604.11 359.274C595.357 362.561 580.139 368.285 579.811 368.437C579.377 368.645 578.742 369.028 578.235 369.958C577.269 371.73 577.278 374.971 578.262 379.331C579.029 382.735 580.377 386.702 581.867 389.943C585.373 397.571 588.721 400.998 591.824 400.125C592.281 400.011 607.383 394.304 616.062 391.015C613.341 390.257 609.187 383.759 606.203 375.392C603.51 367.844 602.729 361.406 604.11 359.274Z" fill="#111111"/>
<path d="M680.862 372.394C679.391 364.867 676.663 356.952 675.498 353.572C673.705 348.711 668.25 333.918 660.265 322.937C654.792 315.408 650.307 312.409 646.556 313.766C643.449 314.89 641.864 319.259 642.093 326.067C642.465 337.135 646.28 349.004 647.909 354.072C653.509 371.494 664.787 392.778 673.241 396.783C678.168 399.118 682.009 395.743 682.374 388.758C682.604 384.343 682.431 380.427 680.862 372.394ZM677.13 394.333C670.996 395.034 659.837 378.256 652.204 356.859C644.572 335.462 643.357 317.548 649.49 316.847C655.624 316.147 666.784 332.924 674.416 354.321C682.049 375.718 683.264 393.632 677.13 394.333Z" fill="white"/>
<path d="M676.217 397.693C675.252 397.693 674.227 397.442 673.167 396.94C664.671 392.915 653.356 371.582 647.744 354.125C646.113 349.05 642.292 337.165 641.92 326.073C641.689 319.184 643.314 314.755 646.497 313.604C650.33 312.216 654.88 315.236 660.405 322.835C668.404 333.836 673.865 348.646 675.66 353.512C676.827 356.899 679.558 364.822 681.031 372.361C682.605 380.412 682.778 384.338 682.546 388.767C682.338 392.758 681.019 395.675 678.833 396.98C678.036 397.455 677.155 397.693 676.217 397.693ZM648.36 313.623C647.76 313.623 647.178 313.725 646.614 313.929C643.584 315.025 642.04 319.334 642.266 326.062C642.637 337.105 646.446 348.957 648.073 354.019C653.663 371.407 664.903 392.642 673.315 396.627C675.297 397.566 677.143 397.585 678.655 396.682C680.709 395.457 682.001 392.565 682.201 388.749C682.43 384.347 682.258 380.443 680.692 372.427C679.223 364.912 676.498 357.005 675.334 353.628C673.545 348.776 668.096 334.001 660.125 323.038C655.537 316.727 651.666 313.623 648.36 313.623ZM676.755 394.527C673.75 394.527 669.629 390.809 665.085 383.978C660.37 376.889 655.737 367.278 652.041 356.917C645.802 339.425 643.69 323.604 646.906 318.442C647.562 317.389 648.425 316.795 649.471 316.676C652.503 316.327 656.789 320.067 661.535 327.202C666.251 334.291 670.883 343.902 674.579 354.263C680.819 371.755 682.93 387.576 679.714 392.738C679.058 393.791 678.195 394.385 677.15 394.504C677.021 394.519 676.889 394.527 676.755 394.527ZM649.859 317C649.74 317 649.624 317.006 649.51 317.019C648.575 317.126 647.797 317.666 647.2 318.625C644.036 323.703 646.161 339.402 652.367 356.801C656.054 367.136 660.673 376.72 665.373 383.787C669.792 390.429 673.912 394.18 676.762 394.181C676.88 394.181 676.996 394.174 677.111 394.161C678.046 394.054 678.823 393.514 679.42 392.555C682.584 387.477 680.46 371.778 674.254 354.379C670.567 344.044 665.948 334.46 661.247 327.393C656.829 320.751 652.709 317 649.859 317Z" fill="#111111"/>
<path d="M599.713 397.428L610.867 391.915L613.115 395.727L618.27 398.15C618.783 398.392 619.029 398.997 618.83 399.543L617.511 403.197L627.229 421.062L630.085 422.265C631.337 422.577 631.953 424.025 631.321 425.177C629.482 428.53 628.178 432.697 626.035 434.47C625.747 434.708 625.425 434.914 625.08 435.084C623.059 436.083 620.255 435.887 619.129 434.13L599.713 397.428Z" fill="#F4B6B0"/>
<path d="M622.457 435.861C621.061 435.861 619.715 435.366 618.983 434.223L599.56 397.509C599.549 397.488 599.543 397.466 599.541 397.443C599.539 397.42 599.541 397.397 599.548 397.375C599.556 397.353 599.567 397.332 599.582 397.315C599.597 397.297 599.616 397.283 599.636 397.273L610.791 391.76C610.83 391.741 610.875 391.737 610.917 391.749C610.959 391.762 610.994 391.79 611.016 391.827L613.237 395.593L618.343 397.994C618.934 398.273 619.219 398.979 618.993 399.603L617.699 403.182L627.352 420.926L630.14 422.1C630.775 422.263 631.292 422.705 631.559 423.317C631.695 423.625 631.759 423.961 631.743 424.299C631.728 424.636 631.636 424.965 631.472 425.26C630.888 426.324 630.354 427.482 629.837 428.602C628.704 431.054 627.635 433.371 626.145 434.603C625.841 434.853 625.509 435.066 625.157 435.239C624.348 435.639 623.391 435.861 622.457 435.861ZM599.949 397.504L619.281 434.048C620.359 435.728 623.112 435.864 625.003 434.929C625.343 434.761 625.653 434.562 625.924 434.337C627.354 433.154 628.407 430.873 629.522 428.457C630.042 427.332 630.579 426.168 631.169 425.094C631.306 424.845 631.385 424.567 631.398 424.283C631.41 423.999 631.357 423.715 631.242 423.455C631.016 422.939 630.579 422.566 630.043 422.432C630.034 422.43 630.026 422.427 630.018 422.424L627.162 421.221C627.126 421.206 627.096 421.179 627.077 421.145L617.358 403.279C617.347 403.258 617.34 403.234 617.338 403.21C617.336 403.185 617.339 403.161 617.348 403.138L618.667 399.485C618.834 399.027 618.626 398.51 618.196 398.307L613.041 395.883C613.01 395.868 612.983 395.844 612.966 395.815L610.8 392.141L599.949 397.504Z" fill="#111111"/>
<path d="M634.377 423.855C634.285 423.245 634.002 422.675 633.569 422.239C633.213 421.88 632.765 421.626 632.275 421.504L629.814 420.46L620.43 403.21L621.614 399.932C621.733 399.604 621.762 399.264 621.714 398.941C621.651 398.521 621.456 398.132 621.158 397.831C621 397.672 620.816 397.543 620.613 397.447L615.695 395.135L613.865 392.032L610.867 391.915L613.115 395.727L618.27 398.15C618.783 398.392 619.029 398.997 618.83 399.543L617.511 403.197L627.229 421.062L630.085 422.265C631.291 422.565 631.907 423.919 631.385 425.048C630.118 427.276 628.055 432.926 626.035 434.47C624.099 436.09 620.447 436.198 619.129 434.129C620.156 435.998 622.143 436.805 624.203 436.633C630.2 436.134 631.407 430.414 634.048 425.691C634.356 425.131 634.472 424.486 634.377 423.855Z" fill="white"/>
<path d="M623.657 436.83C621.615 436.83 619.892 435.876 618.977 434.213C618.955 434.173 618.95 434.127 618.961 434.084C618.973 434.04 619.002 434.003 619.04 433.98C619.079 433.957 619.125 433.95 619.169 433.961C619.213 433.971 619.251 433.998 619.275 434.037C619.75 434.783 620.603 435.285 621.676 435.451C623.173 435.683 624.839 435.245 625.924 434.337C627.314 433.274 628.751 430.173 629.905 427.681C630.414 426.582 630.854 425.633 631.235 424.963C631.46 424.473 631.455 423.898 631.215 423.396C630.983 422.911 630.556 422.56 630.043 422.432C630.035 422.43 630.026 422.427 630.018 422.424L627.162 421.221C627.126 421.206 627.096 421.179 627.077 421.145L617.359 403.279C617.347 403.258 617.34 403.234 617.338 403.21C617.336 403.186 617.34 403.161 617.348 403.138L618.668 399.485C618.834 399.027 618.627 398.51 618.196 398.307L613.041 395.883C613.01 395.868 612.984 395.845 612.966 395.815L610.718 392.003C610.703 391.976 610.694 391.946 610.694 391.915C610.694 391.884 610.703 391.853 610.719 391.826C610.751 391.772 610.812 391.737 610.874 391.742L613.872 391.86C613.931 391.862 613.984 391.894 614.014 391.945L615.817 395.001L620.687 397.291C620.908 397.395 621.109 397.536 621.281 397.709C621.605 398.037 621.816 398.46 621.885 398.915C621.939 399.277 621.902 399.647 621.777 399.992L620.62 403.195L629.938 420.324L632.33 421.34C632.846 421.472 633.316 421.74 633.692 422.117C634.147 422.574 634.451 423.182 634.548 423.829C634.649 424.501 634.529 425.174 634.2 425.774C633.653 426.752 633.162 427.785 632.687 428.784C630.825 432.702 629.067 436.403 624.218 436.806C624.031 436.822 623.844 436.829 623.657 436.83ZM620.512 435.48C621.487 436.224 622.769 436.579 624.189 436.461C628.84 436.074 630.557 432.461 632.375 428.636C632.852 427.631 633.345 426.593 633.897 425.606C634.188 425.081 634.296 424.474 634.206 423.88C634.12 423.306 633.85 422.766 633.447 422.361C633.112 422.025 632.692 421.787 632.233 421.672C632.224 421.669 632.215 421.667 632.207 421.663L629.747 420.619C629.711 420.604 629.681 420.577 629.663 420.543L620.279 403.292C620.267 403.271 620.26 403.247 620.258 403.223C620.256 403.198 620.26 403.174 620.268 403.151L621.452 399.874C621.557 399.584 621.588 399.27 621.543 398.967C621.485 398.584 621.307 398.229 621.035 397.953C620.892 397.809 620.724 397.691 620.54 397.604L615.621 395.292C615.59 395.277 615.563 395.253 615.546 395.223L613.764 392.202L611.177 392.101L613.236 395.593L618.343 397.994C618.934 398.273 619.219 398.979 618.992 399.603L617.699 403.183L627.352 420.926L630.139 422.1C630.747 422.256 631.252 422.673 631.527 423.247C631.667 423.539 631.742 423.858 631.745 424.182C631.747 424.506 631.678 424.827 631.542 425.121C631.161 425.792 630.703 426.78 630.219 427.826C629.048 430.353 627.592 433.498 626.139 434.608C624.988 435.572 623.212 436.04 621.623 435.793C621.223 435.731 620.85 435.626 620.512 435.48Z" fill="#111111"/>
</g>
<g clip-path="url(#clip3_32_73)">
<path d="M314.422 351.461C314.858 350.103 315.782 348.929 316.823 347.977C317.161 347.656 317.554 347.352 317.924 347.069L358.709 316.945C358.507 318.496 363.039 324.605 364.562 324.833C364.2 325.092 323.756 354.989 323.416 355.216C322.977 355.517 322.42 355.853 321.948 356.094C318.42 358.225 313.211 356.522 314.422 351.461Z" fill="#C42F21"/>
<path d="M318.733 357.172C317.618 357.172 316.545 356.866 315.702 356.251C314.27 355.209 313.755 353.494 314.251 351.42C314.253 351.416 314.254 351.412 314.255 351.408C314.654 350.167 315.478 348.969 316.705 347.847C317.038 347.532 317.422 347.233 317.818 346.93L358.605 316.804C358.632 316.784 358.665 316.772 358.7 316.77C358.734 316.768 358.769 316.776 358.798 316.794C358.828 316.811 358.852 316.837 358.867 316.868C358.882 316.899 358.888 316.933 358.884 316.967C358.697 318.409 363.175 324.448 364.588 324.66C364.623 324.665 364.655 324.68 364.681 324.704C364.707 324.727 364.725 324.758 364.734 324.792C364.742 324.826 364.74 324.862 364.727 324.894C364.715 324.927 364.693 324.956 364.665 324.976C364.532 325.07 358.991 329.165 351.976 334.348C339.392 343.645 323.733 355.216 323.514 355.362C323.058 355.675 322.488 356.016 322.028 356.25C321.011 356.864 319.851 357.172 318.733 357.172ZM314.592 351.508C314.133 353.432 314.601 355.016 315.909 355.968C317.486 357.116 319.932 357.106 321.857 355.943C322.315 355.71 322.87 355.378 323.316 355.071C323.572 354.898 339.867 342.858 351.766 334.066C355.906 331.006 360.048 327.947 364.19 324.889C362.472 324.047 358.861 319.18 358.549 317.281L318.029 347.21C317.643 347.505 317.268 347.798 316.945 348.104C315.763 349.184 314.972 350.329 314.592 351.508Z" fill="#111111"/>
<path d="M364.56 324.831C364.938 324.552 363.935 322.56 362.319 320.382C360.703 318.204 359.087 316.666 358.708 316.945C358.329 317.225 359.332 319.217 360.948 321.395C362.564 323.572 364.181 325.111 364.56 324.831Z" fill="white"/>
<path d="M364.456 325.041C364.339 325.041 364.198 324.995 364.035 324.905C363.083 324.374 361.182 322.193 359.798 320.043C359.154 319.041 358.136 317.293 358.561 316.843C358.702 316.692 358.929 316.703 359.235 316.874C360.188 317.404 362.088 319.585 363.472 321.735C364.117 322.737 365.135 324.485 364.71 324.936C364.644 325.006 364.559 325.041 364.456 325.041ZM358.818 317.088C358.811 317.088 358.807 317.089 358.807 317.089C358.734 317.208 358.935 318.052 360.094 319.854C361.452 321.963 363.297 324.092 364.207 324.598C364.397 324.704 364.463 324.689 364.463 324.689C364.537 324.571 364.336 323.727 363.176 321.925C361.819 319.815 359.974 317.687 359.064 317.18C358.917 317.098 358.844 317.088 358.818 317.088Z" fill="#111111"/>
<path d="M389.591 306.343C389.97 306.063 388.967 304.071 387.351 301.894C385.735 299.716 384.118 298.177 383.739 298.457C383.361 298.736 384.364 300.728 385.98 302.906C387.596 305.084 389.212 306.623 389.591 306.343Z" fill="white"/>
<path d="M389.488 306.552C389.371 306.552 389.23 306.507 389.067 306.416C388.115 305.885 386.214 303.704 384.83 301.554C384.186 300.552 383.168 298.804 383.593 298.353C383.734 298.203 383.961 298.214 384.267 298.385C385.22 298.915 387.12 301.096 388.504 303.246C389.149 304.248 390.167 305.996 389.742 306.447C389.676 306.517 389.591 306.552 389.488 306.552ZM383.851 298.599C383.843 298.599 383.84 298.6 383.84 298.6C383.766 298.719 383.967 299.563 385.127 301.364C386.484 303.474 388.329 305.602 389.239 306.11C389.428 306.215 389.494 306.201 389.495 306.2C389.569 306.082 389.368 305.238 388.208 303.436C386.851 301.327 385.006 299.198 384.096 298.691C383.949 298.609 383.876 298.599 383.851 298.599Z" fill="#111111"/>
<path d="M358.632 317.216C358.622 317.082 358.648 316.99 358.709 316.945L383.741 298.456C383.11 299.596 388.496 306.719 389.594 306.344L364.562 324.833C364.48 324.894 364.334 324.87 364.121 324.752C362.403 323.616 359.157 319.455 358.632 317.216Z" fill="white"/>
<path d="M364.452 325.041C364.28 325.041 364.106 324.944 364.035 324.905C362.221 323.705 358.981 319.475 358.46 317.256C358.458 317.247 358.457 317.237 358.456 317.228C358.442 317.029 358.492 316.887 358.604 316.804L383.636 298.315C383.668 298.291 383.708 298.279 383.748 298.281C383.788 298.283 383.826 298.298 383.856 298.324C383.919 298.378 383.934 298.468 383.895 298.541C383.603 299.067 385.165 301.749 387.107 304.059C388.631 305.871 389.363 306.24 389.537 306.178C389.577 306.165 389.62 306.166 389.658 306.182C389.697 306.198 389.729 306.226 389.749 306.263C389.768 306.3 389.774 306.343 389.764 306.384C389.755 306.424 389.732 306.46 389.698 306.485L364.666 324.974C364.604 325.019 364.529 325.043 364.452 325.041ZM358.806 317.19C359.322 319.349 362.466 323.447 364.218 324.605C364.399 324.706 364.462 324.689 364.463 324.689L389.163 306.444C388.504 306.149 387.577 305.164 386.837 304.284C385.715 302.95 383.675 300.141 383.525 298.833L358.813 317.086C358.813 317.089 358.803 317.121 358.806 317.19Z" fill="#111111"/>
<path d="M400.999 309.179L405.347 311.155C400.55 308.975 396.313 305.401 393.197 300.521C383.946 286.036 388.071 265.522 402.418 254.71C411.937 247.537 423.556 246.432 433.002 250.726L428.654 248.749C419.208 244.456 407.589 245.56 398.07 252.734C383.723 263.546 379.598 284.06 388.848 298.545C391.965 303.424 396.202 306.998 400.999 309.179Z" fill="white"/>
<path d="M405.348 311.33C405.323 311.331 405.298 311.325 405.275 311.315L400.927 309.338C395.955 307.079 391.728 303.379 388.701 298.639C379.414 284.098 383.57 263.442 397.965 252.594C402.583 249.113 407.91 246.925 413.369 246.267C418.668 245.628 423.979 246.431 428.727 248.589L433.076 250.566C433.118 250.585 433.152 250.62 433.168 250.664C433.184 250.708 433.182 250.756 433.163 250.798C433.144 250.841 433.108 250.874 433.065 250.89C433.021 250.906 432.973 250.904 432.93 250.885C428.241 248.754 422.995 247.96 417.76 248.592C412.362 249.243 407.094 251.407 402.525 254.85C388.273 265.59 384.156 286.036 393.346 300.427C396.336 305.109 400.512 308.764 405.421 310.995C405.458 311.012 405.488 311.04 405.506 311.076C405.524 311.112 405.529 311.153 405.52 311.192C405.512 311.232 405.49 311.267 405.459 311.292C405.427 311.317 405.388 311.331 405.348 311.33ZM401.073 309.019L401.418 309.176C398.107 306.98 395.258 304.075 393.049 300.616C383.763 286.074 387.919 265.418 402.313 254.57C406.932 251.09 412.259 248.902 417.718 248.244C421.512 247.786 425.313 248.068 428.909 249.057L428.582 248.909C423.892 246.777 418.647 245.984 413.411 246.616C408.014 247.266 402.746 249.43 398.177 252.874C383.925 263.614 379.807 284.06 388.998 298.451C391.988 303.133 396.163 306.788 401.073 309.019Z" fill="#111111"/>
<path d="M400.999 309.179L405.347 311.155C400.55 308.975 396.313 305.401 393.197 300.521C383.946 286.036 388.071 265.522 402.418 254.71C411.937 247.537 423.556 246.432 433.002 250.726L428.654 248.749C419.208 244.456 407.589 245.56 398.07 252.734C383.723 263.546 379.598 284.06 388.848 298.545C391.965 303.424 396.202 306.998 400.999 309.179Z" fill="white"/>
<path d="M405.348 311.33C405.323 311.331 405.298 311.325 405.275 311.315L400.927 309.338C395.955 307.079 391.728 303.379 388.701 298.639C379.414 284.098 383.57 263.442 397.965 252.594C402.583 249.113 407.91 246.925 413.369 246.267C418.668 245.628 423.979 246.431 428.727 248.589L433.076 250.566C433.118 250.585 433.152 250.62 433.168 250.664C433.184 250.708 433.182 250.756 433.163 250.798C433.144 250.841 433.108 250.874 433.065 250.89C433.021 250.906 432.973 250.904 432.93 250.885C428.241 248.754 422.995 247.96 417.76 248.592C412.362 249.243 407.094 251.407 402.525 254.85C388.273 265.59 384.156 286.036 393.346 300.427C396.336 305.109 400.512 308.764 405.421 310.995C405.458 311.012 405.488 311.04 405.506 311.076C405.524 311.112 405.529 311.153 405.52 311.192C405.512 311.232 405.49 311.267 405.459 311.292C405.427 311.317 405.388 311.331 405.348 311.33ZM401.073 309.019L401.418 309.176C398.107 306.98 395.258 304.075 393.049 300.616C383.763 286.074 387.919 265.418 402.313 254.57C406.932 251.09 412.259 248.902 417.718 248.244C421.512 247.786 425.313 248.068 428.909 249.057L428.582 248.909C423.892 246.777 418.647 245.984 413.411 246.616C408.014 247.266 402.746 249.43 398.177 252.874C383.925 263.614 379.807 284.06 388.998 298.451C391.988 303.133 396.163 306.788 401.073 309.019Z" fill="#111111"/>
<path d="M398.07 252.734C383.723 263.546 379.598 284.06 388.848 298.545C398.099 313.03 417.226 316.007 431.573 305.195C445.928 294.377 450.059 273.871 440.809 259.386C431.558 244.901 412.425 241.915 398.07 252.734Z" fill="white"/>
<path d="M412.797 311.882C411.068 311.882 409.335 311.729 407.61 311.419C399.78 310.011 393.064 305.472 388.7 298.639C379.414 284.098 383.57 263.442 397.965 252.594C405.159 247.172 413.71 245.01 422.041 246.508C429.874 247.916 436.592 252.456 440.957 259.292C450.241 273.828 446.079 294.483 431.68 305.335C425.976 309.633 419.42 311.882 412.797 311.882ZM416.854 246.396C410.304 246.396 403.82 248.621 398.177 252.874C383.925 263.614 379.807 284.06 388.997 298.451C393.308 305.2 399.94 309.683 407.673 311.073C415.904 312.554 424.354 310.416 431.468 305.055C445.724 294.311 449.848 273.866 440.661 259.48C436.349 252.729 429.714 248.244 421.979 246.853C420.287 246.549 418.572 246.396 416.854 246.396Z" fill="#111111"/>
<path d="M398.152 315.392L402.501 317.368C413.889 322.545 427.898 321.212 439.368 312.568C456.672 299.528 461.654 274.797 450.502 257.334C446.744 251.449 441.634 247.139 435.847 244.509L431.499 242.533C437.285 245.163 442.395 249.473 446.154 255.358C457.305 272.82 452.323 297.551 435.02 310.592C423.55 319.236 409.541 320.568 398.152 315.392Z" fill="#A01E11"/>
<path d="M416.661 320.582C411.723 320.582 406.871 319.547 402.427 317.528L398.079 315.551C398.058 315.542 398.039 315.528 398.023 315.512C398.007 315.495 397.994 315.475 397.986 315.453C397.978 315.432 397.974 315.409 397.975 315.385C397.975 315.362 397.981 315.339 397.99 315.318C398 315.297 398.014 315.278 398.031 315.262C398.048 315.247 398.068 315.234 398.09 315.226C398.111 315.218 398.135 315.215 398.158 315.216C398.181 315.217 398.204 315.222 398.225 315.232C403.884 317.804 410.216 318.762 416.534 318C423.047 317.215 429.402 314.605 434.913 310.452C452.117 297.486 457.093 272.814 446.005 255.452C442.398 249.803 437.361 245.394 431.441 242.699L431.426 242.692C431.383 242.673 431.35 242.638 431.334 242.594C431.318 242.55 431.319 242.502 431.339 242.46C431.358 242.417 431.394 242.384 431.437 242.368C431.481 242.352 431.529 242.354 431.572 242.373L435.92 244.349C441.91 247.072 447.003 251.529 450.65 257.24C456.069 265.724 457.89 276.167 455.778 286.644C453.667 297.119 447.877 306.376 439.474 312.708C433.914 316.899 427.499 319.533 420.925 320.325C419.51 320.496 418.086 320.581 416.661 320.582ZM402.64 317.239C408.283 319.788 414.589 320.735 420.883 319.977C427.396 319.192 433.751 316.581 439.262 312.428C456.465 299.463 461.441 274.79 450.354 257.429C446.753 251.791 441.729 247.387 435.823 244.691C439.981 247.365 443.552 250.958 446.302 255.264C451.72 263.748 453.541 274.19 451.43 284.667C449.318 295.143 443.528 304.399 435.125 310.732C429.565 314.922 423.151 317.556 416.576 318.348C411.844 318.918 407.105 318.535 402.64 317.239Z" fill="#111111"/>
<path d="M446.154 255.358C457.306 272.82 452.324 297.551 435.02 310.592C417.725 323.626 394.656 320.035 383.504 302.573C372.347 285.103 377.329 260.372 394.624 247.337C411.928 234.296 434.997 237.887 446.154 255.358ZM431.574 305.195C445.929 294.377 450.06 273.871 440.809 259.386C431.558 244.901 412.426 241.915 398.071 252.734C383.724 263.546 379.598 284.06 388.849 298.545C398.1 313.03 417.227 316.007 431.574 305.195Z" fill="#F4B6B0"/>
<path d="M412.316 318.61C410.243 318.61 408.173 318.425 406.132 318.058C396.7 316.362 388.61 310.896 383.355 302.667C377.935 294.18 376.112 283.735 378.222 273.257C380.331 262.782 386.118 253.527 394.518 247.197C398.887 243.904 403.683 241.604 408.772 240.36C413.691 239.157 418.653 238.991 423.52 239.866C432.954 241.562 441.045 247.031 446.302 255.264C451.721 263.748 453.542 274.19 451.43 284.667C449.319 295.143 443.528 304.399 435.126 310.732C430.759 314.023 425.965 316.322 420.876 317.566C418.029 318.262 415.167 318.61 412.316 318.61ZM417.336 239.665C414.513 239.665 411.677 240.01 408.856 240.7C403.813 241.933 399.061 244.213 394.73 247.477C377.531 260.439 372.561 285.112 383.652 302.479C388.854 310.624 396.86 316.034 406.195 317.713C411.013 318.579 415.925 318.415 420.793 317.225C425.834 315.993 430.585 313.714 434.914 310.452C452.118 297.486 457.093 272.814 446.006 255.452C440.801 247.303 432.794 241.89 423.457 240.212C421.437 239.848 419.389 239.665 417.336 239.665ZM412.797 311.882C411.068 311.882 409.334 311.729 407.61 311.419C399.78 310.011 393.064 305.472 388.7 298.639C379.414 284.098 383.57 263.442 397.965 252.594C405.159 247.172 413.71 245.01 422.041 246.508C429.874 247.916 436.592 252.456 440.957 259.292C450.241 273.828 446.079 294.483 431.679 305.335C425.976 309.633 419.42 311.882 412.797 311.882ZM416.854 246.396C410.304 246.396 403.82 248.621 398.176 252.874C383.925 263.614 379.807 284.06 388.997 298.451C393.308 305.2 399.94 309.683 407.672 311.073C409.363 311.378 411.078 311.531 412.796 311.531C419.343 311.531 425.826 309.307 431.468 305.055C445.724 294.311 449.848 273.866 440.661 259.48C436.349 252.729 429.714 248.244 421.978 246.854C420.287 246.549 418.572 246.396 416.854 246.396Z" fill="#111111"/>
</g>
<defs>
<linearGradient id="paint0_linear_32_73" x1="1000" y1="563" x2="518.639" y2="-291.994" gradientUnits="userSpaceOnUse">
<stop stop-color="white"/>
<stop offset="1" stop-color="white" stop-opacity="0"/>
</linearGradient>
<clipPath id="clip0_32_73">
<rect width="269.914" height="332.467" fill="white" transform="translate(381.978 117.84)"/>
</clipPath>
<clipPath id="clip1_32_73">
<rect width="231.898" height="223.776" fill="white" transform="translate(399.085 164.669)"/>
</clipPath>
<clipPath id="clip2_32_73">
<rect width="114.221" height="123.552" fill="white" transform="translate(568.429 313.277)"/>
</clipPath>
<clipPath id="clip3_32_73">
<rect width="142.56" height="117.85" fill="white" transform="translate(314.067 239.318)"/>
</clipPath>
</defs>
</svg>
