<svg width="1000" height="563" viewBox="0 0 1000 563" fill="none" xmlns="http://www.w3.org/2000/svg">
<rect width="1000" height="563" fill="#FE943E"/>
<rect width="1000" height="563" fill="url(#paint0_linear_32_72)" fill-opacity="0.3"/>
<g clip-path="url(#clip0_32_72)">
<path d="M680.29 187.903L687.289 199.375C700.782 221.491 701.85 250.787 687.316 278.799C663.236 325.213 605.319 350.788 558.204 335.823C539.528 329.891 525.309 318.465 516.449 303.942L509.449 292.469C518.31 306.993 532.528 318.418 551.205 324.35C598.319 339.315 656.236 313.74 680.317 267.326C694.85 239.314 693.782 210.017 680.29 187.903Z" fill="#8E4600"/>
<path d="M586.465 340.271C576.836 340.272 567.294 338.892 558.152 335.988C540.012 330.226 525.54 319.176 516.301 304.032L509.302 292.559C509.289 292.54 509.281 292.518 509.277 292.496C509.273 292.473 509.274 292.45 509.279 292.427C509.284 292.405 509.294 292.384 509.307 292.365C509.32 292.346 509.338 292.33 509.357 292.318C509.377 292.306 509.399 292.298 509.421 292.295C509.444 292.292 509.468 292.293 509.49 292.298C509.512 292.304 509.533 292.314 509.551 292.328C509.57 292.342 509.585 292.36 509.597 292.38C518.792 307.451 533.197 318.45 551.257 324.186C560.364 327.078 569.882 328.453 579.474 328.454C619.427 328.457 660.777 304.613 680.163 267.247C694.072 240.439 694.064 210.812 680.142 187.993C680.13 187.973 680.122 187.952 680.118 187.929C680.115 187.907 680.116 187.884 680.121 187.861C680.126 187.839 680.136 187.818 680.149 187.8C680.163 187.781 680.179 187.766 680.199 187.754C680.218 187.742 680.24 187.734 680.263 187.731C680.285 187.727 680.308 187.728 680.33 187.734C680.352 187.739 680.373 187.749 680.392 187.762C680.41 187.776 680.425 187.793 680.437 187.813L687.437 199.286C694.202 210.374 697.849 223.372 697.985 236.874C698.054 243.758 697.221 250.773 695.508 257.723C693.745 264.879 691.04 271.996 687.469 278.879C668.027 316.354 626.541 340.268 586.465 340.271ZM513.243 298.356L516.596 303.852C525.791 318.924 540.197 329.923 558.257 335.659C567.363 338.551 576.881 339.926 586.473 339.927C626.426 339.93 667.777 316.086 687.163 278.72C701.071 251.912 701.063 222.285 687.142 199.466L683.751 193.908C688.389 203.544 690.874 214.303 690.985 225.401C691.055 232.285 690.221 239.3 688.509 246.25C686.745 253.406 684.041 260.524 680.47 267.406C661.027 304.881 619.541 328.795 579.465 328.798C569.836 328.798 560.294 327.419 551.152 324.515C535.414 319.516 522.437 310.537 513.243 298.356Z" fill="#111111"/>
<path d="M638.417 311.562C685.641 282.728 704.428 227.398 680.379 187.978C656.329 148.559 598.55 139.977 551.326 168.811C504.101 197.645 485.314 252.975 509.364 292.395C533.413 331.814 591.192 340.396 638.417 311.562Z" fill="white"/>
<path d="M579.465 328.798C569.836 328.798 560.295 327.419 551.153 324.515C529.21 317.545 512.579 302.713 504.322 282.752C499.991 272.278 498.169 260.975 498.908 249.156C499.674 236.922 503.16 224.747 509.272 212.967C533.386 166.488 591.398 140.869 638.589 155.858C660.53 162.827 677.161 177.659 685.417 197.621C689.749 208.096 691.571 219.399 690.832 231.218C690.067 243.452 686.581 255.627 680.47 267.406C661.027 304.881 619.541 328.798 579.465 328.798L579.465 328.798ZM610.268 151.919C570.315 151.919 528.964 175.76 509.578 213.126C497.494 236.419 495.741 261.098 504.642 282.62C512.858 302.486 529.413 317.247 551.257 324.186C560.364 327.078 569.882 328.453 579.474 328.454C619.427 328.457 660.777 304.613 680.163 267.247C692.247 243.956 694 219.276 685.098 197.753C676.881 177.887 660.327 163.125 638.484 156.187C629.378 153.295 619.86 151.919 610.268 151.919L610.268 151.919Z" fill="#111111"/>
<path d="M626.425 179.373C592.378 168.559 550.529 187.042 533.13 220.578C515.731 254.113 529.274 290.19 563.32 301.004C597.366 311.818 639.215 293.334 656.614 259.799C674.013 226.264 660.47 190.187 626.425 179.373" fill="#BC5C00"/>
<path d="M583.739 304.266C576.777 304.266 569.877 303.269 563.267 301.169C547.398 296.128 535.37 285.401 529.399 270.964C526.266 263.389 524.948 255.214 525.483 246.667C526.036 237.82 528.558 229.016 532.976 220.498C550.411 186.893 592.356 168.371 626.476 179.208C642.345 184.249 654.373 194.976 660.344 209.413C663.477 216.988 664.795 225.163 664.26 233.71C663.707 242.557 661.186 251.362 656.767 259.879C642.709 286.974 612.715 304.264 583.739 304.266ZM605.996 176.455C577.144 176.455 547.283 193.673 533.283 220.658C524.557 237.475 523.291 255.294 529.718 270.832C535.649 285.173 547.601 295.831 563.372 300.84C569.948 302.928 576.82 303.921 583.747 303.922C612.599 303.923 642.46 286.704 656.46 259.72C665.186 242.902 666.452 225.083 660.025 209.545C654.094 195.204 642.142 184.547 626.372 179.538C619.796 177.449 612.923 176.455 605.996 176.455Z" fill="#111111"/>
<path d="M614.311 202.721C593.333 196.058 567.554 207.444 556.834 228.107C546.116 248.763 554.455 270.993 575.433 277.656C596.405 284.317 622.193 272.927 632.911 252.27C643.631 231.607 635.283 209.382 614.311 202.721Z" fill="white"/>
<path d="M588.012 279.732C583.716 279.732 579.459 279.116 575.381 277.821C565.586 274.71 558.161 268.087 554.474 259.175C552.54 254.498 551.727 249.452 552.057 244.175C552.398 238.715 553.954 233.282 556.68 228.027C567.436 207.296 593.313 195.87 614.364 202.556C624.159 205.668 631.584 212.29 635.27 221.203C637.204 225.879 638.017 230.926 637.688 236.201C637.346 241.661 635.791 247.094 633.064 252.35C624.392 269.065 605.888 279.731 588.012 279.732ZM601.724 200.99C583.974 200.99 565.601 211.584 556.987 228.186C551.621 238.529 550.842 249.488 554.794 259.043C558.44 267.86 565.789 274.412 575.486 277.492C579.532 278.777 583.759 279.388 588.02 279.388C605.771 279.389 624.144 268.794 632.757 252.191C638.124 241.848 638.903 230.89 634.951 221.336C631.304 212.518 623.956 205.966 614.259 202.886C610.213 201.601 605.986 200.99 601.724 200.99Z" fill="#111111"/>
<path d="M602.2 226.063C594.278 223.547 584.586 227.832 580.537 235.636C576.492 243.433 579.624 251.792 587.546 254.308C595.462 256.822 605.161 252.539 609.206 244.742C613.254 236.938 610.116 228.577 602.2 226.063Z" fill="#BC5C00"/>
<path d="M592.284 255.197C590.655 255.197 589.041 254.964 587.494 254.473C583.765 253.288 580.94 250.772 579.54 247.387C578.026 243.726 578.325 239.524 580.384 235.556C584.462 227.696 594.272 223.364 602.253 225.898C605.98 227.082 608.804 229.598 610.204 232.983C611.719 236.647 611.419 240.851 609.36 244.821C606.073 251.155 599.061 255.197 592.284 255.197ZM597.457 225.518C590.806 225.518 583.92 229.491 580.691 235.715C578.68 239.591 578.384 243.689 579.859 247.255C581.22 250.544 583.968 252.99 587.599 254.143C589.114 254.625 590.697 254.853 592.293 254.853C598.942 254.854 605.826 250.884 609.053 244.662C611.065 240.784 611.361 236.683 609.885 233.115C608.525 229.826 605.777 227.38 602.148 226.227C600.634 225.746 599.052 225.518 597.457 225.518Z" fill="#111111"/>
</g>
<g clip-path="url(#clip1_32_72)">
<path d="M548.6 132.916C549.507 133.239 550.122 134.139 550.14 135.166L550.311 148.902L540.944 130.227L548.6 132.916L548.6 132.916Z" fill="#BC5C00"/>
<path d="M550.31 149.074C550.278 149.074 550.247 149.065 550.22 149.049C550.192 149.032 550.17 149.008 550.156 148.979L540.79 130.304C540.774 130.273 540.768 130.239 540.773 130.205C540.777 130.171 540.792 130.139 540.815 130.113C540.837 130.087 540.867 130.069 540.9 130.06C540.933 130.051 540.969 130.053 541.001 130.064L548.656 132.753H548.657C549.628 133.098 550.293 134.067 550.312 135.163L550.483 148.899C550.483 148.922 550.479 148.945 550.47 148.966C550.462 148.987 550.449 149.006 550.433 149.023C550.417 149.039 550.398 149.052 550.377 149.061C550.356 149.069 550.333 149.074 550.31 149.074L550.31 149.074ZM541.289 130.531L550.129 148.154L549.966 135.168C549.95 134.216 549.378 133.377 548.542 133.079L541.29 130.531H541.289Z" fill="#111111"/>
<path d="M537.234 142.728C536.442 142.155 536.08 141.107 536.325 140.109L538.417 131.708L547.784 150.383L537.234 142.728Z" fill="#BC5C00"/>
<path d="M547.784 150.555C547.748 150.555 547.713 150.544 547.683 150.522L537.133 142.868C536.288 142.257 535.896 141.132 536.157 140.068L538.25 131.666C538.258 131.632 538.277 131.601 538.304 131.578C538.33 131.555 538.363 131.54 538.398 131.537C538.433 131.533 538.468 131.54 538.499 131.556C538.53 131.573 538.555 131.599 538.571 131.63L547.938 150.305C547.951 150.331 547.957 150.361 547.956 150.39C547.955 150.42 547.946 150.448 547.931 150.473C547.915 150.498 547.893 150.519 547.868 150.533C547.842 150.548 547.813 150.555 547.784 150.555ZM538.472 132.202L536.492 140.151C536.264 141.079 536.603 142.059 537.335 142.588C538.068 143.118 547.312 149.827 547.312 149.827L538.472 132.202Z" fill="#111111"/>
<path d="M537.375 126.362C538.072 125.954 538.938 126.226 539.311 126.97L540.944 130.227L550.311 148.902L593.694 235.397L594.829 240.912L591.167 236.878L547.784 150.383L538.417 131.708L536.784 128.451C536.411 127.707 536.673 126.774 537.375 126.362Z" fill="#FFDBBD"/>
<path d="M594.829 241.085C594.805 241.085 594.781 241.08 594.759 241.07C594.737 241.06 594.717 241.046 594.701 241.028L591.039 236.994C591.028 236.983 591.019 236.97 591.013 236.956L536.629 128.528C536.217 127.706 536.513 126.668 537.288 126.213C537.659 125.996 538.087 125.942 538.492 126.063C538.914 126.187 539.259 126.482 539.465 126.893L593.848 235.32C593.855 235.334 593.86 235.348 593.863 235.363L594.998 240.877C595.003 240.903 595.002 240.928 594.996 240.953C594.99 240.978 594.978 241.001 594.962 241.021C594.946 241.041 594.926 241.057 594.903 241.068C594.879 241.079 594.854 241.085 594.829 241.085V241.085ZM591.31 236.779L594.532 240.329L593.529 235.454L539.157 127.047C538.994 126.723 538.723 126.491 538.394 126.394C538.081 126.301 537.75 126.342 537.462 126.512C536.841 126.876 536.606 127.711 536.938 128.373L591.31 236.78L591.31 236.779Z" fill="#111111"/>
</g>
<g clip-path="url(#clip2_32_72)">
<path d="M619.392 329.641L580.387 366.006L596.072 364.424L594.344 379.069L621.156 354.073L629.349 386.786L636.677 373.376L649.319 381.203L637.388 333.608L626.801 336.568L619.392 329.641Z" fill="#BC5C00"/>
<path d="M629.39 386.956C629.437 386.944 629.479 386.914 629.503 386.87L636.742 373.622L649.227 381.351C649.257 381.37 649.291 381.379 649.326 381.378C649.361 381.376 649.395 381.365 649.423 381.344C649.451 381.324 649.472 381.295 649.484 381.262C649.496 381.23 649.498 381.194 649.489 381.16L637.557 333.565C637.552 333.543 637.541 333.521 637.527 333.503C637.513 333.484 637.496 333.468 637.475 333.457C637.434 333.434 637.386 333.428 637.34 333.44L626.848 336.373L619.511 329.513C619.479 329.483 619.436 329.466 619.391 329.466C619.347 329.466 619.304 329.482 619.272 329.513L580.267 365.878C580.241 365.903 580.223 365.936 580.215 365.972C580.208 366.008 580.213 366.045 580.228 366.078C580.243 366.111 580.268 366.139 580.3 366.157C580.331 366.176 580.368 366.184 580.404 366.18L595.872 364.62L594.17 379.048C594.166 379.084 594.173 379.12 594.19 379.151C594.207 379.183 594.233 379.208 594.265 379.225C594.297 379.241 594.333 379.247 594.368 379.242C594.404 379.237 594.437 379.221 594.463 379.196L621.059 354.403L629.179 386.829C629.191 386.873 629.219 386.912 629.259 386.936C629.298 386.959 629.345 386.967 629.39 386.956ZM636.636 373.206L636.632 373.207C636.586 373.219 636.547 373.25 636.523 373.292L629.41 386.31L621.326 354.03C621.319 354.001 621.304 353.974 621.283 353.952C621.262 353.93 621.235 353.914 621.206 353.905C621.177 353.897 621.146 353.896 621.116 353.903C621.087 353.91 621.059 353.924 621.037 353.945L594.574 378.616L596.246 364.445C596.249 364.419 596.246 364.392 596.238 364.368C596.229 364.343 596.215 364.32 596.197 364.302C596.179 364.283 596.156 364.269 596.132 364.26C596.107 364.251 596.081 364.248 596.055 364.25L580.886 365.78L619.391 329.88L626.681 336.696C626.703 336.716 626.73 336.731 626.759 336.738C626.788 336.745 626.819 336.744 626.848 336.736L637.262 333.825L649.045 380.827L636.769 373.227C636.75 373.215 636.728 373.207 636.705 373.203C636.682 373.2 636.659 373.201 636.636 373.206Z" fill="#111111"/>
<path d="M601.766 346.44L603.333 349.862C606.366 356.483 612.543 361.602 620.738 363.337C635.297 366.42 650.719 357.672 655.188 343.795C657.14 337.733 656.679 331.696 654.327 326.563L652.759 323.142C655.111 328.275 655.572 334.312 653.62 340.373C649.152 354.25 633.729 362.999 619.171 359.916C610.976 358.181 604.799 353.061 601.766 346.44Z" fill="#8E4600"/>
<path d="M633.714 363.278C643.612 360.886 652.205 353.627 655.354 343.848C657.24 337.993 656.931 331.828 654.486 326.49L652.918 323.069C652.909 323.048 652.895 323.029 652.879 323.013C652.862 322.998 652.842 322.985 652.82 322.977C652.799 322.969 652.776 322.966 652.753 322.967C652.73 322.968 652.707 322.973 652.686 322.983C652.599 323.023 652.56 323.126 652.6 323.214L652.603 323.22C655.01 328.477 655.312 334.55 653.454 340.32C649.019 354.09 633.656 362.805 619.207 359.745C611.359 358.083 605.061 353.21 601.927 346.373L601.925 346.368C601.905 346.326 601.869 346.294 601.826 346.279C601.783 346.263 601.736 346.265 601.694 346.284C601.652 346.303 601.62 346.338 601.603 346.381C601.587 346.424 601.588 346.471 601.606 346.513L603.174 349.934C606.353 356.875 612.742 361.823 620.701 363.508C625.062 364.432 629.506 364.295 633.714 363.278ZM654.256 326.831C656.584 332.044 656.857 338.04 655.021 343.741C650.586 357.512 635.223 366.226 620.774 363.166C613.016 361.524 606.772 356.741 603.603 350.027C607.113 355.115 612.593 358.702 619.134 360.087C633.754 363.183 649.299 354.363 653.787 340.427C655.243 335.905 655.391 331.199 654.256 326.831Z" fill="#111111"/>
<path d="M635.352 309.668C620.804 306.588 605.372 315.334 600.904 329.211C596.435 343.088 604.622 356.836 619.171 359.916C633.729 362.999 649.151 354.251 653.62 340.373C658.089 326.497 649.911 312.751 635.352 309.668Z" fill="#FFDBBD"/>
<path d="M632.147 359.857C642.045 357.465 650.638 350.206 653.787 340.427C655.934 333.762 655.264 326.9 651.902 321.103C648.443 315.141 642.579 311.019 635.389 309.497C620.77 306.402 605.225 315.221 600.737 329.158C598.592 335.821 599.262 342.683 602.625 348.48C606.084 354.443 611.948 358.566 619.135 360.087C623.495 361.011 627.94 360.874 632.147 359.857ZM635.316 309.839C642.408 311.341 648.19 315.403 651.599 321.279C654.911 326.988 655.57 333.75 653.454 340.32C650.343 349.981 641.851 357.154 632.071 359.518C627.911 360.523 623.519 360.658 619.207 359.745C612.119 358.244 606.337 354.181 602.928 348.304C599.615 342.594 598.956 335.832 601.071 329.265C605.505 315.494 620.867 306.78 635.316 309.839Z" fill="#111111"/>
<path d="M634.17 313.334C646.604 315.967 653.59 327.709 649.773 339.561C645.956 351.413 632.783 358.887 620.348 356.254C607.914 353.621 600.929 341.879 604.745 330.027C608.562 318.175 621.736 310.701 634.17 313.334Z" fill="white"/>
<path d="M631.437 356.228C639.9 354.183 647.247 347.976 649.94 339.615C651.775 333.915 651.202 328.046 648.326 323.089C645.369 317.99 640.354 314.465 634.206 313.163C621.707 310.517 608.416 318.058 604.579 329.974C602.743 335.673 603.316 341.542 606.192 346.499C609.15 351.598 614.164 355.123 620.312 356.425C624.04 357.214 627.84 357.097 631.437 356.228ZM634.134 313.505C640.183 314.786 645.116 318.252 648.024 323.264C650.849 328.135 651.411 333.903 649.607 339.508C646.951 347.751 639.706 353.872 631.36 355.889C627.811 356.746 624.064 356.862 620.385 356.083C614.335 354.802 609.403 351.336 606.495 346.324C603.669 341.453 603.107 335.685 604.912 330.081C608.696 318.33 621.805 310.894 634.134 313.505Z" fill="#111111"/>
<path d="M631.121 322.802L632.673 331.558L641.396 334.763L632.804 339.508L631.573 348.518L624.718 342.683L615.221 345.055L619.58 336.708L614.946 329.162L624.497 329.827L631.121 322.802Z" fill="#FFDBBD"/>
<path d="M631.614 348.688C631.648 348.679 631.679 348.661 631.703 348.635C631.726 348.609 631.742 348.576 631.746 348.541L632.966 339.618L641.48 334.916C641.51 334.9 641.534 334.875 641.55 334.846C641.566 334.816 641.573 334.783 641.571 334.75C641.568 334.716 641.556 334.684 641.536 334.657C641.515 334.631 641.488 334.61 641.456 334.599L632.827 331.428L631.293 322.771C631.287 322.739 631.273 322.71 631.251 322.685C631.229 322.661 631.202 322.644 631.17 322.634C631.139 322.625 631.106 322.625 631.075 322.633C631.044 322.641 631.015 322.658 630.993 322.682L624.426 329.646L614.958 328.988C614.926 328.986 614.894 328.992 614.865 329.007C614.836 329.022 614.812 329.044 614.796 329.072C614.779 329.099 614.77 329.131 614.77 329.163C614.771 329.195 614.779 329.226 614.796 329.254L619.378 336.715L615.066 344.974C615.034 345.035 615.041 345.109 615.083 345.164C615.126 345.218 615.205 345.241 615.263 345.225L624.673 342.875L631.459 348.651C631.48 348.669 631.505 348.681 631.532 348.688C631.559 348.694 631.587 348.694 631.614 348.688ZM640.976 334.795L632.719 339.355C632.696 339.368 632.675 339.387 632.66 339.409C632.644 339.432 632.634 339.457 632.631 339.484L631.443 348.177L624.831 342.55C624.788 342.514 624.729 342.501 624.675 342.514L615.556 344.791L619.734 336.788C619.748 336.762 619.755 336.732 619.754 336.701C619.753 336.671 619.744 336.642 619.728 336.616L615.272 329.36L624.484 330.001C624.537 330.004 624.588 329.984 624.624 329.946L631.009 323.175L632.5 331.588C632.511 331.649 632.554 331.7 632.612 331.722L640.976 334.795Z" fill="#111111"/>
</g>
<g clip-path="url(#clip3_32_72)">
<path d="M417.908 429.829L415.669 436.911L303.287 250.683L305.526 243.601L417.908 429.829Z" fill="#BC5C00"/>
<path d="M415.668 437.167C415.564 437.167 415.467 437.116 415.417 437.033L303.034 250.804C302.999 250.745 302.991 250.677 303.011 250.613L305.25 243.531C305.281 243.431 305.378 243.358 305.494 243.346C305.608 243.335 305.722 243.387 305.778 243.479L418.159 429.708C418.195 429.767 418.203 429.835 418.183 429.899L415.944 436.981C415.912 437.081 415.816 437.154 415.7 437.166C415.689 437.167 415.679 437.167 415.668 437.167ZM303.594 250.652L415.585 436.233L417.6 429.86L305.609 244.279L303.594 250.652Z" fill="#111111"/>
<path d="M578.714 364.705L576.475 371.787L415.669 436.911L417.908 429.829L578.714 364.705Z" fill="#FFDBBD"/>
<path d="M415.668 437.167C415.601 437.167 415.535 437.146 415.482 437.105C415.397 437.04 415.362 436.937 415.393 436.842L417.632 429.76C417.655 429.687 417.712 429.627 417.789 429.596L578.595 364.471C578.696 364.431 578.816 364.446 578.901 364.511C578.985 364.576 579.02 364.678 578.989 364.774L576.75 371.856C576.728 371.929 576.67 371.989 576.593 372.02L415.787 437.144C415.749 437.16 415.709 437.167 415.668 437.167ZM418.147 430.014L416.112 436.45L576.235 371.602L578.27 365.166L418.147 430.014Z" fill="#111111"/>
<path d="M466.332 178.476L578.713 364.705L417.907 429.829L305.525 243.601L466.332 178.476Z" fill="white"/>
<path d="M417.908 430.086C417.805 430.086 417.707 430.037 417.656 429.951L305.274 243.722C305.236 243.66 305.229 243.586 305.254 243.519C305.28 243.452 305.335 243.397 305.408 243.368L466.214 178.243C466.351 178.188 466.513 178.236 466.584 178.354L578.966 364.583C579.004 364.646 579.011 364.719 578.985 364.787C578.96 364.854 578.904 364.909 578.832 364.938L418.026 430.063C417.988 430.078 417.948 430.086 417.908 430.086ZM305.924 243.721L418.033 429.497L578.316 364.585L466.207 178.808L305.924 243.721Z" fill="#111111"/>
<path d="M322.147 253.026C319.95 253.916 319.092 256.163 320.229 258.047C321.366 259.932 324.066 260.738 326.264 259.848C328.461 258.958 329.329 256.707 328.192 254.822C327.055 252.938 324.344 252.136 322.147 253.026Z" fill="#111111"/>
<path d="M324.379 260.464C322.597 260.464 320.85 259.615 319.977 258.169C319.391 257.199 319.279 256.107 319.661 255.094C320.047 254.072 320.888 253.255 322.029 252.793C324.361 251.848 327.239 252.704 328.444 254.701C329.028 255.669 329.139 256.759 328.756 257.772C328.369 258.798 327.526 259.618 326.382 260.082C325.741 260.341 325.057 260.464 324.379 260.464ZM322.265 253.259C321.271 253.662 320.539 254.372 320.204 255.258C319.874 256.134 319.972 257.082 320.481 257.926C321.546 259.691 324.087 260.449 326.146 259.615C327.143 259.211 327.878 258.498 328.213 257.608C328.544 256.732 328.447 255.786 327.939 254.944C326.875 253.18 324.329 252.424 322.265 253.259Z" fill="#111111"/>
<path d="M335.372 274.94C333.175 275.83 332.321 278.084 333.459 279.969C334.596 281.853 337.296 282.659 339.494 281.769C341.69 280.88 342.559 278.629 341.421 276.744C340.284 274.86 337.569 274.05 335.372 274.94Z" fill="#111111"/>
<path d="M337.609 282.386C335.827 282.386 334.079 281.537 333.206 280.091C332.619 279.118 332.507 278.023 332.891 277.007C333.277 275.984 334.116 275.167 335.254 274.706C337.586 273.762 340.466 274.621 341.673 276.622C342.258 277.59 342.368 278.68 341.986 279.693C341.599 280.719 340.756 281.539 339.612 282.003C338.97 282.263 338.287 282.386 337.609 282.386ZM335.49 275.173C334.498 275.575 333.768 276.284 333.434 277.17C333.101 278.05 333.2 279.001 333.71 279.848C334.775 281.612 337.317 282.37 339.375 281.536C340.373 281.132 341.107 280.42 341.443 279.53C341.773 278.653 341.676 277.707 341.169 276.866C340.101 275.097 337.554 274.337 335.49 275.173Z" fill="#111111"/>
<path d="M348.601 296.861C346.403 297.751 345.55 300.006 346.687 301.891C347.824 303.775 350.525 304.581 352.722 303.691C354.919 302.801 355.787 300.55 354.65 298.666C353.513 296.781 350.798 295.972 348.601 296.861Z" fill="#111111"/>
<path d="M350.837 304.307C349.055 304.307 347.308 303.459 346.435 302.012C345.848 301.039 345.736 299.944 346.119 298.928C346.505 297.906 347.344 297.089 348.482 296.628C350.814 295.683 353.695 296.543 354.902 298.544C355.486 299.511 355.597 300.602 355.215 301.615C354.827 302.64 353.984 303.461 352.84 303.924C352.199 304.184 351.515 304.307 350.837 304.307ZM350.497 296.755C349.894 296.755 349.288 296.864 348.719 297.095C347.727 297.496 346.997 298.206 346.662 299.092C346.33 299.972 346.429 300.923 346.939 301.769C348.004 303.534 350.545 304.292 352.604 303.457C353.601 303.054 354.335 302.341 354.671 301.451C355.002 300.575 354.905 299.629 354.397 298.787C353.624 297.506 352.076 296.755 350.497 296.755Z" fill="#111111"/>
<path d="M361.829 318.783C359.632 319.673 358.774 321.92 359.911 323.804C361.048 325.689 363.753 326.502 365.95 325.613C368.147 324.723 369.011 322.464 367.873 320.579C366.736 318.695 364.026 317.893 361.829 318.783Z" fill="#111111"/>
<path d="M364.069 326.228C362.285 326.228 360.534 325.377 359.658 323.926C359.073 322.956 358.961 321.864 359.343 320.851C359.729 319.829 360.57 319.012 361.711 318.55C364.043 317.606 366.921 318.461 368.126 320.458C368.711 321.428 368.822 322.522 368.439 323.538C368.052 324.564 367.21 325.384 366.069 325.846C365.429 326.105 364.746 326.228 364.069 326.228ZM363.728 318.676C363.125 318.676 362.518 318.785 361.947 319.016C360.953 319.419 360.221 320.129 359.886 321.015C359.555 321.892 359.653 322.839 360.163 323.683C361.23 325.451 363.773 326.214 365.832 325.379C366.827 324.976 367.56 324.264 367.895 323.374C368.228 322.494 368.13 321.545 367.621 320.701C366.851 319.424 365.306 318.676 363.728 318.676Z" fill="#111111"/>
<path d="M375.059 340.704C372.861 341.594 372.003 343.841 373.14 345.726C374.277 347.61 376.982 348.424 379.18 347.534C381.377 346.644 382.24 344.386 381.103 342.501C379.966 340.617 377.255 339.815 375.059 340.704Z" fill="#111111"/>
<path d="M377.299 348.15C375.515 348.15 373.763 347.298 372.888 345.847C372.302 344.877 372.19 343.785 372.573 342.773C372.958 341.751 373.799 340.933 374.94 340.471C377.273 339.527 380.15 340.383 381.355 342.38C381.94 343.349 382.052 344.444 381.668 345.46C381.281 346.486 380.439 347.305 379.298 347.768C378.658 348.027 377.976 348.15 377.299 348.15ZM376.958 340.597C376.355 340.597 375.748 340.707 375.177 340.938C374.182 341.341 373.45 342.051 373.116 342.936C372.785 343.813 372.883 344.761 373.392 345.604C374.46 347.373 377.003 348.135 379.062 347.301C380.056 346.898 380.789 346.186 381.125 345.296C381.457 344.416 381.36 343.466 380.85 342.623C380.08 341.346 378.535 340.597 376.958 340.597Z" fill="#111111"/>
<path d="M388.287 362.626C386.09 363.516 385.231 365.763 386.369 367.647C387.506 369.532 390.206 370.338 392.404 369.448C394.601 368.558 395.469 366.307 394.331 364.422C393.194 362.538 390.484 361.736 388.287 362.626Z" fill="#111111"/>
<path d="M390.519 370.064C388.737 370.064 386.989 369.216 386.116 367.769C385.531 366.799 385.419 365.707 385.801 364.694C386.187 363.672 387.028 362.855 388.169 362.393C390.502 361.448 393.379 362.305 394.584 364.301C395.167 365.268 395.279 366.359 394.896 367.372C394.509 368.398 393.666 369.218 392.522 369.682C391.881 369.941 391.197 370.064 390.519 370.064ZM388.405 362.859C387.411 363.262 386.679 363.972 386.344 364.858C386.013 365.735 386.111 366.682 386.621 367.526C387.686 369.291 390.227 370.049 392.286 369.215C393.283 368.811 394.017 368.098 394.353 367.208C394.684 366.332 394.587 365.386 394.079 364.544C393.014 362.78 390.469 362.023 388.405 362.859Z" fill="#111111"/>
<path d="M401.511 384.54C399.313 385.43 398.46 387.685 399.597 389.569C400.734 391.454 403.435 392.26 405.632 391.37C407.829 390.48 408.697 388.229 407.56 386.345C406.423 384.46 403.708 383.65 401.511 384.54Z" fill="#111111"/>
<path d="M403.748 391.986C401.966 391.986 400.219 391.137 399.346 389.691C398.759 388.718 398.647 387.622 399.03 386.606C399.416 385.584 400.255 384.767 401.393 384.306C403.725 383.362 406.605 384.221 407.813 386.223C408.397 387.19 408.508 388.281 408.126 389.293C407.739 390.319 406.895 391.139 405.751 391.603C405.11 391.863 404.426 391.986 403.748 391.986ZM403.408 384.434C402.806 384.434 402.2 384.543 401.63 384.773C400.638 385.175 399.908 385.884 399.574 386.77C399.241 387.65 399.34 388.601 399.85 389.448C400.915 391.212 403.456 391.97 405.515 391.136C406.513 390.732 407.247 390.02 407.583 389.13C407.913 388.253 407.816 387.307 407.309 386.466C406.535 385.185 404.987 384.434 403.408 384.434Z" fill="#111111"/>
<path d="M414.74 406.462C412.543 407.352 411.685 409.599 412.822 411.483C413.964 413.375 416.664 414.181 418.862 413.291C421.059 412.401 421.927 410.15 420.785 408.258C419.647 406.374 416.937 405.572 414.74 406.462Z" fill="#111111"/>
<path d="M416.98 413.907C415.196 413.907 413.445 413.055 412.569 411.605C411.984 410.634 411.872 409.542 412.254 408.53C412.64 407.508 413.481 406.69 414.622 406.228C416.955 405.284 419.832 406.14 421.037 408.137C421.623 409.109 421.735 410.203 421.352 411.217C420.966 412.242 420.123 413.062 418.98 413.525C418.339 413.784 417.657 413.907 416.98 413.907ZM416.639 406.354C416.036 406.354 415.429 406.464 414.858 406.695C413.864 407.098 413.132 407.808 412.797 408.693C412.466 409.57 412.565 410.517 413.074 411.361C414.142 413.13 416.685 413.892 418.743 413.058C419.74 412.654 420.474 411.942 420.809 411.053C421.141 410.175 421.042 409.225 420.532 408.38C419.762 407.103 418.216 406.354 416.639 406.354Z" fill="#111111"/>
<path d="M378.258 314.329C378.15 314.329 378.045 314.273 377.997 314.179C377.932 314.05 377.996 313.898 378.14 313.84L475.208 274.528C475.352 274.47 475.522 274.527 475.587 274.656C475.653 274.785 475.589 274.937 475.445 274.995L378.376 314.306C378.338 314.322 378.298 314.329 378.258 314.329Z" fill="#111111"/>
<path d="M388.352 331.056C388.243 331.056 388.139 331.001 388.091 330.906C388.026 330.777 388.09 330.625 388.234 330.567L416.353 319.179C416.497 319.121 416.666 319.178 416.732 319.307C416.797 319.436 416.733 319.587 416.589 319.646L388.47 331.034C388.432 331.049 388.392 331.056 388.352 331.056Z" fill="#111111"/>
<path d="M431.18 313.712C431.071 313.712 430.967 313.656 430.919 313.561C430.854 313.432 430.918 313.281 431.062 313.222L504.769 283.372C504.913 283.313 505.083 283.37 505.148 283.499C505.213 283.628 505.15 283.78 505.005 283.838L431.298 313.689C431.26 313.705 431.22 313.712 431.18 313.712Z" fill="#111111"/>
<path d="M398.452 347.792C398.343 347.792 398.239 347.736 398.191 347.642C398.125 347.513 398.189 347.361 398.333 347.302L462.325 321.387C462.469 321.328 462.639 321.385 462.704 321.514C462.77 321.643 462.706 321.795 462.561 321.853L398.57 347.769C398.531 347.785 398.491 347.792 398.452 347.792Z" fill="#111111"/>
<path d="M423.191 240.682C423.136 240.682 423.08 240.668 423.031 240.638C422.9 240.56 422.865 240.4 422.953 240.283L430.034 230.845C430.122 230.728 430.3 230.697 430.432 230.775C430.563 230.854 430.598 231.013 430.51 231.131L423.429 240.568C423.373 240.642 423.283 240.682 423.191 240.682Z" fill="#111111"/>
<path d="M430.368 235.42C430.212 235.42 430.085 235.308 430.081 235.169L429.993 231.346L426.07 232.564C425.921 232.611 425.757 232.54 425.706 232.407C425.653 232.273 425.732 232.127 425.882 232.081L430.177 230.746C430.264 230.719 430.36 230.731 430.435 230.778C430.51 230.825 430.556 230.901 430.558 230.983L430.654 235.159C430.657 235.3 430.532 235.417 430.373 235.42C430.372 235.42 430.369 235.42 430.368 235.42Z" fill="#111111"/>
<path d="M430.473 252.451C430.322 252.451 430.196 252.346 430.187 252.21C430.178 252.069 430.299 251.948 430.456 251.939L442.907 251.294C443.068 251.288 443.2 251.393 443.21 251.534C443.219 251.676 443.098 251.797 442.94 251.805L430.49 252.451C430.484 252.451 430.478 252.451 430.473 252.451Z" fill="#111111"/>
<path d="M439.256 254.548C439.174 254.548 439.092 254.516 439.035 254.456C438.934 254.347 438.95 254.186 439.071 254.095L442.449 251.571L438.506 249.182C438.375 249.102 438.34 248.943 438.429 248.826C438.518 248.709 438.696 248.678 438.827 248.758L443.085 251.337C443.16 251.382 443.206 251.456 443.211 251.536C443.215 251.616 443.177 251.694 443.108 251.745L439.439 254.488C439.386 254.528 439.32 254.548 439.256 254.548Z" fill="#111111"/>
<path d="M421.952 270.671C421.85 270.671 421.751 270.622 421.699 270.536L415.766 260.643C415.691 260.518 415.743 260.363 415.883 260.296C416.023 260.229 416.196 260.276 416.271 260.401L422.204 270.293C422.279 270.418 422.227 270.573 422.087 270.64C422.044 270.661 421.997 270.671 421.952 270.671Z" fill="#111111"/>
<path d="M421.952 270.671C421.912 270.671 421.872 270.663 421.834 270.648L416.756 268.614C416.612 268.557 416.547 268.405 416.612 268.276C416.677 268.147 416.847 268.089 416.991 268.147L421.773 270.063L423.279 265.711C423.325 265.576 423.486 265.5 423.637 265.542C423.788 265.584 423.873 265.727 423.826 265.862L422.225 270.49C422.201 270.561 422.144 270.618 422.07 270.648C422.032 270.663 421.992 270.671 421.952 270.671Z" fill="#111111"/>
<path d="M391.624 253.915C391.619 253.915 391.613 253.915 391.607 253.914L376.305 253.092C376.148 253.084 376.027 252.963 376.037 252.821C376.046 252.68 376.18 252.572 376.34 252.581L391.641 253.403C391.799 253.411 391.92 253.533 391.91 253.674C391.901 253.81 391.775 253.915 391.624 253.915Z" fill="#111111"/>
<path d="M381.157 256.907C381.09 256.907 381.022 256.886 380.968 256.843L376.132 253.029C376.06 252.972 376.024 252.886 376.038 252.8C376.052 252.715 376.113 252.641 376.2 252.605L382.028 250.171C382.172 250.112 382.342 250.167 382.409 250.295C382.476 250.423 382.414 250.576 382.271 250.636L376.839 252.904L381.347 256.459C381.466 256.552 381.477 256.714 381.372 256.821C381.316 256.878 381.237 256.907 381.157 256.907Z" fill="#111111"/>
<path d="M387.847 274.021C387.772 274.021 387.696 273.994 387.64 273.941C387.531 273.839 387.535 273.677 387.649 273.579L398.06 264.715C398.175 264.617 398.356 264.621 398.465 264.724C398.575 264.826 398.57 264.988 398.456 265.085L388.045 273.95C387.989 273.997 387.918 274.021 387.847 274.021Z" fill="#111111"/>
<path d="M387.847 274.021C387.772 274.021 387.698 273.994 387.644 273.945C387.576 273.884 387.547 273.796 387.567 273.712L388.902 268.027C388.934 267.888 389.086 267.799 389.241 267.829C389.396 267.858 389.495 267.994 389.463 268.132L388.217 273.437L394.262 272.35C394.416 272.321 394.569 272.412 394.6 272.55C394.631 272.689 394.531 272.824 394.376 272.852L387.904 274.016C387.885 274.019 387.866 274.021 387.847 274.021Z" fill="#111111"/>
<path d="M454.931 214.183L433.721 222.773C432.087 223.435 431.447 225.109 432.294 226.51C433.14 227.912 435.151 228.512 436.785 227.85L457.995 219.261C459.629 218.599 460.26 216.929 459.414 215.527C458.568 214.125 456.565 213.522 454.931 214.183Z" fill="#FFDBBD"/>
<path d="M435.383 228.374C434.031 228.374 432.704 227.73 432.041 226.632C431.596 225.894 431.511 225.063 431.802 224.292C432.096 223.513 432.735 222.891 433.603 222.54L454.812 213.95C456.573 213.236 458.751 213.89 459.666 215.406C460.113 216.146 460.198 216.979 459.907 217.75C459.615 218.525 458.977 219.144 458.113 219.495L436.903 228.084C436.416 228.281 435.898 228.374 435.383 228.374ZM456.331 214.172C455.897 214.172 455.46 214.25 455.049 214.417L433.839 223.006C433.118 223.298 432.587 223.813 432.345 224.455C432.105 225.091 432.177 225.777 432.546 226.389C433.321 227.673 435.169 228.224 436.667 227.617L457.877 219.028C458.595 218.737 459.123 218.225 459.364 217.586C459.604 216.951 459.532 216.263 459.162 215.649C458.6 214.718 457.476 214.172 456.331 214.172Z" fill="#111111"/>
<path d="M368.971 246.873L348.924 254.992C347.117 255.724 346.328 257.449 347.174 258.851C348.02 260.253 350.177 260.794 351.983 260.062L372.031 251.943C373.847 251.208 374.622 249.479 373.777 248.077C372.931 246.675 370.788 246.138 368.971 246.873Z" fill="#FFDBBD"/>
<path d="M350.301 260.643C348.894 260.643 347.562 260.034 346.922 258.973C346.507 258.286 346.435 257.495 346.717 256.746C347.04 255.89 347.801 255.166 348.806 254.759L368.853 246.64C370.795 245.854 373.117 246.444 374.029 247.956C374.446 248.647 374.519 249.442 374.235 250.194C373.913 251.048 373.153 251.771 372.15 252.177L352.102 260.296C351.52 260.531 350.903 260.643 350.301 260.643ZM368.971 246.873L369.09 247.107L349.042 255.226C348.182 255.574 347.533 256.188 347.261 256.909C347.029 257.523 347.088 258.169 347.426 258.729C348.201 260.013 350.193 260.507 351.865 259.829L371.913 251.71C372.772 251.362 373.42 250.749 373.692 250.03C373.925 249.413 373.865 248.763 373.525 248.199C372.753 246.919 370.764 246.429 369.09 247.106L368.971 246.873Z" fill="#111111"/>
<path d="M382.211 276.263L363.126 283.992C361.655 284.588 361.147 286.198 361.993 287.6C362.839 289.002 364.714 289.657 366.185 289.062L385.27 281.332C386.741 280.737 387.244 279.118 386.398 277.716C385.552 276.314 383.682 275.667 382.211 276.263Z" fill="#FFDBBD"/>
<path d="M365.032 289.536C363.741 289.536 362.424 288.855 361.74 287.722C361.272 286.946 361.17 286.06 361.46 285.29C361.721 284.601 362.27 284.057 363.007 283.759L382.092 276.03C383.693 275.382 385.738 276.083 386.65 277.595C387.119 278.373 387.221 279.263 386.93 280.036C386.67 280.725 386.122 281.268 385.387 281.566L366.302 289.295C365.899 289.458 365.467 289.536 365.032 289.536ZM382.328 276.496L363.244 284.225C362.653 284.465 362.212 284.901 362.003 285.454C361.764 286.089 361.852 286.827 362.244 287.478C363.019 288.762 364.734 289.369 366.066 288.828L385.151 281.099C385.739 280.861 386.178 280.425 386.387 279.872C386.628 279.233 386.54 278.492 386.145 277.838C385.373 276.558 383.661 275.956 382.328 276.496Z" fill="#111111"/>
<path d="M438.068 266.936L409.232 278.615C407.597 279.277 406.967 280.946 407.813 282.348C408.654 283.742 410.656 284.346 412.291 283.684L441.127 272.006C442.762 271.344 443.392 269.674 442.551 268.28C441.705 266.878 439.703 266.274 438.068 266.936Z" fill="#FFDBBD"/>
<path d="M410.894 284.207C409.545 284.207 408.222 283.565 407.561 282.47C407.115 281.73 407.029 280.897 407.32 280.126C407.612 279.351 408.249 278.732 409.114 278.381L437.95 266.703C439.712 265.99 441.889 266.642 442.804 268.158C443.248 268.894 443.333 269.723 443.042 270.493C442.75 271.268 442.112 271.889 441.246 272.239L412.41 283.917C411.924 284.114 411.407 284.207 410.894 284.207ZM438.187 267.17L409.35 278.848C408.632 279.139 408.104 279.651 407.863 280.29C407.623 280.925 407.695 281.613 408.066 282.227C408.838 283.506 410.681 284.055 412.173 283.451L441.01 271.772C441.729 271.481 442.258 270.969 442.499 270.329C442.738 269.695 442.667 269.011 442.3 268.402C441.525 267.118 439.68 266.565 438.187 267.17Z" fill="#111111"/>
<path d="M478.319 236.613L449.192 248.409C447.557 249.071 446.913 250.738 447.759 252.139C448.605 253.541 450.617 254.141 452.251 253.479L481.378 241.683C483.013 241.021 483.652 239.347 482.806 237.946C481.96 236.544 479.953 235.951 478.319 236.613Z" fill="#FFDBBD"/>
<path d="M450.848 254.003C449.496 254.003 448.169 253.359 447.507 252.261C447.063 251.525 446.978 250.697 447.268 249.93C447.562 249.151 448.203 248.529 449.073 248.176L478.2 236.38C479.967 235.664 482.146 236.312 483.058 237.824C483.503 238.562 483.588 239.393 483.297 240.164C483.003 240.943 482.363 241.565 481.496 241.916L452.369 253.712C451.882 253.909 451.363 254.003 450.848 254.003ZM478.437 236.847L449.31 248.643C448.586 248.936 448.053 249.451 447.811 250.093C447.573 250.725 447.644 251.409 448.011 252.017C448.786 253.301 450.634 253.852 452.132 253.245L481.259 241.449C481.981 241.157 482.511 240.643 482.754 240C482.993 239.365 482.922 238.678 482.553 238.067C481.782 236.788 479.935 236.24 478.437 236.847Z" fill="#111111"/>
<path d="M406.305 244.171C399.986 246.73 394.844 250.004 391.642 253.227C391.356 253.515 391.084 253.803 390.83 254.091C388.248 256.997 387.317 259.805 388.607 261.941C389.841 263.987 392.916 265.08 397.035 265.24C397.529 265.259 398.037 265.265 398.56 265.257C403.525 265.185 409.723 263.904 415.978 261.446C416.18 261.367 416.382 261.286 416.584 261.204C416.703 261.156 416.82 261.108 416.938 261.06C422.748 258.665 427.538 255.67 430.7 252.683C431.043 252.358 431.368 252.034 431.673 251.71C434.547 248.655 435.637 245.678 434.287 243.441C432.877 241.106 429.078 240.01 424.066 240.124C423.627 240.134 423.178 240.153 422.721 240.182C417.889 240.484 412.106 241.821 406.305 244.171Z" fill="white"/>
<path d="M398.104 265.516C397.735 265.516 397.372 265.509 397.022 265.496C392.604 265.324 389.606 264.137 388.354 262.063C387.057 259.914 387.857 257.026 390.605 253.931C390.859 253.645 391.136 253.35 391.428 253.057C394.796 249.666 400.038 246.427 406.186 243.937C411.795 241.666 417.66 240.241 422.7 239.926C423.163 239.897 423.62 239.877 424.059 239.868C429.403 239.747 433.122 240.972 434.539 243.32C435.9 245.575 434.96 248.614 431.892 251.875C431.587 252.198 431.256 252.53 430.907 252.859C427.607 255.977 422.688 258.972 417.058 261.293L416.702 261.438C416.499 261.52 416.296 261.601 416.093 261.681C409.997 264.076 403.772 265.437 398.565 265.513C398.41 265.515 398.257 265.516 398.104 265.516ZM424.782 240.372C424.549 240.372 424.313 240.375 424.073 240.38C423.643 240.39 423.195 240.409 422.74 240.437C417.766 240.748 411.971 242.157 406.423 244.404C400.345 246.865 395.172 250.059 391.856 253.397C391.571 253.684 391.301 253.971 391.054 254.25C388.457 257.174 387.677 259.862 388.858 261.82C389.993 263.7 392.901 264.823 397.047 264.984C397.53 265.003 398.037 265.009 398.555 265.001C403.688 264.926 409.834 263.581 415.862 261.212C416.063 261.133 416.264 261.053 416.465 260.971L416.818 260.827C422.383 258.534 427.239 255.579 430.49 252.507C430.832 252.185 431.155 251.862 431.452 251.546C434.359 248.456 435.276 245.621 434.034 243.563C432.787 241.496 429.514 240.372 424.782 240.372Z" fill="#111111"/>
<path d="M311.03 263.526C310.342 263.701 309.719 263.822 309.173 263.888C308.179 264.008 307.44 263.945 307.029 263.691C306.914 263.619 306.827 263.535 306.769 263.438L308.854 266.894C308.913 266.991 308.999 267.076 309.115 267.147C309.526 267.401 310.265 267.465 311.259 267.344C311.811 267.278 312.442 267.154 313.139 266.976L311.03 263.526Z" fill="#BC5C00"/>
<path d="M310.374 267.659C309.753 267.659 309.277 267.559 308.952 267.358C308.801 267.265 308.683 267.15 308.602 267.016L306.517 263.56C306.442 263.435 306.494 263.28 306.633 263.213C306.773 263.145 306.946 263.192 307.021 263.316C307.059 263.379 307.115 263.432 307.192 263.48C307.532 263.69 308.222 263.746 309.135 263.635C309.669 263.57 310.28 263.451 310.952 263.28C311.081 263.247 311.218 263.298 311.282 263.403L313.391 266.854C313.433 266.922 313.437 267.003 313.404 267.075C313.37 267.147 313.302 267.201 313.218 267.222C312.511 267.404 311.865 267.53 311.298 267.599C310.961 267.639 310.653 267.659 310.374 267.659ZM307.517 264.138L309.107 266.773C309.145 266.835 309.201 266.888 309.278 266.936C309.618 267.146 310.308 267.202 311.221 267.091C311.668 267.037 312.169 266.945 312.714 266.815L310.888 263.828C310.276 263.976 309.713 264.082 309.212 264.142C308.527 264.225 307.96 264.224 307.517 264.138Z" fill="#111111"/>
<path d="M326.462 253.487C325.651 252.978 323.765 253.089 321.171 253.793C319.857 254.149 318.441 254.634 316.994 255.22C315.576 255.794 314.128 256.466 312.716 257.206C307.311 260.044 303.979 263.112 304.761 264.407L306.846 267.863C306.065 266.568 309.397 263.5 314.802 260.663C316.214 259.922 317.662 259.251 319.08 258.676C320.527 258.09 321.943 257.605 323.257 257.25C325.851 256.546 327.736 256.434 328.547 256.944L326.462 253.487Z" fill="#FFDBBD"/>
<path d="M306.847 268.12C306.745 268.12 306.646 268.071 306.594 267.985L304.508 264.529C303.778 263.318 305.989 260.441 312.571 256.986C313.986 256.243 315.435 255.571 316.876 254.987C318.352 254.389 319.77 253.905 321.088 253.548C322.989 253.032 325.493 252.566 326.627 253.278C326.663 253.301 326.693 253.331 326.714 253.366L328.8 256.822C328.863 256.927 328.837 257.056 328.738 257.135C328.639 257.215 328.492 257.222 328.383 257.153C327.657 256.698 325.819 256.822 323.34 257.495C322.045 257.845 320.651 258.322 319.198 258.91C317.774 259.487 316.344 260.151 314.947 260.884C309.324 263.835 306.495 266.742 307.099 267.742C307.174 267.866 307.122 268.022 306.982 268.089C306.939 268.11 306.893 268.12 306.847 268.12ZM324.936 253.426C324.011 253.426 322.749 253.633 321.255 254.038C319.96 254.388 318.567 254.865 317.113 255.453C315.69 256.03 314.26 256.694 312.862 257.427C307.239 260.379 304.41 263.285 305.013 264.285L306.58 266.882C307.13 265.403 309.607 263.092 314.657 260.441C316.071 259.699 317.519 259.027 318.962 258.442C320.438 257.845 321.855 257.361 323.174 257.004C324.71 256.587 326.64 256.202 327.922 256.446L326.244 253.665C325.953 253.506 325.509 253.426 324.936 253.426Z" fill="#111111"/>
<path d="M319.08 258.676C320.527 258.09 321.943 257.605 323.257 257.249C325.851 256.545 327.736 256.434 328.548 256.943L326.596 257.967C325.927 257.555 324.399 257.638 322.271 258.217C321.197 258.508 320.039 258.904 318.856 259.384C317.696 259.854 316.511 260.403 315.356 261.009C310.531 263.543 307.732 266.294 309.115 267.147C309.754 267.543 311.187 267.475 313.139 266.976L313.497 267.603C310.239 268.673 308.013 268.691 307.163 268.171C305.477 267.127 308.906 263.758 314.802 260.662C316.214 259.921 317.662 259.25 319.08 258.676Z" fill="#111111"/>
<path d="M308.84 268.759C308.046 268.759 307.415 268.635 307.002 268.382C306.622 268.147 306.431 267.802 306.448 267.384C306.515 265.774 309.814 262.984 314.657 260.442C316.072 259.7 317.52 259.027 318.962 258.443C320.44 257.844 321.857 257.36 323.175 257.004C325.076 256.488 327.58 256.022 328.713 256.734C328.793 256.784 328.839 256.867 328.835 256.954C328.831 257.041 328.777 257.12 328.693 257.164L326.741 258.188C326.645 258.238 326.525 258.234 326.434 258.178C325.843 257.814 324.357 257.918 322.355 258.462C321.298 258.748 320.161 259.137 318.975 259.617C317.81 260.089 316.641 260.632 315.502 261.23C311.317 263.428 309.089 265.554 309.05 266.519C309.042 266.703 309.115 266.835 309.279 266.936C309.832 267.278 311.21 267.203 313.06 266.73C313.192 266.695 313.332 266.75 313.395 266.859L313.753 267.486C313.79 267.551 313.795 267.627 313.765 267.696C313.735 267.764 313.674 267.818 313.597 267.843C311.757 268.448 310.096 268.759 308.84 268.759ZM319.199 258.909C317.775 259.486 316.345 260.15 314.948 260.883C311.059 262.925 307.087 265.82 307.021 267.403C307.011 267.648 307.108 267.825 307.327 267.96C308.042 268.397 310.092 268.403 313.094 267.46L312.991 267.279C311.576 267.624 309.809 267.888 308.952 267.358C308.627 267.157 308.462 266.861 308.476 266.501C308.53 265.172 311.237 262.876 315.212 260.788C316.368 260.181 317.555 259.63 318.738 259.15C319.947 258.661 321.108 258.264 322.188 257.972C323.662 257.571 325.585 257.208 326.596 257.669L327.926 256.972C327.023 256.754 325.404 256.934 323.341 257.494C322.047 257.844 320.654 258.32 319.199 258.909Z" fill="#111111"/>
<path d="M324.211 285.368C323.523 285.543 322.9 285.664 322.354 285.73C321.36 285.85 320.621 285.787 320.21 285.533C320.094 285.461 320.008 285.377 319.949 285.28L322.035 288.736C322.093 288.833 322.18 288.918 322.296 288.989C322.707 289.243 323.446 289.307 324.439 289.186C324.991 289.12 325.622 288.996 326.319 288.818L324.211 285.368Z" fill="#BC5C00"/>
<path d="M323.555 289.501C322.934 289.501 322.457 289.4 322.133 289.2C321.981 289.106 321.864 288.991 321.783 288.858L319.698 285.403C319.698 285.402 319.698 285.402 319.697 285.401C319.622 285.277 319.675 285.121 319.814 285.054C319.953 284.987 320.127 285.034 320.202 285.158C320.239 285.22 320.295 285.274 320.373 285.322C320.712 285.532 321.402 285.587 322.316 285.476C322.852 285.412 323.463 285.292 324.132 285.121C324.261 285.089 324.398 285.14 324.463 285.245L326.571 288.695C326.613 288.764 326.617 288.845 326.584 288.917C326.55 288.989 326.482 289.043 326.398 289.064C325.693 289.245 325.047 289.371 324.478 289.44C324.142 289.481 323.834 289.501 323.555 289.501ZM320.698 285.98L322.287 288.614C322.325 288.676 322.381 288.73 322.459 288.778C322.798 288.988 323.488 289.043 324.401 288.933C324.849 288.879 325.35 288.786 325.894 288.657L324.068 285.669C323.458 285.818 322.895 285.923 322.392 285.984C321.708 286.067 321.141 286.065 320.698 285.98Z" fill="#111111"/>
<path d="M339.643 275.329C338.831 274.82 336.946 274.931 334.352 275.635C333.037 275.99 331.622 276.476 330.175 277.062C328.757 277.636 327.309 278.307 325.897 279.048C320.492 281.886 317.16 284.954 317.941 286.249L320.027 289.705C319.245 288.41 322.577 285.342 327.982 282.504C329.394 281.763 330.843 281.092 332.261 280.518C333.708 279.932 335.123 279.447 336.437 279.091C339.032 278.387 340.917 278.276 341.728 278.785L339.643 275.329Z" fill="#FFDBBD"/>
<path d="M320.028 289.961C319.925 289.961 319.827 289.912 319.775 289.826L317.689 286.37C316.959 285.16 319.17 282.283 325.752 278.827C327.167 278.084 328.616 277.412 330.057 276.828C331.534 276.23 332.951 275.746 334.269 275.39C336.17 274.874 338.674 274.408 339.807 275.119C339.844 275.142 339.873 275.172 339.895 275.207L341.981 278.664C342.044 278.768 342.018 278.898 341.919 278.977C341.819 279.056 341.672 279.063 341.564 278.995C340.837 278.539 338.999 278.664 336.521 279.336C335.227 279.686 333.834 280.163 332.379 280.751C330.956 281.327 329.526 281.991 328.128 282.725C322.505 285.677 319.676 288.583 320.279 289.583C320.354 289.708 320.302 289.863 320.163 289.93C320.12 289.951 320.073 289.961 320.028 289.961ZM338.117 275.268C337.191 275.268 335.93 275.475 334.435 275.88C333.141 276.23 331.748 276.706 330.293 277.295C328.871 277.871 327.44 278.535 326.042 279.269C320.419 282.221 317.59 285.127 318.194 286.127L319.761 288.724C320.31 287.245 322.787 284.934 327.837 282.283C329.253 281.54 330.702 280.868 332.142 280.284C333.619 279.686 335.037 279.202 336.354 278.846C337.89 278.429 339.82 278.044 341.102 278.288L339.425 275.507C339.134 275.347 338.69 275.268 338.117 275.268Z" fill="#111111"/>
<path d="M332.261 280.518C333.708 279.932 335.123 279.447 336.438 279.091C339.032 278.387 340.917 278.276 341.729 278.785L339.776 279.809C339.108 279.397 337.579 279.48 335.452 280.059C334.378 280.35 333.22 280.746 332.037 281.226C330.876 281.696 329.691 282.245 328.537 282.851C323.712 285.385 320.913 288.137 322.296 288.989C322.935 289.385 324.368 289.318 326.319 288.818L326.678 289.445C323.42 290.515 321.194 290.533 320.344 290.013C318.658 288.969 322.086 285.6 327.982 282.504C329.395 281.763 330.843 281.092 332.261 280.518Z" fill="#111111"/>
<path d="M322.019 290.601C321.226 290.601 320.595 290.477 320.181 290.224C319.802 289.989 319.611 289.644 319.628 289.226C319.695 287.616 322.994 284.826 327.837 282.283C329.253 281.54 330.701 280.868 332.142 280.284C333.619 279.686 335.036 279.202 336.354 278.846C338.256 278.33 340.76 277.864 341.893 278.575C341.972 278.625 342.018 278.709 342.014 278.795C342.01 278.882 341.957 278.962 341.873 279.006L339.92 280.029C339.824 280.08 339.704 280.076 339.613 280.019C339.023 279.656 337.536 279.759 335.534 280.304C334.477 280.59 333.34 280.978 332.154 281.459C330.989 281.931 329.821 282.473 328.681 283.072C324.497 285.269 322.268 287.396 322.229 288.361C322.221 288.544 322.294 288.677 322.458 288.777C323.011 289.12 324.389 289.045 326.239 288.571C326.371 288.537 326.511 288.592 326.574 288.701L326.932 289.327C326.97 289.393 326.974 289.469 326.944 289.537C326.914 289.606 326.853 289.659 326.776 289.684C324.938 290.289 323.276 290.601 322.019 290.601ZM340.202 278.724C339.277 278.724 338.015 278.931 336.521 279.336C335.226 279.686 333.833 280.163 332.379 280.751C330.956 281.327 329.526 281.991 328.128 282.725C324.239 284.767 320.267 287.662 320.201 289.245C320.191 289.49 320.288 289.667 320.506 289.802C321.222 290.239 323.272 290.245 326.274 289.302L326.171 289.121C324.756 289.466 322.989 289.73 322.132 289.2C321.806 288.999 321.642 288.703 321.656 288.343C321.71 287.014 324.417 284.718 328.392 282.63C329.548 282.023 330.735 281.472 331.918 280.992C333.127 280.503 334.288 280.106 335.369 279.814C336.843 279.413 338.765 279.05 339.777 279.511L341.107 278.814C340.857 278.754 340.554 278.724 340.202 278.724Z" fill="#111111"/>
<path d="M337.432 307.277C336.745 307.452 336.121 307.573 335.576 307.639C334.582 307.759 333.842 307.696 333.432 307.442C333.316 307.37 333.229 307.286 333.171 307.189L335.257 310.645C335.315 310.742 335.402 310.826 335.517 310.898C335.928 311.152 336.667 311.215 337.661 311.095C338.213 311.029 338.844 310.905 339.541 310.727L337.432 307.277Z" fill="#BC5C00"/>
<path d="M336.776 311.41C336.154 311.41 335.678 311.309 335.354 311.109C335.202 311.015 335.085 310.9 335.004 310.767L332.918 307.31C332.843 307.186 332.895 307.03 333.034 306.964C333.174 306.896 333.347 306.943 333.423 307.067C333.46 307.129 333.516 307.183 333.594 307.231C333.933 307.441 334.623 307.496 335.537 307.385C336.071 307.321 336.682 307.202 337.354 307.03C337.482 306.998 337.619 307.049 337.684 307.154L339.792 310.604C339.834 310.673 339.838 310.754 339.805 310.826C339.771 310.897 339.703 310.952 339.62 310.973C338.914 311.154 338.268 311.28 337.699 311.349C337.363 311.39 337.055 311.41 336.776 311.41ZM333.918 307.889L335.508 310.523C335.546 310.585 335.602 310.639 335.68 310.687C336.019 310.897 336.708 310.952 337.622 310.842C338.07 310.787 338.571 310.695 339.115 310.566L337.289 307.578C336.677 307.727 336.114 307.833 335.613 307.893C334.928 307.976 334.361 307.974 333.918 307.889Z" fill="#111111"/>
<path d="M352.864 297.238C352.053 296.729 350.168 296.84 347.573 297.544C346.259 297.9 344.844 298.385 343.397 298.971C341.979 299.545 340.53 300.216 339.118 300.957C333.713 303.795 330.381 306.863 331.163 308.158L333.249 311.614C332.467 310.319 335.799 307.251 341.204 304.413C342.616 303.673 344.064 303.001 345.482 302.427C346.929 301.841 348.345 301.356 349.659 301C352.253 300.297 354.138 300.185 354.95 300.694L352.864 297.238Z" fill="#FFDBBD"/>
<path d="M333.249 311.87C333.147 311.87 333.049 311.821 332.997 311.736L330.911 308.28C330.18 307.069 332.392 304.192 338.973 300.736C340.389 299.994 341.838 299.321 343.278 298.738C344.755 298.14 346.172 297.655 347.49 297.299C349.392 296.783 351.896 296.318 353.029 297.029C353.065 297.051 353.095 297.082 353.116 297.117L355.202 300.573C355.265 300.677 355.239 300.807 355.14 300.886C355.041 300.966 354.894 300.973 354.785 300.904C354.059 300.449 352.221 300.573 349.742 301.245C348.446 301.596 347.053 302.072 345.601 302.66C344.177 303.237 342.747 303.901 341.349 304.634C335.726 307.586 332.898 310.492 333.501 311.493C333.576 311.617 333.524 311.773 333.385 311.839C333.342 311.86 333.295 311.87 333.249 311.87ZM351.339 297.177C350.413 297.177 349.152 297.383 347.657 297.789C346.362 298.139 344.969 298.616 343.515 299.204C342.093 299.78 340.662 300.444 339.264 301.178C333.641 304.13 330.812 307.036 331.415 308.036L332.983 310.633C333.532 309.154 336.009 306.843 341.059 304.192C342.474 303.449 343.923 302.777 345.364 302.193C346.839 301.596 348.256 301.112 349.576 300.754C351.112 300.338 353.043 299.954 354.324 300.197L352.646 297.416C352.356 297.256 351.912 297.177 351.339 297.177Z" fill="#111111"/>
<path d="M345.483 302.427C346.93 301.841 348.345 301.356 349.659 301C352.254 300.296 354.139 300.185 354.95 300.694L352.998 301.718C352.33 301.306 350.801 301.389 348.673 301.968C347.6 302.259 346.442 302.655 345.258 303.135C344.098 303.605 342.913 304.154 341.758 304.76C336.933 307.294 334.134 310.045 335.517 310.898C336.156 311.294 337.589 311.226 339.541 310.727L339.9 311.354C336.642 312.424 334.415 312.442 333.565 311.921C331.879 310.878 335.308 307.508 341.204 304.413C342.616 303.672 344.064 303.001 345.483 302.427Z" fill="#111111"/>
<path d="M335.241 312.51C334.448 312.51 333.816 312.386 333.403 312.133C333.023 311.898 332.833 311.553 332.85 311.135C332.917 309.525 336.216 306.735 341.059 304.192C342.474 303.45 343.922 302.777 345.364 302.193C346.839 301.596 348.256 301.112 349.576 300.755C351.477 300.239 353.982 299.773 355.114 300.484C355.194 300.534 355.24 300.618 355.236 300.704C355.232 300.792 355.178 300.871 355.094 300.915L353.142 301.939C353.046 301.988 352.926 301.985 352.834 301.929C352.244 301.565 350.758 301.668 348.756 302.213C347.699 302.499 346.562 302.887 345.376 303.368C344.212 303.839 343.044 304.382 341.903 304.981C337.718 307.178 335.49 309.305 335.45 310.27C335.443 310.453 335.516 310.586 335.679 310.687C336.232 311.029 337.611 310.954 339.461 310.48C339.592 310.446 339.733 310.501 339.795 310.61L340.154 311.237C340.191 311.302 340.196 311.378 340.166 311.446C340.136 311.515 340.075 311.568 339.998 311.594C338.159 312.198 336.498 312.51 335.241 312.51ZM353.424 300.634C352.498 300.634 351.237 300.84 349.742 301.245C348.446 301.596 347.053 302.072 345.6 302.66C344.177 303.237 342.747 303.901 341.349 304.634C337.46 306.676 333.489 309.571 333.423 311.154C333.412 311.399 333.509 311.576 333.728 311.711C334.443 312.148 336.494 312.154 339.496 311.211L339.392 311.03C337.977 311.375 336.211 311.639 335.354 311.109C335.028 310.908 334.863 310.612 334.878 310.252C334.932 308.923 337.638 306.627 341.613 304.54C342.771 303.931 343.958 303.38 345.14 302.901C346.348 302.412 347.509 302.015 348.59 301.723C350.064 301.322 351.986 300.959 352.998 301.421L354.328 300.723C354.079 300.663 353.776 300.634 353.424 300.634Z" fill="#111111"/>
<path d="M350.731 329.314C350.043 329.489 349.42 329.611 348.874 329.677C347.88 329.797 347.141 329.734 346.731 329.479C346.615 329.408 346.528 329.323 346.47 329.226L348.555 332.682C348.614 332.779 348.7 332.864 348.816 332.935C349.227 333.19 349.966 333.253 350.96 333.133C351.512 333.066 352.143 332.943 352.84 332.764L350.731 329.314Z" fill="#BC5C00"/>
<path d="M350.076 333.448C349.454 333.448 348.977 333.347 348.653 333.146C348.502 333.053 348.384 332.938 348.304 332.804L346.218 329.348C346.143 329.223 346.195 329.068 346.334 329.001C346.474 328.933 346.647 328.98 346.723 329.105C346.76 329.167 346.816 329.22 346.893 329.268C347.233 329.479 347.922 329.533 348.836 329.423C349.371 329.359 349.982 329.239 350.653 329.068C350.782 329.035 350.919 329.086 350.983 329.191L353.092 332.642C353.133 332.71 353.138 332.792 353.104 332.863C353.071 332.935 353.003 332.989 352.919 333.011C352.212 333.192 351.566 333.318 350.999 333.387C350.662 333.427 350.354 333.448 350.076 333.448ZM347.218 329.926L348.808 332.561C348.846 332.623 348.902 332.677 348.979 332.724C349.318 332.935 350.008 332.989 350.922 332.879C351.369 332.825 351.87 332.733 352.415 332.604L350.589 329.616C349.977 329.764 349.414 329.87 348.913 329.931C348.228 330.013 347.661 330.012 347.218 329.926Z" fill="#111111"/>
<path d="M366.163 319.276C365.352 318.766 363.467 318.877 360.872 319.581C359.558 319.937 358.143 320.422 356.696 321.008C355.277 321.583 353.829 322.254 352.417 322.995C347.012 325.832 343.68 328.901 344.462 330.196L346.547 333.652C345.766 332.357 349.098 329.288 354.503 326.451C355.915 325.71 357.363 325.039 358.781 324.465C360.228 323.879 361.644 323.394 362.958 323.038C365.552 322.334 367.437 322.223 368.249 322.732L366.163 319.276Z" fill="#FFDBBD"/>
<path d="M346.548 333.908C346.446 333.908 346.347 333.859 346.296 333.773L344.21 330.317C343.479 329.106 345.69 326.229 352.272 322.774C353.688 322.031 355.136 321.359 356.577 320.775C358.052 320.178 359.469 319.693 360.789 319.336C362.691 318.82 365.195 318.355 366.328 319.066C366.364 319.089 366.394 319.119 366.415 319.154L368.501 322.61C368.564 322.715 368.538 322.844 368.439 322.923C368.34 323.003 368.193 323.01 368.084 322.942C367.358 322.486 365.52 322.61 363.041 323.283C361.746 323.633 360.352 324.109 358.9 324.698C357.476 325.274 356.045 325.939 354.648 326.672C349.025 329.623 346.196 332.53 346.8 333.53C346.875 333.654 346.823 333.81 346.684 333.877C346.641 333.898 346.594 333.908 346.548 333.908ZM364.637 319.215C363.712 319.215 362.451 319.421 360.956 319.827C359.66 320.177 358.266 320.654 356.814 321.242C355.391 321.818 353.961 322.482 352.563 323.215C346.94 326.167 344.111 329.074 344.714 330.074L346.281 332.671C346.831 331.192 349.308 328.881 354.358 326.23C355.772 325.488 357.221 324.815 358.663 324.231C360.139 323.633 361.556 323.149 362.875 322.792C364.411 322.375 366.341 321.991 367.623 322.234L365.945 319.454C365.655 319.294 365.211 319.215 364.637 319.215Z" fill="#111111"/>
<path d="M358.781 324.465C360.228 323.878 361.644 323.393 362.958 323.038C365.552 322.334 367.437 322.222 368.249 322.732L366.297 323.755C365.628 323.344 364.1 323.427 361.972 324.006C360.899 324.296 359.741 324.693 358.557 325.172C357.397 325.642 356.212 326.192 355.057 326.798C350.232 329.332 347.433 332.083 348.816 332.935C349.455 333.331 350.888 333.264 352.84 332.765L353.199 333.392C349.941 334.462 347.714 334.479 346.864 333.959C345.178 332.916 348.607 329.546 354.503 326.451C355.915 325.71 357.363 325.039 358.781 324.465Z" fill="#111111"/>
<path d="M348.54 334.547C347.747 334.547 347.115 334.423 346.702 334.17C346.322 333.935 346.131 333.591 346.149 333.172C346.216 331.562 349.514 328.772 354.357 326.23C355.773 325.487 357.221 324.815 358.663 324.231C360.137 323.633 361.555 323.149 362.875 322.792C364.776 322.276 367.281 321.811 368.413 322.522C368.493 322.572 368.539 322.655 368.535 322.742C368.531 322.829 368.477 322.908 368.393 322.952L366.441 323.976C366.345 324.026 366.225 324.022 366.133 323.966C365.543 323.602 364.057 323.706 362.055 324.25C360.998 324.536 359.861 324.925 358.675 325.405C357.512 325.876 356.344 326.418 355.202 327.018C351.017 329.216 348.788 331.343 348.749 332.308C348.741 332.491 348.814 332.623 348.978 332.724C349.531 333.067 350.909 332.991 352.76 332.518C352.891 332.484 353.031 332.538 353.094 332.647L353.453 333.274C353.49 333.339 353.495 333.416 353.464 333.484C353.435 333.552 353.374 333.606 353.296 333.631C351.458 334.236 349.796 334.547 348.54 334.547ZM366.722 322.671C365.797 322.671 364.536 322.877 363.041 323.283C361.745 323.633 360.352 324.11 358.899 324.698C357.476 325.274 356.046 325.938 354.648 326.672C350.759 328.713 346.787 331.608 346.721 333.191C346.711 333.436 346.808 333.613 347.027 333.748C347.742 334.186 349.792 334.192 352.795 333.249L352.691 333.068C351.276 333.412 349.509 333.676 348.653 333.146C348.327 332.945 348.162 332.649 348.177 332.29C348.231 330.96 350.937 328.664 354.912 326.577C356.071 325.968 357.258 325.417 358.439 324.939C359.648 324.449 360.809 324.053 361.889 323.76C363.363 323.359 365.285 322.996 366.297 323.458L367.627 322.76C367.378 322.701 367.074 322.671 366.722 322.671Z" fill="#111111"/>
<path d="M364.006 351.312C363.318 351.487 362.695 351.608 362.149 351.674C361.155 351.794 360.416 351.731 360.005 351.477C359.889 351.405 359.803 351.321 359.744 351.224L361.83 354.68C361.888 354.777 361.975 354.861 362.091 354.933C362.502 355.187 363.24 355.25 364.234 355.13C364.786 355.064 365.417 354.94 366.114 354.762L364.006 351.312Z" fill="#BC5C00"/>
<path d="M363.349 355.445C362.728 355.445 362.252 355.344 361.928 355.144C361.776 355.051 361.659 354.935 361.578 354.802L359.493 351.347C359.493 351.346 359.493 351.346 359.492 351.346V351.345C359.417 351.221 359.469 351.065 359.608 350.999C359.748 350.931 359.922 350.978 359.997 351.102L359.997 351.103C360.035 351.165 360.091 351.218 360.168 351.266C360.508 351.476 361.198 351.531 362.111 351.421C362.645 351.356 363.256 351.237 363.928 351.065C364.057 351.033 364.193 351.084 364.258 351.189L366.366 354.639C366.408 354.708 366.412 354.789 366.379 354.861C366.345 354.933 366.277 354.987 366.194 355.008C365.486 355.189 364.84 355.316 364.273 355.384C363.936 355.425 363.628 355.445 363.349 355.445ZM360.492 351.924L362.082 354.558C362.12 354.621 362.176 354.674 362.253 354.722C362.593 354.932 363.283 354.988 364.196 354.877C364.643 354.823 365.144 354.731 365.689 354.602L363.863 351.613C363.251 351.762 362.688 351.868 362.187 351.928C361.502 352.011 360.935 352.009 360.492 351.924Z" fill="#111111"/>
<path d="M379.438 341.273C378.626 340.764 376.741 340.875 374.147 341.579C372.832 341.935 371.417 342.42 369.97 343.006C368.552 343.58 367.104 344.251 365.692 344.992C360.286 347.83 356.955 350.898 357.736 352.193L359.822 355.649C359.04 354.354 362.372 351.286 367.777 348.448C369.189 347.708 370.637 347.036 372.056 346.462C373.503 345.876 374.918 345.391 376.232 345.035C378.827 344.332 380.712 344.22 381.523 344.73L379.438 341.273Z" fill="#FFDBBD"/>
<path d="M359.822 355.905C359.72 355.905 359.622 355.857 359.57 355.771C359.57 355.771 359.569 355.77 359.569 355.77L357.484 352.315C356.753 351.104 358.965 348.227 365.547 344.772C366.961 344.03 368.41 343.357 369.852 342.773C371.327 342.175 372.744 341.691 374.064 341.334C375.965 340.818 378.469 340.353 379.602 341.064C379.639 341.086 379.669 341.117 379.69 341.152L381.776 344.608C381.839 344.712 381.813 344.842 381.714 344.921C381.614 345 381.468 345.008 381.359 344.939C380.632 344.483 378.795 344.608 376.316 345.281C375.022 345.63 373.629 346.107 372.174 346.695C370.751 347.272 369.321 347.936 367.923 348.669C362.3 351.621 359.471 354.528 360.075 355.528C360.15 355.652 360.098 355.808 359.958 355.874C359.915 355.895 359.868 355.905 359.822 355.905ZM377.912 341.212C376.987 341.212 375.725 341.419 374.23 341.824C372.934 342.175 371.541 342.651 370.088 343.239C368.664 343.816 367.234 344.48 365.837 345.213C360.214 348.165 357.385 351.071 357.988 352.071L359.556 354.668C360.105 353.189 362.582 350.878 367.632 348.227C369.047 347.485 370.496 346.813 371.937 346.228C373.414 345.63 374.832 345.146 376.149 344.79C377.685 344.373 379.615 343.988 380.897 344.232L379.22 341.451C378.929 341.292 378.485 341.212 377.912 341.212Z" fill="#111111"/>
<path d="M372.056 346.462C373.503 345.876 374.918 345.391 376.232 345.035C378.827 344.331 380.712 344.22 381.524 344.729L379.571 345.753C378.903 345.341 377.374 345.424 375.247 346.003C374.173 346.293 373.015 346.69 371.832 347.17C370.671 347.639 369.486 348.189 368.332 348.795C363.507 351.329 360.708 354.08 362.091 354.933C362.73 355.328 364.162 355.261 366.114 354.762L366.473 355.389C363.215 356.459 360.989 356.476 360.139 355.956C358.452 354.913 361.881 351.543 367.777 348.448C369.189 347.707 370.638 347.036 372.056 346.462Z" fill="#111111"/>
<path d="M361.815 356.545C361.022 356.545 360.39 356.421 359.977 356.168C359.597 355.933 359.406 355.588 359.424 355.17C359.491 353.56 362.79 350.77 367.633 348.227C369.048 347.485 370.496 346.813 371.938 346.228C373.415 345.63 374.832 345.146 376.15 344.79C378.051 344.274 380.556 343.808 381.689 344.519C381.768 344.569 381.814 344.653 381.81 344.74C381.806 344.827 381.753 344.906 381.669 344.95L379.716 345.974C379.62 346.023 379.5 346.02 379.409 345.964C378.818 345.6 377.332 345.704 375.33 346.248C374.273 346.534 373.136 346.923 371.951 347.403C370.786 347.875 369.617 348.418 368.477 349.016C364.293 351.213 362.064 353.34 362.025 354.305C362.017 354.489 362.09 354.621 362.254 354.722C362.807 355.064 364.186 354.989 366.036 354.515C366.167 354.481 366.307 354.536 366.37 354.645L366.729 355.271C366.766 355.337 366.77 355.413 366.74 355.481C366.711 355.55 366.65 355.603 366.572 355.629C364.733 356.234 363.072 356.545 361.815 356.545ZM372.174 346.695C370.751 347.272 369.321 347.936 367.923 348.669C364.034 350.711 360.063 353.606 359.997 355.189C359.986 355.434 360.083 355.611 360.302 355.746C361.017 356.183 363.068 356.189 366.07 355.246L365.966 355.065C364.552 355.41 362.785 355.674 361.928 355.144C361.602 354.943 361.437 354.647 361.452 354.287C361.506 352.958 364.212 350.662 368.187 348.574C369.344 347.967 370.53 347.416 371.714 346.936C372.922 346.447 374.083 346.05 375.164 345.758C376.638 345.357 378.56 344.994 379.572 345.455L380.902 344.758C379.998 344.539 378.379 344.72 376.316 345.28C375.022 345.63 373.629 346.106 372.174 346.695Z" fill="#111111"/>
<path d="M377.186 373.153C376.498 373.328 375.875 373.45 375.329 373.515C374.335 373.636 373.596 373.573 373.186 373.318C373.07 373.246 372.983 373.162 372.925 373.065L375.01 376.521C375.069 376.618 375.155 376.703 375.271 376.774C375.682 377.028 376.421 377.092 377.415 376.972C377.967 376.905 378.598 376.782 379.295 376.603L377.186 373.153Z" fill="#BC5C00"/>
<path d="M376.53 377.286C375.908 377.286 375.432 377.186 375.107 376.985C374.956 376.891 374.838 376.776 374.758 376.643L372.672 373.187C372.597 373.062 372.649 372.907 372.788 372.84C372.927 372.773 373.101 372.819 373.176 372.943V372.944C373.214 373.006 373.27 373.059 373.347 373.107C373.687 373.317 374.376 373.372 375.29 373.262C375.824 373.197 376.435 373.078 377.107 372.907C377.235 372.874 377.373 372.925 377.437 373.03L379.545 376.48C379.587 376.549 379.592 376.63 379.558 376.702C379.525 376.774 379.456 376.828 379.373 376.849C378.666 377.03 378.02 377.157 377.452 377.226C377.116 377.266 376.808 377.286 376.53 377.286ZM373.672 373.765L375.262 376.4C375.3 376.462 375.356 376.516 375.434 376.563C375.773 376.774 376.462 376.828 377.376 376.718C377.823 376.664 378.324 376.571 378.869 376.443L377.043 373.454C376.431 373.603 375.868 373.709 375.367 373.77C374.682 373.852 374.115 373.85 373.672 373.765Z" fill="#111111"/>
<path d="M392.618 363.114C391.807 362.605 389.922 362.716 387.327 363.42C386.013 363.776 384.598 364.261 383.151 364.847C381.732 365.422 380.284 366.093 378.872 366.833C373.467 369.671 370.135 372.739 370.917 374.034L373.003 377.491C372.221 376.196 375.553 373.127 380.958 370.29C382.37 369.549 383.818 368.878 385.236 368.304C386.683 367.717 388.099 367.233 389.413 366.877C392.007 366.173 393.892 366.062 394.704 366.571L392.618 363.114Z" fill="#FFDBBD"/>
<path d="M373.003 377.746C372.901 377.746 372.802 377.698 372.751 377.612L370.665 374.156C369.934 372.945 372.146 370.068 378.727 366.612C380.142 365.87 381.591 365.198 383.033 364.614C384.508 364.016 385.925 363.532 387.244 363.175C389.146 362.659 391.65 362.193 392.783 362.905C392.819 362.928 392.849 362.958 392.871 362.993L394.956 366.449C395.019 366.554 394.994 366.683 394.895 366.762C394.795 366.842 394.648 366.849 394.539 366.78C393.813 366.325 391.975 366.449 389.497 367.122C388.2 367.472 386.807 367.949 385.355 368.537C383.932 369.113 382.502 369.777 381.103 370.51C375.481 373.462 372.652 376.369 373.255 377.369C373.33 377.493 373.278 377.649 373.139 377.715C373.096 377.737 373.049 377.746 373.003 377.746ZM391.092 363.054C390.167 363.054 388.906 363.26 387.411 363.665C386.115 364.016 384.721 364.492 383.269 365.081C381.846 365.657 380.415 366.321 379.018 367.054C373.395 370.006 370.566 372.913 371.169 373.912L372.737 376.509C373.286 375.03 375.763 372.72 380.813 370.068C382.229 369.326 383.677 368.653 385.118 368.07C386.593 367.472 388.01 366.988 389.33 366.631C390.866 366.214 392.797 365.83 394.078 366.073L392.4 363.293C392.11 363.133 391.666 363.054 391.092 363.054Z" fill="#111111"/>
<path d="M385.236 368.303C386.684 367.717 388.099 367.232 389.413 366.876C392.008 366.173 393.893 366.061 394.704 366.571L392.752 367.594C392.083 367.182 390.555 367.266 388.427 367.844C387.354 368.135 386.196 368.532 385.012 369.011C383.852 369.481 382.667 370.03 381.512 370.637C376.687 373.171 373.888 375.922 375.271 376.774C375.91 377.17 377.343 377.103 379.295 376.603L379.654 377.23C376.396 378.301 374.169 378.318 373.319 377.798C371.633 376.755 375.062 373.385 380.958 370.29C382.37 369.549 383.819 368.878 385.236 368.303Z" fill="#111111"/>
<path d="M374.995 378.386C374.202 378.386 373.57 378.262 373.157 378.009C372.777 377.774 372.586 377.429 372.604 377.011C372.671 375.401 375.97 372.611 380.813 370.068C382.228 369.326 383.677 368.653 385.118 368.07C386.593 367.472 388.009 366.988 389.33 366.631C391.231 366.115 393.736 365.65 394.868 366.361C394.948 366.411 394.994 366.494 394.99 366.581C394.986 366.668 394.932 366.747 394.848 366.791L392.896 367.815C392.8 367.865 392.68 367.861 392.588 367.805C391.999 367.441 390.512 367.545 388.51 368.089C387.453 368.375 386.316 368.764 385.13 369.244C383.967 369.715 382.798 370.257 381.657 370.857C377.472 373.055 375.244 375.182 375.204 376.147C375.197 376.33 375.27 376.462 375.433 376.563C375.987 376.906 377.365 376.83 379.215 376.356C379.347 376.322 379.487 376.377 379.549 376.486L379.908 377.113C379.945 377.178 379.95 377.255 379.92 377.323C379.89 377.391 379.829 377.445 379.752 377.47C377.913 378.075 376.252 378.386 374.995 378.386ZM393.178 366.51C392.252 366.51 390.991 366.716 389.496 367.122C388.2 367.472 386.806 367.949 385.354 368.537C383.932 369.113 382.501 369.777 381.103 370.51C377.214 372.552 373.242 375.447 373.177 377.03C373.166 377.275 373.263 377.452 373.482 377.587C374.197 378.025 376.248 378.031 379.25 377.088L379.146 376.906C377.731 377.252 375.965 377.515 375.108 376.985C374.782 376.784 374.617 376.488 374.632 376.129C374.686 374.799 377.392 372.503 381.367 370.416C382.526 369.807 383.712 369.256 384.894 368.778C386.102 368.288 387.263 367.892 388.344 367.599C389.818 367.198 391.74 366.835 392.752 367.297L394.082 366.599C393.833 366.54 393.529 366.51 393.178 366.51Z" fill="#111111"/>
<path d="M390.348 394.964C389.661 395.139 389.038 395.261 388.492 395.326C387.498 395.447 386.758 395.384 386.348 395.129C386.232 395.057 386.145 394.973 386.087 394.876L388.173 398.332C388.231 398.429 388.318 398.514 388.433 398.585C388.844 398.84 389.583 398.903 390.577 398.783C391.129 398.716 391.76 398.593 392.457 398.414L390.348 394.964Z" fill="#BC5C00"/>
<path d="M389.692 399.098C389.07 399.098 388.594 398.997 388.27 398.796C388.119 398.703 388.001 398.588 387.92 398.454L385.834 394.998C385.759 394.873 385.811 394.718 385.951 394.651C386.09 394.583 386.263 394.63 386.339 394.755C386.376 394.817 386.432 394.87 386.51 394.918C386.85 395.128 387.539 395.184 388.453 395.073C388.987 395.008 389.598 394.889 390.269 394.718C390.399 394.685 390.535 394.736 390.6 394.841L392.708 398.292C392.75 398.36 392.754 398.442 392.721 398.513C392.687 398.585 392.619 398.639 392.536 398.661C391.828 398.842 391.182 398.968 390.615 399.037C390.278 399.077 389.97 399.098 389.692 399.098ZM386.834 395.576L388.424 398.211C388.462 398.273 388.518 398.327 388.595 398.374C388.935 398.585 389.625 398.64 390.538 398.529C390.985 398.475 391.486 398.383 392.031 398.254L390.205 395.266C389.593 395.414 389.03 395.52 388.529 395.581C387.844 395.664 387.277 395.662 386.834 395.576Z" fill="#111111"/>
<path d="M405.78 384.925C404.969 384.416 403.084 384.527 400.489 385.231C399.175 385.587 397.76 386.072 396.313 386.658C394.895 387.232 393.446 387.904 392.034 388.644C386.629 391.482 383.297 394.55 384.079 395.845L386.165 399.301C385.383 398.006 388.715 394.938 394.12 392.101C395.532 391.36 396.98 390.689 398.398 390.115C399.845 389.528 401.261 389.043 402.575 388.688C405.169 387.984 407.054 387.872 407.866 388.382L405.78 384.925Z" fill="#FFDBBD"/>
<path d="M386.165 399.557C386.063 399.557 385.964 399.509 385.912 399.423L383.827 395.967C383.096 394.756 385.307 391.879 391.889 388.424C393.305 387.682 394.753 387.009 396.194 386.425C397.672 385.827 399.089 385.343 400.406 384.986C402.308 384.471 404.812 384.005 405.945 384.716C405.981 384.739 406.011 384.769 406.032 384.804L408.118 388.26C408.181 388.365 408.156 388.494 408.056 388.573C407.957 388.653 407.81 388.66 407.701 388.591C406.975 388.136 405.137 388.26 402.658 388.933C401.365 389.282 399.972 389.759 398.517 390.348C397.093 390.924 395.663 391.588 394.265 392.321C388.643 395.273 385.814 398.179 386.417 399.18V399.18C386.492 399.304 386.44 399.46 386.301 399.527C386.258 399.548 386.211 399.557 386.165 399.557ZM404.255 384.865C403.329 384.865 402.068 385.071 400.573 385.477C399.279 385.827 397.886 386.303 396.431 386.892C395.008 387.468 393.577 388.132 392.18 388.865C386.557 391.817 383.728 394.724 384.332 395.724L385.899 398.32C386.448 396.842 388.925 394.531 393.975 391.879C395.39 391.137 396.839 390.465 398.28 389.881C399.758 389.282 401.175 388.798 402.492 388.442C404.028 388.025 405.959 387.641 407.24 387.884L405.562 385.104C405.272 384.944 404.828 384.865 404.255 384.865Z" fill="#111111"/>
<path d="M398.399 390.114C399.846 389.528 401.261 389.043 402.575 388.687C405.17 387.984 407.055 387.872 407.866 388.382L405.914 389.405C405.246 388.993 403.717 389.077 401.589 389.656C400.516 389.946 399.358 390.343 398.174 390.822C397.014 391.292 395.829 391.841 394.674 392.448C389.849 394.982 387.05 397.733 388.433 398.585C389.072 398.981 390.505 398.914 392.457 398.414L392.816 399.041C389.558 400.112 387.331 400.129 386.481 399.609C384.795 398.566 388.224 395.196 394.12 392.101C395.532 391.36 396.981 390.689 398.399 390.114Z" fill="#111111"/>
<path d="M388.157 400.198C387.364 400.198 386.732 400.074 386.319 399.82C385.939 399.585 385.748 399.241 385.766 398.822C385.833 397.212 389.132 394.422 393.975 391.88C395.39 391.137 396.838 390.465 398.28 389.881C399.757 389.283 401.174 388.798 402.492 388.442C404.393 387.926 406.897 387.461 408.03 388.172C408.11 388.222 408.156 388.305 408.152 388.392C408.148 388.479 408.095 388.558 408.011 388.602L406.058 389.626C405.962 389.676 405.842 389.672 405.751 389.616C405.16 389.252 403.674 389.356 401.672 389.9C400.615 390.186 399.478 390.575 398.292 391.055C397.127 391.527 395.958 392.07 394.819 392.668C390.635 394.866 388.406 396.993 388.367 397.958C388.359 398.141 388.432 398.273 388.596 398.374C389.149 398.717 390.527 398.641 392.377 398.168C392.509 398.134 392.649 398.189 392.712 398.297L393.07 398.924C393.108 398.989 393.112 399.066 393.082 399.134C393.052 399.202 392.991 399.256 392.914 399.281C391.075 399.886 389.413 400.198 388.157 400.198ZM398.516 390.348C397.093 390.924 395.662 391.588 394.265 392.321C390.376 394.363 386.404 397.258 386.338 398.841C386.328 399.086 386.425 399.263 386.644 399.398C387.359 399.836 389.409 399.842 392.412 398.899L392.308 398.718C390.893 399.063 389.126 399.326 388.27 398.796C387.944 398.595 387.779 398.299 387.793 397.94C387.847 396.61 390.554 394.315 394.529 392.227C395.685 391.619 396.872 391.068 398.055 390.589C399.264 390.099 400.425 389.703 401.505 389.41C402.979 389.01 404.902 388.647 405.913 389.108L407.244 388.41C406.34 388.192 404.721 388.373 402.658 388.932C401.364 389.283 399.971 389.759 398.516 390.348Z" fill="#111111"/>
<path d="M403.539 416.822C402.851 416.998 402.228 417.119 401.682 417.185C400.688 417.305 399.949 417.242 399.538 416.987C399.422 416.916 399.336 416.831 399.277 416.734L401.363 420.191C401.421 420.287 401.508 420.372 401.624 420.443C402.035 420.698 402.774 420.761 403.768 420.641C404.32 420.574 404.95 420.451 405.647 420.273L403.539 416.822Z" fill="#BC5C00"/>
<path d="M402.883 420.956C402.262 420.956 401.785 420.855 401.461 420.654C401.31 420.561 401.192 420.446 401.111 420.312L399.026 416.857C399.026 416.857 399.026 416.856 399.026 416.856C398.95 416.731 399.003 416.576 399.142 416.509C399.281 416.441 399.455 416.489 399.53 416.613C399.568 416.675 399.623 416.729 399.701 416.777C400.04 416.987 400.73 417.041 401.644 416.931C402.178 416.867 402.79 416.747 403.46 416.576C403.59 416.543 403.726 416.594 403.791 416.699L405.899 420.15C405.941 420.218 405.946 420.3 405.912 420.372C405.879 420.443 405.81 420.498 405.727 420.519C405.02 420.7 404.374 420.826 403.806 420.895C403.47 420.936 403.162 420.956 402.883 420.956ZM400.026 417.434L401.616 420.069C401.653 420.131 401.709 420.185 401.787 420.233C402.126 420.443 402.816 420.498 403.73 420.387C404.177 420.333 404.677 420.241 405.223 420.112L403.397 417.124C402.785 417.273 402.222 417.378 401.721 417.439C401.036 417.522 400.469 417.52 400.026 417.434Z" fill="#111111"/>
<path d="M418.971 406.784C418.159 406.275 416.274 406.386 413.68 407.09C412.365 407.445 410.95 407.931 409.503 408.517C408.085 409.091 406.637 409.762 405.225 410.503C399.82 413.341 396.488 416.409 397.269 417.704L399.355 421.16C398.573 419.865 401.906 416.797 407.31 413.959C408.722 413.218 410.171 412.547 411.589 411.973C413.036 411.387 414.451 410.902 415.765 410.546C418.36 409.842 420.245 409.731 421.056 410.24L418.971 406.784Z" fill="#FFDBBD"/>
<path d="M399.356 421.416C399.254 421.416 399.155 421.367 399.103 421.281L397.017 417.825C396.287 416.614 398.498 413.737 405.08 410.282C406.496 409.539 407.944 408.867 409.385 408.283C410.86 407.686 412.277 407.202 413.597 406.844C415.498 406.329 418.003 405.863 419.135 406.574C419.172 406.597 419.202 406.627 419.223 406.662L421.308 410.118C421.371 410.223 421.346 410.353 421.247 410.432C421.147 410.511 421 410.518 420.892 410.45C420.166 409.994 418.328 410.118 415.849 410.791C414.553 411.142 413.159 411.618 411.707 412.206C410.284 412.782 408.854 413.446 407.456 414.18C401.833 417.131 399.004 420.038 399.607 421.038C399.682 421.162 399.63 421.318 399.491 421.385C399.448 421.406 399.402 421.416 399.356 421.416ZM417.445 406.723C416.52 406.723 415.258 406.929 413.764 407.335C412.467 407.686 411.074 408.162 409.622 408.75C408.199 409.326 406.769 409.99 405.37 410.724C399.748 413.675 396.919 416.582 397.522 417.582L399.089 420.179C399.639 418.7 402.116 416.389 407.166 413.738C408.581 412.995 410.03 412.323 411.471 411.739C412.946 411.142 414.363 410.657 415.683 410.3C417.219 409.884 419.149 409.499 420.431 409.743L418.753 406.962C418.462 406.802 418.018 406.723 417.445 406.723Z" fill="#111111"/>
<path d="M411.589 411.973C413.036 411.387 414.452 410.902 415.766 410.546C418.36 409.842 420.245 409.731 421.057 410.24L419.104 411.264C418.436 410.852 416.908 410.935 414.78 411.514C413.706 411.804 412.548 412.201 411.365 412.681C410.204 413.15 409.02 413.7 407.865 414.306C403.04 416.84 400.241 419.591 401.624 420.444C402.263 420.839 403.696 420.772 405.647 420.273L406.006 420.9C402.748 421.97 400.522 421.987 399.672 421.467C397.986 420.424 401.415 417.054 407.311 413.959C408.723 413.218 410.171 412.547 411.589 411.973Z" fill="#111111"/>
<path d="M401.348 422.056C400.554 422.056 399.923 421.932 399.509 421.678C399.13 421.444 398.939 421.099 398.956 420.68C399.023 419.071 402.322 416.28 407.165 413.738C408.581 412.995 410.029 412.323 411.47 411.739C412.945 411.142 414.362 410.658 415.682 410.3C417.584 409.785 420.088 409.319 421.221 410.03C421.3 410.08 421.346 410.163 421.342 410.25C421.338 410.337 421.285 410.416 421.201 410.461L419.249 411.484C419.153 411.534 419.033 411.531 418.941 411.474C418.351 411.11 416.864 411.214 414.862 411.759C413.805 412.044 412.668 412.433 411.483 412.913C410.32 413.384 409.152 413.927 408.009 414.526C403.825 416.724 401.596 418.851 401.557 419.816C401.55 419.999 401.622 420.131 401.786 420.232C402.339 420.575 403.718 420.499 405.568 420.026C405.699 419.992 405.84 420.047 405.902 420.155L406.261 420.782C406.298 420.848 406.303 420.924 406.273 420.992C406.243 421.061 406.182 421.114 406.105 421.139C404.266 421.744 402.604 422.055 401.348 422.056ZM419.53 410.179C418.605 410.179 417.343 410.385 415.849 410.791C414.552 411.142 413.159 411.618 411.707 412.206C410.284 412.782 408.854 413.446 407.455 414.18C403.566 416.222 399.595 419.117 399.529 420.699C399.519 420.944 399.616 421.121 399.834 421.257C400.55 421.694 402.6 421.7 405.602 420.757L405.498 420.576C404.084 420.921 402.317 421.185 401.46 420.654C401.135 420.453 400.97 420.157 400.984 419.798C401.038 418.468 403.745 416.172 407.72 414.085C408.879 413.476 410.066 412.925 411.247 412.447C412.456 411.957 413.616 411.561 414.697 411.269C416.171 410.868 418.093 410.505 419.104 410.966L420.435 410.269C420.185 410.209 419.882 410.179 419.53 410.179Z" fill="#111111"/>
</g>
<defs>
<linearGradient id="paint0_linear_32_72" x1="1000" y1="563" x2="518.639" y2="-291.994" gradientUnits="userSpaceOnUse">
<stop stop-color="white"/>
<stop offset="1" stop-color="white" stop-opacity="0"/>
</linearGradient>
<clipPath id="clip0_32_72">
<rect width="199.238" height="188.698" fill="white" transform="translate(498.751 151.574)"/>
</clipPath>
<clipPath id="clip1_32_72">
<rect width="58.9248" height="115.085" fill="white" transform="translate(536.076 126)"/>
</clipPath>
<clipPath id="clip2_32_72">
<rect width="81.9072" height="76.7232" fill="white" transform="matrix(-0.972025 0.234877 0.234877 0.972025 649.299 303.214)"/>
</clipPath>
<clipPath id="clip3_32_72">
<rect width="276" height="259" fill="white" transform="translate(303 178.194)"/>
</clipPath>
</defs>
</svg>
