<svg width="1000" height="563" viewBox="0 0 1000 563" fill="none" xmlns="http://www.w3.org/2000/svg">
<rect width="1000" height="563" fill="#FE943E"/>
<rect width="1000" height="563" fill="url(#paint0_linear_32_72)" fill-opacity="0.3"/>
<g clip-path="url(#clip0_32_72)">
<path d="M513.635 130.931C516.649 130.329 520.001 132.411 521.121 135.583L608.839 383.854C609.96 387.026 608.425 390.084 605.411 390.686L489.088 413.917C486.066 414.521 482.715 412.438 481.594 409.266L393.876 160.995C392.756 157.824 394.29 154.765 397.312 154.162L513.635 130.931ZM474.798 152.861C477.068 152.407 478.235 150.083 477.39 147.694C476.545 145.304 474 143.723 471.73 144.177L442.428 150.028C440.158 150.482 438.992 152.806 439.836 155.194C440.681 157.583 443.227 159.166 445.497 158.713L474.798 152.861" fill="white"/>
<path d="M488.36 414.184C485.48 414.349 482.484 412.304 481.431 409.324L393.713 161.053C393.128 159.397 393.234 157.671 394.004 156.317C394.348 155.715 394.819 155.195 395.385 154.793C395.951 154.391 396.597 154.118 397.279 153.992L513.601 130.761C516.691 130.144 520.138 132.281 521.284 135.525L609.002 383.798C609.587 385.454 609.481 387.18 608.711 388.535C608.368 389.136 607.898 389.655 607.334 390.056C606.77 390.457 606.125 390.73 605.445 390.856L489.121 414.087C488.87 414.137 488.616 414.169 488.36 414.184ZM513.635 130.931L513.669 131.1L397.346 154.331C396.712 154.448 396.112 154.701 395.587 155.074C395.062 155.446 394.624 155.929 394.305 156.488C393.585 157.755 393.488 159.377 394.039 160.937L481.757 409.209C482.848 412.297 486.121 414.334 489.054 413.748L605.377 390.517C606.009 390.4 606.607 390.147 607.131 389.775C607.655 389.403 608.092 388.921 608.41 388.363C609.131 387.096 609.228 385.473 608.676 383.912L520.958 135.64C519.867 132.552 516.597 130.515 513.669 131.1L513.635 130.931ZM444.952 158.956C442.759 159.082 440.476 157.523 439.674 155.252C439.229 153.993 439.312 152.675 439.902 151.637C440.164 151.177 440.522 150.78 440.953 150.473C441.383 150.165 441.876 149.956 442.395 149.859L471.697 144.007C474.053 143.537 476.681 145.165 477.554 147.637C477.999 148.896 477.916 150.214 477.325 151.252C477.064 151.712 476.706 152.11 476.275 152.417C475.845 152.724 475.352 152.933 474.832 153.03L445.531 158.882C445.34 158.92 445.146 158.945 444.952 158.956ZM472.3 144.278C472.12 144.288 471.94 144.311 471.763 144.346L442.462 150.198C441.991 150.286 441.545 150.475 441.154 150.753C440.764 151.031 440.439 151.391 440.202 151.807C439.661 152.759 439.587 153.972 439.998 155.137C440.817 157.453 443.268 158.981 445.462 158.543L474.764 152.691C475.236 152.604 475.682 152.414 476.072 152.136C476.463 151.858 476.788 151.498 477.025 151.082C477.566 150.131 477.64 148.917 477.228 147.752C476.476 145.623 474.343 144.16 472.3 144.278Z" fill="#111111"/>
<path d="M471.73 144.177C474 143.723 476.547 145.306 477.391 147.695C478.235 150.083 477.069 152.407 474.799 152.861L445.498 158.713C443.228 159.166 440.681 157.583 439.837 155.195C438.993 152.806 440.159 150.482 442.429 150.029L471.73 144.177Z" fill="#FFDBBD"/>
<path d="M444.952 158.956C442.759 159.082 440.476 157.523 439.674 155.252C439.229 153.993 439.312 152.675 439.903 151.637C440.164 151.177 440.522 150.78 440.953 150.473C441.383 150.166 441.876 149.956 442.396 149.859L471.697 144.007C474.053 143.537 476.681 145.165 477.554 147.637C477.999 148.896 477.916 150.214 477.325 151.253C477.064 151.712 476.706 152.11 476.275 152.417C475.845 152.724 475.352 152.933 474.832 153.03L445.531 158.882C445.34 158.92 445.147 158.945 444.952 158.956ZM472.3 144.278C472.12 144.288 471.941 144.311 471.764 144.346L442.463 150.198C441.992 150.286 441.545 150.475 441.155 150.753C440.764 151.031 440.439 151.391 440.202 151.808C439.661 152.759 439.587 153.972 439.999 155.137C440.751 157.266 442.883 158.729 444.927 158.612C445.107 158.601 445.286 158.578 445.463 158.543L474.765 152.691C475.236 152.604 475.682 152.414 476.073 152.136C476.463 151.858 476.788 151.498 477.025 151.082C477.566 150.131 477.64 148.917 477.229 147.752C476.476 145.623 474.344 144.16 472.3 144.278Z" fill="#111111"/>
<path d="M606.965 395.084L490.634 418.316C485.32 419.377 479.401 415.699 477.423 410.1L389.704 161.828C388.351 157.997 389.192 154.258 391.563 151.939L384.174 159.167C381.803 161.486 380.962 165.225 382.315 169.056L470.034 417.328C472.012 422.927 477.93 426.606 483.245 425.544L599.575 402.312C601.156 402.012 602.615 401.256 603.771 400.137L611.16 392.909C610.004 394.028 608.545 394.784 606.965 395.084Z" fill="#8E4600"/>
<path d="M481.956 425.882C476.937 426.171 471.71 422.594 469.87 417.386L382.152 169.114C380.822 165.35 381.551 161.491 384.053 159.043L391.442 151.815C391.458 151.798 391.477 151.785 391.499 151.776C391.52 151.767 391.543 151.763 391.566 151.763C391.589 151.763 391.611 151.767 391.633 151.776C391.654 151.785 391.673 151.798 391.689 151.815C391.705 151.831 391.718 151.851 391.726 151.872C391.735 151.893 391.739 151.916 391.738 151.939C391.738 151.962 391.733 151.985 391.723 152.006C391.714 152.027 391.7 152.046 391.684 152.062C389.278 154.415 388.582 158.135 389.867 161.77L477.585 410.042C479.375 415.109 484.451 418.589 489.32 418.31C489.75 418.285 490.177 418.231 490.599 418.147L606.93 394.914C608.477 394.618 609.905 393.879 611.038 392.785C611.071 392.753 611.115 392.736 611.161 392.736C611.207 392.737 611.251 392.755 611.283 392.788C611.315 392.821 611.332 392.865 611.332 392.911C611.331 392.957 611.313 393 611.28 393.032L603.891 400.261C602.709 401.401 601.222 402.172 599.609 402.481L483.278 425.714C482.842 425.801 482.4 425.857 481.956 425.882ZM390.002 153.707L384.295 159.29C381.889 161.644 381.193 165.363 382.478 168.999L470.196 417.27C472.144 422.783 477.982 426.419 483.21 425.375L599.541 402.142C601.088 401.847 602.516 401.107 603.649 400.014L609.368 394.419C608.622 394.809 607.824 395.09 606.998 395.253L490.667 418.485C485.277 419.562 479.262 415.826 477.259 410.157L389.541 161.886C388.517 158.987 388.714 156.031 390.002 153.707Z" fill="#111111"/>
<path d="M512.082 126.533C517.404 125.47 523.323 129.148 525.301 134.748L613.019 383.02C614.998 388.619 612.287 394.021 606.965 395.083L490.635 418.315C485.32 419.377 479.402 415.699 477.424 410.099L389.705 161.828C387.726 156.228 390.437 150.827 395.758 149.765L512.082 126.533ZM608.84 383.854L521.122 135.583C520.001 132.412 516.65 130.329 513.635 130.931L397.313 154.162C394.291 154.765 392.756 157.823 393.876 160.995L481.595 409.267C482.715 412.438 486.067 414.521 489.088 413.917L605.411 390.686C608.426 390.084 609.96 387.026 608.84 383.854Z" fill="#FFDBBD"/>
<path d="M489.345 418.654C484.327 418.943 479.1 415.366 477.26 410.157L389.542 161.886C388.521 158.998 388.705 155.989 390.047 153.63C390.643 152.585 391.46 151.682 392.441 150.985C393.421 150.288 394.542 149.814 395.725 149.595L512.048 126.364C517.442 125.286 523.461 129.022 525.464 134.691L613.182 382.962C614.202 385.85 614.018 388.859 612.677 391.218C612.08 392.263 611.264 393.165 610.283 393.862C609.302 394.559 608.181 395.034 606.998 395.253L490.668 418.485C490.231 418.572 489.79 418.629 489.345 418.654ZM512.116 126.703L395.793 149.934C394.658 150.143 393.584 150.598 392.643 151.266C391.703 151.934 390.919 152.799 390.347 153.801C389.055 156.072 388.88 158.978 389.867 161.771L477.586 410.042C479.376 415.109 484.452 418.589 489.321 418.31C489.75 418.285 490.178 418.231 490.6 418.147L606.931 394.914C608.065 394.704 609.14 394.25 610.08 393.582C611.021 392.914 611.804 392.049 612.376 391.047C613.668 388.775 613.843 385.87 612.856 383.077L525.138 134.806C523.19 129.293 517.348 125.658 512.116 126.703ZM488.361 414.184C485.481 414.349 482.485 412.304 481.432 409.324L393.714 161.053C393.129 159.397 393.235 157.671 394.005 156.317C394.349 155.715 394.82 155.195 395.385 154.793C395.951 154.392 396.597 154.118 397.279 153.992L513.602 130.761C516.692 130.144 520.138 132.281 521.284 135.525L609.002 383.798C609.588 385.454 609.481 387.18 608.711 388.535C608.368 389.136 607.898 389.655 607.334 390.056C606.77 390.457 606.125 390.73 605.445 390.856L489.122 414.087C488.871 414.137 488.616 414.169 488.361 414.184ZM514.386 131.009C514.145 131.022 513.906 131.053 513.669 131.1L397.346 154.331C396.713 154.448 396.112 154.701 395.587 155.074C395.062 155.446 394.624 155.929 394.304 156.488C393.584 157.755 393.487 159.377 394.038 160.937L481.757 409.209C482.849 412.297 486.122 414.334 489.054 413.748L605.377 390.517C606.009 390.4 606.608 390.147 607.132 389.775C607.656 389.403 608.092 388.922 608.411 388.364C609.132 387.096 609.228 385.473 608.677 383.912L520.959 135.64C519.956 132.802 517.112 130.852 514.386 131.009Z" fill="#111111"/>
</g>
<g clip-path="url(#clip1_32_72)">
<path d="M579.191 201.415L583.477 204.881L570.631 209.21L566.345 205.744L579.191 201.415Z" fill="#BC5C00"/>
<path d="M570.631 209.372C570.595 209.372 570.558 209.36 570.529 209.336L566.243 205.87C566.22 205.852 566.203 205.828 566.193 205.8C566.183 205.773 566.18 205.744 566.185 205.715C566.19 205.686 566.203 205.66 566.222 205.638C566.241 205.616 566.266 205.599 566.293 205.59L579.14 201.261C579.193 201.243 579.251 201.253 579.294 201.288L583.58 204.755C583.603 204.773 583.62 204.797 583.63 204.824C583.64 204.851 583.643 204.881 583.638 204.909C583.633 204.938 583.62 204.965 583.601 204.987C583.582 205.009 583.557 205.025 583.53 205.034L570.683 209.363C570.667 209.369 570.649 209.372 570.631 209.372ZM566.677 205.803L570.664 209.028L583.146 204.822L579.159 201.597L566.677 205.803Z" fill="#111111"/>
<path d="M625.529 156.9L629.815 160.366C637.155 166.303 640.543 175.594 637.849 185.469C633.61 201.012 615.91 212.117 598.315 210.271C592.544 209.665 587.501 207.741 583.477 204.881L579.191 201.415C583.215 204.275 588.259 206.199 594.03 206.805C611.624 208.651 629.325 197.546 633.564 182.003C636.257 172.128 632.869 162.837 625.529 156.9Z" fill="#BC5C00"/>
<path d="M602.148 210.633C600.866 210.633 599.583 210.567 598.298 210.432C592.702 209.845 587.545 207.971 583.383 205.013L579.089 201.541C579.056 201.514 579.035 201.476 579.03 201.434C579.025 201.392 579.037 201.35 579.062 201.317C579.088 201.283 579.126 201.261 579.167 201.255C579.209 201.248 579.251 201.258 579.286 201.283C583.402 204.209 588.506 206.062 594.047 206.643C595.315 206.776 596.59 206.843 597.866 206.842C614.039 206.843 629.501 196.281 633.407 181.961C635.993 172.48 633.009 163.159 625.426 157.026C625.409 157.013 625.395 156.996 625.385 156.978C625.374 156.959 625.368 156.938 625.366 156.917C625.363 156.895 625.365 156.874 625.371 156.853C625.377 156.833 625.387 156.814 625.401 156.797C625.414 156.78 625.431 156.766 625.45 156.756C625.469 156.746 625.49 156.74 625.511 156.738C625.533 156.735 625.554 156.738 625.575 156.744C625.595 156.75 625.614 156.761 625.631 156.774L629.917 160.24C637.603 166.456 640.627 175.904 638.006 185.512C634.064 199.969 618.461 210.632 602.147 210.633L602.148 210.633ZM581.5 203.073L583.58 204.755C587.688 207.675 592.792 209.528 598.332 210.11C599.601 210.242 600.876 210.309 602.151 210.309C618.324 210.309 633.787 199.747 637.693 185.427C640.278 175.946 637.295 166.625 629.712 160.492L628.622 159.611C634.062 165.678 635.969 173.803 633.72 182.046C629.778 196.503 614.175 207.166 597.862 207.167C596.58 207.167 595.297 207.101 594.012 206.966C589.449 206.488 585.177 205.153 581.5 203.073L581.5 203.073Z" fill="#111111"/>
<path d="M609.381 150.516C626.976 152.362 637.803 166.459 633.563 182.003C629.324 197.546 611.624 208.65 594.029 206.805C588.258 206.199 583.215 204.275 579.191 201.415L566.345 205.744L573.247 195.514C569.252 189.912 567.813 182.783 569.848 175.319C574.087 159.775 591.788 148.671 609.381 150.516Z" fill="white"/>
<path d="M597.862 207.166C596.58 207.166 595.297 207.101 594.012 206.966C588.447 206.382 583.315 204.525 579.165 201.595L566.397 205.897C566.365 205.908 566.33 205.909 566.298 205.899C566.265 205.889 566.237 205.869 566.216 205.842C566.195 205.815 566.184 205.782 566.183 205.749C566.182 205.715 566.191 205.681 566.21 205.653L573.05 195.516C568.919 189.666 567.726 182.484 569.692 175.277C573.944 159.684 591.758 148.505 609.398 150.355C618.381 151.297 626.092 155.569 630.553 162.076C634.527 167.872 635.652 174.964 633.72 182.046C629.778 196.502 614.175 207.166 597.862 207.166V207.166ZM579.191 201.252C579.225 201.252 579.258 201.263 579.286 201.283C583.402 204.208 588.506 206.062 594.046 206.643C611.537 208.479 629.195 197.406 633.407 181.961C635.313 174.972 634.204 167.975 630.285 162.259C625.877 155.831 618.252 151.61 609.364 150.678C591.873 148.843 574.218 159.916 570.005 175.362C568.055 182.511 569.254 189.634 573.379 195.42C573.399 195.446 573.409 195.479 573.41 195.512C573.41 195.545 573.4 195.577 573.382 195.604L566.748 205.437L579.139 201.261C579.156 201.255 579.174 201.252 579.191 201.252V201.252Z" fill="#111111"/>
<path d="M618.726 167.189C619.447 167.265 620.093 167.622 620.509 168.251C621.385 169.576 620.906 171.608 619.438 172.786L597.502 190.423C596.736 191.039 595.845 191.303 595.044 191.219C594.386 191.15 593.789 190.845 593.371 190.31L585.48 180.186C584.51 178.941 584.863 176.908 586.269 175.643C587.068 174.924 588.036 174.609 588.9 174.7C589.556 174.768 590.153 175.071 590.572 175.608L596.818 183.623L616.266 167.986C617.037 167.367 617.927 167.105 618.726 167.189Z" fill="#FFDBBD"/>
<path d="M595.333 191.397C595.23 191.397 595.128 191.391 595.026 191.381C594.305 191.305 593.672 190.96 593.243 190.41L585.351 180.286C584.332 178.977 584.695 176.841 586.16 175.523C586.965 174.798 587.969 174.439 588.917 174.538C589.637 174.614 590.271 174.959 590.7 175.509L596.844 183.393L616.164 167.86C616.935 167.24 617.875 166.937 618.742 167.028C619.541 167.111 620.216 167.514 620.644 168.162C621.565 169.553 621.069 171.685 619.54 172.912L597.604 190.549C596.923 191.096 596.111 191.396 595.333 191.396L595.333 191.397ZM588.603 174.847C587.832 174.847 587.035 175.172 586.378 175.764C585.036 176.97 584.691 178.91 585.608 180.087L593.5 190.211C593.874 190.691 594.428 190.992 595.061 191.058C595.844 191.141 596.696 190.863 597.4 190.296L619.336 172.66C620.739 171.534 621.204 169.596 620.373 168.34C620 167.775 619.408 167.424 618.709 167.35C617.927 167.268 617.073 167.546 616.368 168.113L596.92 183.749C596.903 183.763 596.884 183.773 596.863 183.779C596.842 183.785 596.82 183.787 596.799 183.784C596.778 183.782 596.757 183.775 596.738 183.764C596.719 183.754 596.703 183.74 596.69 183.723L590.444 175.708C590.064 175.221 589.524 174.928 588.883 174.861C588.79 174.851 588.697 174.847 588.603 174.847L588.603 174.847Z" fill="#111111"/>
</g>
<g clip-path="url(#clip2_32_72)">
<path d="M416.525 182.468C415.573 182.659 414.467 182.342 413.61 181.535C412.285 180.296 412.052 178.372 413.076 177.244C413.433 176.849 413.897 176.602 414.405 176.5C415.358 176.308 416.467 176.626 417.324 177.43C418.649 178.669 418.881 180.593 417.858 181.721C417.499 182.117 417.034 182.365 416.525 182.468ZM413.005 170.907L413.242 172.796C413.181 172.806 413.121 172.817 413.061 172.829C412.363 172.97 411.712 173.237 411.124 173.628L409.633 172.237L407.894 174.159L409.378 175.552C409.015 176.226 408.799 176.98 408.732 177.763L406.861 177.682L407.212 180.53L409.083 180.61C409.36 181.434 409.765 182.209 410.284 182.906L409.13 184.186L411.37 186.281L412.526 185.009C413.27 185.494 414.068 185.841 414.872 186.043L415.108 187.932L417.921 188.059L417.692 186.169C417.752 186.159 417.811 186.148 417.871 186.136C418.563 185.998 419.221 185.727 419.809 185.337L421.293 186.73L423.042 184.813L421.555 183.412C421.919 182.739 422.134 181.985 422.202 181.202L424.072 181.283L423.724 178.443L421.851 178.355C421.593 177.561 421.187 176.78 420.65 176.06L421.806 174.786L419.564 172.684L418.407 173.956C417.664 173.472 416.865 173.125 416.062 172.922L415.825 171.033L413.006 170.907" fill="#FFDBBD"/>
<path d="M417.92 188.232H417.912L415.1 188.104C415.06 188.102 415.021 188.086 414.991 188.058C414.961 188.031 414.942 187.993 414.937 187.953L414.715 186.18C413.962 185.978 413.237 185.66 412.556 185.233L411.497 186.398C411.482 186.415 411.463 186.428 411.443 186.438C411.422 186.448 411.399 186.453 411.376 186.454C411.354 186.455 411.331 186.452 411.309 186.444C411.288 186.436 411.268 186.424 411.252 186.407L409.012 184.312C408.979 184.281 408.959 184.239 408.957 184.194C408.955 184.148 408.971 184.104 409.001 184.071L410.061 182.895C409.595 182.244 409.224 181.532 408.957 180.777L407.205 180.702C407.164 180.7 407.125 180.684 407.095 180.656C407.065 180.629 407.046 180.591 407.041 180.551L406.69 177.703C406.687 177.678 406.689 177.653 406.697 177.629C406.704 177.606 406.717 177.584 406.734 177.565C406.769 177.528 406.818 177.509 406.869 177.51L408.576 177.583C408.656 176.868 408.854 176.199 409.164 175.588L407.776 174.285C407.743 174.254 407.723 174.211 407.722 174.166C407.72 174.121 407.736 174.077 407.766 174.043L409.504 172.121C409.535 172.087 409.579 172.066 409.625 172.064C409.648 172.063 409.671 172.066 409.692 172.074C409.714 172.082 409.734 172.094 409.75 172.11L411.143 173.41C411.72 173.047 412.358 172.793 413.027 172.66L413.05 172.656L412.834 170.929C412.831 170.904 412.833 170.878 412.841 170.854C412.848 170.831 412.861 170.809 412.878 170.79C412.895 170.771 412.916 170.756 412.939 170.747C412.962 170.737 412.988 170.733 413.013 170.735L415.832 170.861C415.873 170.863 415.912 170.879 415.941 170.907C415.971 170.934 415.991 170.972 415.996 171.012L416.218 172.785C416.97 172.987 417.695 173.305 418.377 173.732L419.435 172.567C419.466 172.533 419.51 172.513 419.556 172.511C419.579 172.51 419.602 172.513 419.623 172.521C419.645 172.529 419.664 172.542 419.681 172.558L421.924 174.661C421.957 174.692 421.976 174.734 421.978 174.779C421.98 174.825 421.964 174.869 421.933 174.902L420.871 176.071C421.352 176.738 421.723 177.449 421.976 178.188L423.731 178.271C423.772 178.273 423.81 178.289 423.84 178.317C423.87 178.344 423.889 178.382 423.894 178.422L424.243 181.262C424.246 181.286 424.243 181.312 424.235 181.335C424.228 181.359 424.215 181.381 424.198 181.4C424.181 181.418 424.16 181.432 424.137 181.442C424.114 181.452 424.089 181.456 424.064 181.455L422.356 181.381C422.276 182.097 422.079 182.766 421.768 183.376L423.159 184.688C423.192 184.719 423.212 184.762 423.213 184.807C423.215 184.852 423.199 184.896 423.168 184.929L421.42 186.846C421.404 186.862 421.386 186.876 421.365 186.886C421.344 186.895 421.322 186.901 421.299 186.902C421.276 186.903 421.253 186.899 421.232 186.891C421.21 186.883 421.191 186.871 421.174 186.855L419.789 185.555C419.212 185.917 418.573 186.171 417.904 186.304L417.882 186.309L418.091 188.038C418.094 188.062 418.092 188.087 418.085 188.11C418.077 188.133 418.065 188.155 418.049 188.173C418.033 188.191 418.013 188.206 417.991 188.216C417.969 188.226 417.944 188.231 417.92 188.231L417.92 188.232ZM415.261 187.766L417.724 187.878L417.52 186.19C417.515 186.146 417.527 186.101 417.553 186.066C417.58 186.03 417.619 186.006 417.663 185.999C417.72 185.989 417.779 185.978 417.836 185.967C418.516 185.83 419.147 185.57 419.713 185.193C419.745 185.172 419.784 185.162 419.823 185.165C419.862 185.168 419.898 185.185 419.927 185.211L421.283 186.484L422.799 184.823L421.436 183.538C421.408 183.512 421.39 183.477 421.384 183.44C421.378 183.402 421.385 183.364 421.403 183.33C421.751 182.685 421.962 181.964 422.029 181.187C422.037 181.095 422.112 181.024 422.208 181.03L423.875 181.102L423.569 178.609L421.842 178.527C421.807 178.526 421.773 178.513 421.745 178.492C421.717 178.471 421.696 178.442 421.686 178.408C421.43 177.622 421.035 176.866 420.51 176.163C420.486 176.131 420.474 176.091 420.476 176.051C420.478 176.011 420.494 175.973 420.521 175.944L421.563 174.796L419.572 172.929L418.534 174.072C418.506 174.103 418.469 174.122 418.428 174.127C418.387 174.133 418.346 174.123 418.312 174.101C417.593 173.632 416.821 173.292 416.018 173.09C415.985 173.081 415.954 173.063 415.931 173.037C415.908 173.011 415.894 172.978 415.889 172.944L415.671 171.199L413.201 171.088L413.412 172.775C413.418 172.819 413.406 172.864 413.379 172.899C413.352 172.935 413.313 172.959 413.269 172.966C413.21 172.976 413.152 172.987 413.094 172.998C412.415 173.135 411.784 173.395 411.219 173.772C411.187 173.793 411.148 173.803 411.109 173.8C411.07 173.797 411.034 173.781 411.005 173.754L409.642 172.482L408.135 174.149L409.495 175.426C409.523 175.452 409.541 175.487 409.547 175.524C409.553 175.562 409.547 175.6 409.529 175.634C409.18 176.28 408.969 177.001 408.902 177.777C408.899 177.822 408.879 177.863 408.845 177.893C408.812 177.922 408.768 177.937 408.723 177.935L407.056 177.863L407.365 180.363L409.089 180.437C409.124 180.439 409.157 180.451 409.185 180.472C409.213 180.493 409.234 180.522 409.245 180.555C409.517 181.361 409.914 182.119 410.421 182.802C410.445 182.834 410.457 182.874 410.455 182.913C410.453 182.953 410.438 182.991 410.411 183.021L409.37 184.176L411.359 186.035L412.397 184.892C412.425 184.862 412.462 184.842 412.503 184.837C412.544 184.832 412.585 184.841 412.619 184.864C413.338 185.333 414.11 185.673 414.912 185.875C414.981 185.892 415.033 185.95 415.042 186.021L415.26 187.765L415.261 187.766ZM415.964 182.695C415.092 182.695 414.201 182.329 413.491 181.66C412.102 180.362 411.858 178.328 412.947 177.128C413.317 176.72 413.809 176.444 414.37 176.331C415.419 176.12 416.567 176.484 417.441 177.304C418.83 178.603 419.074 180.636 417.985 181.837C417.614 182.247 417.12 182.524 416.558 182.637C416.363 182.676 416.164 182.696 415.964 182.696V182.695ZM414.967 176.617C414.789 176.617 414.612 176.634 414.438 176.669C413.95 176.767 413.523 177.006 413.203 177.36C412.24 178.421 412.475 180.238 413.727 181.409C414.519 182.155 415.552 182.488 416.49 182.299C416.979 182.2 417.408 181.96 417.729 181.605C418.693 180.544 418.457 178.727 417.205 177.556C416.559 176.949 415.752 176.617 414.967 176.617V176.617Z" fill="#111111"/>
<path d="M518.882 151.39L508.005 153.578C507.232 153.733 506.841 154.513 507.13 155.326C507.419 156.14 508.275 156.669 509.048 156.514L519.925 154.326C520.698 154.171 521.088 153.39 520.8 152.577C520.511 151.764 519.656 151.235 518.882 151.39Z" fill="#FFDBBD"/>
<path d="M508.778 156.713C508.016 156.713 507.245 156.167 506.967 155.384C506.804 154.925 506.834 154.444 507.048 154.066C507.243 153.722 507.57 153.489 507.971 153.408L518.848 151.221C519.699 151.051 520.647 151.632 520.962 152.52C521.125 152.979 521.096 153.46 520.881 153.838C520.686 154.181 520.359 154.415 519.959 154.495L509.081 156.683C508.982 156.703 508.88 156.713 508.778 156.713L508.778 156.713ZM519.157 151.535C519.076 151.535 518.996 151.543 518.916 151.559L508.039 153.747C507.738 153.807 507.493 153.981 507.349 154.236C507.183 154.527 507.163 154.904 507.293 155.269C507.553 156.001 508.324 156.484 509.013 156.344L519.89 154.157C520.191 154.096 520.436 153.923 520.581 153.668C520.746 153.377 520.766 153 520.637 152.635C520.407 151.988 519.777 151.535 519.157 151.535Z" fill="#111111"/>
<path d="M520.776 156.726L509.899 158.914C509.126 159.069 508.738 159.857 509.027 160.67C509.313 161.475 510.171 162.013 510.945 161.858L521.822 159.67C522.595 159.515 522.982 158.726 522.696 157.921C522.408 157.108 521.55 156.571 520.776 156.726Z" fill="#FFDBBD"/>
<path d="M510.676 162.057C509.913 162.057 509.143 161.511 508.864 160.728C508.7 160.266 508.73 159.782 508.947 159.401C509.141 159.057 509.467 158.825 509.865 158.745L520.742 156.557C521.594 156.386 522.543 156.972 522.859 157.863C523.022 158.321 522.991 158.802 522.776 159.182C522.581 159.526 522.254 159.759 521.856 159.84L510.978 162.027C510.879 162.047 510.777 162.057 510.675 162.057L510.676 162.057ZM520.81 156.895L509.933 159.083C509.635 159.143 509.391 159.316 509.247 159.571C509.08 159.865 509.059 160.245 509.19 160.612C509.45 161.345 510.221 161.827 510.91 161.689L521.788 159.501C522.086 159.441 522.331 159.267 522.475 159.012C522.642 158.719 522.663 158.342 522.534 157.979C522.272 157.243 521.499 156.756 520.81 156.895H520.81Z" fill="#111111"/>
<path d="M522.673 162.07L511.796 164.258C511.023 164.413 510.633 165.194 510.921 166.006C511.21 166.82 512.066 167.35 512.839 167.194L523.716 165.007C524.489 164.851 524.879 164.071 524.591 163.257C524.302 162.445 523.447 161.915 522.673 162.07" fill="#FFDBBD"/>
<path d="M512.57 167.393C511.808 167.393 511.037 166.847 510.758 166.064C510.595 165.605 510.625 165.124 510.84 164.746C511.034 164.402 511.362 164.169 511.762 164.088L522.639 161.901C523.49 161.73 524.438 162.312 524.753 163.199C524.916 163.659 524.887 164.14 524.672 164.518C524.477 164.861 524.15 165.095 523.75 165.175L512.872 167.363C512.773 167.383 512.671 167.393 512.57 167.393L512.57 167.393ZM522.707 162.239L511.83 164.427C511.529 164.487 511.284 164.661 511.14 164.916C510.975 165.207 510.954 165.584 511.084 165.949C511.344 166.681 512.117 167.164 512.804 167.025L523.682 164.837C523.982 164.777 524.227 164.603 524.372 164.348C524.537 164.057 524.558 163.68 524.428 163.315C524.168 162.583 523.396 162.101 522.707 162.239ZM542.905 395.357C540.541 395.357 538.115 394.641 535.889 393.263C532.958 391.448 530.723 388.702 529.598 385.531C528.467 382.347 528.585 379.115 529.928 376.429C531.275 373.737 533.69 371.918 536.729 371.307C539.76 370.697 543.042 371.363 545.97 373.183C548.9 374.998 551.136 377.747 552.263 380.923C553.392 384.102 553.273 387.331 551.93 390.017C550.591 392.707 548.179 394.526 545.137 395.137C544.402 395.285 543.654 395.358 542.905 395.357ZM538.963 371.432C538.235 371.431 537.51 371.502 536.797 371.645C533.865 372.235 531.535 373.989 530.237 376.583C528.936 379.185 528.824 382.321 529.923 385.416C531.022 388.513 533.206 391.196 536.071 392.97C538.931 394.741 542.127 395.391 545.069 394.799C548.004 394.209 550.331 392.456 551.621 389.863V389.863C552.922 387.262 553.034 384.128 551.938 381.038C550.836 377.936 548.652 375.25 545.787 373.476C543.623 372.131 541.262 371.432 538.962 371.432L538.963 371.432Z" fill="#111111"/>
<path d="M537.875 374.606C533.348 375.517 531.048 380.115 532.737 384.875C534.427 389.635 539.466 392.749 543.992 391.838C548.519 390.928 550.822 386.338 549.132 381.577C547.442 376.818 542.401 373.696 537.875 374.606Z" fill="#FFDBBD"/>
<path d="M542.397 392.168C538.271 392.168 534.088 389.195 532.575 384.933C531.701 382.471 531.855 379.904 532.997 377.889C534.019 376.086 535.739 374.86 537.841 374.437C542.442 373.513 547.58 376.69 549.295 381.52C550.168 383.979 550.014 386.543 548.874 388.555C547.851 390.358 546.13 391.585 544.027 392.008C543.489 392.116 542.943 392.168 542.397 392.168ZM537.909 374.776C535.907 375.178 534.269 376.344 533.297 378.059C532.205 379.987 532.06 382.45 532.9 384.817C534.365 388.943 538.407 391.823 542.39 391.824C542.916 391.824 543.441 391.773 543.958 391.669C545.962 391.266 547.601 390.1 548.573 388.385C549.664 386.46 549.809 384 548.969 381.635C547.309 376.96 542.347 373.883 537.909 374.775L537.909 374.776Z" fill="#111111"/>
<path d="M565.532 336.681C564.602 334.06 561.829 332.343 559.337 332.844L491.589 346.469C489.097 346.97 487.831 349.5 488.762 352.121C489.692 354.741 492.465 356.459 494.957 355.957L562.705 342.332C565.197 341.831 566.463 339.302 565.532 336.681Z" fill="white"/>
<path d="M494.08 356.216C491.777 356.216 489.443 354.557 488.598 352.179C488.11 350.802 488.196 349.366 488.836 348.237C489.409 347.226 490.375 346.538 491.554 346.3L559.302 332.675C561.87 332.16 564.738 333.93 565.694 336.624C566.183 338 566.096 339.437 565.457 340.565C564.883 341.577 563.918 342.265 562.739 342.502L494.991 356.127C494.69 356.187 494.386 356.216 494.08 356.216L494.08 356.216ZM560.218 332.93C559.934 332.93 559.65 332.957 559.37 333.013L491.622 346.638C490.542 346.856 489.659 347.484 489.136 348.408C488.546 349.449 488.468 350.781 488.923 352.063C489.824 354.601 492.516 356.273 494.923 355.788L562.67 342.163C563.75 341.946 564.633 341.318 565.157 340.394C565.747 339.353 565.824 338.021 565.369 336.739C564.573 334.496 562.379 332.93 560.218 332.93Z" fill="#111111"/>
<path d="M536.628 337.411L491.588 346.469C489.096 346.971 487.83 349.5 488.761 352.121C489.691 354.741 492.464 356.459 494.957 355.957L539.997 346.899C542.489 346.398 543.755 343.869 542.824 341.248C541.894 338.627 539.12 336.91 536.628 337.411Z" fill="#BC5C00"/>
<path d="M494.081 356.216C491.777 356.216 489.443 354.557 488.598 352.179C488.11 350.802 488.196 349.366 488.836 348.237C489.409 347.226 490.375 346.538 491.554 346.3L536.594 337.242C539.163 336.726 542.031 338.497 542.987 341.19C543.475 342.567 543.389 344.003 542.749 345.131C542.176 346.143 541.21 346.831 540.031 347.069L494.991 356.127C494.69 356.187 494.386 356.216 494.081 356.216ZM536.662 337.58L491.622 346.638C490.542 346.856 489.66 347.484 489.136 348.408C488.546 349.449 488.468 350.781 488.924 352.063C489.825 354.601 492.517 356.274 494.923 355.788L539.963 346.73C541.043 346.513 541.926 345.885 542.449 344.961C543.039 343.92 543.117 342.588 542.662 341.306C541.761 338.768 539.069 337.095 536.662 337.58ZM468.428 324.314C468.321 324.314 468.217 324.281 468.13 324.219C468.042 324.157 467.976 324.07 467.941 323.97L462.342 308.2C462.296 308.071 462.303 307.929 462.362 307.805C462.421 307.681 462.527 307.585 462.657 307.539C462.786 307.494 462.928 307.501 463.052 307.56C463.176 307.619 463.272 307.725 463.318 307.854L468.766 323.201L483.316 320.274C483.45 320.247 483.59 320.275 483.705 320.351C483.819 320.427 483.898 320.545 483.926 320.68C483.953 320.814 483.925 320.954 483.849 321.068C483.773 321.183 483.655 321.262 483.52 321.289L468.531 324.304C468.496 324.311 468.462 324.314 468.428 324.314L468.428 324.314ZM549.393 308.031C549.265 308.031 549.141 307.983 549.046 307.897C548.95 307.811 548.891 307.692 548.878 307.565C548.865 307.437 548.901 307.309 548.977 307.205C549.054 307.102 549.166 307.031 549.292 307.006L563.703 304.108L558.304 288.901C558.281 288.837 558.271 288.769 558.275 288.702C558.278 288.634 558.295 288.567 558.324 288.506C558.353 288.444 558.394 288.389 558.445 288.344C558.495 288.298 558.554 288.263 558.618 288.24C558.683 288.218 558.75 288.208 558.818 288.211C558.886 288.215 558.953 288.232 559.014 288.261C559.076 288.29 559.131 288.331 559.176 288.382C559.222 288.432 559.257 288.491 559.28 288.555L564.878 304.324C564.903 304.394 564.912 304.469 564.906 304.542C564.899 304.616 564.877 304.688 564.841 304.753C564.804 304.817 564.754 304.873 564.694 304.917C564.634 304.96 564.565 304.99 564.492 305.005L549.496 308.021C549.461 308.028 549.427 308.031 549.393 308.031ZM534.161 219.868C534.054 219.868 533.949 219.835 533.862 219.773C533.775 219.711 533.709 219.624 533.673 219.523L528.227 204.184L513.67 207.111C513.536 207.138 513.396 207.111 513.282 207.035C513.167 206.959 513.088 206.84 513.061 206.706C513.034 206.571 513.061 206.431 513.137 206.317C513.213 206.203 513.332 206.123 513.466 206.096L528.463 203.081C528.585 203.056 528.712 203.076 528.82 203.138C528.928 203.199 529.011 203.298 529.052 203.415L534.649 219.177C534.676 219.255 534.685 219.339 534.674 219.421C534.662 219.503 534.631 219.581 534.584 219.649C534.536 219.717 534.473 219.772 534.399 219.81C534.325 219.848 534.244 219.868 534.161 219.868ZM438.199 239.167C438.092 239.167 437.987 239.134 437.9 239.072C437.813 239.01 437.747 238.923 437.711 238.822L432.115 223.06C432.09 222.99 432.08 222.916 432.087 222.842C432.093 222.768 432.116 222.697 432.152 222.632C432.189 222.567 432.239 222.512 432.299 222.468C432.359 222.424 432.428 222.394 432.5 222.38L447.49 219.365C447.625 219.338 447.764 219.365 447.879 219.441C447.993 219.517 448.073 219.636 448.1 219.77C448.127 219.905 448.099 220.045 448.023 220.159C447.947 220.273 447.829 220.353 447.694 220.38L433.29 223.277L438.686 238.476C438.714 238.554 438.723 238.638 438.712 238.72C438.7 238.802 438.669 238.88 438.622 238.948C438.574 239.016 438.51 239.071 438.437 239.109C438.363 239.147 438.282 239.167 438.199 239.167ZM505.824 303.095C505.8 303.095 505.776 303.09 505.754 303.08C505.731 303.07 505.712 303.056 505.695 303.038C505.679 303.02 505.667 302.998 505.659 302.975C505.652 302.952 505.65 302.928 505.652 302.904C505.926 300.416 506.965 287.158 500.473 270.373C500.458 270.331 500.46 270.284 500.479 270.243C500.497 270.202 500.531 270.17 500.573 270.154C500.615 270.138 500.662 270.138 500.704 270.156C500.745 270.174 500.778 270.207 500.795 270.249C507.315 287.108 506.271 300.44 505.995 302.941C505.985 303.03 505.911 303.095 505.824 303.095Z" fill="#111111"/>
<path d="M516.404 301.532H516.4C516.354 301.531 516.31 301.512 516.279 301.479C516.247 301.446 516.23 301.401 516.231 301.356C516.412 293.661 514.872 280.929 510.003 268.272C507.847 262.668 501.099 259.352 495.846 261.314C493.857 262.057 492.28 263.539 491.404 265.489C490.403 267.717 490.402 270.368 491.402 272.954C496.166 285.272 496.216 294.996 495.822 299.697C495.82 299.72 495.814 299.742 495.803 299.762C495.793 299.782 495.779 299.8 495.761 299.814C495.744 299.829 495.724 299.84 495.702 299.847C495.681 299.854 495.658 299.856 495.635 299.854C495.59 299.85 495.548 299.829 495.518 299.794C495.489 299.759 495.474 299.714 495.478 299.668C495.87 294.997 495.819 285.332 491.081 273.078C490.047 270.406 490.05 267.66 491.089 265.347C492.003 263.313 493.649 261.766 495.725 260.991C498.313 260.024 501.401 260.246 504.197 261.601C507.016 262.965 509.249 265.352 510.325 268.148C515.212 280.852 516.758 293.636 516.576 301.364C516.575 301.409 516.557 301.452 516.524 301.483C516.492 301.515 516.449 301.532 516.404 301.532Z" fill="#111111"/>
<path d="M485.558 292.03C485.515 292.03 485.474 292.014 485.443 291.985C485.411 291.956 485.391 291.917 485.387 291.874C485.017 288.137 483.765 281.68 481.359 274.764C479.646 269.839 479.615 264.986 481.269 260.729C482.919 256.481 486.085 253.237 490.423 251.351C494.965 249.375 500.815 249.646 506.472 252.096C512.175 254.565 516.774 258.88 519.09 263.936C522.884 272.218 525.044 283.187 526.189 290.93C526.192 290.952 526.191 290.975 526.185 290.997C526.18 291.019 526.17 291.04 526.157 291.058C526.143 291.076 526.126 291.092 526.107 291.103C526.087 291.115 526.066 291.123 526.043 291.126C525.998 291.132 525.952 291.121 525.915 291.093C525.879 291.066 525.854 291.026 525.847 290.98C524.706 283.259 522.553 272.324 518.776 264.08C516.495 259.101 511.961 254.848 506.335 252.412C500.765 250.001 495.016 249.729 490.561 251.667C481.933 255.42 478.283 264.871 481.685 274.651C484.101 281.595 485.359 288.083 485.73 291.84C485.733 291.864 485.73 291.889 485.723 291.912C485.715 291.934 485.703 291.955 485.687 291.973C485.67 291.991 485.651 292.005 485.629 292.015C485.607 292.025 485.583 292.03 485.559 292.03L485.558 292.03Z" fill="#111111"/>
<path d="M469.946 265.38C469.943 265.38 469.94 265.38 469.936 265.38C469.914 265.379 469.891 265.373 469.871 265.363C469.851 265.353 469.832 265.339 469.817 265.323C469.802 265.306 469.791 265.286 469.783 265.265C469.776 265.243 469.772 265.221 469.774 265.198C470.461 252.838 476.955 243.968 487.592 240.863C493.685 239.084 500.666 239.437 507.248 241.858C514.238 244.429 520.302 249.08 524.785 255.308C524.811 255.345 524.822 255.391 524.815 255.437C524.807 255.482 524.782 255.522 524.745 255.549C524.708 255.576 524.662 255.587 524.617 255.579C524.572 255.572 524.531 255.547 524.504 255.51C515.727 243.315 500.588 237.428 487.689 241.194C477.201 244.255 470.797 253.012 470.118 265.217C470.116 265.261 470.096 265.303 470.064 265.333C470.032 265.363 469.99 265.38 469.946 265.38H469.946ZM468.772 240.104C468.739 240.104 468.706 240.095 468.679 240.077C468.651 240.059 468.628 240.033 468.615 240.003C468.601 239.973 468.597 239.939 468.602 239.906C468.607 239.873 468.621 239.843 468.643 239.818C472.88 235.025 479.128 231.581 486.236 230.12C493.712 228.585 501.563 229.278 508.941 232.125C508.983 232.143 509.016 232.176 509.033 232.217C509.051 232.258 509.052 232.305 509.035 232.347C509.019 232.388 508.987 232.422 508.947 232.441C508.906 232.46 508.859 232.462 508.817 232.447C494.242 226.822 477.828 229.947 468.902 240.046C468.886 240.064 468.866 240.079 468.843 240.089C468.821 240.099 468.797 240.104 468.772 240.104H468.772ZM511.1 303.111H511.093C511.071 303.11 511.048 303.105 511.028 303.095C511.007 303.086 510.989 303.072 510.973 303.056C510.958 303.039 510.946 303.019 510.938 302.998C510.93 302.977 510.927 302.954 510.928 302.932C511.259 294.677 510.863 284.274 505.416 269.694C504.901 268.315 503.629 267.031 502.097 266.343C500.804 265.762 499.498 265.672 498.42 266.088C495.641 267.163 495.576 270.179 496.366 272.436C500.331 283.772 501.88 293.841 500.845 301.557L500.819 301.753C500.813 301.798 500.789 301.839 500.753 301.867C500.717 301.895 500.671 301.907 500.626 301.902C500.604 301.899 500.582 301.892 500.562 301.881C500.543 301.869 500.525 301.854 500.512 301.836C500.498 301.818 500.487 301.798 500.482 301.776C500.476 301.754 500.474 301.731 500.477 301.709L500.503 301.511C501.531 293.849 499.987 283.835 496.04 272.55C494.933 269.387 495.819 266.724 498.296 265.767C499.461 265.317 500.861 265.409 502.238 266.028C503.851 266.752 505.193 268.111 505.739 269.574C511.208 284.21 511.605 294.657 511.272 302.946C511.271 302.99 511.252 303.032 511.22 303.063C511.187 303.094 511.145 303.111 511.1 303.111L511.1 303.111Z" fill="#111111"/>
<path d="M521.509 297.866C521.465 297.866 521.423 297.849 521.391 297.819C521.359 297.789 521.34 297.747 521.337 297.704C520.761 287.932 518.52 277.297 515.029 267.759C511.581 258.339 501.506 254.003 494.622 256.002C491.088 257.028 488.416 259.197 486.893 262.272C485.164 265.766 485.111 270.196 486.747 274.427C490.827 284.977 490.828 293.328 490.829 296.471C490.829 296.517 490.81 296.561 490.778 296.593C490.746 296.625 490.702 296.644 490.656 296.644C490.61 296.644 490.566 296.625 490.534 296.593C490.502 296.561 490.483 296.517 490.483 296.471C490.483 293.345 490.482 285.042 486.425 274.551C484.754 270.23 484.812 265.699 486.584 262.119C488.15 258.955 490.897 256.725 494.525 255.671C497.92 254.685 502.225 255.246 506.041 257.171C510.375 259.357 513.682 263.075 515.353 267.64C518.856 277.21 521.103 287.879 521.681 297.683C521.684 297.729 521.668 297.774 521.638 297.808C521.608 297.842 521.565 297.863 521.519 297.866L521.509 297.866L521.509 297.866Z" fill="#111111"/>
<path d="M479.281 284.528C479.242 284.528 479.205 284.515 479.174 284.491C479.144 284.467 479.123 284.434 479.113 284.397C478.857 283.353 478.309 281.637 477.728 279.821C477.004 277.557 476.255 275.215 475.868 273.574C472.622 259.808 478.789 248.514 491.214 245.471C496.051 244.286 501.957 244.915 507.417 247.197C511.723 248.997 517.782 252.657 522.193 259.876C525.264 264.904 527.598 273.515 528.72 277.653C528.806 277.971 528.885 278.265 528.958 278.531C528.97 278.575 528.964 278.622 528.941 278.662C528.918 278.701 528.881 278.73 528.837 278.742C528.793 278.754 528.746 278.748 528.707 278.726C528.667 278.703 528.638 278.666 528.625 278.622C528.552 278.356 528.473 278.062 528.387 277.744C527.269 273.621 524.944 265.042 521.898 260.056C514.392 247.77 500.529 243.544 491.296 245.806C479.07 248.8 473.006 259.928 476.204 273.495C476.588 275.123 477.368 277.564 478.057 279.717C478.639 281.538 479.19 283.259 479.449 284.315C479.455 284.34 479.455 284.367 479.45 284.392C479.444 284.418 479.433 284.442 479.417 284.462C479.401 284.483 479.38 284.5 479.356 284.511C479.333 284.522 479.307 284.528 479.281 284.528L479.281 284.528Z" fill="#111111"/>
<path d="M467.593 251.735C467.564 251.735 467.536 251.728 467.51 251.714C467.485 251.7 467.463 251.679 467.448 251.655C467.432 251.63 467.423 251.602 467.421 251.573C467.419 251.544 467.425 251.515 467.438 251.488C471.343 243.277 477.931 237.776 486.49 235.579C496.624 232.978 508.601 235.456 517.747 242.046C517.784 242.072 517.809 242.113 517.816 242.158C517.823 242.203 517.813 242.249 517.786 242.287C517.759 242.324 517.719 242.349 517.673 242.356C517.628 242.363 517.582 242.352 517.545 242.326C508.48 235.794 496.613 233.338 486.576 235.913C478.119 238.083 471.609 243.52 467.749 251.636C467.72 251.698 467.658 251.735 467.593 251.735L467.593 251.735ZM475.243 228.533C475.205 228.532 475.168 228.52 475.137 228.496C475.107 228.472 475.086 228.439 475.076 228.402C475.067 228.365 475.07 228.326 475.085 228.291C475.101 228.256 475.127 228.227 475.161 228.208C479.654 225.785 488.515 223.653 495.566 224.281C495.612 224.286 495.654 224.308 495.683 224.343C495.713 224.378 495.727 224.423 495.723 224.469C495.721 224.491 495.715 224.513 495.704 224.533C495.694 224.554 495.679 224.571 495.662 224.586C495.644 224.601 495.624 224.611 495.603 224.618C495.581 224.625 495.558 224.627 495.536 224.625C488.55 224.003 479.773 226.113 475.325 228.512C475.3 228.525 475.272 228.533 475.243 228.533Z" fill="#111111"/>
</g>
<g clip-path="url(#clip3_32_72)">
<path d="M413.72 308.623C413.846 308.777 413.437 309.357 412.553 310.211L368.929 352.329L410.792 403.978L454.415 361.86C455.3 361.007 455.708 360.427 455.583 360.272L413.72 308.623Z" fill="#FFDBBD"/>
<path d="M410.873 404.169C410.832 404.186 410.786 404.19 410.742 404.179C410.698 404.168 410.659 404.144 410.631 404.109L368.768 352.459C368.736 352.419 368.719 352.368 368.723 352.316C368.726 352.265 368.748 352.216 368.786 352.18L412.409 310.062C413.374 309.13 413.513 308.782 413.532 308.71C413.511 308.664 413.507 308.612 413.522 308.564C413.536 308.515 413.568 308.474 413.611 308.447C413.654 308.42 413.705 308.41 413.755 308.419C413.805 308.427 413.85 308.453 413.882 308.492L455.744 360.142C455.843 360.263 456.073 360.548 454.56 362.009L410.936 404.127C410.918 404.145 410.897 404.159 410.873 404.169ZM369.21 352.346L410.811 403.672L454.272 361.711C455.208 360.807 455.366 360.453 455.393 360.367L413.817 309.071C413.656 309.345 413.329 309.75 412.697 310.36L369.21 352.346Z" fill="#111111"/>
<path d="M421.878 364.149L415.92 356.799C417.147 353.489 416.489 349.311 413.942 346.168C410.504 341.926 404.921 341.184 401.474 344.513C398.027 347.841 398.02 353.979 401.458 358.222C404.006 361.365 407.728 362.587 410.888 361.659L416.845 369.009C418.226 370.713 420.487 371.011 421.869 369.676C423.254 368.339 423.259 365.854 421.878 364.149Z" fill="#BC5C00"/>
<path d="M421.051 370.464C420.597 370.657 420.097 370.743 419.58 370.712C418.496 370.646 417.44 370.073 416.683 369.139L410.812 361.896C407.505 362.802 403.785 361.421 401.297 358.352C397.798 354.035 397.812 347.76 401.329 344.364C402.885 342.862 404.948 342.107 407.138 342.238C409.734 342.394 412.272 343.779 414.103 346.038C416.589 349.105 417.388 353.299 416.154 356.759L422.039 364.019C423.488 365.807 423.476 368.412 422.013 369.825C421.734 370.095 421.408 370.311 421.051 370.464ZM403.8 343.211C403 343.551 402.263 344.038 401.617 344.661C398.251 347.912 398.252 353.936 401.62 358.091C404.035 361.072 407.65 362.394 410.829 361.461C410.869 361.449 410.91 361.45 410.95 361.462C410.989 361.474 411.023 361.497 411.049 361.529L417.006 368.879C417.69 369.723 418.638 370.24 419.605 370.298C420.408 370.346 421.16 370.073 421.725 369.527C423.038 368.26 423.034 365.905 421.717 364.28L415.758 356.929C415.736 356.901 415.721 356.868 415.715 356.832C415.709 356.797 415.713 356.76 415.725 356.727C416.967 353.381 416.203 349.287 413.781 346.299C412.023 344.13 409.593 342.801 407.113 342.652C405.949 342.582 404.824 342.776 403.8 343.211Z" fill="#111111"/>
<path d="M401.514 315.266C402.841 313.984 404.74 312.568 405.752 312.105L413.123 308.729C414.136 308.265 413.879 308.93 412.553 310.211L368.929 352.329C367.6 353.613 365.703 355.027 364.69 355.491L357.319 358.866C356.308 359.329 356.562 358.667 357.891 357.384L401.514 315.266Z" fill="white"/>
<path d="M357.311 359.096C357.02 359.22 356.698 359.305 356.546 359.084C356.461 358.959 356.262 358.668 357.747 357.235L401.37 315.117C402.71 313.823 404.637 312.388 405.665 311.917L413.036 308.541C413.348 308.399 413.728 308.266 413.896 308.512C413.981 308.636 414.18 308.927 412.696 310.36L369.073 352.477C367.733 353.771 365.806 355.207 364.776 355.679L357.405 359.054C357.374 359.068 357.343 359.082 357.311 359.096ZM356.952 358.786C357.015 358.768 357.105 358.736 357.233 358.678L364.604 355.302C365.598 354.847 367.473 353.447 368.785 352.18L412.408 310.062C413.149 309.347 413.403 308.975 413.49 308.809C413.394 308.838 413.299 308.874 413.209 308.918L405.838 312.293C404.845 312.747 402.97 314.148 401.658 315.414L358.035 357.532C357.294 358.248 357.039 358.619 356.952 358.786Z" fill="#111111"/>
<path d="M367.473 349.985C366.121 351.291 365.86 351.968 366.89 351.496C367.923 351.023 369.856 349.581 371.208 348.275C372.56 346.97 372.823 346.292 371.79 346.765C370.76 347.237 368.825 348.68 367.473 349.985Z" fill="white"/>
<path d="M366.881 351.727C366.587 351.852 366.26 351.938 366.108 351.715C366.022 351.589 365.82 351.294 367.33 349.837C368.695 348.519 370.658 347.056 371.705 346.577C372.021 346.432 372.406 346.298 372.575 346.545C372.661 346.671 372.862 346.966 371.352 348.424C369.987 349.742 368.025 351.204 366.977 351.684C366.946 351.698 366.914 351.713 366.881 351.727ZM366.51 351.42C366.574 351.403 366.669 351.37 366.805 351.308C367.817 350.845 369.727 349.417 371.064 348.127C371.831 347.386 372.087 347.007 372.172 346.84C372.108 346.858 372.013 346.891 371.877 346.953C370.865 347.416 368.954 348.843 367.617 350.134C366.851 350.875 366.595 351.254 366.51 351.42Z" fill="#111111"/>
<path d="M399.235 319.32C397.883 320.626 397.622 321.303 398.652 320.831C399.685 320.358 401.617 318.916 402.969 317.61C404.324 316.302 404.584 315.627 403.552 316.1C402.521 316.572 400.589 318.012 399.235 319.32Z" fill="white"/>
<path d="M398.642 321.061C398.348 321.186 398.021 321.273 397.869 321.05C397.783 320.924 397.581 320.629 399.09 319.171C400.455 317.854 402.418 316.391 403.465 315.912C403.782 315.767 404.167 315.632 404.336 315.88C404.422 316.006 404.624 316.3 403.113 317.759C401.748 319.077 399.785 320.539 398.738 321.019C398.706 321.033 398.674 321.047 398.642 321.061ZM398.271 320.755C398.335 320.738 398.43 320.704 398.566 320.643C399.577 320.179 401.488 318.752 402.825 317.461C403.592 316.721 403.848 316.342 403.933 316.175C403.869 316.192 403.774 316.225 403.638 316.288C402.626 316.751 400.715 318.178 399.378 319.469C398.612 320.209 398.356 320.588 398.271 320.755Z" fill="#111111"/>
<path d="M368.93 352.329C367.601 353.613 365.704 355.027 364.691 355.491L357.32 358.866C356.982 359.021 356.786 359.05 356.723 358.973L398.585 410.622C398.648 410.7 398.845 410.67 399.182 410.516L406.553 407.14C407.567 406.676 409.463 405.262 410.793 403.979L368.93 352.329Z" fill="#FFDBBD"/>
<path d="M399.169 410.748C398.879 410.871 398.582 410.947 398.424 410.752L356.561 359.103C356.529 359.064 356.513 359.014 356.515 358.963C356.517 358.913 356.537 358.865 356.573 358.828C356.608 358.792 356.655 358.77 356.706 358.766C356.756 358.762 356.806 358.776 356.847 358.807C356.884 358.805 356.992 358.788 357.233 358.678L364.604 355.302C365.598 354.847 367.474 353.447 368.785 352.18C368.806 352.16 368.831 352.145 368.858 352.135C368.885 352.125 368.913 352.12 368.942 352.122C368.971 352.124 368.999 352.131 369.025 352.145C369.05 352.158 369.073 352.176 369.091 352.198L410.953 403.848C410.986 403.888 411.002 403.939 410.999 403.991C410.996 404.042 410.974 404.091 410.936 404.127C409.596 405.421 407.669 406.857 406.639 407.328L399.268 410.703C399.235 410.719 399.202 410.733 399.169 410.748ZM398.717 410.455C398.76 410.452 398.869 410.431 399.096 410.327L406.467 406.952C407.426 406.512 409.209 405.191 410.511 403.961L368.91 352.634C367.58 353.885 365.765 355.226 364.776 355.679L357.405 359.054C357.318 359.094 357.229 359.132 357.142 359.161L398.717 410.455Z" fill="#111111"/>
<path d="M388.101 304.538C382.044 297.066 372.896 294.641 365.707 297.933L362.082 299.593C369.271 296.3 378.42 298.726 384.476 306.198L397.15 321.835L400.775 320.175L388.101 304.538Z" fill="#BC5C00"/>
<path d="M397.231 322.026C397.189 322.043 397.143 322.047 397.099 322.036C397.056 322.025 397.017 322.001 396.989 321.966L384.314 306.328C381.403 302.737 377.714 300.223 373.646 299.058C369.718 297.933 365.641 298.191 362.168 299.781C362.063 299.833 361.94 299.783 361.893 299.679C361.845 299.575 361.891 299.452 361.995 299.404L365.62 297.745C369.185 296.112 373.362 295.848 377.385 297C381.535 298.188 385.296 300.75 388.261 304.408L400.936 320.045C400.956 320.07 400.97 320.098 400.977 320.129C400.984 320.16 400.984 320.192 400.976 320.223C400.969 320.253 400.955 320.282 400.935 320.306C400.915 320.331 400.889 320.35 400.861 320.364L397.236 322.023L397.231 322.026ZM365.42 298.291C368.104 297.743 370.969 297.861 373.761 298.66C377.911 299.848 381.672 302.41 384.636 306.068L397.21 321.58L400.445 320.099L387.939 304.669C385.028 301.077 381.339 298.563 377.271 297.398C373.343 296.273 369.266 296.532 365.792 298.121L365.42 298.291Z" fill="#111111"/>
<path d="M360.287 292.182L356.662 293.842C357.389 293.397 358.136 293.001 358.9 292.651L362.525 290.991C361.761 291.341 361.014 291.738 360.287 292.182Z" fill="white"/>
<path d="M356.743 294.033C356.695 294.053 356.641 294.054 356.592 294.037C356.543 294.019 356.502 293.983 356.478 293.937C356.454 293.89 356.449 293.837 356.463 293.786C356.477 293.736 356.51 293.693 356.554 293.666C357.281 293.221 358.041 292.817 358.814 292.463L362.438 290.803L362.439 290.803C362.463 290.791 362.49 290.785 362.518 290.783C362.545 290.782 362.572 290.786 362.598 290.796C362.623 290.805 362.647 290.82 362.667 290.839C362.687 290.857 362.702 290.88 362.713 290.905C362.736 290.955 362.738 291.012 362.719 291.063C362.7 291.114 362.661 291.156 362.611 291.179C361.853 291.526 361.108 291.923 360.395 292.359C360.388 292.363 360.381 292.367 360.373 292.37L356.749 294.03L356.743 294.033Z" fill="#111111"/>
<path d="M356.513 295.108C366.595 285.375 383.072 287.563 393.129 299.971L405.673 315.447L400.775 320.176L388.101 304.538C380.701 295.409 368.685 293.813 361.267 300.975C353.849 308.137 353.837 321.345 361.237 330.475L373.912 346.112L369.012 350.843L356.468 335.367C346.411 322.959 346.431 304.842 356.513 295.108Z" fill="#FFDBBD"/>
<path d="M369.092 351.034C369.051 351.051 369.005 351.055 368.961 351.044C368.917 351.033 368.878 351.009 368.85 350.974L356.306 335.497C346.158 322.976 346.186 304.791 356.369 294.96C360.835 290.647 366.781 288.482 373.112 288.863C380.648 289.316 388.003 293.317 393.29 299.84L405.834 315.317C405.867 315.357 405.883 315.408 405.88 315.459C405.877 315.511 405.854 315.56 405.817 315.596L400.919 320.324C400.899 320.344 400.874 320.359 400.847 320.369C400.82 320.379 400.791 320.384 400.763 320.382C400.734 320.38 400.706 320.373 400.68 320.359C400.655 320.346 400.632 320.328 400.614 320.306L387.94 304.668C384.115 299.949 378.822 297.057 373.419 296.732C368.891 296.46 364.626 298.019 361.411 301.123C354.081 308.201 354.075 321.309 361.398 330.344L374.073 345.982C374.105 346.022 374.122 346.073 374.118 346.124C374.115 346.176 374.093 346.225 374.055 346.261L369.156 350.991C369.137 351.009 369.116 351.024 369.092 351.034ZM356.513 295.108L356.657 295.257C351.821 299.925 349.154 306.665 349.145 314.235C349.137 321.813 351.795 329.272 356.629 335.236L369.031 350.537L373.631 346.095L361.076 330.605C353.621 321.408 353.642 308.049 361.123 300.826C364.423 297.64 368.799 296.04 373.444 296.319C378.963 296.65 384.365 299.599 388.262 304.407L400.794 319.869L405.392 315.43L392.968 300.101C387.753 293.667 380.507 289.722 373.086 289.276C366.873 288.902 361.038 291.026 356.656 295.257L356.513 295.108Z" fill="#111111"/>
<path d="M356.662 293.842C355.3 294.677 354.034 295.658 352.887 296.768C344.982 304.401 343.263 317.186 347.737 328.333C348.995 331.47 350.715 334.4 352.842 337.027L365.386 352.503L369.011 350.843L356.467 335.367C354.34 332.74 352.62 329.81 351.362 326.673C346.888 315.526 348.607 302.741 356.512 295.108C357.69 293.971 358.955 292.997 360.287 292.182L356.662 293.842Z" fill="white"/>
<path d="M365.467 352.694C365.426 352.711 365.38 352.715 365.336 352.704C365.292 352.693 365.253 352.669 365.225 352.634L352.681 337.157C350.541 334.515 348.81 331.567 347.545 328.41C342.913 316.87 345.002 304.094 352.743 296.62C353.902 295.499 355.18 294.509 356.555 293.666C356.562 293.661 356.569 293.658 356.576 293.654L360.201 291.994C360.302 291.947 360.419 291.988 360.471 292.085C360.522 292.182 360.489 292.302 360.396 292.359C359.062 293.174 357.804 294.149 356.657 295.257C349.035 302.616 346.984 315.21 351.555 326.596C352.804 329.714 354.514 332.626 356.629 335.237L369.172 350.713C369.192 350.737 369.206 350.766 369.213 350.797C369.22 350.828 369.22 350.86 369.213 350.89C369.206 350.921 369.192 350.95 369.172 350.974C369.152 350.999 369.126 351.018 369.097 351.031L365.472 352.691L365.467 352.694ZM356.76 294.025C355.43 294.839 354.176 295.812 353.031 296.917C345.41 304.276 343.36 316.87 347.93 328.256C349.179 331.374 350.889 334.286 353.004 336.896L365.446 352.248L368.682 350.766L356.306 335.497C354.166 332.855 352.434 329.907 351.17 326.751C346.538 315.21 348.627 302.434 356.368 294.96C356.957 294.391 357.576 293.856 358.223 293.355L356.76 294.025Z" fill="#111111"/>
</g>
<defs>
<linearGradient id="paint0_linear_32_72" x1="1000" y1="563" x2="518.639" y2="-291.994" gradientUnits="userSpaceOnUse">
<stop stop-color="white"/>
<stop offset="1" stop-color="white" stop-opacity="0"/>
</linearGradient>
<clipPath id="clip0_32_72">
<rect width="219.283" height="297.389" fill="white" transform="translate(379.665 133.888) rotate(-3.29302)"/>
</clipPath>
<clipPath id="clip1_32_72">
<rect width="72.7488" height="60.48" fill="white" transform="translate(566.183 150.154)"/>
</clipPath>
<clipPath id="clip2_32_72">
<rect width="159.322" height="244.166" fill="white" transform="translate(406.688 151.19)"/>
</clipPath>
<clipPath id="clip3_32_72">
<rect width="90.8928" height="124.762" fill="white" transform="translate(332.854 303.372) rotate(-23.0331)"/>
</clipPath>
</defs>
</svg>
