<svg width="1000" height="563" viewBox="0 0 1000 563" fill="none" xmlns="http://www.w3.org/2000/svg">
<rect width="1000" height="563" fill="#D23B2C"/>
<rect width="1000" height="563" fill="url(#paint0_linear_32_2236)" fill-opacity="0.2"/>
<path d="M669.483 188.682L564.147 448.726L341.276 374.319L446.613 114.276L669.483 188.682Z" fill="white"/>
<path d="M564.147 449.003C564.118 449.003 564.088 448.998 564.059 448.988L341.189 374.582C341.117 374.558 341.057 374.505 341.025 374.435C340.994 374.366 340.992 374.287 341.02 374.216L446.357 114.173C446.412 114.037 446.563 113.969 446.701 114.014L669.571 188.42C669.644 188.444 669.703 188.497 669.735 188.567C669.767 188.636 669.769 188.716 669.741 188.787L564.404 448.83C564.36 448.937 564.257 449.003 564.147 449.003ZM341.644 374.15L563.988 448.381L669.117 188.852L446.772 114.621L341.644 374.15Z" fill="#111111"/>
<path d="M592.602 200.728L538.796 182.764L534.803 192.622L588.609 210.585L592.602 200.728Z" fill="#C42F21"/>
<path d="M588.609 210.862C588.58 210.862 588.551 210.857 588.522 210.848L534.716 192.885C534.643 192.86 534.584 192.807 534.552 192.738C534.52 192.669 534.518 192.589 534.546 192.518L538.539 182.661C538.594 182.525 538.746 182.456 538.883 182.502L592.69 200.466C592.763 200.49 592.822 200.543 592.854 200.612C592.886 200.682 592.888 200.761 592.859 200.832L588.866 210.69C588.823 210.796 588.719 210.862 588.609 210.862ZM535.17 192.453L588.45 210.24L592.236 200.897L538.955 183.109L535.17 192.453Z" fill="#111111"/>
<path d="M607.988 230.132L530.137 204.141L526.145 213.999L603.995 239.989L607.988 230.132Z" fill="#C42F21"/>
<path d="M603.995 240.266C603.965 240.266 603.936 240.262 603.907 240.252L526.056 214.261C525.984 214.237 525.924 214.184 525.893 214.114C525.861 214.045 525.859 213.965 525.887 213.895L529.88 204.037C529.935 203.902 530.087 203.833 530.224 203.879L608.075 229.869C608.148 229.894 608.207 229.947 608.239 230.016C608.271 230.085 608.273 230.165 608.244 230.236L604.251 240.093C604.208 240.201 604.104 240.266 603.995 240.266ZM526.511 213.829L603.836 239.644L607.621 230.301L530.296 204.486L526.511 213.829Z" fill="#111111"/>
<path d="M420.972 310.089C417.979 309.089 414.668 310.429 413.581 313.112C412.501 315.778 414.067 318.746 417.06 319.745C420.052 320.744 423.365 319.404 424.445 316.739C425.531 314.056 423.964 311.088 420.972 310.089Z" fill="#C42F21"/>
<path d="M419.088 320.351C418.385 320.351 417.67 320.241 416.972 320.008C415.372 319.474 414.08 318.354 413.426 316.936C412.845 315.674 412.808 314.28 413.323 313.008C414.457 310.208 417.927 308.781 421.058 309.826C422.656 310.36 423.948 311.478 424.6 312.894C425.183 314.16 425.219 315.562 424.7 316.843C423.823 319.011 421.533 320.351 419.088 320.351ZM418.942 310.036C416.714 310.036 414.633 311.25 413.837 313.216C413.38 314.344 413.413 315.583 413.929 316.704C414.519 317.984 415.692 318.996 417.147 319.482C420.007 320.436 423.165 319.16 424.188 316.635C424.649 315.498 424.617 314.251 424.098 313.126C423.509 311.848 422.338 310.836 420.884 310.351C420.242 310.137 419.586 310.036 418.942 310.036Z" fill="#111111"/>
<path d="M410.996 334.715C408.003 333.716 404.692 335.056 403.605 337.739C402.526 340.404 404.092 343.372 407.084 344.371C410.077 345.37 413.389 344.031 414.469 341.366C415.556 338.683 413.988 335.714 410.996 334.715Z" fill="#C42F21"/>
<path d="M409.114 344.977C408.411 344.977 407.696 344.867 406.997 344.634C405.397 344.1 404.105 342.98 403.451 341.562C402.87 340.301 402.834 338.906 403.349 337.635C404.483 334.834 407.952 333.406 411.084 334.452C412.682 334.986 413.973 336.104 414.626 337.52C415.209 338.786 415.244 340.188 414.725 341.469C413.848 343.637 411.559 344.977 409.114 344.977ZM408.968 334.662C406.74 334.662 404.659 335.876 403.862 337.842C403.405 338.971 403.438 340.209 403.955 341.331C404.545 342.61 405.717 343.622 407.173 344.108C410.034 345.063 413.19 343.786 414.213 341.262C414.674 340.124 414.642 338.877 414.123 337.752C413.535 336.474 412.363 335.462 410.909 334.977C410.268 334.763 409.612 334.662 408.968 334.662Z" fill="#111111"/>
<path d="M401.021 359.34C398.028 358.341 394.709 359.7 393.63 362.365C392.55 365.03 394.116 367.998 397.109 368.997C400.101 369.996 403.414 368.657 404.493 365.992C405.573 363.327 404.013 360.339 401.021 359.34Z" fill="#C42F21"/>
<path d="M399.138 369.604C398.436 369.604 397.72 369.493 397.021 369.26C395.422 368.726 394.129 367.606 393.476 366.188C392.894 364.927 392.858 363.532 393.373 362.261C394.508 359.46 397.978 358.032 401.108 359.077C402.702 359.609 403.991 360.728 404.645 362.147C405.23 363.417 405.267 364.819 404.75 366.095C403.872 368.263 401.584 369.604 399.138 369.604ZM398.993 359.287C396.764 359.287 394.683 360.502 393.886 362.469C393.43 363.597 393.462 364.836 393.979 365.957C394.569 367.237 395.741 368.249 397.197 368.735C400.058 369.689 403.215 368.412 404.237 365.888C404.696 364.754 404.663 363.509 404.142 362.379C403.552 361.098 402.382 360.086 400.933 359.603C400.293 359.389 399.637 359.287 398.993 359.287Z" fill="#111111"/>
<path d="M521.344 163.177L459.072 142.387L436.607 197.846L498.879 218.635L521.344 163.177Z" fill="#F4B6B0"/>
<path d="M498.879 218.912C498.85 218.912 498.821 218.907 498.792 218.898L436.52 198.108C436.448 198.084 436.388 198.031 436.356 197.962C436.325 197.892 436.323 197.813 436.351 197.742L458.816 142.283C458.87 142.148 459.022 142.079 459.16 142.125L521.431 162.914C521.504 162.939 521.563 162.992 521.595 163.061C521.627 163.13 521.629 163.21 521.601 163.281L499.136 218.739C499.093 218.846 498.989 218.912 498.879 218.912ZM436.975 197.676L498.721 218.29L520.977 163.346L459.231 142.732L436.975 197.676Z" fill="#111111"/>
<path d="M485.719 163.863C479.304 161.721 472.219 164.619 469.897 170.351C467.582 176.065 470.911 182.44 477.326 184.582C483.762 186.73 490.847 183.832 493.162 178.118C495.483 172.386 492.155 166.011 485.719 163.863Z" fill="white"/>
<path d="M481.671 185.564C480.2 185.564 478.703 185.333 477.239 184.844C473.907 183.732 471.215 181.4 469.854 178.448C468.641 175.816 468.565 172.903 469.641 170.247C472.01 164.397 479.263 161.416 485.807 163.6C489.149 164.716 491.847 167.05 493.208 170.004C494.423 172.639 494.497 175.558 493.418 178.222C491.581 182.759 486.79 185.564 481.671 185.564ZM481.39 163.436C476.492 163.436 471.911 166.118 470.154 170.455C469.136 172.968 469.208 175.724 470.357 178.216C471.654 181.031 474.226 183.255 477.414 184.319C483.699 186.418 490.647 183.589 492.905 178.014C493.926 175.494 493.856 172.731 492.706 170.237C491.408 167.42 488.83 165.193 485.632 164.126C484.232 163.658 482.797 163.436 481.39 163.436Z" fill="#111111"/>
<path d="M474.894 190.588C462.697 186.516 449.414 190.641 442.612 199.85L492.872 216.63C494.263 205.614 487.09 194.659 474.894 190.588Z" fill="white"/>
<path d="M492.873 216.907C492.843 216.907 492.814 216.902 492.785 216.893L442.525 200.113C442.441 200.085 442.375 200.018 442.349 199.934C442.322 199.85 442.338 199.757 442.39 199.686C445.749 195.138 450.815 191.688 456.652 189.973C462.663 188.207 469.001 188.329 474.981 190.325C480.965 192.323 485.885 195.962 489.207 200.849C492.436 205.598 493.835 211.215 493.147 216.665C493.137 216.747 493.09 216.82 493.02 216.864C492.976 216.892 492.925 216.907 492.873 216.907ZM443.065 199.71L492.638 216.26C493.211 211.049 491.836 205.7 488.75 201.16C485.496 196.375 480.674 192.809 474.807 190.85C468.935 188.89 462.711 188.77 456.809 190.504C451.218 192.147 446.352 195.409 443.065 199.71Z" fill="#111111"/>
<path d="M571.879 267.448C571.85 267.448 571.82 267.443 571.791 267.433L426.77 219.017C426.625 218.969 426.547 218.812 426.595 218.667C426.644 218.522 426.801 218.444 426.946 218.492L571.966 266.908C572.111 266.957 572.19 267.113 572.141 267.258C572.103 267.374 571.995 267.448 571.879 267.448Z" fill="#111111"/>
<path d="M496.237 265.073C496.208 265.073 496.179 265.069 496.15 265.059L418.607 239.171C418.462 239.123 418.384 238.966 418.432 238.821C418.481 238.676 418.637 238.597 418.782 238.646L496.325 264.534C496.47 264.582 496.548 264.739 496.5 264.884C496.461 265 496.353 265.073 496.237 265.073Z" fill="#111111"/>
<path d="M601.82 300.323C601.791 300.323 601.761 300.318 601.732 300.308L512.117 270.39C511.972 270.342 511.894 270.185 511.942 270.04C511.991 269.895 512.147 269.816 512.292 269.865L601.907 299.783C602.053 299.832 602.131 299.988 602.082 300.133C602.044 300.249 601.936 300.323 601.82 300.323Z" fill="#111111"/>
<path d="M534.029 300.569C534.001 300.569 533.971 300.565 533.942 300.555L410.443 259.325C410.298 259.276 410.22 259.12 410.268 258.975C410.317 258.829 410.473 258.751 410.618 258.8L534.117 300.03C534.262 300.078 534.341 300.235 534.292 300.38C534.253 300.496 534.145 300.569 534.029 300.569Z" fill="#111111"/>
<path d="M439.509 291.893C439.48 291.893 439.45 291.888 439.421 291.878L402.279 279.478C402.134 279.43 402.056 279.273 402.104 279.128C402.152 278.983 402.31 278.904 402.454 278.953L439.597 291.353C439.742 291.402 439.82 291.558 439.771 291.704C439.732 291.819 439.625 291.893 439.509 291.893Z" fill="#111111"/>
<path d="M555.176 330.509C555.147 330.509 555.117 330.504 555.089 330.494L453.605 296.614C453.46 296.565 453.382 296.409 453.43 296.264C453.479 296.119 453.635 296.04 453.781 296.089L555.264 329.969C555.409 330.018 555.487 330.174 555.439 330.319C555.4 330.435 555.292 330.509 555.176 330.509Z" fill="#111111"/>
<path d="M553.888 360.231C553.859 360.231 553.829 360.226 553.8 360.217L437.147 321.272C437.002 321.223 436.924 321.066 436.972 320.921C437.021 320.776 437.177 320.697 437.323 320.746L553.975 359.692C554.12 359.74 554.199 359.897 554.15 360.042C554.111 360.158 554.003 360.231 553.888 360.231Z" fill="#111111"/>
<path d="M509.271 373.292C509.242 373.292 509.212 373.287 509.184 373.278L427.172 345.898C427.027 345.85 426.948 345.693 426.997 345.548C427.045 345.403 427.202 345.324 427.347 345.373L509.359 372.753C509.504 372.801 509.582 372.958 509.534 373.103C509.495 373.219 509.387 373.292 509.271 373.292Z" fill="#111111"/>
<path d="M522.93 405.809C522.901 405.809 522.871 405.804 522.842 405.794L417.196 370.524C417.051 370.476 416.973 370.319 417.021 370.174C417.07 370.029 417.226 369.95 417.371 369.999L523.017 405.269C523.162 405.318 523.24 405.474 523.192 405.619C523.153 405.736 523.045 405.809 522.93 405.809Z" fill="#111111"/>
<path d="M662.386 343.437C662.998 343.889 663.47 344.472 663.758 345.156L678.907 381.12C679.657 382.909 679.031 385.095 677.299 386.725L657.081 405.745C626.845 434.189 589.437 431.232 576.258 426.289C575.801 426.116 575.388 425.893 575.023 425.624C574.658 425.354 574.342 425.039 574.082 424.682C566.608 414.37 558.584 383.77 588.821 355.326L609.039 336.306C610.771 334.676 613.299 333.896 615.521 334.3L660.174 342.508C661.022 342.665 661.774 342.985 662.386 343.437Z" fill="white"/>
<path d="M597.574 429.675C588.322 429.675 580.704 428.165 576.188 426.471C575.717 426.293 575.286 426.061 574.906 425.781C574.524 425.499 574.194 425.168 573.924 424.797C570.255 419.735 566.27 409.363 567.114 396.79C567.812 386.411 572.121 370.767 588.687 355.183L608.904 336.163C610.672 334.5 613.283 333.693 615.556 334.107L660.209 342.315C661.082 342.476 661.854 342.8 662.502 343.278C663.145 343.753 663.642 344.376 663.939 345.079L679.088 381.043C679.866 382.903 679.216 385.189 677.433 386.867L657.215 405.887C640.659 421.462 622.565 426.906 610.302 428.731C605.836 429.395 601.553 429.675 597.574 429.675ZM614.338 334.391C612.493 334.391 610.56 335.142 609.172 336.448L588.954 355.468C572.48 370.965 568.197 386.507 567.505 396.817C566.667 409.285 570.609 419.558 574.24 424.567C574.486 424.906 574.789 425.208 575.138 425.466C575.489 425.725 575.888 425.94 576.326 426.106C587.236 430.198 625.467 435.216 656.946 405.602L677.165 386.582C678.828 385.018 679.441 382.903 678.727 381.195L663.577 345.232C663.304 344.584 662.864 344.033 662.269 343.594C661.669 343.151 660.952 342.85 660.137 342.7L615.484 334.492C615.11 334.424 614.726 334.391 614.338 334.391Z" fill="#0A0A0A"/>
<path d="M657.055 348.449C656.518 348.053 655.858 347.772 655.114 347.635L615.907 340.433C613.955 340.073 611.737 340.759 610.217 342.19L592.468 358.887C565.916 383.865 572.966 410.729 579.526 419.781C579.754 420.095 580.032 420.372 580.353 420.609C580.674 420.846 581.037 421.042 581.436 421.192C593.009 425.534 625.847 428.132 652.398 403.154L670.147 386.456C671.667 385.026 672.218 383.108 671.559 381.539L658.259 349.958C658.007 349.358 657.593 348.846 657.055 348.449Z" fill="#C42F21"/>
<path d="M600.156 424.19C592.03 424.19 585.335 422.863 581.368 421.375C580.955 421.22 580.575 421.015 580.238 420.766C579.9 420.517 579.608 420.224 579.369 419.896C576.145 415.448 572.644 406.336 573.386 395.293C573.997 386.176 577.782 372.435 592.334 358.745L610.083 342.047C611.642 340.581 613.941 339.872 615.942 340.24L655.15 347.442C655.909 347.582 656.608 347.876 657.172 348.292C657.74 348.711 658.178 349.261 658.44 349.882L671.74 381.463C672.428 383.101 671.856 385.118 670.281 386.598L652.532 403.296C637.989 416.978 622.099 421.759 611.33 423.361C607.41 423.944 603.649 424.189 600.156 424.189L600.156 424.19ZM614.862 340.535C613.252 340.535 611.565 341.191 610.352 342.332L592.603 359.03C565.003 384.994 574.265 412.187 579.686 419.666C579.9 419.962 580.165 420.226 580.47 420.451C580.778 420.679 581.126 420.866 581.505 421.008C591.08 424.601 624.633 429.006 652.265 403.011L670.014 386.314C671.468 384.946 672.004 383.102 671.379 381.615L658.08 350.034C657.842 349.47 657.458 348.99 656.94 348.607C656.424 348.226 655.781 347.956 655.079 347.827L615.872 340.625C615.542 340.564 615.204 340.534 614.862 340.534L614.862 340.535Z" fill="#0A0A0A"/>
<path d="M681.99 388.249L678.907 381.12C679.656 382.909 679.031 385.095 677.298 386.725L657.081 405.744C626.844 434.189 589.436 431.232 576.257 426.289C575.801 426.116 575.387 425.893 575.022 425.623C574.658 425.354 574.342 425.039 574.082 424.682C572.993 423.18 571.892 421.247 570.9 418.954L573.984 426.083C574.976 428.377 576.077 430.309 577.165 431.811C577.425 432.168 577.741 432.484 578.106 432.753C578.471 433.022 578.885 433.246 579.341 433.418C592.52 438.362 629.928 441.319 660.164 412.874L680.382 393.854C682.115 392.225 682.74 390.039 681.99 388.249Z" fill="#A01E11"/>
<path d="M600.658 436.804C591.407 436.804 583.788 435.295 579.272 433.601C578.801 433.423 578.37 433.191 577.991 432.91C577.609 432.628 577.279 432.297 577.007 431.926C575.858 430.339 574.75 428.346 573.805 426.161L570.729 419.048C570.726 419.042 570.724 419.037 570.721 419.031C570.678 418.932 570.724 418.817 570.823 418.774C570.921 418.731 571.038 418.776 571.08 418.876C572.015 421.036 573.107 423.004 574.24 424.567C574.487 424.905 574.789 425.208 575.138 425.466C575.489 425.725 575.889 425.94 576.326 426.105C587.237 430.198 625.467 435.216 656.947 405.602L677.165 386.582C678.829 385.017 679.442 382.902 678.727 381.195C678.685 381.096 678.732 380.981 678.831 380.939C678.929 380.898 679.044 380.943 679.087 381.042L682.17 388.171C682.17 388.171 682.17 388.172 682.171 388.173C682.95 390.032 682.3 392.318 680.517 393.997L660.299 413.017C643.743 428.592 625.649 434.036 613.386 435.86C608.92 436.525 604.637 436.804 600.658 436.804V436.804ZM573.146 423.652L574.164 426.005C575.098 428.165 576.191 430.132 577.324 431.696C577.571 432.035 577.873 432.337 578.223 432.595C578.574 432.855 578.973 433.07 579.411 433.235C590.32 437.327 628.551 442.346 660.031 412.731L680.249 393.711C681.913 392.147 682.526 390.032 681.811 388.325L679.411 382.777C679.384 384.201 678.69 385.685 677.433 386.867L657.215 405.887C640.658 421.462 622.565 426.907 610.302 428.731C595.454 430.939 582.646 428.894 576.188 426.472C575.717 426.294 575.286 426.061 574.906 425.781C574.525 425.498 574.194 425.167 573.924 424.797C573.662 424.436 573.402 424.053 573.146 423.652V423.652Z" fill="#0A0A0A"/>
<path d="M426.235 255.742L424.668 265.461C422.84 276.796 416.808 287.511 406.743 295.403C384.4 312.924 350.645 309.897 331.348 288.643C320.74 276.959 316.709 262.201 318.939 248.369L320.505 238.65C318.275 252.482 322.307 267.24 332.915 278.924C352.212 300.178 385.967 303.205 408.31 285.684C418.375 277.792 424.407 267.077 426.235 255.742Z" fill="#A01E11"/>
<path d="M373.079 307.116C357.562 307.116 342.006 300.896 331.093 288.875C320.82 277.561 316.266 262.777 318.598 248.314L320.165 238.595C320.195 238.407 320.373 238.279 320.561 238.309C320.749 238.34 320.877 238.517 320.847 238.705C318.548 252.959 323.04 267.534 333.17 278.692C352.318 299.781 385.93 302.796 408.097 285.412C417.693 277.887 424.013 267.336 425.892 255.701L425.894 255.687C425.925 255.499 426.1 255.37 426.29 255.401C426.478 255.431 426.606 255.608 426.576 255.797L425.009 265.516C423.104 277.328 416.693 288.039 406.956 295.675C397.147 303.367 385.124 307.116 373.079 307.116ZM319.57 246.621L319.28 248.424C316.981 262.678 321.473 277.253 331.603 288.411C350.75 309.5 384.363 312.515 406.53 295.131C416.13 287.604 422.45 277.047 424.327 265.406L424.623 263.57C421.623 272.267 416.072 280.035 408.523 285.956C386.077 303.557 352.045 300.507 332.659 279.156C324.285 269.932 319.711 258.403 319.57 246.621Z" fill="#111111"/>
<path d="M413.829 215.474C433.126 236.728 430.657 268.161 408.31 285.684C385.968 303.205 352.212 300.178 332.915 278.924C313.615 257.666 316.085 226.233 338.427 208.713C360.773 191.189 394.529 194.216 413.829 215.474Z" fill="#F4B6B0"/>
<path d="M374.647 297.397C359.13 297.397 343.574 291.177 332.661 279.157C323.188 268.723 318.598 255.567 319.734 242.112C320.854 228.867 327.417 216.909 338.215 208.441C360.663 190.838 394.698 193.889 414.085 215.242C423.556 225.673 428.145 238.827 427.008 252.281C425.889 265.528 419.324 277.487 408.524 285.956C398.715 293.648 386.692 297.397 374.647 297.397ZM372.098 197.687C360.201 197.687 348.329 201.387 338.641 208.985C327.996 217.333 321.525 229.118 320.423 242.17C319.302 255.432 323.829 268.403 333.172 278.692C352.319 299.781 385.931 302.797 408.098 285.413C418.746 277.063 425.217 265.276 426.321 252.223C427.441 238.962 422.914 225.994 413.574 215.706C402.794 203.832 387.425 197.687 372.098 197.687Z" fill="#111111"/>
<path d="M381.654 218.356C379.355 215.824 374.192 216.354 370.125 219.543C366.058 222.732 364.627 227.373 366.926 229.905C369.225 232.438 374.385 231.904 378.452 228.715C382.519 225.525 383.953 220.888 381.654 218.356Z" fill="#111111"/>
<path d="M371.104 231.838C369.298 231.838 367.71 231.281 366.671 230.138C365.784 229.161 365.382 227.865 365.507 226.391C365.714 223.934 367.361 221.272 369.913 219.271C374.113 215.978 379.495 215.463 381.91 218.124C382.796 219.099 383.199 220.393 383.074 221.866C382.867 224.322 381.219 226.984 378.665 228.986C376.273 230.862 373.497 231.837 371.104 231.838ZM377.473 217.095C375.243 217.095 372.616 218.029 370.339 219.815C367.935 221.7 366.386 224.18 366.194 226.449C366.087 227.728 366.428 228.842 367.182 229.673C369.358 232.07 374.318 231.517 378.239 228.443C380.644 226.557 382.194 224.076 382.386 221.808C382.494 220.532 382.153 219.418 381.399 218.588C380.486 217.582 379.083 217.095 377.473 217.095Z" fill="#111111"/>
<path d="M405.357 244.463C403.059 241.931 397.899 242.465 393.832 245.654C389.765 248.843 388.331 253.48 390.629 256.012C392.928 258.544 398.088 258.01 402.155 254.821C406.222 251.632 407.656 246.995 405.357 244.463Z" fill="#111111"/>
<path d="M394.808 257.945C393.001 257.945 391.413 257.389 390.374 256.245C389.489 255.269 389.086 253.975 389.211 252.502C389.418 250.046 391.066 247.385 393.62 245.382C397.819 242.089 403.2 241.572 405.614 244.231C406.499 245.207 406.902 246.501 406.778 247.974C406.57 250.43 404.922 253.091 402.369 255.094C399.976 256.97 397.2 257.945 394.808 257.945ZM401.182 243.205C398.952 243.205 396.324 244.139 394.046 245.926C391.641 247.812 390.09 250.292 389.899 252.561C389.791 253.837 390.132 254.951 390.885 255.781C393.061 258.177 398.02 257.626 401.942 254.55C404.347 252.664 405.898 250.184 406.089 247.916C406.197 246.639 405.856 245.526 405.102 244.696C404.191 243.691 402.79 243.205 401.182 243.205Z" fill="#111111"/>
<path d="M367.061 252.544C359.546 244.274 348.788 240.197 338.706 241.019C337.241 241.138 336.189 242.348 336.354 243.714C336.414 244.234 336.642 244.703 336.982 245.078C337.536 245.688 338.387 246.048 339.295 245.974C347.523 245.294 356.626 248.651 363.026 255.708C363.03 255.712 363.033 255.716 363.037 255.719C369.179 262.485 371.294 270.955 369.592 278.188C369.407 278.978 369.651 279.773 370.181 280.357C370.545 280.757 371.043 281.059 371.629 281.191C373.065 281.514 374.485 280.696 374.802 279.359C376.873 270.521 374.27 260.492 367.061 252.544Z" fill="#111111"/>
<path d="M372.254 281.606C372.023 281.606 371.788 281.581 371.553 281.528C370.914 281.384 370.352 281.059 369.925 280.589C369.303 279.903 369.052 278.976 369.255 278.109C371.014 270.637 368.594 262.354 362.781 255.951C356.754 249.307 347.772 245.62 339.323 246.319C338.343 246.4 337.372 246.022 336.727 245.31C336.325 244.868 336.077 244.33 336.011 243.755C335.923 243.03 336.132 242.314 336.6 241.742C337.098 241.131 337.856 240.742 338.678 240.675C349.208 239.815 359.914 244.167 367.316 252.312C374.372 260.09 377.295 270.23 375.138 279.438C374.831 280.734 373.612 281.606 372.254 281.606ZM341.373 245.544C349.389 245.544 357.621 249.235 363.282 255.476C369.258 262.058 371.738 270.574 369.928 278.267C369.774 278.922 369.96 279.599 370.437 280.125C370.768 280.489 371.206 280.742 371.705 280.854C372.954 281.135 374.193 280.429 374.466 279.28C376.571 270.294 373.707 260.386 366.805 252.776C359.546 244.788 349.052 240.52 338.734 241.363C338.089 241.415 337.521 241.705 337.135 242.178C336.787 242.604 336.632 243.134 336.696 243.673C336.747 244.105 336.934 244.51 337.237 244.845C337.74 245.399 338.498 245.693 339.266 245.63C339.965 245.572 340.669 245.544 341.373 245.544Z" fill="#111111"/>
<defs>
<linearGradient id="paint0_linear_32_2236" x1="1000" y1="563" x2="518.639" y2="-291.994" gradientUnits="userSpaceOnUse">
<stop stop-color="white"/>
<stop offset="1" stop-color="white" stop-opacity="0"/>
</linearGradient>
</defs>
</svg>
