<svg width="2048" height="2048" viewBox="0 0 2048 2048" fill="none" xmlns="http://www.w3.org/2000/svg">
<g clip-path="url(#clip0_1_40)">
<rect width="2048" height="2048" rx="550" fill="#FE943E"/>
<rect width="2048" height="2048" rx="550" fill="url(#paint0_linear_1_40)" fill-opacity="0.3"/>
<path d="M951.353 750.514L940.765 780.06C934.394 797.84 917.066 809.287 898.207 808.176L584.998 789.72C571.202 788.907 558.654 781.449 551.343 769.716L386.625 505.371C379.789 494.399 378.303 480.921 382.587 468.731L402.373 412.43C408.344 395.438 424.366 384.05 442.38 383.994L601.054 383.496C612.397 383.46 623.289 387.952 631.312 395.976L941.368 706.031C953.02 717.684 956.91 735.009 951.353 750.514ZM951.353 750.514C951.353 750.514 941.477 782.098 936.471 815.07C931.464 848.042 930.044 886.882 930.044 886.882M930.044 886.882L930.041 878.879C930.033 856.331 912.449 837.688 889.94 836.361L580.085 818.103C569.127 817.457 558.346 821.068 549.991 828.182L442.394 919.809C430.405 930.018 425.037 946.016 428.438 961.398L448.636 1052.75C451.636 1066.32 461.064 1077.57 473.895 1082.9L613.512 1140.91C628.143 1146.99 644.934 1144.45 657.098 1134.31L914.739 919.582C924.441 911.496 930.048 899.517 930.044 886.882ZM1170.62 1127.46L1178.62 1127.46C1201.17 1127.47 1219.81 1145.05 1221.14 1167.56L1239.4 1477.42C1240.04 1488.37 1236.43 1499.15 1229.32 1507.51L1137.69 1615.11C1127.48 1627.09 1111.48 1632.46 1096.1 1629.06L1004.75 1608.86C991.182 1605.86 979.927 1596.44 974.596 1583.6L916.588 1443.99C910.509 1429.36 913.053 1412.57 923.191 1400.4L1137.92 1142.76C1146 1133.06 1157.98 1127.45 1170.62 1127.46ZM1170.62 1127.46C1170.62 1127.46 1196.78 1126.97 1239.43 1121.61C1282.08 1116.25 1306.99 1106.15 1306.99 1106.15M1306.99 1106.15L1277.44 1116.73C1259.66 1123.11 1248.21 1140.43 1249.32 1159.29L1267.78 1472.5C1268.59 1486.3 1276.05 1498.85 1287.78 1506.16L1552.13 1670.88C1563.1 1677.71 1576.58 1679.2 1588.77 1674.91L1645.07 1655.13C1662.06 1649.16 1673.45 1633.13 1673.51 1615.12L1674 1456.45C1674.04 1445.1 1669.55 1434.21 1661.52 1426.19L1351.47 1116.13C1339.82 1104.48 1322.49 1100.59 1306.99 1106.15ZM664.525 1459.63L605.534 1400.64C599.76 1394.86 589.882 1397.93 588.399 1405.96L593.278 1460.07C591.987 1467.06 598.105 1473.18 605.095 1471.88L659.207 1476.76C667.233 1475.28 670.299 1465.4 664.525 1459.63ZM671.7 1267.6L788.561 1384.46C792.464 1388.36 812.516 1404.18 817.823 1402.67L821.406 1401.96C832.561 1398.78 836.188 1384.79 827.983 1376.58L679.572 1228.17C671.367 1219.97 657.373 1223.6 654.198 1234.75L653.482 1238.33C651.972 1243.64 667.797 1263.69 671.7 1267.6ZM746.742 1097.57L966.878 1317.7C972.819 1323.64 982.447 1323.65 988.383 1317.71C994.319 1311.77 994.316 1302.15 988.376 1296.21L768.239 1076.07C762.299 1070.13 752.671 1070.13 746.735 1076.06C740.798 1082 740.802 1091.63 746.742 1097.57ZM869.998 988.652L1075.79 1194.45C1081.73 1200.39 1091.36 1200.39 1097.3 1194.45C1103.23 1188.52 1103.23 1178.89 1097.29 1172.95L891.496 967.155C885.555 961.214 875.927 961.211 869.991 967.147C864.055 973.084 864.058 982.712 869.998 988.652ZM1295.06 963.705C1239.66 1019.11 1149.8 1019.08 1094.35 963.638C1038.91 908.195 1038.88 818.335 1094.29 762.929C1149.69 707.523 1239.55 707.553 1295 762.996C1350.44 818.439 1350.47 908.299 1295.06 963.705Z" stroke="white" stroke-width="70"/>
</g>
<defs>
<linearGradient id="paint0_linear_1_40" x1="2048" y1="2048" x2="0" y2="0" gradientUnits="userSpaceOnUse">
<stop stop-color="white"/>
<stop offset="1" stop-color="white" stop-opacity="0"/>
</linearGradient>
<clipPath id="clip0_1_40">
<rect width="2048" height="2048" rx="80" fill="white"/>
</clipPath>
</defs>
</svg>
