<svg width="2048" height="2048" viewBox="0 0 2048 2048" fill="none" xmlns="http://www.w3.org/2000/svg">
<g clip-path="url(#clip0_1_40)">
<rect width="2048" height="2048" rx="550" fill="url(#paint0_linear_1_40)"/>
<path fill-rule="evenodd" clip-rule="evenodd" d="M915.452 390.767C891.033 398 885.136 421.885 883.736 431.924C881.889 445.154 883.55 459.804 887.611 473.513C889.182 478.816 891.13 484.041 893.436 489.039C862.674 499.347 837.6 513.907 817.664 532.205C774.68 571.659 760.948 623.523 760.195 671.212C759.448 718.53 771.306 764.58 782.679 797.823C783.196 799.335 783.714 800.824 784.231 802.29C663.019 801.424 514.004 816.862 405.577 884.858C375.12 903.959 354.219 928.553 342.237 957.354C330.418 985.764 328.137 1016.17 331.279 1046C337.457 1104.67 365.322 1166.97 394.123 1221.36C418.412 1267.22 457.029 1325.33 508.343 1361.85C534.406 1380.4 564.901 1394.2 599.191 1396.87C633.871 1399.56 669.702 1390.64 705.547 1368.17C706.538 1367.55 707.528 1366.93 708.515 1366.3C729.809 1456.1 798.053 1524 860.21 1569.48C898.402 1597.43 936.39 1618.49 964.724 1632.54C978.933 1639.59 990.822 1644.92 999.237 1648.53C1003.45 1650.33 1006.8 1651.71 1009.14 1652.65C1009.8 1652.92 1010.39 1653.15 1010.89 1653.35C1011.27 1653.5 1011.6 1653.63 1011.88 1653.74C1012.07 1653.81 1012.23 1653.87 1012.38 1653.93L1012.66 1654.04L1012.89 1654.12L1012.97 1654.15L1013 1654.16C1013.01 1654.17 1013.02 1654.17 1024.51 1623.77L1013.02 1654.17L1024.51 1658.52L1036 1654.17L1024.51 1623.77C1036 1654.17 1036.01 1654.17 1036.02 1654.16L1036.05 1654.15L1036.13 1654.12L1036.36 1654.04C1036.55 1653.96 1036.81 1653.86 1037.14 1653.74C1037.79 1653.48 1038.71 1653.12 1039.88 1652.65C1042.22 1651.71 1045.57 1650.33 1049.78 1648.53C1058.2 1644.92 1070.09 1639.59 1084.3 1632.54C1112.63 1618.49 1150.62 1597.43 1188.81 1569.48C1250.4 1524.42 1317.97 1457.34 1339.91 1368.74L1339.97 1368.78C1376.13 1391.25 1412.22 1400.13 1447.11 1397.45C1481.62 1394.79 1512.34 1381.02 1538.65 1362.46C1590.45 1325.92 1629.47 1267.75 1654.03 1221.8C1683.13 1167.34 1711.3 1104.92 1717.55 1046.11C1720.73 1016.21 1718.42 985.719 1706.46 957.236C1694.34 928.367 1673.23 903.766 1642.52 884.679C1533.26 816.774 1383.15 801.25 1260.82 802.058C1261.33 800.573 1261.84 799.064 1262.35 797.531C1273.38 764.264 1284.75 718.194 1283.51 670.871C1282.25 623.161 1267.97 571.424 1224.71 532.1C1207.19 516.166 1185.77 503.063 1160.08 493.141C1163.28 486.933 1165.9 480.286 1167.91 473.513C1171.97 459.804 1173.63 445.154 1171.78 431.924C1170.38 421.885 1164.49 398 1140.07 390.767C1115.65 383.533 1097.69 400.354 1091.05 408.01C1082.3 418.1 1075.71 431.291 1071.65 445C1068.94 454.154 1067.3 463.726 1067.06 473.016C1052.51 471.756 1037.16 471.113 1020.97 471.113C1009.72 471.113 998.879 471.423 988.433 472.036C988.105 463.054 986.485 453.832 983.869 445C979.808 431.291 973.222 418.1 964.468 408.01C957.826 400.354 939.872 383.533 915.452 390.767ZM1190.62 804.262C1193.68 796.759 1197.18 787.541 1200.65 777.074C1210.52 747.3 1219.5 709.313 1218.53 672.581C1217.57 636.234 1207.08 603.915 1180.99 580.196C1154.49 556.106 1106.69 536.113 1020.97 536.113C935.223 536.113 887.737 556.118 861.618 580.091C835.919 603.679 825.762 635.872 825.187 672.239C824.607 708.977 833.985 746.983 844.179 776.783C847.857 787.534 851.554 796.967 854.751 804.581C894.681 806.853 930.054 810.47 957.917 813.948C978.067 816.463 994.346 818.913 1005.65 820.746C1011.3 821.662 1015.71 822.425 1018.75 822.966L1019.69 823.135C1019.96 823.182 1020.2 823.227 1020.44 823.27C1020.85 823.195 1021.32 823.109 1021.86 823.014C1022.29 822.936 1022.77 822.851 1023.29 822.759C1026.35 822.219 1030.81 821.455 1036.52 820.538C1047.93 818.703 1064.37 816.251 1084.73 813.733C1113.26 810.203 1149.6 806.53 1190.62 804.262ZM1021 837.206L1021 837.21L1021 837.214L1021.01 837.21L1021 837.206ZM1021.13 944.998C1008.82 976.634 992.16 1015.45 970.698 1057.29C954.591 1088.69 935.626 1122.1 913.58 1155.62C948.925 1143.21 988.228 1134.71 1029.68 1134.71C1064.19 1134.71 1096.43 1140.6 1125.73 1149.76C1105.18 1118.28 1087.37 1087 1072.09 1057.48C1050.4 1015.57 1033.56 976.688 1021.13 944.998ZM671.023 1313.1C695.684 1297.64 718.757 1279.95 740.294 1260.69L740.356 1260.63L740.478 1260.52L740.556 1260.44L740.684 1260.32L740.857 1260.16C741.169 1259.87 741.446 1259.3 741.991 1258.8C743.081 1257.79 744.632 1256.38 746.621 1254.63C748.062 1253.35 749.734 1251.9 751.629 1250.28C821.701 1184.2 874.778 1101.87 912.863 1027.62C938.44 977.759 956.833 932.369 968.812 899.496C971.14 893.107 973.223 887.198 975.067 881.828C967.636 880.759 959.194 879.612 949.865 878.447C911.263 873.629 857.7 868.547 797.856 867.466C676.46 865.275 536.042 879.766 440.111 939.926C420.108 952.47 408.646 966.947 402.251 982.321C395.692 998.086 393.581 1016.96 395.921 1039.19C400.707 1084.64 423.301 1137.56 451.565 1190.94C474.132 1233.55 506.973 1281.09 546.035 1308.9C565.16 1322.51 584.583 1330.54 604.227 1332.06C623.483 1333.56 645.606 1329.03 671.023 1313.1ZM804.219 1291.15C800.667 1293.99 797.57 1296.55 794.959 1298.76C786.034 1307.13 776.838 1315.29 767.366 1323.19C768.571 1338.35 771.653 1352.98 776.308 1367.08C788.275 1358.41 802.473 1348.84 818.529 1339.27C869.943 1308.6 943.088 1276.28 1024.43 1276.28C1106.11 1276.28 1175.16 1308.83 1222.72 1339.99C1241.65 1352.39 1257.51 1364.79 1269.81 1375.28C1275.67 1359.8 1279.64 1343.66 1281.32 1326.86C1272.62 1319.78 1264.14 1312.48 1255.88 1305.01C1255.76 1304.87 1254.31 1303.83 1254 1303.5C1253.37 1302.83 1251.87 1301.9 1250.5 1300.5C1247.75 1297.7 1244.43 1294.85 1238.89 1289.83C1227.8 1279.76 1211.51 1266.24 1191.04 1252.74C1149.76 1225.52 1093.59 1199.71 1029.68 1199.71C965.433 1199.71 904.616 1225.75 858.445 1253.47C835.623 1267.18 817.039 1280.9 804.219 1291.15ZM1237.42 1433.39C1236.74 1432.77 1236.04 1432.12 1235.31 1431.47C1224.13 1421.39 1207.73 1407.88 1187.11 1394.37C1145.53 1367.13 1088.9 1341.28 1024.43 1341.28C959.63 1341.28 898.325 1367.36 851.824 1395.09C833.704 1405.9 818.237 1416.72 806.175 1425.83C822.252 1449.05 842.237 1470.31 864.182 1489.54C871.974 1483.26 881.366 1476.24 892.087 1469.2C924.112 1448.16 971.166 1424.93 1024.51 1424.93C1078.23 1424.93 1122.91 1448.45 1152.8 1470C1163.92 1478.03 1173.36 1486.04 1180.86 1492.98C1201.94 1474.94 1221.35 1455.05 1237.42 1433.39ZM993.603 1574.31C972.372 1563.78 945.517 1549.09 917.727 1530.43C920.891 1528.16 924.244 1525.84 927.768 1523.53C955.025 1505.63 989.373 1489.93 1024.51 1489.93C1059.27 1489.93 1090.68 1505.34 1114.77 1522.72C1119.49 1526.12 1123.82 1529.53 1127.74 1532.8C1101.22 1550.34 1075.74 1564.23 1055.42 1574.31C1042.61 1580.66 1031.95 1585.45 1024.51 1588.64C1017.07 1585.45 1006.41 1580.66 993.603 1574.31ZM1092.71 878.241C1083.18 879.42 1074.56 880.582 1066.99 881.663C1068.85 887.024 1070.94 892.921 1073.29 899.294C1085.39 932.213 1103.97 977.668 1129.82 1027.61C1181.87 1128.18 1261.67 1243.61 1374.27 1313.57C1400.02 1329.57 1422.5 1334.15 1442.12 1332.64C1462.11 1331.1 1481.82 1323 1501.18 1309.35C1540.71 1281.47 1573.9 1233.83 1596.7 1191.17C1625.26 1137.7 1648.08 1084.72 1652.91 1039.25C1655.27 1017.02 1653.14 998.153 1646.53 982.393C1640.07 967.02 1628.49 952.49 1608.2 939.885C1511.14 879.556 1369.1 865.044 1246.39 867.239C1185.88 868.321 1131.73 873.413 1092.71 878.241Z" fill="white"/>
</g>
<defs>
<linearGradient id="paint0_linear_1_40" x1="0" y1="0" x2="2048" y2="2048" gradientUnits="userSpaceOnUse">
<stop stop-color="#00A878"/>
<stop offset="1" stop-color="#5CD5B2"/>
</linearGradient>
<clipPath id="clip0_1_40">
<rect width="2048" height="2048" rx="80" fill="white"/>
</clipPath>
</defs>
</svg>
